<?xml version="1.0" encoding="iso-8859-1"?>
<!-- Uploaded to: SVG Repo, www.svgrepo.com, Generator: SVG Repo Mixer Tools -->
<svg fill="#000000" height="800px" width="800px" version="1.1" id="Layer_1" xmlns="http://www.w3.org/2000/svg" xmlns:xlink="http://www.w3.org/1999/xlink" 
	 viewBox="0 0 491.52 491.52" xml:space="preserve">
<g>
	<g>
		<polygon points="341.834,75.025 254.212,75.025 254.212,153.526 371.893,153.526 		"/>
	</g>
</g>
<g>
	<g>
		<path d="M173.444,170.453c-3.504,9.829-12.81,16.925-23.829,16.925c-5.656,0-10.904,2.793-14.049,7.471
			c-1.876,2.801-2.876,6.074-2.876,9.454c0,0.065-0.018,0.125-0.019,0.19l104.616,273.099V170.453H173.444z"/>
	</g>
</g>
<g>
	<g>
		<path d="M122.285,224.69c-4.21,3.104-9.361,5-14.982,5c-14,0-25.389-11.387-25.389-25.387c0-4.52-1.743-8.752-4.913-11.917
			c-3.231-3.232-7.496-5.008-12.012-5.008c-11.018,0-20.324-7.096-23.828-16.925H0.007l214.875,295.967L122.285,224.69z"/>
	</g>
</g>
<g>
	<g>
		<path d="M56.952,74.992L0,153.526h41.161c3.504-9.83,12.81-16.925,23.828-16.925c9.334,0,16.925-7.596,16.925-16.926
			c0-13.999,11.389-25.387,25.389-25.387c5.613,0,10.758,1.89,14.966,4.987l9.291-24.284H56.952z"/>
	</g>
</g>
<g>
	<g>
		<path d="M149.683,74.992l-17.015,44.473c0.001,0.072,0.022,0.14,0.022,0.212c0,3.282,1.054,6.735,2.893,9.479
			c0.549,0.827,1.219,1.628,2.008,2.414c3.293,3.297,7.446,5.033,12.024,5.033c11.018,0,20.324,7.096,23.829,16.925h63.843V74.992
			H149.683z"/>
	</g>
</g>
<g>
	<g>
		<path d="M463.478,114.874c-2.694,11.125-12.669,19.439-24.61,19.439c-14,0-25.388-11.389-25.388-25.388
			c0-4.611-1.703-8.727-4.917-11.909c-3.339-3.381-7.48-5.1-12.099-5.1c-11.019,0-20.324-7.096-23.828-16.925h-12.69l30.099,78.536
			H491.52L463.478,114.874z"/>
	</g>
</g>
<g>
	<g>
		<polygon points="390.02,170.453 345.783,285.904 276.633,466.386 491.468,170.453 		"/>
	</g>
</g>
<g>
	<g>
		<polygon points="254.212,170.453 254.212,477.594 371.892,170.453 		"/>
	</g>
</g>
<g>
	<g>
		<path d="M122.183,147.002c-2.242-2.242-4.382-4.79-6.217-7.543c-5.403-8.053-8.665-17.94-8.665-28.44
			c0,28.134-22.833,50.968-50.968,50.968c14.068,0,26.809,5.709,36.085,14.984c9.174,9.174,14.882,21.916,14.882,35.983
			c0-10.499,3.262-20.387,8.665-28.44c9.174-13.66,24.769-22.528,42.302-22.528C144.201,161.985,131.459,156.276,122.183,147.002z"
			/>
	</g>
</g>
<g>
	<g>
		<path d="M454.232,51.055c-9.466-9.466-15.356-22.615-15.356-37.13c0,29.032-23.562,52.593-52.698,52.593
			c14.621,0,27.769,5.89,37.235,15.461c9.572,9.469,15.463,22.721,15.463,37.236c0-13.253,4.943-25.453,13.043-34.712
			c9.677-11.042,23.771-17.985,39.549-17.985C476.952,66.518,463.804,60.627,454.232,51.055z"/>
	</g>
</g>
</svg>