<?xml version="1.0" encoding="UTF-8"?>
<svg version="1.1" xmlns="http://www.w3.org/2000/svg" width="2560" height="2040">
<path d="M0 0 C2.64025211 -0.00269585 5.28049261 -0.00618345 7.92074129 -0.01062447 C13.66177594 -0.01869191 19.40277433 -0.01940176 25.14381257 -0.01521258 C33.73852147 -0.00897564 42.33319734 -0.01430562 50.92790384 -0.02181 C65.5790946 -0.03426045 80.23027352 -0.03722474 94.88146877 -0.03497505 C109.72481509 -0.03272458 124.56815138 -0.03479976 139.41149616 -0.04211998 C140.81890848 -0.04280894 140.81890848 -0.04280894 142.25475337 -0.04351182 C146.07635839 -0.04539514 149.89796339 -0.04730652 153.71956837 -0.0492542 C193.56896109 -0.06953358 233.41834818 -0.07566583 273.26774547 -0.07683842 C277.55599028 -0.07696792 281.8442351 -0.07710379 286.13247991 -0.07724524 C287.7287264 -0.07729625 287.7287264 -0.07729625 289.3572203 -0.07734829 C312.94831408 -0.07816552 336.53940679 -0.08254637 360.1305 -0.08755693 C369.84726747 -0.08961367 379.56403495 -0.09159374 389.28080243 -0.09358943 C390.35445465 -0.0938106 391.42810687 -0.09403178 392.53429401 -0.09425966 C454.05464397 -0.1069067 515.57499322 -0.11515802 577.09534454 -0.11424255 C579.39729744 -0.114211 581.69925033 -0.11417952 584.00120323 -0.11414814 C594.39411377 -0.11400137 604.78702431 -0.11382503 615.17993485 -0.11364037 C619.8143068 -0.11355812 624.44867876 -0.11347783 629.08305071 -0.11339774 C631.40263674 -0.11335695 633.72222277 -0.11331491 636.04180881 -0.11327162 C709.3789585 -0.11191133 782.71608887 -0.12654277 856.05323315 -0.15435219 C874.52902661 -0.1613544 893.00482009 -0.1682934 911.48061371 -0.17488098 C913.1871252 -0.1754896 913.1871252 -0.1754896 914.92811167 -0.17611052 C950.00172319 -0.18854375 985.07533313 -0.19607227 1020.14894676 -0.19859695 C1021.2503971 -0.19867686 1022.35184743 -0.19875676 1023.48667505 -0.19883908 C1047.66822818 -0.20054577 1071.84978122 -0.20106798 1096.03133441 -0.20049833 C1104.68435286 -0.20030536 1113.33737132 -0.20020127 1121.99038978 -0.20014087 C1124.14298799 -0.20012504 1126.29558619 -0.20010463 1128.4481844 -0.20007962 C1162.72286277 -0.19972723 1196.99752458 -0.21111269 1231.27219821 -0.22838725 C1265.80210512 -0.24570197 1300.33198912 -0.25005694 1334.86189855 -0.23686461 C1339.63874217 -0.23504015 1344.41558584 -0.23335356 1349.19242954 -0.23174858 C1350.12877424 -0.23142841 1351.06511893 -0.23110823 1352.02983771 -0.23077835 C1366.82525946 -0.22608176 1381.62064146 -0.23476567 1396.41605574 -0.24909095 C1410.98277141 -0.26291247 1425.54942869 -0.26233841 1440.11614312 -0.24670668 C1448.64347087 -0.2379793 1457.17062609 -0.24000174 1465.69793934 -0.25844025 C1471.37899675 -0.26961426 1477.05992689 -0.26597562 1482.74097474 -0.25087469 C1485.95003755 -0.24274205 1489.15870385 -0.24262434 1492.36775677 -0.25637607 C1545.9184524 -0.47031371 1598.77077865 15.76484724 1641.02466869 49.25726891 C1641.85998119 49.90051109 1642.69529369 50.54375328 1643.55591869 51.20648766 C1650.37701301 56.52737294 1656.76579268 62.29331375 1663.02466869 68.25726891 C1663.62504955 68.82896812 1664.22543041 69.40066734 1664.84400463 69.98969078 C1673.23022731 78.03388373 1680.87184685 86.31022897 1687.80884838 95.63568687 C1688.95441731 97.16357219 1690.13310786 98.66646205 1691.31373119 100.16742516 C1717.952016 134.38303125 1734.53783947 176.58613995 1741.02466869 219.25726891 C1741.27889851 220.79481583 1741.27889851 220.79481583 1741.53826427 222.3634243 C1743.62257895 236.9411479 1743.24750474 251.60234497 1743.16159344 266.29009604 C1743.14125639 270.25124454 1743.13452973 274.21241537 1743.12671947 278.17360497 C1743.10283175 289.10378017 1743.05941315 300.03385941 1743.0142622 310.96396446 C1742.96330573 323.30520018 1742.91958013 335.64640802 1742.89966869 347.98773766 C1742.89770123 349.19458481 1742.89770123 349.19458481 1742.89569402 350.42581272 C1742.85408422 380.07423044 1743.49247437 409.64307341 1745.02466869 439.25726891 C1745.06487385 440.04075077 1745.105079 440.82423264 1745.14650249 441.63145638 C1745.6052642 450.47303324 1746.17505323 459.30361196 1746.83716869 468.13226891 C1746.9211491 469.28589928 1747.00512951 470.43952965 1747.09165478 471.62811852 C1753.69246383 561.98857504 1767.15807194 652.61069741 1851.02466869 848.25726891 C1851.58976147 849.05826012 1852.15485424 849.85925133 1852.73707104 850.684515 C1859.93952761 860.83080911 1867.4348795 870.25978104 1876.02466869 879.25726891 C1877.24179713 880.64543983 1878.45112261 882.04052269 1879.64966869 883.44476891 C1886.74728045 891.58515775 1894.55585721 898.57493568 1903.02466869 905.25726891 C1904.00048901 906.05004234 1904.97630932 906.84281578 1905.98169994 907.65961266 C1931.17979832 927.72300419 1961.54158014 941.65457332 1992.83716869 948.94476891 C1993.64025463 949.13498619 1994.44334057 949.32520348 1995.27076244 949.52118492 C2005.13057084 951.71045159 2014.95824779 952.81920878 2025.02466869 954.25726891 C2025.02466869 997.81726891 2025.02466869 1041.37726891 2025.02466869 1086.25726891 C2016.44466869 1087.57726891 2007.86466869 1088.89726891 1999.02466869 1090.25726891 C1977.38453671 1095.09059788 1957.53599973 1101.76869045 1938.02466869 1112.25726891 C1937.36660229 1112.60370445 1936.70853588 1112.95014 1936.03052807 1113.30707359 C1916.65751605 1123.53639829 1899.92130026 1137.27603326 1884.02466869 1152.25726891 C1883.29248119 1152.94691734 1882.56029369 1153.63656578 1881.80591869 1154.34711266 C1877.26160399 1158.7561799 1873.24734922 1163.49736668 1869.29029369 1168.43695641 C1867.8653011 1170.21082649 1866.42000992 1171.96876589 1864.94654369 1173.70258141 C1805.83776162 1243.53851282 1780.28785805 1341.35342129 1745.33716869 1597.13226891 C1745.24589703 1598.74808861 1745.24589703 1598.74808861 1745.15278149 1600.39655113 C1743.57265989 1628.76916449 1742.86764414 1657.09104504 1743.01063442 1685.50125694 C1743.03442843 1690.28229993 1743.04720627 1695.06334002 1743.05832958 1699.84442711 C1743.09118915 1713.41129733 1743.13335602 1726.97809948 1743.19605541 1740.54486656 C1743.23088664 1748.10146426 1743.25448514 1755.65801583 1743.26626384 1763.21468544 C1743.27292968 1767.17776412 1743.28495645 1771.14064269 1743.3112936 1775.10364342 C1743.4559848 1797.44172278 1742.65259902 1819.44189566 1737.33716869 1841.25726891 C1737.08153149 1842.32574059 1736.82589428 1843.39421227 1736.56251049 1844.49506187 C1725.1246022 1890.81262432 1701.85220744 1931.84082628 1669.02466869 1966.25726891 C1668.47117748 1966.83944176 1667.91768627 1967.42161461 1667.3474226 1968.02142906 C1659.66550202 1976.05003443 1651.70819877 1983.30257712 1642.79127026 1989.93500328 C1641.02645811 1991.25592956 1639.28660384 1992.60508727 1637.54810619 1993.96039391 C1627.33451886 2001.81624296 1616.37623358 2008.19053334 1605.02466869 2014.25726891 C1604.26234936 2014.66719078 1603.50003002 2015.07711266 1602.7146101 2015.49945641 C1580.91942472 2027.02301417 1556.30271875 2034.3663997 1532.02466869 2038.25726891 C1530.98541706 2038.42890399 1529.94616543 2038.60053908 1528.87542132 2038.77737523 C1515.95375978 2040.65967718 1503.08875687 2040.53629807 1490.05378151 2040.5117445 C1487.41402442 2040.51413661 1484.77427888 2040.51732138 1482.13452503 2040.5214611 C1476.39459321 2040.52887263 1470.65469854 2040.52892245 1464.91476452 2040.52407161 C1456.32176796 2040.51684561 1447.72880325 2040.52120734 1439.13580753 2040.52775296 C1424.48767203 2040.53857094 1409.83954939 2040.53991384 1395.19141102 2040.53605461 C1380.3512937 2040.53217605 1365.51118597 2040.53263702 1350.67106915 2040.53836441 C1349.73300229 2040.53872324 1348.79493543 2040.53908206 1347.8284423 2040.53945176 C1344.00769338 2040.54092671 1340.18694448 2040.54243111 1336.36619559 2040.54397323 C1297.59578497 2040.55960306 1258.82538094 2040.56228773 1220.05496774 2040.55981716 C1214.69899859 2040.55947871 1209.34302945 2040.55915662 1203.98706031 2040.55885148 C1202.92320935 2040.55879044 1201.85935839 2040.55872939 1200.76326952 2040.5586665 C1177.18019727 2040.55739426 1153.59712592 2040.55999662 1130.01405394 2040.56337755 C1124.62815017 2040.56414829 1119.2422464 2040.56489302 1113.85634263 2040.56564256 C1111.6947325 2040.56594425 1109.53312237 2040.56624614 1107.37151224 2040.5665482 C1106.30003473 2040.56669788 1105.22855721 2040.56684756 1104.12461068 2040.56700178 C1101.95729521 2040.56730531 1099.78997973 2040.56760999 1097.62266425 2040.56791582 C1036.12774128 2040.57658864 974.6328191 2040.58123294 913.13789558 2040.57696819 C911.99927207 2040.57689014 910.86064855 2040.57681208 909.68752129 2040.57673166 C896.99083899 2040.57585887 884.29415669 2040.5749296 871.59747439 2040.57398102 C870.45116495 2040.57389552 869.30485551 2040.57381001 868.12380942 2040.57372191 C858.59931865 2040.57301114 858.59931865 2040.57301114 854.21652024 2040.57267968 C780.90004198 2040.5671443 707.58357632 2040.57468498 634.26710033 2040.59345055 C615.79441582 2040.59817283 597.32173129 2040.60285337 578.84904671 2040.60728741 C577.71158343 2040.60756073 576.57412015 2040.60783405 575.40218829 2040.60811566 C540.33991684 2040.6164881 505.27764644 2040.62116673 470.21537399 2040.62199497 C468.56395118 2040.62203452 468.56395118 2040.62203452 466.87916629 2040.62207487 C442.70972802 2040.62261568 418.54028982 2040.62224315 394.37085157 2040.62103516 C385.72242582 2040.62060954 377.07400008 2040.62024441 368.42557433 2040.61990572 C366.27410073 2040.61982041 364.12262713 2040.61973148 361.97115354 2040.6196389 C327.70372979 2040.61819074 293.43631461 2040.62531243 259.16889292 2040.63664286 C223.69103719 2040.64829754 188.21319674 2040.6488515 152.73534095 2040.63679943 C148.9229192 2040.63554763 145.11049745 2040.63434414 141.29807568 2040.63317871 C140.36245825 2040.63288842 139.42684082 2040.63259812 138.46287135 2040.63229903 C123.66778577 2040.62797917 108.87272195 2040.63369481 94.07763979 2040.6436189 C79.51797691 2040.65317271 64.95834751 2040.65195879 50.39868656 2040.63941268 C41.87110542 2040.63238193 33.3436207 2040.63344884 24.81604652 2040.64676106 C19.13991522 2040.65479309 13.46385632 2040.65178446 7.78773158 2040.64011142 C4.57824546 2040.63381054 1.36898315 2040.63359359 -1.84049862 2040.64367863 C-21.72849341 2040.70187619 -41.32103537 2039.42089303 -60.66283131 2034.50726891 C-62.21296925 2034.1221212 -62.21296925 2034.1221212 -63.7944231 2033.72919273 C-106.90165867 2022.70114332 -144.15635021 1999.9669305 -175.97533131 1969.25726891 C-176.91634693 1968.35750328 -177.85736256 1967.45773766 -178.82689381 1966.53070641 C-184.7003777 1960.8026958 -189.91077077 1954.70544649 -194.97533131 1948.25726891 C-195.76681568 1947.27113609 -196.55830006 1946.28500328 -197.37376881 1945.26898766 C-232.44809337 1900.84519803 -253.34717562 1844.30789155 -253.05711842 1787.55756187 C-253.05355273 1786.10836963 -253.05046939 1784.65917614 -253.04782581 1783.20998192 C-253.04131016 1780.10216218 -253.0317707 1776.99437202 -253.01993084 1773.88656807 C-253.00137887 1768.91550673 -252.99196515 1763.94445199 -252.98401356 1758.97336388 C-252.96155983 1745.71517179 -252.93046438 1732.45700577 -252.88781863 1719.19886273 C-252.7581912 1678.83854053 -252.66643602 1638.56890946 -254.97533131 1598.25726891 C-255.02920002 1597.3035968 -255.08306873 1596.3499247 -255.13856983 1595.36735344 C-259.21571617 1523.36204993 -267.66187317 1451.57127595 -283.97533131 1381.25726891 C-284.13432911 1380.56907066 -284.29332691 1379.88087242 -284.45714283 1379.17181969 C-294.38107542 1336.32904044 -307.88899622 1294.36256398 -325.97533131 1254.25726891 C-326.40168873 1253.30674644 -326.82804615 1252.35622398 -327.26732349 1251.37689781 C-346.92125614 1207.88419435 -375.22154752 1165.14153048 -412.97533131 1135.25726891 C-413.95244068 1134.46320641 -414.92955006 1133.66914391 -415.93626881 1132.85101891 C-441.13711636 1112.79190599 -471.49209044 1098.85999997 -502.78783131 1091.56976891 C-503.59091724 1091.37955162 -504.39400318 1091.18933434 -505.22142506 1090.99335289 C-515.08123345 1088.80408622 -524.9089104 1087.69532904 -534.97533131 1086.25726891 C-534.97533131 1042.69726891 -534.97533131 999.13726891 -534.97533131 954.25726891 C-526.39533131 952.93726891 -517.81533131 951.61726891 -508.97533131 950.25726891 C-487.33519932 945.42393994 -467.48666234 938.74584737 -447.97533131 928.25726891 C-446.9882317 927.73761559 -446.9882317 927.73761559 -445.98119068 927.20746422 C-435.62437981 921.73886795 -426.23465234 915.41522307 -416.97533131 908.25726891 C-416.08330006 907.57922203 -415.19126881 906.90117516 -414.27220631 906.20258141 C-407.1245501 900.64585513 -400.53796066 894.48273161 -393.97533131 888.25726891 C-393.21994068 887.54441734 -392.46455006 886.83156578 -391.68626881 886.09711266 C-387.18308227 881.72848348 -383.2148915 877.02752504 -379.29955006 872.12836266 C-377.818173 870.29842629 -376.30275738 868.49517551 -374.74486256 866.72992516 C-361.00516399 851.05700267 -350.21086567 832.73225784 -340.21703053 814.51459312 C-339.13358436 812.54496213 -338.0302755 810.5888691 -336.91673756 808.63617516 C-292.60700273 728.9523485 -274.82994733 633.00716124 -255.28783131 446.69476891 C-255.22680225 445.67523125 -255.1657732 444.65569359 -255.10289478 443.60526085 C-253.50283826 416.47505257 -252.83081643 389.41934518 -252.96129704 362.24986076 C-252.98499141 357.25875176 -252.99784284 352.26764575 -253.0089922 347.27649498 C-253.04192455 333.10873639 -253.0839357 318.9410419 -253.14671803 304.77338219 C-253.18155144 296.89231288 -253.20515044 289.01128788 -253.21692646 281.1301496 C-253.22359595 276.9931763 -253.235637 272.85639452 -253.26195621 268.71949577 C-253.40461362 245.7099515 -252.85370768 222.86514553 -247.35033131 200.38226891 C-247.09654713 199.32459312 -246.84276295 198.26691734 -246.58128834 197.17719078 C-234.68555888 149.31255052 -211.10632385 107.58619041 -176.97533131 72.25726891 C-176.47469166 71.73471519 -175.97405201 71.21216148 -175.45824146 70.67377281 C-169.03306884 63.98572234 -162.31807866 57.92030281 -154.97533131 52.25726891 C-154.4292522 51.83477867 -153.8831731 51.41228844 -153.32054615 50.97699547 C-143.33186107 43.30115496 -132.87644919 36.56152985 -121.97533131 30.25726891 C-120.94351734 29.65785484 -120.94351734 29.65785484 -119.89085865 29.04633141 C-96.01984954 15.34994495 -69.08997778 6.63662403 -41.97533131 2.25726891 C-40.95299982 2.08818392 -39.93066834 1.91909894 -38.87735711 1.74489018 C-25.93610559 -0.14029153 -13.05489922 -0.02304755 0 0 Z " fill="#7C11F7" transform="translate(534.9753313064575,-0.25726890563964844)"/>
<path d="M0 0 C489.59298217 0 489.59298217 0 520 4.75 C520.85219116 4.88138367 521.70438232 5.01276733 522.58239746 5.14813232 C578.08067867 13.75336519 635.02946 33.02410363 679 69 C679.91523437 69.72445312 680.83046875 70.44890625 681.7734375 71.1953125 C689.17689593 77.11383657 696.12573126 83.48286644 703 90 C703.75410156 90.7115625 704.50820312 91.423125 705.28515625 92.15625 C710.6728464 97.38327344 715.32083459 103.14072761 720 109 C720.65871094 109.79148437 721.31742188 110.58296875 721.99609375 111.3984375 C745.95004172 140.41307871 761.6123647 176.12554128 769.50146484 212.69677734 C769.83115751 214.219951 770.16988818 215.74119922 770.51806641 217.26025391 C784.39010811 277.80359861 772.97603529 344.91386188 740.37353516 397.62988281 C729.95944642 414.02302899 718.46197659 429.01925745 705 443 C704.49823242 443.52368164 703.99646484 444.04736328 703.47949219 444.58691406 C696.72508764 451.60193872 689.72941694 458.05567298 682 464 C681.02861084 464.76135254 681.02861084 464.76135254 680.03759766 465.53808594 C653.10162068 486.56398184 612.437595 511 577 511 C577 511.66 577 512.32 577 513 C578.51086182 512.96592041 578.51086182 512.96592041 580.05224609 512.93115234 C583.892444 512.99812426 587.38526625 513.43702077 591.1640625 514.1015625 C591.8297525 514.21828812 592.4954425 514.33501373 593.18130493 514.45527649 C595.33087268 514.83650839 597.47807897 515.22914837 599.625 515.625 C600.3619812 515.7597171 601.0989624 515.8944342 601.85827637 516.03323364 C614.15625948 518.29744892 626.09121975 521.15953793 638 525 C639.73431446 525.53925723 641.46869083 526.07831541 643.203125 526.6171875 C680.03757422 538.27077479 715.21306941 556.64744477 743.73828125 582.921875 C745.79026416 584.80728935 747.88151954 586.62770033 750 588.4375 C757.62602776 595.11219231 764.48120335 602.3126494 770.79296875 610.23828125 C772.22489254 612.03008677 773.68461728 613.80015413 775.17578125 615.54296875 C791.67944086 634.91937905 803.88994493 658.35050646 813 682 C813.27005859 682.68271973 813.54011719 683.36543945 813.81835938 684.06884766 C821.97356726 704.82435513 826.05233908 726.97148048 829 749 C829.10530029 749.74822021 829.21060059 750.49644043 829.3190918 751.26733398 C830.40520949 760.1889461 830.19864402 769.21501926 830.1875 778.1875 C830.18659363 779.52849258 830.18659363 779.52849258 830.18566895 780.89657593 C830.16034038 794.69832813 829.74099131 808.29514919 828 822 C827.82259277 823.52463867 827.82259277 823.52463867 827.64160156 825.08007812 C823.77440339 857.80857972 814.30623931 889.34147378 800 919 C799.47865479 920.0837793 799.47865479 920.0837793 798.94677734 921.18945312 C787.58406245 944.46495263 771.95871353 965.4259108 754 984 C753.36868164 984.65323242 752.73736328 985.30646484 752.08691406 985.97949219 C744.1190024 994.17891702 736.10850512 1002.05723999 727 1009 C725.81238918 1009.92824365 724.62489715 1010.85663929 723.4375 1011.78515625 C674.50030681 1049.64689475 615.68853717 1070.34801762 555.39257812 1081.37890625 C552.61863613 1081.88674364 549.84811792 1082.40874813 547.078125 1082.9375 C373.56505051 1115.0377186 117.39101102 1090 0 1090 C0 730.3 0 370.6 0 0 Z " fill="#F7F0FD" transform="translate(887,475)"/>
<path d="M0 0 C40.26 -0.04125 80.52 -0.0825 122 -0.125 C134.65601563 -0.14320801 147.31203125 -0.16141602 160.3515625 -0.18017578 C175.94921875 -0.18920898 175.94921875 -0.18920898 183.27880859 -0.19088745 C188.33742063 -0.1927314 193.39598959 -0.20014788 198.45458984 -0.21115112 C267.8005994 -0.35530656 267.8005994 -0.35530656 297.8125 4.25 C298.52738586 4.35704254 299.24227173 4.46408508 299.9788208 4.57437134 C342.62813652 10.98046264 385.76177521 23.25498411 419 52 C419.81597656 52.69480469 420.63195313 53.38960937 421.47265625 54.10546875 C449.93925341 78.9642437 466.81984787 114.45321909 470 152 C470.15013165 155.41306844 470.18693999 158.82218952 470.203125 162.23828125 C470.20882507 163.19913132 470.21452515 164.15998138 470.22039795 165.14994812 C470.22979558 167.17783528 470.23636094 169.20573735 470.24023438 171.23364258 C470.24985275 174.2660763 470.28089067 177.2978054 470.3125 180.33007812 C470.40185745 196.64064115 469.10065547 212.74301336 464.375 228.4375 C463.99649902 229.71790161 463.99649902 229.71790161 463.61035156 231.02416992 C456.88300952 252.90402998 446.55693893 272.20140316 431 289 C430.50129395 289.54253418 430.00258789 290.08506836 429.48876953 290.64404297 C397.3450818 325.22209014 350.84826636 340.19619297 305.5 347.75 C304.32848389 347.94867676 303.15696777 348.14735352 301.94995117 348.35205078 C280.68652602 351.71193395 259.32182086 352.29321499 237.83569336 352.22705078 C235.17938369 352.22643626 232.52308486 352.22662006 229.86677647 352.2277813 C223.54244983 352.22883112 217.21818144 352.21973038 210.89386964 352.20677864 C203.55591343 352.19220979 196.21797654 352.19078002 188.88000488 352.18920898 C169.56582755 352.17876698 150.25166286 352.15084446 130.9375 352.125 C66.1234375 352.063125 66.1234375 352.063125 0 352 C0 235.84 0 119.68 0 0 Z " fill="#7711F1" transform="translate(1065,1070)"/>
<path d="M0 0 C39.744375 -0.04125 79.48875 -0.0825 120.4375 -0.125 C132.94841553 -0.14320801 145.45933105 -0.16141602 158.34936523 -0.18017578 C173.72473145 -0.18920898 173.72473145 -0.18920898 180.94154358 -0.19088745 C185.94046332 -0.19273729 190.9393398 -0.20017811 195.93824768 -0.21115112 C202.34467708 -0.22502416 208.75104496 -0.22895407 215.15748799 -0.22614455 C217.48988921 -0.22673072 219.82229292 -0.23060384 222.15468109 -0.23843026 C242.11335265 -0.30220873 262.16269883 0.45286558 281.875 3.8125 C282.90197998 3.98354248 283.92895996 4.15458496 284.98706055 4.33081055 C327.6885596 11.72700616 370.09203097 30.10499012 396.07714844 66.17919922 C409.24798011 85.07256286 417.02057078 107.04615903 419.6875 129.875 C419.81342529 130.95144775 419.93935059 132.02789551 420.0690918 133.13696289 C424.28757421 172.06867158 417.28576033 214.79458265 393.01953125 246.52734375 C389.49881731 250.83800511 385.82763917 254.96006111 382 259 C381.17886719 259.88558594 380.35773438 260.77117187 379.51171875 261.68359375 C362.4240924 279.53067016 340.78951043 291.06426948 318 300 C317.18692383 300.32097656 316.37384766 300.64195312 315.53613281 300.97265625 C295.56641048 308.7300941 274.82779462 312.79705426 253.6875 315.8125 C252.95014618 315.91782043 252.21279236 316.02314087 251.45309448 316.13165283 C234.8793228 318.46928518 218.68212729 319.1435374 201.96166992 319.11352539 C199.71733 319.11321861 197.47298997 319.11335331 195.22865009 319.11389065 C189.25000247 319.11411525 183.2713751 319.10834386 177.29273224 319.10128021 C171.67061809 319.09556072 166.04850871 319.09531576 160.4263916 319.09460449 C144.01342508 319.08936928 127.60046228 319.07540803 111.1875 319.0625 C74.495625 319.041875 37.80375 319.02125 0 319 C0 213.73 0 108.46 0 0 Z " fill="#7C12F2" transform="translate(1064,617)"/>
</svg>
