<?xml version="1.0" encoding="UTF-8"?>
<svg version="1.1" xmlns="http://www.w3.org/2000/svg" width="276" height="182">
<path d="M0 0 C91.08 0 182.16 0 276 0 C276 60.06 276 120.12 276 182 C184.92 182 93.84 182 0 182 C0 121.94 0 61.88 0 0 Z " fill="#F6F7F7" transform="translate(0,0)"/>
<path d="M0 0 C0 0.66 0 1.32 0 2 C0.721875 2.2475 1.44375 2.495 2.1875 2.75 C7.3377388 5.03899502 11.21049637 8.88568178 15 13 C15 13.66 15 14.32 15 15 C15.66 15 16.32 15 17 15 C18.71007711 17.3850279 20.27912651 19.75395415 21.8125 22.25 C22.26246338 22.9821875 22.71242676 23.714375 23.17602539 24.46875 C35.04182068 44.14545927 37.78580463 64.99066394 32.33300781 87.21899414 C27.01042936 106.92725949 13.91926005 123.94333783 -3.75 134.25 C-24.30010849 145.69998558 -45.91894985 147.58619267 -68.375 141.3125 C-90.07941873 134.33516017 -105.5210054 119.10894907 -116.02734375 99.26171875 C-124.94867218 81.11592032 -125.13555504 59.92948445 -119.25 40.875 C-115.76195722 31.10590601 -110.59192055 22.9472687 -104 15 C-103.51015625 14.37609375 -103.0203125 13.7521875 -102.515625 13.109375 C-101.3943386 11.6978733 -100.20402106 10.34162346 -99 9 C-98.34 9 -97.68 9 -97 9 C-97 8.34 -97 7.68 -97 7 C-94.94573882 5.43555543 -92.89843344 3.98635471 -90.75 2.5625 C-86.32356604 -0.35234259 -86.32356604 -0.35234259 -82.13671875 -3.58984375 C-78.72817071 -5.83936083 -74.9328308 -6.88773762 -71.0625 -8.125 C-70.26392578 -8.38925781 -69.46535156 -8.65351563 -68.64257812 -8.92578125 C-44.8078277 -16.70613889 -21.62470982 -11.22821471 0 0 Z " fill="#51C8C6" transform="translate(182,25)"/>
<path d="M0 0 C0.99 0 1.98 0 3 0 C1.75548945 4.05178294 0.26899672 7.5708847 -1.86328125 11.23046875 C-2.69956055 12.68356445 -2.69956055 12.68356445 -3.55273438 14.16601562 C-4.13345703 15.16310547 -4.71417969 16.16019531 -5.3125 17.1875 C-6.45913357 19.15742426 -7.60109275 21.13007702 -8.73828125 23.10546875 C-9.24399658 23.97324951 -9.74971191 24.84103027 -10.27075195 25.73510742 C-12.73152459 30.38114901 -14.82443896 35.21376572 -17 40 C-5.12 40 6.76 40 19 40 C17.8132754 44.74689841 16.49659716 45.69765209 12.875 48.875 C11.77262247 49.8558556 10.67109895 50.83767162 9.5703125 51.8203125 C8.98668945 52.33754883 8.40306641 52.85478516 7.80175781 53.38769531 C4.74007336 56.12744654 1.74741373 58.94034373 -1.25 61.75 C-1.87447021 62.33354248 -2.49894043 62.91708496 -3.14233398 63.51831055 C-6.46239601 66.62099508 -9.77747925 69.72894404 -13.08984375 72.83984375 C-14.45569157 74.12243587 -15.82157677 75.40498819 -17.1875 76.6875 C-17.85265625 77.31213135 -18.5178125 77.9367627 -19.203125 78.58032227 C-24.27893374 83.3401444 -29.39841772 88.04939935 -34.546875 92.73046875 C-36.14327946 94.20739708 -37.69899545 95.72997929 -39.203125 97.30078125 C-41 99 -41 99 -43 99 C-42.59921519 93.67675559 -39.61070504 90.41602454 -36.4375 86.375 C-35.33803207 84.94179703 -34.23907483 83.50820216 -33.140625 82.07421875 C-32.60244141 81.37731934 -32.06425781 80.68041992 -31.50976562 79.96240234 C-25.5575077 72.22562207 -20.25153639 64.25241432 -15 56 C-27.54 56 -40.08 56 -53 56 C-53.495 54.515 -53.495 54.515 -54 53 C-53.54241302 52.61428329 -53.08482605 52.22856659 -52.6133728 51.8311615 C-46.66853196 46.73391717 -41.16453188 41.26062771 -35.6640625 35.69140625 C-34.69416825 34.71455109 -33.72389552 33.7380716 -32.75326538 32.76194763 C-28.66692067 28.65135364 -24.58655674 24.53485808 -20.51025391 20.41430664 C-18.00246399 17.87981249 -15.48988582 15.35014885 -12.97425461 12.82343864 C-12.0194417 11.86241178 -11.06653129 10.89949087 -10.11555862 9.93466377 C-8.79462517 8.5946188 -7.46705715 7.2611234 -6.13916016 5.92797852 C-5.38607574 5.16743668 -4.63299133 4.40689484 -3.85708618 3.62330627 C-2 2 -2 2 0 2 C0 1.34 0 0.68 0 0 Z " fill="#F8FCFD" transform="translate(155,41)"/>
<path d="M0 0 C0 0.66 0 1.32 0 2 C0.721875 2.2475 1.44375 2.495 2.1875 2.75 C7.3377388 5.03899502 11.21049637 8.88568178 15 13 C15 13.66 15 14.32 15 15 C15.66 15 16.32 15 17 15 C18.71000899 17.3849329 20.27859352 19.75441868 21.8125 22.25 C22.48526978 23.33958008 22.48526978 23.33958008 23.17163086 24.45117188 C28.2504712 32.84302143 32.42756798 41.07784507 33 51 C32.34 51 31.68 51 31 51 C29.86235649 46.73383684 29 43.43513689 29 39 C28.34 39 27.68 39 27 39 C26.85304687 38.44570313 26.70609375 37.89140625 26.5546875 37.3203125 C25.85614134 35.06408869 25.15091434 33.06574368 24 31 C20.95978632 29.40004618 20.95978632 29.40004618 18 29 C18 27.02 18 25.04 18 23 C15.69 23 13.38 23 11 23 C10.48801749 20.44008744 9.98202393 17.88957558 9.5625 15.3125 C9.16906013 12.82242883 9.16906013 12.82242883 7 11 C4.89179203 11.3185177 4.89179203 11.3185177 3 12 C2.62875 10.741875 2.2575 9.48375 1.875 8.1875 C0.58463012 4.66547593 0.17727896 4.11123386 -3.1875 2 C-4.115625 1.67 -5.04375 1.34 -6 1 C-6 0.34 -6 -0.32 -6 -1 C-6.763125 -1.144375 -7.52625 -1.28875 -8.3125 -1.4375 C-11 -2 -11 -2 -14 -3 C-14.33 -2.34 -14.66 -1.68 -15 -1 C-15.99 -1.495 -15.99 -1.495 -17 -2 C-18.67654729 -1.72057545 -20.34608154 -1.39171753 -22 -1 C-22.495 -4.465 -22.495 -4.465 -23 -8 C-23.85722656 -8.06058594 -24.71445313 -8.12117188 -25.59765625 -8.18359375 C-36.07195446 -8.95115788 -36.07195446 -8.95115788 -40.0625 -9.625 C-42.84617991 -9.98036339 -44.38078699 -9.8418899 -47 -9 C-47.99 -9 -48.98 -9 -50 -9 C-51.85537388 -8.87042708 -53.7095346 -8.7228765 -55.5625 -8.5625 C-57.01849609 -8.44068359 -57.01849609 -8.44068359 -58.50390625 -8.31640625 C-60.99464623 -8.14067077 -60.99464623 -8.14067077 -63 -7 C-63.825 -6.9175 -64.65 -6.835 -65.5 -6.75 C-66.325 -6.5025 -67.15 -6.255 -68 -6 C-69.37466625 -3.52363988 -69.37466625 -3.52363988 -70 -1 C-72.66666667 -1 -75.33333333 -1 -78 -1 C-79.40415072 -0.2612701 -80.7765712 0.53887748 -82.125 1.375 C-82.84945312 1.81585938 -83.57390625 2.25671875 -84.3203125 2.7109375 C-84.87460938 3.13632812 -85.42890625 3.56171875 -86 4 C-86 4.66 -86 5.32 -86 6 C-87.11375 6.37125 -88.2275 6.7425 -89.375 7.125 C-91.3375129 7.87879409 -91.3375129 7.87879409 -93 9 C-93.69100553 10.99172182 -94.35902703 12.99161804 -95 15 C-96.485 15.4640625 -96.485 15.4640625 -98 15.9375 C-98.99 16.288125 -99.98 16.63875 -101 17 C-102.46022435 20.52451159 -102.46022435 20.52451159 -103 24 C-103.66 23.34 -104.32 22.68 -105 22 C-108.16299302 23.69449476 -108.16299302 23.69449476 -109 26.5625 C-109.33 27.366875 -109.66 28.17125 -110 29 C-111.485 29.495 -111.485 29.495 -113 30 C-112.47467178 25.66604217 -111.03854442 23.38044853 -108.25 20.0625 C-107.53070313 19.20011719 -106.81140625 18.33773437 -106.0703125 17.44921875 C-105.04550781 16.23685547 -105.04550781 16.23685547 -104 15 C-103.48179688 14.34644531 -102.96359375 13.69289063 -102.4296875 13.01953125 C-101.33502102 11.6397271 -100.17442134 10.31258856 -99 9 C-98.34 9 -97.68 9 -97 9 C-97 8.34 -97 7.68 -97 7 C-94.94573882 5.43555543 -92.89843344 3.98635471 -90.75 2.5625 C-86.32356604 -0.35234259 -86.32356604 -0.35234259 -82.13671875 -3.58984375 C-78.72817071 -5.83936083 -74.9328308 -6.88773762 -71.0625 -8.125 C-70.26392578 -8.38925781 -69.46535156 -8.65351563 -68.64257812 -8.92578125 C-44.8078277 -16.70613889 -21.62470982 -11.22821471 0 0 Z " fill="#82C8CD" transform="translate(182,25)"/>
<path d="M0 0 C2.3125 2.4375 2.3125 2.4375 4 5 C6.46823091 5.82704005 6.46823091 5.82704005 9 6 C9.82757813 6.25330078 9.82757813 6.25330078 10.671875 6.51171875 C14.02188424 7.21432136 17.3449277 7.10433926 20.75 7.0625 C21.44738281 7.05798828 22.14476562 7.05347656 22.86328125 7.04882812 C24.57555803 7.0371002 26.28779033 7.01916653 28 7 C28.33 6.01 28.66 5.02 29 4 C33.95 3.34 38.9 2.68 44 2 C44 1.34 44 0.68 44 0 C46.97 0 49.94 0 53 0 C53.495 0.99 53.495 0.99 54 2 C53.34 2 52.68 2 52 2 C52 2.66 52 3.32 52 4 C32.13113279 12.20237805 10.95699504 11.96578921 -9 4 C-10.875 2.37109375 -10.875 2.37109375 -12 1 C-8.30071041 -0.8496448 -4.02776138 -0.60907611 0 0 Z " fill="#3AC0B4" transform="translate(116,160)"/>
<path d="M0 0 C0.5775 0.2475 1.155 0.495 1.75 0.75 C2.23152858 6.20732391 0.1344644 9.90110805 -3.08984375 14.20703125 C-8.80149459 20.6206727 -14.93828142 26.20487764 -22.25 30.75 C-23.24 30.75 -24.23 30.75 -25.25 30.75 C-25.25 26.46 -25.25 22.17 -25.25 17.75 C-23.27 17.75 -21.29 17.75 -19.25 17.75 C-19.25 18.74 -19.25 19.73 -19.25 20.75 C-18.59 20.75 -17.93 20.75 -17.25 20.75 C-16.92 19.76 -16.59 18.77 -16.25 17.75 C-15.528125 17.646875 -14.80625 17.54375 -14.0625 17.4375 C-10.94946508 16.67653591 -8.81994002 15.6590983 -6.25 13.75 C-6.25 12.76 -6.25 11.77 -6.25 10.75 C-6.91 10.42 -7.57 10.09 -8.25 9.75 C-5.42647059 -0.60294118 -5.42647059 -0.60294118 0 0 Z " fill="#47C4B2" transform="translate(201.25,128.25)"/>
<path d="M0 0 C0.99 0 1.98 0 3 0 C2.814375 0.845625 2.62875 1.69125 2.4375 2.5625 C1.96470368 6.2773282 2.33935369 9.32974273 3 13 C0.61426621 14.89213369 -1.07175348 16.02391783 -4 17 C-4.84419031 18.90154787 -4.84419031 18.90154787 -5.375 21.1875 C-6.78959473 25.89288877 -8.75841677 28.35321887 -12 32 C-12.99 33.98 -13.98 35.96 -15 38 C0.84 38.495 0.84 38.495 17 39 C17 39.66 17 40.32 17 41 C5.12 41 -6.76 41 -19 41 C-18.22984347 37.14921733 -17.73858212 35.11709535 -15.99609375 31.84765625 C-15.58858887 31.07744141 -15.18108398 30.30722656 -14.76123047 29.51367188 C-14.32439941 28.70478516 -13.88756836 27.89589844 -13.4375 27.0625 C-12.99293457 26.22654297 -12.54836914 25.39058594 -12.09033203 24.52929688 C-8.68083849 18.1558202 -5.10192384 11.89413323 -1.3984375 5.6875 C0.23079815 3.06138299 0.23079815 3.06138299 0 0 Z " fill="#71C8C8" transform="translate(157,40)"/>
<path d="M0 0 C12.54 0 25.08 0 38 0 C36.28605109 4.28487228 34.68649671 7.09557432 32 10.75 C31.29875 11.71421875 30.5975 12.6784375 29.875 13.671875 C28 16 28 16 26 17 C26.33 14.69 26.66 12.38 27 10 C28.32 10 29.64 10 31 10 C30.67 9.01 30.34 8.02 30 7 C30.33 6.67 30.66 6.34 31 6 C28.525 5.505 28.525 5.505 26 5 C26 4.67 26 4.34 26 4 C25.35450195 3.97494385 24.70900391 3.9498877 24.04394531 3.92407227 C21.11244106 3.80785567 18.18123783 3.68524558 15.25 3.5625 C14.23421875 3.52318359 13.2184375 3.48386719 12.171875 3.44335938 C10.70234375 3.38051758 10.70234375 3.38051758 9.203125 3.31640625 C8.30239258 3.27974854 7.40166016 3.24309082 6.47363281 3.20532227 C4.20403661 3.01693593 2.18437113 2.62633499 0 2 C0 1.34 0 0.68 0 0 Z " fill="#58C4C1" transform="translate(102,97)"/>
<path d="M0 0 C0.33 1.32 0.66 2.64 1 4 C1.75539062 3.9175 2.51078125 3.835 3.2890625 3.75 C6 4 6 4 7.7734375 5.625 C11.33819698 10.91127748 14.26662021 16.31955771 16.875 22.125 C17.32238525 23.10919922 17.32238525 23.10919922 17.77880859 24.11328125 C19.76957223 28.7603288 20.56252239 32.9633988 21 38 C20.34 38 19.68 38 19 38 C17.86235649 33.73383684 17 30.43513689 17 26 C16.34 26 15.68 26 15 26 C14.85304687 25.44570313 14.70609375 24.89140625 14.5546875 24.3203125 C13.85614134 22.06408869 13.15091434 20.06574368 12 18 C8.95978632 16.40004618 8.95978632 16.40004618 6 16 C6 14.02 6 12.04 6 10 C3.69 10 1.38 10 -1 10 C-2.15837626 5.94568308 -1.83691257 3.78187881 0 0 Z " fill="#6DCBCB" transform="translate(194,38)"/>
<path d="M0 0 C0 3 0 3 -1.45117188 4.52758789 C-2.11697266 5.06633545 -2.78277344 5.60508301 -3.46875 6.16015625 C-8.0705791 10.0163186 -12.28236551 14.16909769 -16.5 18.4375 C-17.22703125 19.16904297 -17.9540625 19.90058594 -18.703125 20.65429688 C-20.47109499 22.43389824 -22.23666378 24.21580918 -24 26 C-25 24 -25 24 -24.1875 21 C-23 18 -23 18 -21 16 C-20.01 16 -19.02 16 -18 16 C-18.33 15.01 -18.66 14.02 -19 13 C-18.38125 12.731875 -17.7625 12.46375 -17.125 12.1875 C-14.7004767 11.04443152 -14.7004767 11.04443152 -13 8 C-12.34 8 -11.68 8 -11 8 C-11 6.35 -11 4.7 -11 3 C-4.5 0 -4.5 0 0 0 Z " fill="#77C3C3" transform="translate(155,40)"/>
<path d="M0 0 C0.33 1.32 0.66 2.64 1 4 C2.65 4 4.3 4 6 4 C5.30261719 4.69480469 4.60523438 5.38960938 3.88671875 6.10546875 C1.89611645 8.09466774 -0.07756553 10.09919545 -2.04296875 12.11328125 C-3.09110033 13.17973223 -4.13927786 14.24613804 -5.1875 15.3125 C-5.98704102 16.13717773 -5.98704102 16.13717773 -6.80273438 16.97851562 C-8.16424956 18.35715678 -9.57840502 19.68339727 -11 21 C-11.66 21 -12.32 21 -13 21 C-12.45499233 17.280958 -11.57039456 14.98061612 -9.27734375 12.01171875 C-8.73916016 11.30595703 -8.20097656 10.60019531 -7.64648438 9.87304688 C-7.08251953 9.15181641 -6.51855469 8.43058594 -5.9375 7.6875 C-5.36966797 6.94693359 -4.80183594 6.20636719 -4.21679688 5.44335938 C-2.8189781 3.62267106 -1.41331191 1.80867058 0 0 Z " fill="#E5FCFC" transform="translate(125,119)"/>
<path d="M0 0 C1.65 0 3.3 0 5 0 C0.0510009 5.95982408 -5.27609206 11.45942623 -10.75 16.9375 C-11.61238281 17.81212891 -12.47476563 18.68675781 -13.36328125 19.58789062 C-14.59884766 20.82635742 -14.59884766 20.82635742 -15.859375 22.08984375 C-16.60670898 22.84128662 -17.35404297 23.59272949 -18.12402344 24.36694336 C-20 26 -20 26 -22 26 C-22.33 26.66 -22.66 27.32 -23 28 C-23.33 26.68 -23.66 25.36 -24 24 C-19.25 20 -19.25 20 -17 20 C-16.34 18.35 -15.68 16.7 -15 15 C-13.68 15 -12.36 15 -11 15 C-11 14.01 -11 13.02 -11 12 C-10.01 12 -9.02 12 -8 12 C-7.855625 11.38125 -7.71125 10.7625 -7.5625 10.125 C-7 8 -7 8 -6 6 C-5.34 6 -4.68 6 -4 6 C-4 5.34 -4 4.68 -4 4 C-3.01 3.67 -2.02 3.34 -1 3 C-0.67 2.01 -0.34 1.02 0 0 Z " fill="#70C2C0" transform="translate(123,68)"/>
<path d="M0 0 C0.33 0 0.66 0 1 0 C1.1875 3.3125 1.1875 3.3125 1 7 C0.5359375 7.45246094 0.071875 7.90492187 -0.40625 8.37109375 C-6.40137113 14.4984602 -5.28519269 27.93836251 -5.3125 35.9375 C-5.32059692 37.41138184 -5.32059692 37.41138184 -5.32885742 38.91503906 C-5.27548095 44.35665443 -4.6875778 48.83721259 -3 54 C-2.875 57.4375 -2.875 57.4375 -3 60 C-10.55683719 48.66474421 -8.91270601 31.93244194 -6.703125 19.1484375 C-5.22192102 12.51593525 -3.1748071 6.02362955 0 0 Z " fill="#6DC2BB" transform="translate(67,56)"/>
<path d="M0 0 C1.74544347 2.61816521 2.68469696 4.65160616 3.75 7.5625 C5.59071348 12.33162128 7.99424119 16.43197011 10.828125 20.67578125 C12.16369018 23.32465219 12.22794739 25.07294824 12 28 C9 28 9 28 7.35546875 26.79296875 C5.67064209 24.56433637 5.51297571 23.07906484 5.3125 20.3125 C5.24675781 19.50425781 5.18101563 18.69601563 5.11328125 17.86328125 C5.05720703 16.94095703 5.05720703 16.94095703 5 16 C3.35 15.67 1.7 15.34 0 15 C-1.46726798 11.18510326 -0.43336419 8.70988378 1 5 C0.34 5 -0.32 5 -1 5 C-0.67 3.35 -0.34 1.7 0 0 Z " fill="#F7FCFD" transform="translate(62,113)"/>
<path d="M0 0 C2.97 0 5.94 0 9 0 C9.495 0.99 9.495 0.99 10 2 C9.34 2 8.68 2 8 2 C8 2.66 8 3.32 8 4 C4.29583874 6.37590142 1.07015427 6.20500286 -3.25 6.125 C-4.51328125 6.10695312 -5.7765625 6.08890625 -7.078125 6.0703125 C-8.04234375 6.04710937 -9.0065625 6.02390625 -10 6 C-10 6.66 -10 7.32 -10 8 C-14.62 8 -19.24 8 -24 8 C-24 7.67 -24 7.34 -24 7 C-21.36 7 -18.72 7 -16 7 C-15.67 6.01 -15.34 5.02 -15 4 C-10.05 3.34 -5.1 2.68 0 2 C0 1.34 0 0.68 0 0 Z " fill="#27C8B8" transform="translate(160,160)"/>
<path d="M0 0 C0.33 0.66 0.66 1.32 1 2 C0.01 3.98 -0.98 5.96 -2 8 C13.84 8.495 13.84 8.495 30 9 C30 9.66 30 10.32 30 11 C18.12 11 6.24 11 -6 11 C-5.12495039 6.62475197 -4.45180005 4.53059208 -2 1 C-1.34 0.67 -0.68 0.34 0 0 Z " fill="#66BFBB" transform="translate(144,70)"/>
<path d="M0 0 C0 3.62361106 -0.80164832 4.2317053 -3 7 C-3.7734375 8.3303125 -3.7734375 8.3303125 -4.5625 9.6875 C-6 12 -6 12 -8 13 C-0.813608 13.89924358 6.32709949 14.29646056 13.5625 14.5625 C14.66658203 14.60568359 15.77066406 14.64886719 16.90820312 14.69335938 C19.60537185 14.79844387 22.30261703 14.90059413 25 15 C25 15.33 25 15.66 25 16 C12.46 16 -0.08 16 -13 16 C-13.33 15.01 -13.66 14.02 -14 13 C-13.49210937 12.56429687 -12.98421875 12.12859375 -12.4609375 11.6796875 C-8.13240118 7.93477405 -3.99693056 4.09685382 0 0 Z " fill="#CAF7F7" transform="translate(115,81)"/>
<path d="M0 0 C1.9375 0.3125 1.9375 0.3125 4 1 C4.33 1.99 4.66 2.98 5 4 C5.75925781 4.04898437 6.51851562 4.09796875 7.30078125 4.1484375 C8.29464844 4.22320313 9.28851563 4.29796875 10.3125 4.375 C11.79169922 4.47941406 11.79169922 4.47941406 13.30078125 4.5859375 C16 5 16 5 19 7 C17.73285156 7.06058594 16.46570313 7.12117187 15.16015625 7.18359375 C13.46093036 7.26808565 11.761712 7.35272919 10.0625 7.4375 C8.81629883 7.49647461 8.81629883 7.49647461 7.54492188 7.55664062 C1.99634986 7.83730769 -3.48371637 8.33760065 -9 9 C-9 8.01 -9 7.02 -9 6 C-7.88625 5.566875 -6.7725 5.13375 -5.625 4.6875 C-1.82487666 3.30088881 -1.82487666 3.30088881 0 0 Z " fill="#E5F7F9" transform="translate(125,6)"/>
<path d="M0 0 C1.98 0 3.96 0 6 0 C6 0.99 6 1.98 6 3 C6.66 3 7.32 3 8 3 C8.33 2.01 8.66 1.02 9 0 C9.99 0 10.98 0 12 0 C11.75 2.375 11.75 2.375 11 5 C9.0625 6.25 9.0625 6.25 7 7 C6.01 7.495 6.01 7.495 5 8 C5 8.66 5 9.32 5 10 C3.35 9.67 1.7 9.34 0 9 C0 6.03 0 3.06 0 0 Z " fill="#36C6BE" transform="translate(176,146)"/>
<path d="M0 0 C0.33 0.66 0.66 1.32 1 2 C1.66 2 2.32 2 3 2 C3 1.34 3 0.68 3 0 C3.66 0 4.32 0 5 0 C7.0263374 6.59339016 7.0263374 11.40660984 5 18 C3.35 18.33 1.7 18.66 0 19 C-0.33 20.65 -0.66 22.3 -1 24 C-1.33 24 -1.66 24 -2 24 C-1.85962479 22.18706911 -1.71255111 20.3746557 -1.5625 18.5625 C-1.48128906 17.55316406 -1.40007813 16.54382813 -1.31640625 15.50390625 C-1 13 -1 13 0 12 C1.66617115 11.95936168 3.33388095 11.957279 5 12 C4.67 9.69 4.34 7.38 4 5 C2.68 5 1.36 5 0 5 C0 3.35 0 1.7 0 0 Z " fill="#F0F1EF" transform="translate(50,80)"/>
<path d="M0 0 C1.98 0 3.96 0 6 0 C6.33 1.65 6.66 3.3 7 5 C7.99 5.33 8.98 5.66 10 6 C10.33 4.02 10.66 2.04 11 0 C11.33 0 11.66 0 12 0 C12.24954005 1.43410368 12.47392642 2.87260072 12.6875 4.3125 C12.81511719 5.11300781 12.94273438 5.91351563 13.07421875 6.73828125 C13 9 13 9 11.51953125 10.79296875 C11.01808594 11.19128906 10.51664063 11.58960937 10 12 C8.68 11.34 7.36 10.68 6 10 C6 8.68 6 7.36 6 6 C4.02 6 2.04 6 0 6 C0 4.02 0 2.04 0 0 Z " fill="#F0EFF1" transform="translate(49,104)"/>
<path d="M0 0 C10.56 0 21.12 0 32 0 C30.80305696 4.78777214 28.50508081 6.64314677 24.9375 9.75 C24.36966797 10.25660156 23.80183594 10.76320313 23.21679688 11.28515625 C21.8180135 12.53113136 20.40989267 13.76660973 19 15 C19 12 19 12 20.4609375 10.17578125 C21.40839844 9.25345703 21.40839844 9.25345703 22.375 8.3125 C23.00148437 7.68988281 23.62796875 7.06726563 24.2734375 6.42578125 C26 5 26 5 28 5 C28 4.01 28 3.02 28 2 C14.14 1.505 14.14 1.505 0 1 C0 0.67 0 0.34 0 0 Z " fill="#D9FDFD" transform="translate(142,81)"/>
<path d="M0 0 C-1.21280661 1.34823166 -2.44598091 2.67816082 -3.6875 4 C-4.37199219 4.7425 -5.05648437 5.485 -5.76171875 6.25 C-8.41336988 8.3231932 -9.7171341 8.36795695 -13 8 C-13 7.34 -13 6.68 -13 6 C-13.66 5.67 -14.32 5.34 -15 5 C-9.78382582 -0.70139969 -9.78382582 -0.70139969 -6.375 -2 C-3.67569258 -2 -2.3406897 -1.26416996 0 0 Z " fill="#44C7C1" transform="translate(144,120)"/>
<path d="M0 0 C-1.32451172 0.4021875 -1.32451172 0.4021875 -2.67578125 0.8125 C-10.38202765 3.32882535 -16.23689337 6.1140636 -22.59765625 11.328125 C-25.13971108 13.09722983 -26.95362781 13.63074276 -30 14 C-30 11 -30 11 -28.4375 9.375 C-25.32729266 7.62052407 -22.52655246 7.33909158 -19 7 C-19 6.01 -19 5.02 -19 4 C-4.82872928 -1.46961326 -4.82872928 -1.46961326 0 0 Z " fill="#E9FAFB" transform="translate(116,16)"/>
<path d="M0 0 C0.33 0.99 0.66 1.98 1 3 C0.21625 3.2475 -0.5675 3.495 -1.375 3.75 C-4.32317108 5.15389099 -4.9024777 6.00675737 -6 9 C-7.65 8.67 -9.3 8.34 -11 8 C-11 6.68 -11 5.36 -11 4 C-9.68 3.67 -8.36 3.34 -7 3 C-7.33 2.34 -7.66 1.68 -8 1 C-5.36 0.67 -2.72 0.34 0 0 Z M-13 8 C-12.34 8 -11.68 8 -11 8 C-11 9.98 -11 11.96 -11 14 C-12.98 14 -14.96 14 -17 14 C-16.67 12.68 -16.34 11.36 -16 10 C-15.01 10 -14.02 10 -13 10 C-13 9.34 -13 8.68 -13 8 Z " fill="#F1EFF0" transform="translate(152,168)"/>
<path d="M0 0 C0.5775 0.2475 1.155 0.495 1.75 0.75 C1.94667385 4.29012923 1.99329772 6.89489381 -0.25 9.75 C-5.43918919 11.15540541 -5.43918919 11.15540541 -8.25 9.75 C-5.42647059 -0.60294118 -5.42647059 -0.60294118 0 0 Z " fill="#3FC5C2" transform="translate(201.25,128.25)"/>
<path d="M0 0 C1.32 0 2.64 0 4 0 C4.33 2.64 4.66 5.28 5 8 C7.90600261 9.25664978 9.79604584 10 13 10 C12.814375 10.556875 12.62875 11.11375 12.4375 11.6875 C11.92448835 14.399133 12.3359276 16.34371039 13 19 C10.125 18.375 10.125 18.375 7 17 C5.875 14.3125 5.875 14.3125 5 11 C4.34563895 9.77340418 3.65652427 8.56484444 2.9375 7.375 C1.42236525 4.73573302 0.47068969 2.94181057 0 0 Z " fill="#3EC6BB" transform="translate(67,120)"/>
<path d="M0 0 C2.25 0.25 2.25 0.25 4 1 C3.44144101 4.34419295 2.59587791 5.79319375 -0.125 7.8125 C-3.22773144 9.91953087 -3.94000401 10.00285695 -7.9375 9.8125 C-8.948125 9.544375 -9.95875 9.27625 -11 9 C-10.67 8.01 -10.34 7.02 -10 6 C-8 5.33333333 -6 4.66666667 -4 4 C-2.948125 2.9171875 -2.948125 2.9171875 -1.875 1.8125 C-1.25625 1.214375 -0.6375 0.61625 0 0 Z " fill="#2DCCBC" transform="translate(120,135)"/>
<path d="M0 0 C6.15082145 5.39030773 9.87616727 14.79748314 10.875 22.875 C10.936875 24.421875 10.936875 24.421875 11 26 C10.34 26 9.68 26 9 26 C7.86235649 21.73383684 7 18.43513689 7 14 C6.34 14 5.68 14 5 14 C4.80664062 13.43410156 4.61328125 12.86820313 4.4140625 12.28515625 C4.15367187 11.55167969 3.89328125 10.81820312 3.625 10.0625 C3.36976563 9.33160156 3.11453125 8.60070312 2.8515625 7.84765625 C2.14728587 5.81317884 2.14728587 5.81317884 0 5 C0 3.35 0 1.7 0 0 Z " fill="#78C4C2" transform="translate(204,50)"/>
<path d="M0 0 C0.33 1.32 0.66 2.64 1 4 C-0.0828125 4.556875 -0.0828125 4.556875 -1.1875 5.125 C-4.4999266 7.3332844 -6.53756601 9.88955706 -9 13 C-9.98290968 14.01680311 -10.97334787 15.02738219 -12 16 C-11.34 16.33 -10.68 16.66 -10 17 C-10.66 17 -11.32 17 -12 17 C-12.33 17.66 -12.66 18.32 -13 19 C-14.65 18.67 -16.3 18.34 -18 18 C-13.78377806 12.78519918 -9.20483691 8.34850037 -4.171875 3.91796875 C-2.7419098 2.65517574 -1.34897122 1.34897122 0 0 Z " fill="#59C5BE" transform="translate(166,90)"/>
<path d="M0 0 C2.31 0 4.62 0 7 0 C7.103125 0.78375 7.20625 1.5675 7.3125 2.375 C7.77595022 5.33045181 7.77595022 5.33045181 11 7 C9.02 7.99 9.02 7.99 7 9 C7 8.01 7 7.02 7 6 C5.02 6 3.04 6 1 6 C1 6.66 1 7.32 1 8 C-0.32 7.67 -1.64 7.34 -3 7 C-2.01 6.34 -1.02 5.68 0 5 C0.25030977 2.41619823 0.25030977 2.41619823 0 0 Z " fill="#F0F0F0" transform="translate(232,104)"/>
<path d="M0 0 C3.3 0 6.6 0 10 0 C2.37756856 5.08162096 -10.09897141 4.8823177 -19 4 C-19.99 3.34 -20.98 2.68 -22 2 C-14.74 2 -7.48 2 0 2 C0 1.34 0 0.68 0 0 Z " fill="#53C7B6" transform="translate(150,166)"/>
<path d="M0 0 C0.33 0 0.66 0 1 0 C1.45734597 4.69900568 -0.13122142 8.14595745 -2.1875 12.25 C-2.47947266 12.88679687 -2.77144531 13.52359375 -3.07226562 14.1796875 C-3.98046875 16.015625 -3.98046875 16.015625 -6 19 C-8.73828125 19.921875 -8.73828125 19.921875 -11 20 C-10.484375 19.113125 -9.96875 18.22625 -9.4375 17.3125 C-6.17255792 11.60769146 -3.10197121 5.79441251 0 0 Z " fill="#E0FCFC" transform="translate(211,120)"/>
<path d="M0 0 C0.33 0.66 0.66 1.32 1 2 C0.236875 2.721875 -0.52625 3.44375 -1.3125 4.1875 C-4.044086 6.83926978 -4.044086 6.83926978 -5.6875 9.8125 C-6.120625 10.534375 -6.55375 11.25625 -7 12 C-7.66 12 -8.32 12 -9 12 C-9.66 14.31 -10.32 16.62 -11 19 C-11.33 18.34 -11.66 17.68 -12 17 C-13.32 16.67 -14.64 16.34 -16 16 C-10.72 10.72 -5.44 5.44 0 0 Z " fill="#DEFAFB" transform="translate(148,48)"/>
<path d="M0 0 C0.33 0 0.66 0 1 0 C1.1875 3.3125 1.1875 3.3125 1 7 C0.5359375 7.4228125 0.071875 7.845625 -0.40625 8.28125 C-2.84076076 10.90670278 -3.01910333 13.71820299 -3.6875 17.1875 C-3.93886719 18.45980469 -4.19023438 19.73210937 -4.44921875 21.04296875 C-4.63097656 22.01878906 -4.81273437 22.99460937 -5 24 C-5.66 24 -6.32 24 -7 24 C-6.35379001 15.59927019 -3.959706 7.45774224 0 0 Z " fill="#7EC6C8" transform="translate(67,56)"/>
<path d="M0 0 C4.84920351 1.42742734 9.67318202 2.87082188 14.4375 4.5625 C19.51570618 6.29163831 24.71275308 7.15997012 30 8 C30 8.33 30 8.66 30 9 C22.73345617 9.35773754 16.85984178 8.13884464 9.9375 6 C8.97650391 5.71382812 8.01550781 5.42765625 7.02539062 5.1328125 C4.6800847 4.43272118 2.33873512 3.7216778 0 3 C0 2.01 0 1.02 0 0 Z " fill="#C4FAF7" transform="translate(101,161)"/>
<path d="M0 0 C1.0625 1.875 1.0625 1.875 2 4 C1 6 1 6 -1.4375 6.875 C-4.13605515 7.77050152 -4.13605515 7.77050152 -5.3125 10.125 C-5.539375 10.74375 -5.76625 11.3625 -6 12 C-6.99 11.67 -7.98 11.34 -9 11 C-8.67 9.35 -8.34 7.7 -8 6 C-6.68 6 -5.36 6 -4 6 C-3.67 4.35 -3.34 2.7 -3 1 C-2.01 0.67 -1.02 0.34 0 0 Z " fill="#F0F0EE" transform="translate(72,37)"/>
<path d="M0 0 C0.99 0.33 1.98 0.66 3 1 C3 2.65 3 4.3 3 6 C2.38511719 6.25394531 1.77023438 6.50789062 1.13671875 6.76953125 C0.32847656 7.11371094 -0.47976562 7.45789063 -1.3125 7.8125 C-2.11300781 8.14894531 -2.91351563 8.48539063 -3.73828125 8.83203125 C-5.96515745 9.98200704 -7.34987767 11.13626961 -9 13 C-9.66 12.34 -10.32 11.68 -11 11 C-10.45730469 10.54109375 -9.91460937 10.0821875 -9.35546875 9.609375 C-8.64003906 8.99578125 -7.92460937 8.3821875 -7.1875 7.75 C-6.47980469 7.14671875 -5.77210938 6.5434375 -5.04296875 5.921875 C-3.08110329 4.07629602 -1.54330375 2.20054668 0 0 Z " fill="#D3F8F8" transform="translate(199,140)"/>
<path d="M0 0 C1.2065625 0.2475 1.2065625 0.2475 2.4375 0.5 C4.97658116 1.26597109 4.97658116 1.26597109 7 0 C7 0.99 7 1.98 7 3 C6.01 3.33 5.02 3.66 4 4 C3.505 4.845625 3.01 5.69125 2.5 6.5625 C2.005 7.366875 1.51 8.17125 1 9 C0.01 9 -0.98 9 -2 9 C-1.125 1.125 -1.125 1.125 0 0 Z " fill="#43C8C1" transform="translate(121,112)"/>
<path d="M0 0 C0.99 0.495 0.99 0.495 2 1 C2 1.66 2 2.32 2 3 C3.65 2.67 5.3 2.34 7 2 C6.67 4.64 6.34 7.28 6 10 C5.01 9.67 4.02 9.34 3 9 C3 10.65 3 12.3 3 14 C2.67 14 2.34 14 2 14 C1.34 9.38 0.68 4.76 0 0 Z " fill="#E7F2F8" transform="translate(214,70)"/>
<path d="M0 0 C0 3.10551666 -0.5393715 4.35261084 -2 7 C-2.66 7 -3.32 7 -4 7 C-4 7.66 -4 8.32 -4 9 C-6.73352513 12.34097516 -8.71193127 13.52354792 -13 14 C-8.88380164 9.08064098 -4.59589638 4.47352044 0 0 Z " fill="#DFFBFD" transform="translate(129,67)"/>
<path d="M0 0 C0.33 1.98 0.66 3.96 1 6 C0.05125 6.309375 -0.8975 6.61875 -1.875 6.9375 C-4.86080408 7.87394742 -4.86080408 7.87394742 -7 9 C-7 8.34 -7 7.68 -7 7 C-7.66 6.67 -8.32 6.34 -9 6 C-7.68 6 -6.36 6 -5 6 C-5 4.35 -5 2.7 -5 1 C-2 0 -2 0 0 0 Z " fill="#ECF0F0" transform="translate(189,18)"/>
<path d="M0 0 C0.66 0 1.32 0 2 0 C1.52277765 4.29500117 -0.83313492 6.24620428 -4 9 C-6.28608517 10.46252654 -8.59737662 11.72802292 -11 13 C-10.25 11.0625 -10.25 11.0625 -9 9 C-6.875 8.25 -6.875 8.25 -5 8 C-5.33 7.01 -5.66 6.02 -6 5 C-5.38125 4.731875 -4.7625 4.46375 -4.125 4.1875 C-1.7004767 3.04443152 -1.7004767 3.04443152 0 0 Z " fill="#68C9C8" transform="translate(142,48)"/>
<path d="M0 0 C0.33 0.66 0.66 1.32 1 2 C1.66 2 2.32 2 3 2 C3.38091797 2.90492187 3.38091797 2.90492187 3.76953125 3.828125 C5.87447309 8.80825792 5.87447309 8.80825792 8.8125 13.3125 C9.204375 13.869375 9.59625 14.42625 10 15 C9.57421875 17.10546875 9.57421875 17.10546875 9 19 C0 4.26213592 0 4.26213592 0 0 Z " fill="#5BBDB4" transform="translate(64,117)"/>
<path d="M0 0 C1.98 0 3.96 0 6 0 C6.38218767 1.65614657 6.71395102 3.32457024 7 5 C6 6 6 6 2.9375 6.0625 C1.4834375 6.0315625 1.4834375 6.0315625 0 6 C0 4.02 0 2.04 0 0 Z " fill="#FCFCFD" transform="translate(49,110)"/>
<path d="M0 0 C1.98 0 3.96 0 6 0 C6 1.98 6 3.96 6 6 C4.02 6 2.04 6 0 6 C0 4.02 0 2.04 0 0 Z " fill="#EFEFEF" transform="translate(233,153)"/>
<path d="M0 0 C1.98 0 3.96 0 6 0 C6 1.98 6 3.96 6 6 C4.02 6 2.04 6 0 6 C0 4.02 0 2.04 0 0 Z " fill="#EFEFEF" transform="translate(49,153)"/>
<path d="M0 0 C0.33 0 0.66 0 1 0 C1.24954005 1.43410368 1.47392642 2.87260072 1.6875 4.3125 C1.81511719 5.11300781 1.94273438 5.91351563 2.07421875 6.73828125 C2 9 2 9 0.51953125 10.79296875 C0.01808594 11.19128906 -0.48335937 11.58960937 -1 12 C-2.32 11.34 -3.64 10.68 -5 10 C-4.67 8.68 -4.34 7.36 -4 6 C-3.01 6 -2.02 6 -1 6 C-0.67 4.02 -0.34 2.04 0 0 Z " fill="#DDF2EE" transform="translate(60,104)"/>
<path d="M0 0 C9.24 0 18.48 0 28 0 C27.34 1.65 26.68 3.3 26 5 C25.67 3.68 25.34 2.36 25 1 C16.75 1 8.5 1 0 1 C0 0.67 0 0.34 0 0 Z " fill="#5DBAB6" transform="translate(112,97)"/>
<path d="M0 0 C1.98 0 3.96 0 6 0 C6 1.98 6 3.96 6 6 C4.02 6 2.04 6 0 6 C0 4.02 0 2.04 0 0 Z " fill="#FDFDFD" transform="translate(233,49)"/>
<path d="M0 0 C1.98 0 3.96 0 6 0 C6 1.98 6 3.96 6 6 C4.02 6 2.04 6 0 6 C0 4.02 0 2.04 0 0 Z " fill="#FDFDFD" transform="translate(49,49)"/>
<path d="M0 0 C1.98 0 3.96 0 6 0 C6 1.98 6 3.96 6 6 C4.02 6 2.04 6 0 6 C0 4.02 0 2.04 0 0 Z " fill="#EFF0F0" transform="translate(129,0)"/>
<path d="M0 0 C1.32 0.33 2.64 0.66 4 1 C3.52797514 5.24822374 1.03344482 7.19989709 -2 10 C-1.979375 9.21625 -1.95875 8.4325 -1.9375 7.625 C-1.81315937 5.01885039 -1.81315937 5.01885039 -3 3 C-2.34 3 -1.68 3 -1 3 C-0.67 2.01 -0.34 1.02 0 0 Z " fill="#E9FBFC" transform="translate(75,36)"/>
<path d="M0 0 C0.33 0.66 0.66 1.32 1 2 C1.66 2.33 2.32 2.66 3 3 C-0.99613521 6.71069698 -3.37082652 8.59791618 -9 9 C-7.625 7 -7.625 7 -6 5 C-5.34 5 -4.68 5 -4 5 C-4 4.34 -4 3.68 -4 3 C-2 1.375 -2 1.375 0 0 Z " fill="#89C8CE" transform="translate(89,29)"/>
<path d="M0 0 C0.66 0.33 1.32 0.66 2 1 C2.86159454 4.23097953 3.30597523 6.22486274 2.0625 9.375 C1.711875 9.91125 1.36125 10.4475 1 11 C-0.32 11 -1.64 11 -3 11 C-2.11223998 7.30099992 -1.05418136 3.65449539 0 0 Z " fill="#61C9CB" transform="translate(128,57)"/>
<path d="M0 0 C1.65 0 3.3 0 5 0 C5.38218767 1.65614657 5.71395102 3.32457024 6 5 C5 6 5 6 2.4375 6.0625 C1.2309375 6.0315625 1.2309375 6.0315625 0 6 C0 4.02 0 2.04 0 0 Z " fill="#EFEFEF" transform="translate(239,49)"/>
<path d="M0 0 C1.65 0 3.3 0 5 0 C5.38218767 1.65614657 5.71395102 3.32457024 6 5 C5 6 5 6 2.4375 6.0625 C1.2309375 6.0315625 1.2309375 6.0315625 0 6 C0 4.02 0 2.04 0 0 Z " fill="#EFEFEF" transform="translate(55,49)"/>
<path d="M0 0 C0.99 0 1.98 0 3 0 C1.90931332 3.77545388 1.0916909 6.47043472 -2 9 C-2 8.34 -2 7.68 -2 7 C-3.32 6.67 -4.64 6.34 -6 6 C-4.71034824 4.62437146 -3.37310707 3.29233607 -2 2 C-1.34 2 -0.68 2 0 2 C0 1.34 0 0.68 0 0 Z " fill="#D6F9FB" transform="translate(155,41)"/>
<path d="M0 0 C4.83256305 0.41421969 6.82679218 2.46413986 10 6 C9.34 6 8.68 6 8 6 C8 7.65 8 9.3 8 11 C7.34 11 6.68 11 6 11 C5.81824219 10.45730469 5.63648438 9.91460937 5.44921875 9.35546875 C5.07216797 8.28232422 5.07216797 8.28232422 4.6875 7.1875 C4.44386719 6.47980469 4.20023438 5.77210937 3.94921875 5.04296875 C2.93275742 2.85527627 1.79179406 1.59103282 0 0 Z " fill="#7AC5C6" transform="translate(179,26)"/>
<path d="M0 0 C1.5 1.1875 1.5 1.1875 3 3 C3.1875 5.6875 3.1875 5.6875 3 8 C0 8 0 8 -1.6875 6.5 C-2.120625 6.005 -2.55375 5.51 -3 5 C-2 2 -2 2 0 0 Z " fill="#E8EEF3" transform="translate(71,133)"/>
<path d="M0 0 C0.99 0.33 1.98 0.66 3 1 C-1.455 6.94 -1.455 6.94 -6 13 C-7.04449911 9.86650268 -6.93423645 9.01031744 -6 6 C-5.01 6 -4.02 6 -3 6 C-2.690625 5.195625 -2.38125 4.39125 -2.0625 3.5625 C-1 1 -1 1 0 0 Z " fill="#5ABDB7" transform="translate(125,115)"/>
<path d="M0 0 C0.66 0 1.32 0 2 0 C0.46356148 3.68069887 -1.78150945 5.98775204 -4.625 8.75 C-5.85089844 9.94882812 -5.85089844 9.94882812 -7.1015625 11.171875 C-7.72804687 11.77515625 -8.35453125 12.3784375 -9 13 C-10 11 -10 11 -9.4375 9.125 C-7.47935066 6.23034445 -4.91395691 4.88193051 -2 3 C-1.34 2.01 -0.68 1.02 0 0 Z " fill="#78BEBF" transform="translate(140,53)"/>
<path d="M0 0 C-0.97582031 0.33773438 -1.95164062 0.67546875 -2.95703125 1.0234375 C-4.24226463 1.47373825 -5.52741665 1.92427126 -6.8125 2.375 C-7.45509766 2.59671875 -8.09769531 2.8184375 -8.75976562 3.046875 C-11.81686717 4.1239885 -14.28592791 5.19061861 -17 7 C-17.33 6.01 -17.66 5.02 -18 4 C-5.96381943 -1.63786236 -5.96381943 -1.63786236 0 0 Z " fill="#DFF4F9" transform="translate(116,16)"/>
<path d="M0 0 C0.66 0.33 1.32 0.66 2 1 C1.01 2.98 0.02 4.96 -1 7 C-2.65 7 -4.3 7 -6 7 C-6.33 5.68 -6.66 4.36 -7 3 C-4.69631264 1.93347808 -2.35981813 0.93578995 0 0 Z " fill="#FBFCFC" transform="translate(160,175)"/>
<path d="M0 0 C2 2 2 2 2 6 C0.9171875 5.8453125 0.9171875 5.8453125 -0.1875 5.6875 C-4.12041589 6.12449065 -5.46321923 8.10082197 -8 11 C-8.66 10.67 -9.32 10.34 -10 10 C-6.7 6.7 -3.4 3.4 0 0 Z " fill="#54BEB4" transform="translate(123,130)"/>
<path d="M0 0 C1.32 0 2.64 0 4 0 C4.66 1.98 5.32 3.96 6 6 C4.02 6 2.04 6 0 6 C-0.38218767 4.34385343 -0.71395102 2.67542976 -1 1 C-0.67 0.67 -0.34 0.34 0 0 Z " fill="#EFF0EF" transform="translate(93,12)"/>
<path d="M0 0 C2.475 0.99 2.475 0.99 5 2 C4.34 3.32 3.68 4.64 3 6 C1.35 5.67 -0.3 5.34 -2 5 C-1.125 1.125 -1.125 1.125 0 0 Z " fill="#F0F0F0" transform="translate(241,73)"/>
<path d="M0 0 C1.53202706 0.25195908 3.05257128 0.57596777 4.5625 0.9375 C5.38878906 1.13214844 6.21507812 1.32679687 7.06640625 1.52734375 C8.02353516 1.76130859 8.02353516 1.76130859 9 2 C8.01 2.33 7.02 2.66 6 3 C5.67 3.66 5.34 4.32 5 5 C4.34 4.67 3.68 4.34 3 4 C1.32345271 4.27942455 -0.34608154 4.60828247 -2 5 C-1.125 1.125 -1.125 1.125 0 0 Z " fill="#76CACD" transform="translate(162,19)"/>
<path d="M0 0 C2.31 0 4.62 0 7 0 C6.67 0.99 6.34 1.98 6 3 C4.68 3 3.36 3 2 3 C2 3.66 2 4.32 2 5 C2.66 5 3.32 5 4 5 C4 5.66 4 6.32 4 7 C3.01 7 2.02 7 1 7 C0.67 4.69 0.34 2.38 0 0 Z " fill="#EEF2EF" transform="translate(153,171)"/>
<path d="M0 0 C0.33 0.99 0.66 1.98 1 3 C-0.43554025 3.50559908 -1.8735202 4.0042749 -3.3125 4.5 C-4.51326172 4.91765625 -4.51326172 4.91765625 -5.73828125 5.34375 C-8 6 -8 6 -11 6 C-11 5.34 -11 4.68 -11 4 C-9.68 3.67 -8.36 3.34 -7 3 C-7.33 2.34 -7.66 1.68 -8 1 C-5.36 0.67 -2.72 0.34 0 0 Z " fill="#DCF3F0" transform="translate(152,168)"/>
<path d="M0 0 C1.5625 1.8125 1.5625 1.8125 3 4 C2.67 4.99 2.34 5.98 2 7 C0.35 7 -1.3 7 -3 7 C-3.33 5.68 -3.66 4.36 -4 3 C-2.68 2.01 -1.36 1.02 0 0 Z " fill="#E2F1EF" transform="translate(187,152)"/>
<path d="M0 0 C2.475 0.99 2.475 0.99 5 2 C5 3.98 5 5.96 5 8 C4.01 8.33 3.02 8.66 2 9 C1.34 6.03 0.68 3.06 0 0 Z " fill="#3FC6B9" transform="translate(113,122)"/>
<path d="M0 0 C1.2065625 0.0309375 1.2065625 0.0309375 2.4375 0.0625 C2.4375 1.7125 2.4375 3.3625 2.4375 5.0625 C0.7875 5.3925 -0.8625 5.7225 -2.5625 6.0625 C-2.94468767 4.40635343 -3.27645102 2.73792976 -3.5625 1.0625 C-2.5625 0.0625 -2.5625 0.0625 0 0 Z " fill="#EFF0F0" transform="translate(52.5625,115.9375)"/>
<path d="M0 0 C0.99 0.33 1.98 0.66 3 1 C3 2.32 3 3.64 3 5 C2.34 5 1.68 5 1 5 C1 5.99 1 6.98 1 8 C0.34 8 -0.32 8 -1 8 C-1.33 9.32 -1.66 10.64 -2 12 C-2.93423645 8.98968256 -3.04449911 8.13349732 -2 5 C-1.34 5 -0.68 5 0 5 C0 3.35 0 1.7 0 0 Z " fill="#F0F0F0" transform="translate(221,80)"/>
<path d="M0 0 C0.99 0 1.98 0 3 0 C3.33 1.98 3.66 3.96 4 6 C2.02 6 0.04 6 -2 6 C-1.125 1.125 -1.125 1.125 0 0 Z " fill="#EEEEEE" transform="translate(235,43)"/>
<path d="M0 0 C0.99 0 1.98 0 3 0 C3.33 1.98 3.66 3.96 4 6 C2.02 6 0.04 6 -2 6 C-1.125 1.125 -1.125 1.125 0 0 Z " fill="#EEEEEE" transform="translate(51,43)"/>
<path d="M0 0 C1.93816735 0.1141866 3.87555099 0.24173423 5.8125 0.375 C6.89144531 0.44460938 7.97039062 0.51421875 9.08203125 0.5859375 C12 1 12 1 15 3 C9.72 3 4.44 3 -1 3 C-0.67 2.01 -0.34 1.02 0 0 Z " fill="#D5F6F7" transform="translate(129,10)"/>
<path d="M0 0 C1.125 3.75 1.125 3.75 0 6 C-1.875 5.75 -1.875 5.75 -4 5 C-5.25 2.9375 -5.25 2.9375 -6 1 C-4 0 -4 0 0 0 Z " fill="#3BC6B5" transform="translate(88,144)"/>
<path d="M0 0 C1.80030122 2.70045182 2.93377066 5.06677881 4.125 8.0625 C4.47820312 8.94035156 4.83140625 9.81820312 5.1953125 10.72265625 C6 13 6 13 6 15 C5.34 15 4.68 15 4 15 C4 14.34 4 13.68 4 13 C3.34 13 2.68 13 2 13 C1.67 10.36 1.34 7.72 1 5 C0.34 5 -0.32 5 -1 5 C-0.67 3.35 -0.34 1.7 0 0 Z " fill="#D2F8F3" transform="translate(62,113)"/>
<path d="M0 0 C1.98 0 3.96 0 6 0 C5.67 1.65 5.34 3.3 5 5 C3.68 5.33 2.36 5.66 1 6 C0.67 4.02 0.34 2.04 0 0 Z " fill="#EEEEEE" transform="translate(233,55)"/>
<path d="M0 0 C1.98 0 3.96 0 6 0 C5.67 1.65 5.34 3.3 5 5 C3.68 5.33 2.36 5.66 1 6 C0.67 4.02 0.34 2.04 0 0 Z " fill="#EEEEEE" transform="translate(49,55)"/>
<path d="M0 0 C1.98 0 3.96 0 6 0 C5.34 1.98 4.68 3.96 4 6 C2.68 5.67 1.36 5.34 0 5 C0 3.35 0 1.7 0 0 Z " fill="#EFEFEF" transform="translate(104,0)"/>
<path d="M0 0 C1.65 0 3.3 0 5 0 C6 3 6 3 5 6 C3.35 6 1.7 6 0 6 C0.185625 5.38125 0.37125 4.7625 0.5625 4.125 C1.23686176 1.95839822 1.23686176 1.95839822 0 0 Z " fill="#EEF0EF" transform="translate(197,153)"/>
<path d="M0 0 C4.75 0.75 4.75 0.75 7 3 C6.67 3.66 6.34 4.32 6 5 C4.02 5 2.04 5 0 5 C0 3.35 0 1.7 0 0 Z " fill="#F1F1F0" transform="translate(135,6)"/>
<path d="M0 0 C1.98 0 3.96 0 6 0 C5.67 1.65 5.34 3.3 5 5 C3.35 4.67 1.7 4.34 0 4 C0 2.68 0 1.36 0 0 Z " fill="#ECEFEE" transform="translate(129,172)"/>
<path d="M0 0 C0.99 0.66 1.98 1.32 3 2 C2.67 3.65 2.34 5.3 2 7 C2.66 7.33 3.32 7.66 4 8 C2.35 8 0.7 8 -1 8 C-0.67 7.01 -0.34 6.02 0 5 C-0.99 4.67 -1.98 4.34 -3 4 C-2.67 3.01 -2.34 2.02 -2 1 C-1.34 0.67 -0.68 0.34 0 0 Z " fill="#32C1B6" transform="translate(101,152)"/>
<path d="M0 0 C0.99 0.33 1.98 0.66 3 1 C3.75 2.9375 3.75 2.9375 4 5 C3.67 5.66 3.34 6.32 3 7 C1.68 6.67 0.36 6.34 -1 6 C-1.33 4.35 -1.66 2.7 -2 1 C-1.34 0.67 -0.68 0.34 0 0 Z " fill="#EFF0EE" transform="translate(64,128)"/>
<path d="M0 0 C0.33 1.32 0.66 2.64 1 4 C0.29875 4.391875 -0.4025 4.78375 -1.125 5.1875 C-4.36074432 7.22742577 -7.10257782 9.50686929 -10 12 C-10.66 11.67 -11.32 11.34 -12 11 C-11.30132812 10.37351562 -10.60265625 9.74703125 -9.8828125 9.1015625 C-8.97273437 8.28429687 -8.06265625 7.46703125 -7.125 6.625 C-5.76761719 5.40683594 -5.76761719 5.40683594 -4.3828125 4.1640625 C-2.89103817 2.80923795 -1.42494565 1.42494565 0 0 Z " fill="#6AC2BD" transform="translate(166,90)"/>
<path d="M0 0 C1.98 0.66 3.96 1.32 6 2 C6 2.99 6 3.98 6 5 C5.21625 5.144375 4.4325 5.28875 3.625 5.4375 C1.03578982 5.87798925 1.03578982 5.87798925 -1 7 C-1.66 6.34 -2.32 5.68 -3 5 C-2.01 5 -1.02 5 0 5 C0 3.35 0 1.7 0 0 Z " fill="#F0F0EF" transform="translate(86,154)"/>
<path d="M0 0 C0.99 0 1.98 0 3 0 C3.66 1.98 4.32 3.96 5 6 C3.35 6 1.7 6 0 6 C-0.38218767 4.34385343 -0.71395102 2.67542976 -1 1 C-0.67 0.67 -0.34 0.34 0 0 Z " fill="#F2F0EA" transform="translate(216,122)"/>
<path d="M0 0 C0.66 0.33 1.32 0.66 2 1 C-0.625 6.75 -0.625 6.75 -4 9 C-4 8.34 -4 7.68 -4 7 C-4.66 6.67 -5.32 6.34 -6 6 C-4.02 4.02 -2.04 2.04 0 0 Z " fill="#4CBEB3" transform="translate(135,119)"/>
<path d="M0 0 C0.66 0.33 1.32 0.66 2 1 C0.6062718 5.43458973 -1.60582235 7.87378374 -5 11 C-4.67 8.69 -4.34 6.38 -4 4 C-2.68 4 -1.36 4 0 4 C-0.33 3.01 -0.66 2.02 -1 1 C-0.67 0.67 -0.34 0.34 0 0 Z " fill="#55C0B6" transform="translate(133,103)"/>
<path d="M0 0 C0.33 0.99 0.66 1.98 1 3 C0.34 3.66 -0.32 4.32 -1 5 C-1.309375 5.845625 -1.61875 6.69125 -1.9375 7.5625 C-2.288125 8.366875 -2.63875 9.17125 -3 10 C-3.99 10.33 -4.98 10.66 -6 11 C-5.55530671 5.96014269 -3.28656638 3.62365012 0 0 Z " fill="#7EC4C2" transform="translate(75,44)"/>
<path d="M0 0 C1.65 0 3.3 0 5 0 C5.33 2.31 5.66 4.62 6 7 C5.67 6.34 5.34 5.68 5 5 C2.47266765 4.34444881 2.47266765 4.34444881 0 4 C0 2.68 0 1.36 0 0 Z " fill="#ECF0EF" transform="translate(74,32)"/>
<path d="M0 0 C3.3 0 6.6 0 10 0 C4.85913339 3.42724441 -0.00797796 3.1015597 -6 3 C-6 2.67 -6 2.34 -6 2 C-4.02 2 -2.04 2 0 2 C0 1.34 0 0.68 0 0 Z " fill="#4ABAAC" transform="translate(150,166)"/>
<path d="M0 0 C1.65 0.33 3.3 0.66 5 1 C4.01 1.495 4.01 1.495 3 2 C3 2.66 3 3.32 3 4 C0.64561267 5.42944945 -0.48032433 6.08661261 -3.25 5.625 C-3.8275 5.41875 -4.405 5.2125 -5 5 C-4.01 4.34 -3.02 3.68 -2 3 C-1.34 2.01 -0.68 1.02 0 0 Z " fill="#35C2AF" transform="translate(165,160)"/>
<path d="M0 0 C0.99 0 1.98 0 3 0 C3 1.65 3 3.3 3 5 C0.69 5 -1.62 5 -4 5 C-3.67 4.34 -3.34 3.68 -3 3 C-2.34 3 -1.68 3 -1 3 C-0.67 2.01 -0.34 1.02 0 0 Z " fill="#F1F1F1" transform="translate(273,177)"/>
<path d="M0 0 C0 3 0 3 -1.5625 5.0625 C-4.55796749 7.44351262 -7.30186193 8.14658352 -11 9 C-10.67 8.01 -10.34 7.02 -10 6 C-8 5.33333333 -6 4.66666667 -4 4 C-1.66468542 2.00064306 -1.66468542 2.00064306 0 0 Z " fill="#36C7B7" transform="translate(120,135)"/>
<path d="M0 0 C0.33 1.32 0.66 2.64 1 4 C2.65 4 4.3 4 6 4 C4.68 5.32 3.36 6.64 2 8 C2 7.01 2 6.02 2 5 C0.35 5 -1.3 5 -3 5 C-2.01 3.35 -1.02 1.7 0 0 Z " fill="#D3F9F7" transform="translate(125,119)"/>
<path d="M0 0 C1.32 0 2.64 0 4 0 C4 1.65 4 3.3 4 5 C1.03 4.505 1.03 4.505 -2 4 C-2 3.34 -2 2.68 -2 2 C-1.34 2 -0.68 2 0 2 C0 1.34 0 0.68 0 0 Z " fill="#F0F0EC" transform="translate(204,38)"/>
<path d="M0 0 C1.32 0 2.64 0 4 0 C4.33 1.98 4.66 3.96 5 6 C4.01 6.495 4.01 6.495 3 7 C3 6.34 3 5.68 3 5 C2.01 5 1.02 5 0 5 C-0.5625 3.0625 -0.5625 3.0625 -1 1 C-0.67 0.67 -0.34 0.34 0 0 Z " fill="#EAF0EB" transform="translate(173,165)"/>
<path d="M0 0 C3.63 2.31 7.26 4.62 11 7 C9.68 7.33 8.36 7.66 7 8 C7 7.34 7 6.68 7 6 C6.05125 5.690625 5.1025 5.38125 4.125 5.0625 C1 4 1 4 -1 3 C-0.67 2.01 -0.34 1.02 0 0 Z " fill="#CEF8F8" transform="translate(88,152)"/>
<path d="M0 0 C0.99 0 1.98 0 3 0 C3 1.65 3 3.3 3 5 C1.68 5.33 0.36 5.66 -1 6 C-1.625 4.125 -1.625 4.125 -2 2 C-1.34 1.34 -0.68 0.68 0 0 Z " fill="#F3ECEE" transform="translate(217,110)"/>
<path d="M0 0 C1.32 0 2.64 0 4 0 C4 1.65 4 3.3 4 5 C2.68 5.33 1.36 5.66 0 6 C0 4.02 0 2.04 0 0 Z " fill="#EFEDEF" transform="translate(222,104)"/>
<path d="M0 0 C0.66 0 1.32 0 2 0 C0.55049545 3.7910119 -1.15172566 7.3874638 -3 11 C-3.75 9.4375 -3.75 9.4375 -4 7 C-2.86915563 4.49713591 -1.47860484 2.32992278 0 0 Z " fill="#E6FBFC" transform="translate(150,52)"/>
<path d="M0 0 C0 1.65 0 3.3 0 5 C-1.98 5.33 -3.96 5.66 -6 6 C-2.61538462 0 -2.61538462 0 0 0 Z " fill="#EEEFED" transform="translate(208,147)"/>
<path d="M0 0 C2.475 0.495 2.475 0.495 5 1 C5.12375 1.804375 5.2475 2.60875 5.375 3.4375 C5.684375 4.7059375 5.684375 4.7059375 6 6 C6.66 6.33 7.32 6.66 8 7 C7.01 7 6.02 7 5 7 C3.61328125 5.46875 3.61328125 5.46875 2.3125 3.5 C1.87550781 2.8503125 1.43851562 2.200625 0.98828125 1.53125 C0.49908203 0.77328125 0.49908203 0.77328125 0 0 Z " fill="#50C2B4" transform="translate(75,138)"/>
<path d="M0 0 C0.99 0 1.98 0 3 0 C3.66 2.31 4.32 4.62 5 7 C3.68 6.67 2.36 6.34 1 6 C0.67 4.02 0.34 2.04 0 0 Z " fill="#32CBBC" transform="translate(75,132)"/>
<path d="M0 0 C0.66 0 1.32 0 2 0 C2 1.65 2 3.3 2 5 C1.34 5 0.68 5 0 5 C0.33 5.99 0.66 6.98 1 8 C-0.65 8.33 -2.3 8.66 -4 9 C-2.68 6.03 -1.36 3.06 0 0 Z " fill="#E4F9F9" transform="translate(140,96)"/>
<path d="M0 0 C0.33 1.32 0.66 2.64 1 4 C-0.32 4.99 -1.64 5.98 -3 7 C-3.33 5.02 -3.66 3.04 -4 1 C-2 0 -2 0 0 0 Z " fill="#70C9D2" transform="translate(148,42)"/>
<path d="M0 0 C2.475 0.495 2.475 0.495 5 1 C5.33 3.64 5.66 6.28 6 9 C3.59927045 6.11912454 1.52708963 3.43595166 0 0 Z " fill="#E0F9FA" transform="translate(200,42)"/>
<path d="M0 0 C0.99 0 1.98 0 3 0 C3 1.65 3 3.3 3 5 C1.35 5 -0.3 5 -2 5 C-1.125 1.125 -1.125 1.125 0 0 Z " fill="#EFEFEF" transform="translate(273,6)"/>
<path d="M0 0 C1.98 0 3.96 0 6 0 C4.6875 2.5 4.6875 2.5 3 5 C2.01 5 1.02 5 0 5 C0 3.35 0 1.7 0 0 Z " fill="#EEEEF1" transform="translate(154,0)"/>
<path d="M0 0 C1.32 0.33 2.64 0.66 4 1 C4 1.99 4 2.98 4 4 C1.69 4 -0.62 4 -3 4 C-2.01 2.68 -1.02 1.36 0 0 Z " fill="#F0F0F0" transform="translate(125,178)"/>
<path d="M0 0 C2.475 0.495 2.475 0.495 5 1 C5.33 2.32 5.66 3.64 6 5 C3.83125748 4.49396008 2.00032373 4.00016187 0 3 C0 2.01 0 1.02 0 0 Z " fill="#40C1B2" transform="translate(91,152)"/>
<path d="M0 0 C0.99 0.33 1.98 0.66 3 1 C3 2.65 3 4.3 3 6 C1.35 6.33 -0.3 6.66 -2 7 C-2 6.34 -2 5.68 -2 5 C-1.34 5 -0.68 5 0 5 C-0.2784375 4.0409375 -0.2784375 4.0409375 -0.5625 3.0625 C-0.7790625 2.0415625 -0.7790625 2.0415625 -1 1 C-0.67 0.67 -0.34 0.34 0 0 Z " fill="#E3EBF1" transform="translate(199,140)"/>
<path d="M0 0 C1.98 0.495 1.98 0.495 4 1 C3.67 2.32 3.34 3.64 3 5 C1.68 4.67 0.36 4.34 -1 4 C-0.67 2.68 -0.34 1.36 0 0 Z " fill="#EEEEEE" transform="translate(88,7)"/>
<path d="M0 0 C1.32 0 2.64 0 4 0 C3.75 1.875 3.75 1.875 3 4 C0.9375 5.25 0.9375 5.25 -1 6 C-0.67 4.02 -0.34 2.04 0 0 Z " fill="#EDEFEE" transform="translate(142,0)"/>
<path d="M0 0 C1.65 0 3.3 0 5 0 C5 1.32 5 2.64 5 4 C3.02 4.99 3.02 4.99 1 6 C0.67 4.02 0.34 2.04 0 0 Z " fill="#EDEFEF" transform="translate(99,166)"/>
<path d="M0 0 C0.99 0.33 1.98 0.66 3 1 C2.67 2.32 2.34 3.64 2 5 C0.02 5 -1.96 5 -4 5 C-2.25 1.125 -2.25 1.125 0 0 Z " fill="#41CBC0" transform="translate(150,107)"/>
<path d="M0 0 C0.66 0 1.32 0 2 0 C1.67 1.98 1.34 3.96 1 6 C-2 6 -2 6 -3.6875 4.5 C-4.120625 4.005 -4.55375 3.51 -5 3 C-4.360625 2.87625 -3.72125 2.7525 -3.0625 2.625 C-2.0415625 2.315625 -2.0415625 2.315625 -1 2 C-0.67 1.34 -0.34 0.68 0 0 Z " fill="#E3F3F4" transform="translate(197,31)"/>
<path d="M0 0 C-0.33 1.65 -0.66 3.3 -1 5 C-2.65 5 -4.3 5 -6 5 C-4.87312259 1.61936778 -3.78825335 0 0 0 Z " fill="#30C9B6" transform="translate(202,133)"/>
<path d="M0 0 C1.32 0.33 2.64 0.66 4 1 C4 4 4 4 3 6 C2.01 6 1.02 6 0 6 C0 4.02 0 2.04 0 0 Z " fill="#F2ECEF" transform="translate(222,116)"/>
<path d="M0 0 C2.5 1.375 2.5 1.375 5 3 C5 3.66 5 4.32 5 5 C5.66 5 6.32 5 7 5 C7 5.66 7 6.32 7 7 C5.68 7 4.36 7 3 7 C3 5.68 3 4.36 3 3 C2.01 2.67 1.02 2.34 0 2 C0 1.34 0 0.68 0 0 Z " fill="#87C8CB" transform="translate(192,35)"/>
<path d="M0 0 C0.99 0.33 1.98 0.66 3 1 C2.67 2.32 2.34 3.64 2 5 C0.68 4.67 -0.64 4.34 -2 4 C-1.34 2.68 -0.68 1.36 0 0 Z " fill="#EEEEEE" transform="translate(174,7)"/>
<path d="M0 0 C0.66 0 1.32 0 2 0 C2 0.99 2 1.98 2 3 C1.401875 3.28875 0.80375 3.5775 0.1875 3.875 C-2.19327792 5.04742026 -2.19327792 5.04742026 -5 7 C-5 6.01 -5 5.02 -5 4 C-3.35 3.34 -1.7 2.68 0 2 C0 1.34 0 0.68 0 0 Z " fill="#2BC9B6" transform="translate(185,148)"/>
<path d="M0 0 C0.66 1.32 1.32 2.64 2 4 C1.01 4.99 0.02 5.98 -1 7 C-1.99 6.67 -2.98 6.34 -4 6 C-2.68 4.02 -1.36 2.04 0 0 Z " fill="#D7F0F0" transform="translate(204,133)"/>
<path d="M0 0 C1.5625 1.75 1.5625 1.75 3 4 C2.6875 6.25 2.6875 6.25 2 8 C1.01 7.67 0.02 7.34 -1 7 C-0.67 4.69 -0.34 2.38 0 0 Z " fill="#E3FBFB" transform="translate(68,128)"/>
<path d="M0 0 C0.66 0 1.32 0 2 0 C0.68775452 3.93673644 -0.91910327 6.22719294 -4 9 C-2.94124926 5.59687262 -1.99097846 2.98646769 0 0 Z " fill="#58BFB3" transform="translate(205,128)"/>
<path d="M0 0 C0.66 0 1.32 0 2 0 C2.33 1.98 2.66 3.96 3 6 C2.01 6 1.02 6 0 6 C-0.38218767 4.34385343 -0.71395102 2.67542976 -1 1 C-0.67 0.67 -0.34 0.34 0 0 Z " fill="#F0F1EB" transform="translate(56,74)"/>
<path d="M0 0 C2.475 0.99 2.475 0.99 5 2 C5 2.99 5 3.98 5 5 C3.68 5 2.36 5 1 5 C0.67 3.35 0.34 1.7 0 0 Z " fill="#F3ECF1" transform="translate(80,148)"/>
<path d="M0 0 C0.99 0.99 1.98 1.98 3 3 C2.01 3.99 1.02 4.98 0 6 C-0.66 5.34 -1.32 4.68 -2 4 C-1.34 2.68 -0.68 1.36 0 0 Z " fill="#DFEEF0" transform="translate(76,140)"/>
<path d="M0 0 C0.33 0.66 0.66 1.32 1 2 C1.66 2.33 2.32 2.66 3 3 C1.625 4.5 1.625 4.5 0 6 C-0.66 6 -1.32 6 -2 6 C-1.125 1.125 -1.125 1.125 0 0 Z " fill="#C4F5F6" transform="translate(114,134)"/>
<path d="M0 0 C-0.75 2.4375 -0.75 2.4375 -2 5 C-4.125 5.8125 -4.125 5.8125 -6 6 C-4.90218919 2.70656758 -3.7827394 0 0 0 Z " fill="#3FCDC0" transform="translate(160,100)"/>
<path d="M0 0 C0.99 0 1.98 0 3 0 C2.67 3.63 2.34 7.26 2 11 C1.67 11 1.34 11 1 11 C0.67 7.37 0.34 3.74 0 0 Z " fill="#DCF5F6" transform="translate(58,74)"/>
<path d="M0 0 C0.99 0 1.98 0 3 0 C2.67 1.65 2.34 3.3 2 5 C1.01 5.33 0.02 5.66 -1 6 C-0.67 4.02 -0.34 2.04 0 0 Z " fill="#F3F0EE" transform="translate(199,31)"/>
<path d="M0 0 C1.98 0.495 1.98 0.495 4 1 C4 1.99 4 2.98 4 4 C2.35 4 0.7 4 -1 4 C-0.67 2.68 -0.34 1.36 0 0 Z " fill="#EFEFEB" transform="translate(125,6)"/>
</svg>
