<?xml version="1.0" encoding="UTF-8"?>
<svg version="1.1" xmlns="http://www.w3.org/2000/svg" width="256" height="256">
<path d="M0 0 C0.68429077 -0.00095673 1.36858154 -0.00191345 2.0736084 -0.00289917 C3.52286877 -0.0035808 4.97213218 -0.00172773 6.42138672 0.00244141 C8.64687928 0.00778998 10.87217001 0.0024959 13.09765625 -0.00390625 C14.50260461 -0.00324547 15.90755285 -0.0019643 17.3125 0 C18.59962891 0.00112793 19.88675781 0.00225586 21.21289062 0.00341797 C24.15625 0.1328125 24.15625 0.1328125 25.15625 1.1328125 C25.24951716 2.69828298 25.27370582 4.26794022 25.26977539 5.83618164 C25.26969986 6.83714371 25.26962433 7.83810577 25.26954651 8.86940002 C25.26438522 9.9579277 25.25922394 11.04645538 25.25390625 12.16796875 C25.25178383 13.8305497 25.25178383 13.8305497 25.24961853 15.52671814 C25.24400033 19.08294319 25.23144475 22.63910633 25.21875 26.1953125 C25.21373734 28.59960847 25.20917403 31.00390542 25.20507812 33.40820312 C25.1948739 39.31644956 25.17530205 45.22456135 25.15625 51.1328125 C33.40625 51.1328125 41.65625 51.1328125 50.15625 51.1328125 C51.53933781 53.89898813 51.26835196 56.1429925 51.25390625 59.234375 C51.25068359 60.44609375 51.24746094 61.6578125 51.24414062 62.90625 C51.23576172 64.17726563 51.22738281 65.44828125 51.21875 66.7578125 C51.21423828 68.0365625 51.20972656 69.3153125 51.20507812 70.6328125 C51.19326203 73.79952542 51.17678815 76.96614606 51.15625 80.1328125 C68.33635037 79.15627631 68.33635037 79.15627631 84.92578125 74.9375 C87.15625 74.1328125 87.15625 74.1328125 89.15625 74.1328125 C88.80691406 73.41738281 88.45757812 72.70195313 88.09765625 71.96484375 C83.18165201 61.19976932 81.78467794 51.43618723 85.0546875 39.9453125 C86.77836034 35.54444568 89.25953225 31.84511097 92.15625 28.1328125 C98.49554495 29.16545783 103.19341827 34.63051327 107.00390625 39.48828125 C110.63412766 44.81320062 113.53476096 49.50887069 113.15625 56.1328125 C114.14625 55.8028125 115.13625 55.4728125 116.15625 55.1328125 C126.48876254 54.39099109 137.29167325 53.83647761 146.15625 60.1328125 C147.12109375 62.03125 147.12109375 62.03125 147.15625 64.1328125 C143.1479126 73.02227043 136.04045678 78.67889242 127.26953125 82.37109375 C122.68477407 84.02364024 118.81292949 84.24074472 113.90625 84.1953125 C112.64296875 84.18628906 111.3796875 84.17726563 110.078125 84.16796875 C108.63179688 84.15056641 108.63179688 84.15056641 107.15625 84.1328125 C107.08277344 84.7721875 107.00929687 85.4115625 106.93359375 86.0703125 C103.66332341 98.95419165 94.67745191 111.17618607 86.15625 121.1328125 C85.52082275 121.89150635 85.52082275 121.89150635 84.87255859 122.66552734 C61.8453099 150.00551385 27.46226042 164.23493117 -7.63623047 167.38330078 C-34.69331566 169.46250594 -62.40945514 166.41799295 -83.84375 148.1328125 C-84.40835938 147.71 -84.97296875 147.2871875 -85.5546875 146.8515625 C-98.05929085 137.11947301 -105.91079419 121.49191898 -108.84375 106.1328125 C-109.17063821 101.55940428 -109.1315823 97.02715419 -109.03125 92.4453125 C-109.01771484 91.25486328 -109.00417969 90.06441406 -108.99023438 88.83789062 C-108.95527181 85.93599773 -108.90148124 83.03434173 -108.84375 80.1328125 C-98.44875 79.6378125 -98.44875 79.6378125 -87.84375 79.1328125 C-87.51375 70.5528125 -87.18375 61.9728125 -86.84375 53.1328125 C-77.93375 53.1328125 -69.02375 53.1328125 -59.84375 53.1328125 C-59.84375 44.5528125 -59.84375 35.9728125 -59.84375 27.1328125 C-42.68375 27.1328125 -25.52375 27.1328125 -7.84375 27.1328125 C-7.84375 18.5528125 -7.84375 9.9728125 -7.84375 1.1328125 C-5.93525052 -0.77568698 -2.52896226 0.00221617 0 0 Z " fill="#36B0D8" transform="translate(108.84375,43.8671875)"/>
<path d="M0 0 C0.68429077 -0.00095673 1.36858154 -0.00191345 2.0736084 -0.00289917 C3.52286877 -0.0035808 4.97213218 -0.00172773 6.42138672 0.00244141 C8.64687928 0.00778998 10.87217001 0.0024959 13.09765625 -0.00390625 C14.50260461 -0.00324547 15.90755285 -0.0019643 17.3125 0 C18.59962891 0.00112793 19.88675781 0.00225586 21.21289062 0.00341797 C24.15625 0.1328125 24.15625 0.1328125 25.15625 1.1328125 C25.24951716 2.69828298 25.27370582 4.26794022 25.26977539 5.83618164 C25.26969986 6.83714371 25.26962433 7.83810577 25.26954651 8.86940002 C25.26438522 9.9579277 25.25922394 11.04645538 25.25390625 12.16796875 C25.25178383 13.8305497 25.25178383 13.8305497 25.24961853 15.52671814 C25.24400033 19.08294319 25.23144475 22.63910633 25.21875 26.1953125 C25.21373734 28.59960847 25.20917403 31.00390542 25.20507812 33.40820312 C25.1948739 39.31644956 25.17530205 45.22456135 25.15625 51.1328125 C33.40625 51.1328125 41.65625 51.1328125 50.15625 51.1328125 C51.53933781 53.89898813 51.26835196 56.1429925 51.25390625 59.234375 C51.25068359 60.44609375 51.24746094 61.6578125 51.24414062 62.90625 C51.23576172 64.17726563 51.22738281 65.44828125 51.21875 66.7578125 C51.21423828 68.0365625 51.20972656 69.3153125 51.20507812 70.6328125 C51.19326203 73.79952542 51.17678815 76.96614606 51.15625 80.1328125 C68.33635037 79.15627631 68.33635037 79.15627631 84.92578125 74.9375 C87.15625 74.1328125 87.15625 74.1328125 89.15625 74.1328125 C88.80691406 73.41738281 88.45757812 72.70195313 88.09765625 71.96484375 C83.18165201 61.19976932 81.78467794 51.43618723 85.0546875 39.9453125 C86.77836034 35.54444568 89.25953225 31.84511097 92.15625 28.1328125 C98.49554495 29.16545783 103.19341827 34.63051327 107.00390625 39.48828125 C110.63412766 44.81320062 113.53476096 49.50887069 113.15625 56.1328125 C114.14625 55.8028125 115.13625 55.4728125 116.15625 55.1328125 C126.48876254 54.39099109 137.29167325 53.83647761 146.15625 60.1328125 C147.12109375 62.03125 147.12109375 62.03125 147.15625 64.1328125 C143.1479126 73.02227043 136.04045678 78.67889242 127.26953125 82.37109375 C122.68477407 84.02364024 118.81292949 84.24074472 113.90625 84.1953125 C112.64296875 84.18628906 111.3796875 84.17726563 110.078125 84.16796875 C108.63179688 84.15056641 108.63179688 84.15056641 107.15625 84.1328125 C107.08277344 84.7721875 107.00929687 85.4115625 106.93359375 86.0703125 C103.66332341 98.95419165 94.67745191 111.17618607 86.15625 121.1328125 C85.52082275 121.89150635 85.52082275 121.89150635 84.87255859 122.66552734 C61.8453099 150.00551385 27.46226042 164.23493117 -7.63623047 167.38330078 C-34.69331566 169.46250594 -62.40945514 166.41799295 -83.84375 148.1328125 C-84.40835938 147.71 -84.97296875 147.2871875 -85.5546875 146.8515625 C-98.05929085 137.11947301 -105.91079419 121.49191898 -108.84375 106.1328125 C-109.17063821 101.55940428 -109.1315823 97.02715419 -109.03125 92.4453125 C-109.01771484 91.25486328 -109.00417969 90.06441406 -108.99023438 88.83789062 C-108.95527181 85.93599773 -108.90148124 83.03434173 -108.84375 80.1328125 C-98.44875 79.6378125 -98.44875 79.6378125 -87.84375 79.1328125 C-87.51375 70.5528125 -87.18375 61.9728125 -86.84375 53.1328125 C-77.93375 53.1328125 -69.02375 53.1328125 -59.84375 53.1328125 C-59.84375 44.5528125 -59.84375 35.9728125 -59.84375 27.1328125 C-42.68375 27.1328125 -25.52375 27.1328125 -7.84375 27.1328125 C-7.84375 18.5528125 -7.84375 9.9728125 -7.84375 1.1328125 C-5.93525052 -0.77568698 -2.52896226 0.00221617 0 0 Z M93.15625 34.1328125 C89.51998064 40.36641712 88.5259164 44.96446423 88.65625 52.1328125 C88.64078125 52.98359375 88.6253125 53.834375 88.609375 54.7109375 C88.65129962 61.54465098 90.23287311 67.20943561 95.15625 72.1328125 C95.15625 73.1228125 95.15625 74.1128125 95.15625 75.1328125 C81.32691803 83.2442476 67.00265182 84.73236372 51.3671875 84.67871094 C49.65055415 84.687471 47.93392893 84.69796512 46.21731567 84.71003723 C41.61090558 84.73762039 37.00476553 84.74130812 32.39828491 84.74031734 C27.56429162 84.74347054 22.73041575 84.76913823 17.89648438 84.79229736 C8.76678231 84.83267804 -0.36284866 84.85315566 -9.49262619 84.86627126 C-19.89673206 84.88220242 -30.30071798 84.92064345 -40.70475388 84.96086454 C-62.08437956 85.04301777 -83.46399931 85.09726299 -104.84375 85.1328125 C-104.86672476 87.69446895 -104.88349603 90.25591689 -104.89672852 92.81762695 C-104.90738216 93.89893261 -104.90738216 93.89893261 -104.91825104 95.00208282 C-104.93921636 100.41760958 -104.39642202 105.17210581 -102.78125 110.3203125 C-102.5637207 111.06079834 -102.34619141 111.80128418 -102.12207031 112.56420898 C-100.01236503 119.34759909 -96.94783612 128.02872638 -91.84375 133.1328125 C-86.87316795 133.42243766 -81.8847129 133.37566191 -76.90625 133.3828125 C-75.81703247 133.38631714 -75.81703247 133.38631714 -74.70581055 133.38989258 C-63.51150562 133.4035578 -52.77235407 132.68282012 -41.84375 130.1328125 C-41.84375 131.1228125 -41.84375 132.1128125 -41.84375 133.1328125 C-44.65625 133.6015625 -44.65625 133.6015625 -47.46875 134.0703125 C-49.03496094 134.33134766 -49.03496094 134.33134766 -50.6328125 134.59765625 C-52.22222656 134.86255859 -52.22222656 134.86255859 -53.84375 135.1328125 C-54.7615625 135.30232422 -55.679375 135.47183594 -56.625 135.64648438 C-59.95915935 136.15024996 -63.18515633 136.3410228 -66.5546875 136.44921875 C-67.79863281 136.49111328 -69.04257813 136.53300781 -70.32421875 136.57617188 C-71.60941406 136.61548828 -72.89460938 136.65480469 -74.21875 136.6953125 C-75.52714844 136.73849609 -76.83554688 136.78167969 -78.18359375 136.82617188 C-81.40354797 136.93193679 -84.62357531 137.03402829 -87.84375 137.1328125 C-87.84375 137.7928125 -87.84375 138.4528125 -87.84375 139.1328125 C-69.77930556 155.898875 -48.93165153 162.97201282 -24.59375 162.5703125 C-23.45203842 162.56058411 -23.45203842 162.56058411 -22.28726196 162.55065918 C-10.29217501 162.44575458 1.4214558 161.79428236 13.15625 159.1328125 C14.35765625 158.86597656 15.5590625 158.59914063 16.796875 158.32421875 C48.9069496 150.07676808 76.7469432 130.79514376 93.92578125 102.30273438 C100.82217004 91.25856264 100.82217004 91.25856264 104.15625 79.1328125 C105.20683594 79.16761719 106.25742188 79.20242187 107.33984375 79.23828125 C117.93914536 79.48577507 126.5207576 79.04120642 135.15625 72.1328125 C139.41372811 68.22562961 139.41372811 68.22562961 141.15625 63.1328125 C135.58064721 60.28569618 130.68984829 59.83088634 124.53125 59.8203125 C123.43889038 59.81257813 123.43889038 59.81257813 122.32446289 59.8046875 C117.90374172 59.86104729 114.31982714 60.48445625 110.15625 62.1328125 C110.094375 61.0190625 110.0325 59.9053125 109.96875 58.7578125 C108.64825673 48.7572768 102.40110225 40.82255819 95.15625 34.1328125 C94.49625 34.1328125 93.83625 34.1328125 93.15625 34.1328125 Z " fill="#33474B" transform="translate(108.84375,43.8671875)"/>
<path d="M0 0 C29.04 0 58.08 0 88 0 C88 25.08 88 50.16 88 76 C77.19346109 74.19891018 69.51968668 66.52456685 63 58 C61.37177394 55.67460532 60.19573724 53.59942878 59 51 C59.33 50.01 59.66 49.02 60 48 C60.99 48 61.98 48 63 48 C63 47.01 63 46.02 63 45 C62.071875 45.2165625 61.14375 45.433125 60.1875 45.65625 C50.35638263 47.72538 40.44062307 48.50996164 30.41259766 48.75146484 C28.97612206 48.7920066 27.54002826 48.84999452 26.10498047 48.92578125 C21.59730777 49.15121707 17.4013113 49.17655156 13 48 C9.92004786 45.05126193 8.48444734 41.95108264 7 38 C6.61328125 37.13914795 6.2265625 36.2782959 5.828125 35.39135742 C0.5200019 23.54633175 0 13.27452761 0 0 Z " fill="#309ABC" transform="translate(4,129)"/>
<path d="M0 0 C2.4447199 3.020572 4.66767173 5.99464395 6.6875 9.3125 C12.07112348 17.442042 19.33423791 22.73882148 28 27 C28 27.33 28 27.66 28 28 C2.71516082 28.86409808 -17.50519445 25.03906454 -37 8 C-37.74765625 7.47019531 -38.4953125 6.94039062 -39.265625 6.39453125 C-39.83796875 5.93433594 -40.4103125 5.47414062 -41 5 C-41 4.34 -41 3.68 -41 3 C-39.82981323 2.970271 -39.82981323 2.970271 -38.63598633 2.93994141 C-35.0278753 2.8434265 -31.4202464 2.73427046 -27.8125 2.625 C-25.97268555 2.57859375 -25.97268555 2.57859375 -24.09570312 2.53125 C-15.92916478 2.27267886 -8.04297914 1.43869159 0 0 Z " fill="#CFE9E9" transform="translate(62,178)"/>
<path d="M0 0 C7.59 0 15.18 0 23 0 C23 7.59 23 15.18 23 23 C15.41 23 7.82 23 0 23 C0 15.41 0 7.82 0 0 Z " fill="#1F8AA4" transform="translate(132,102)"/>
<path d="M0 0 C7.59 0 15.18 0 23 0 C23 7.59 23 15.18 23 23 C15.41 23 7.82 23 0 23 C0 15.41 0 7.82 0 0 Z " fill="#2D9DBA" transform="translate(106,102)"/>
<path d="M0 0 C7.59 0 15.18 0 23 0 C23 7.59 23 15.18 23 23 C15.41 23 7.82 23 0 23 C0 15.41 0 7.82 0 0 Z " fill="#1F8AA3" transform="translate(80,102)"/>
<path d="M0 0 C7.59 0 15.18 0 23 0 C23 7.59 23 15.18 23 23 C15.41 23 7.82 23 0 23 C0 15.41 0 7.82 0 0 Z " fill="#1F88A1" transform="translate(27,102)"/>
<path d="M0 0 C7.59 0 15.18 0 23 0 C23 7.59 23 15.18 23 23 C15.41 23 7.82 23 0 23 C0 15.41 0 7.82 0 0 Z " fill="#2D9DB9" transform="translate(106,49)"/>
<path d="M0 0 C7.26 0 14.52 0 22 0 C22 7.26 22 14.52 22 22 C14.74 22 7.48 22 0 22 C0 14.74 0 7.48 0 0 Z " fill="#33BBDE" transform="translate(54,102)"/>
<path d="M0 0 C7.26 0 14.52 0 22 0 C22 7.26 22 14.52 22 22 C14.74 22 7.48 22 0 22 C0 14.74 0 7.48 0 0 Z " fill="#2CA3C1" transform="translate(80,76)"/>
<path d="M0 0 C7.26 0 14.52 0 22 0 C22 7.26 22 14.52 22 22 C14.74 22 7.48 22 0 22 C0 14.74 0 7.48 0 0 Z " fill="#1D8EA9" transform="translate(54,76)"/>
<path d="M0 0 C7.26 0 14.52 0 22 0 C22 7.26 22 14.52 22 22 C14.74 22 7.48 22 0 22 C0 14.74 0 7.48 0 0 Z " fill="#22A2C2" transform="translate(106,76)"/>
<path d="M0 0 C0.33 7.26 0.66 14.52 1 22 C-11.25930041 17.91356653 -21.67190538 12.01593397 -31 3 C-31 2.34 -31 1.68 -31 1 C-27.06732611 0.8568968 -23.13462735 0.71449972 -19.2019043 0.57275391 C-17.20685496 0.50069904 -15.21182579 0.42808663 -13.21679688 0.35546875 C-11.33637695 0.28779297 -11.33637695 0.28779297 -9.41796875 0.21875 C-7.68196411 0.1559082 -7.68196411 0.1559082 -5.91088867 0.09179688 C-3.94133398 0.02968561 -1.97053381 0 0 0 Z " fill="#B3C8C8" transform="translate(52,180)"/>
<path d="M0 0 C0.33 0 0.66 0 1 0 C1 7.59 1 15.18 1 23 C8.59 23 16.18 23 24 23 C24 23.33 24 23.66 24 24 C57.66 24.33 91.32 24.66 126 25 C126 25.33 126 25.66 126 26 C68.91 26 11.82 26 -47 26 C-47 25.67 -47 25.34 -47 25 C-39.41 25 -31.82 25 -24 25 C-24 24.34 -24 23.68 -24 23 C-16.74 22.67 -9.48 22.34 -2 22 C-1.71075131 15.13412283 -1.71075131 15.13412283 -1.43188477 8.26782227 C-1.39377686 7.41760498 -1.35566895 6.5673877 -1.31640625 5.69140625 C-1.27974854 4.81685791 -1.24309082 3.94230957 -1.20532227 3.04125977 C-1 1 -1 1 0 0 Z " fill="#303839" transform="translate(52,102)"/>
<path d="M0 0 C3.96 0 7.92 0 12 0 C12 7.26 12 14.52 12 22 C8.04 22 4.08 22 0 22 C0 14.74 0 7.48 0 0 Z " fill="#22A2C1" transform="translate(38,102)"/>
<path d="M0 0 C3.63 0 7.26 0 11 0 C11 7.26 11 14.52 11 22 C7.37 22 3.74 22 0 22 C0 14.74 0 7.48 0 0 Z " fill="#22A2C1" transform="translate(143,102)"/>
<path d="M0 0 C3.63 0 7.26 0 11 0 C11 7.26 11 14.52 11 22 C7.37 22 3.74 22 0 22 C0 14.74 0 7.48 0 0 Z " fill="#33BBDE" transform="translate(117,102)"/>
<path d="M0 0 C3.63 0 7.26 0 11 0 C11 7.26 11 14.52 11 22 C7.37 22 3.74 22 0 22 C0 14.74 0 7.48 0 0 Z " fill="#2CA3C1" transform="translate(54,102)"/>
<path d="M0 0 C3.63 0 7.26 0 11 0 C11 7.26 11 14.52 11 22 C7.37 22 3.74 22 0 22 C0 14.74 0 7.48 0 0 Z " fill="#1D8DA8" transform="translate(106,76)"/>
<path d="M0 0 C3.63 0 7.26 0 11 0 C11 7.26 11 14.52 11 22 C7.37 22 3.74 22 0 22 C0 14.74 0 7.48 0 0 Z " fill="#33BADD" transform="translate(91,76)"/>
<path d="M0 0 C3.63 0 7.26 0 11 0 C11 7.26 11 14.52 11 22 C7.37 22 3.74 22 0 22 C0 14.74 0 7.48 0 0 Z " fill="#22A3C2" transform="translate(65,76)"/>
<path d="M0 0 C3.63 0 7.26 0 11 0 C11 7.26 11 14.52 11 22 C7.37 22 3.74 22 0 22 C0 14.74 0 7.48 0 0 Z " fill="#33BBDE" transform="translate(117,50)"/>
<path d="M0 0 C3.3 0 6.6 0 10 0 C10 7.26 10 14.52 10 22 C6.7 22 3.4 22 0 22 C0 14.74 0 7.48 0 0 Z " fill="#22A3C2" transform="translate(92,102)"/>
<path d="M0 0 C2 3 2 3 1.8125 6.5625 C1 10 1 10 -2 12 C-4.79523674 12.34940459 -6.3648354 12.37233787 -8.8125 10.9375 C-10.69021039 7.87386726 -10.43729494 5.49835955 -10 2 C-7.01983499 -1.66789539 -4.31348256 -1.31279904 0 0 Z " fill="#C7E2E4" transform="translate(79,162)"/>
<path d="M0 0 C0 0.99 0 1.98 0 3 C-9.09216248 6.99249939 -19.19880171 7.35355024 -29 7 C-28.67 6.34 -28.34 5.68 -28 5 C-34.27 4.67 -40.54 4.34 -47 4 C-47 3.67 -47 3.34 -47 3 C-46.17910889 2.98018066 -45.35821777 2.96036133 -44.51245117 2.93994141 C-41.41277669 2.8609827 -38.31343446 2.77427091 -35.21411133 2.68261719 C-33.23469465 2.62634176 -31.25503875 2.57869039 -29.27539062 2.53125 C-22.45898746 2.3241694 -15.95696601 1.85456565 -9.28125 0.42773438 C-6.12850695 -0.16340495 -3.19701129 -0.14208939 0 0 Z " fill="#33464B" transform="translate(67,174)"/>
<path d="M0 0 C10.89 0 21.78 0 33 0 C29 4 29 4 26.203125 4.390625 C25.22859375 4.34421875 24.2540625 4.2978125 23.25 4.25 C22.26515625 4.21390625 21.2803125 4.1778125 20.265625 4.140625 C19.14414062 4.07101563 19.14414062 4.07101563 18 4 C18.33 3.34 18.66 2.68 19 2 C12.73 1.67 6.46 1.34 0 1 C0 0.67 0 0.34 0 0 Z " fill="#304A52" transform="translate(20,177)"/>
<path d="M0 0 C0.99 0 1.98 0 3 0 C4.73543126 2.60314689 5.61121812 3.98694043 6 7 C5.34 7.66 4.68 8.32 4 9 C-0.55555556 8.44444444 -0.55555556 8.44444444 -2 7 C-2.1875 4.5625 -2.1875 4.5625 -2 2 C-1.34 1.34 -0.68 0.68 0 0 Z " fill="#2F3D40" transform="translate(73,163)"/>
<path d="M0 0 C0.33 0 0.66 0 1 0 C1 8.25 1 16.5 1 25 C-1.97 25 -4.94 25 -8 25 C-8 24.67 -8 24.34 -8 24 C-5.36 24 -2.72 24 0 24 C0 16.08 0 8.16 0 0 Z " fill="#354447" transform="translate(99,45)"/>
<path d="M0 0 C0.86625 0.3403125 0.86625 0.3403125 1.75 0.6875 C0.5125 1.2753125 0.5125 1.2753125 -0.75 1.875 C-1.9875 2.7721875 -1.9875 2.7721875 -3.25 3.6875 C-3.66666667 6.1875 -3.66666667 6.1875 -3.25 8.6875 C-3.25 9.6775 -3.25 10.6675 -3.25 11.6875 C-4.24 11.0275 -5.23 10.3675 -6.25 9.6875 C-6.6875 6.25 -6.6875 6.25 -6.25 2.6875 C-4.13578911 0.27125898 -3.2149628 -0.44652261 0 0 Z " fill="#9FBBBF" transform="translate(75.25,161.3125)"/>
<path d="M0 0 C2.31 0 4.62 0 7 0 C7 0.99 7 1.98 7 3 C4.69 3.33 2.38 3.66 0 4 C-0.33 3.34 -0.66 2.68 -1 2 C-0.67 1.34 -0.34 0.68 0 0 Z " fill="#2E4045" transform="translate(60,174)"/>
<path d="M0 0 C0.33 0 0.66 0 1 0 C1 8.25 1 16.5 1 25 C0.67 25 0.34 25 0 25 C0 16.75 0 8.5 0 0 Z " fill="#354547" transform="translate(161,98)"/>
<path d="M0 0 C8.25 0 16.5 0 25 0 C25 0.33 25 0.66 25 1 C16.75 1 8.5 1 0 1 C0 0.67 0 0.34 0 0 Z " fill="#2E3A3D" transform="translate(23,95)"/>
<path d="M0 0 C1.32 0.33 2.64 0.66 4 1 C3.67 2.65 3.34 4.3 3 6 C1.35 6.33 -0.3 6.66 -2 7 C-1.34 6.67 -0.68 6.34 0 6 C0 4.02 0 2.04 0 0 Z " fill="#3C4C4F" transform="translate(75,165)"/>
<path d="M0 0 C0.33 0 0.66 0 1 0 C1.1875 2.875 1.1875 2.875 1 6 C-2.22791555 8.1519437 -3.28400809 8.20086443 -7 8 C-7 7.34 -7 6.68 -7 6 C-5.5459375 5.62875 -5.5459375 5.62875 -4.0625 5.25 C-2.5465625 4.63125 -2.5465625 4.63125 -1 4 C-0.03122943 1.96756452 -0.03122943 1.96756452 0 0 Z " fill="#B2D2D6" transform="translate(79,166)"/>
<path d="M0 0 C5.28 0 10.56 0 16 0 C16 0.33 16 0.66 16 1 C10.72 1 5.44 1 0 1 C0 0.67 0 0.34 0 0 Z " fill="#354447" transform="translate(226,97)"/>
<path d="M0 0 C3.63 0 7.26 0 11 0 C11 0.33 11 0.66 11 1 C7.37 1 3.74 1 0 1 C0 0.67 0 0.34 0 0 Z " fill="#354447" transform="translate(91,212)"/>
<path d="M0 0 C2.64 0 5.28 0 8 0 C8 0.33 8 0.66 8 1 C5.36 1 2.72 1 0 1 C0 0.67 0 0.34 0 0 Z " fill="#2E3A3D" transform="translate(70,212)"/>
<path d="M0 0 C2.31 0 4.62 0 7 0 C7 0.33 7 0.66 7 1 C4.69 1 2.38 1 0 1 C0 0.67 0 0.34 0 0 Z " fill="#354447" transform="translate(222,129)"/>
<path d="M0 0 C1.98 0 3.96 0 6 0 C6 0.33 6 0.66 6 1 C4.02 1 2.04 1 0 1 C0 0.67 0 0.34 0 0 Z " fill="#354447" transform="translate(105,211)"/>
<path d="M0 0 C1.65 0 3.3 0 5 0 C5 0.33 5 0.66 5 1 C3.35 1 1.7 1 0 1 C0 0.67 0 0.34 0 0 Z " fill="#354447" transform="translate(112,210)"/>
<path d="M0 0 C1.65 0 3.3 0 5 0 C5 0.33 5 0.66 5 1 C3.35 1 1.7 1 0 1 C0 0.67 0 0.34 0 0 Z " fill="#354447" transform="translate(177,121)"/>
<path d="M0 0 C0.33 0 0.66 0 1 0 C1 1.65 1 3.3 1 5 C0.67 5 0.34 5 0 5 C0 3.35 0 1.7 0 0 Z " fill="#354447" transform="translate(191,87)"/>
<path d="M0 0 C4 1 4 1 4 1 Z " fill="#2E3B3E" transform="translate(64,211)"/>
<path d="M0 0 C4 1 4 1 4 1 Z " fill="#354447" transform="translate(118,209)"/>
<path d="M0 0 C1 4 1 4 1 4 Z " fill="#354447" transform="translate(191,101)"/>
<path d="M0 0 C0.99 1.485 0.99 1.485 2 3 C1.34 3 0.68 3 0 3 C0 2.01 0 1.02 0 0 Z " fill="#354447" transform="translate(223,96)"/>
<path d="M0 0 C3 1 3 1 3 1 Z " fill="#2F3C3F" transform="translate(59,210)"/>
<path d="M0 0 C3 1 3 1 3 1 Z " fill="#2E3B3E" transform="translate(55,209)"/>
<path d="M0 0 C3 1 3 1 3 1 Z " fill="#354448" transform="translate(123,208)"/>
<path d="M0 0 C3 1 3 1 3 1 Z " fill="#354448" transform="translate(127,207)"/>
<path d="M0 0 C3 1 3 1 3 1 Z " fill="#354447" transform="translate(134,205)"/>
<path d="M0 0 C3 1 3 1 3 1 Z " fill="#354447" transform="translate(137,204)"/>
<path d="" fill="#2E3B3E" transform="translate(0,0)"/>
<path d="" fill="#2F3C3F" transform="translate(0,0)"/>
<path d="M0 0 C3 1 3 1 3 1 Z " fill="#354547" transform="translate(230,128)"/>
<path d="M0 0 C3 1 3 1 3 1 Z " fill="#354447" transform="translate(184,120)"/>
<path d="" fill="#354447" transform="translate(0,0)"/>
<path d="M0 0 C3 1 3 1 3 1 Z " fill="#364448" transform="translate(243,98)"/>
<path d="M0 0 C2 1 2 1 2 1 Z " fill="#2F3B3F" transform="translate(52,208)"/>
<path d="M0 0 C2 1 2 1 2 1 Z " fill="#2E3C3F" transform="translate(49,207)"/>
<path d="M0 0 C2 1 2 1 2 1 Z " fill="#364447" transform="translate(131,206)"/>
<path d="M0 0 C2 1 2 1 2 1 Z " fill="#2F3C3F" transform="translate(46,206)"/>
<path d="M0 0 C2 1 2 1 2 1 Z " fill="#2E3B3E" transform="translate(44,205)"/>
<path d="M0 0 C2 1 2 1 2 1 Z " fill="#2D3A3D" transform="translate(42,204)"/>
<path d="M0 0 C2 1 2 1 2 1 Z " fill="#364448" transform="translate(140,203)"/>
<path d="M0 0 C2 1 2 1 2 1 Z " fill="#354448" transform="translate(143,202)"/>
<path d="M0 0 C2 1 2 1 2 1 Z " fill="#354447" transform="translate(145,201)"/>
<path d="M0 0 C2 1 2 1 2 1 Z " fill="#2D3A3C" transform="translate(36,201)"/>
<path d="M0 0 C2 1 2 1 2 1 Z " fill="#354548" transform="translate(148,200)"/>
<path d="M0 0 C2 1 2 1 2 1 Z " fill="#2E3C3E" transform="translate(34,200)"/>
<path d="M0 0 C2 1 2 1 2 1 Z " fill="#354447" transform="translate(150,199)"/>
<path d="M0 0 C2 1 2 1 2 1 Z " fill="#354448" transform="translate(152,198)"/>
<path d="M0 0 C2 1 2 1 2 1 Z " fill="#2D3A3D" transform="translate(31,198)"/>
<path d="M0 0 C2 1 2 1 2 1 Z " fill="#354448" transform="translate(154,197)"/>
<path d="M0 0 C2 1 2 1 2 1 Z " fill="#364448" transform="translate(156,196)"/>
<path d="M0 0 C2 1 2 1 2 1 Z " fill="#2E3B3E" transform="translate(28,196)"/>
<path d="M0 0 C2 1 2 1 2 1 Z " fill="#364547" transform="translate(158,195)"/>
<path d="M0 0 C2 1 2 1 2 1 Z " fill="#354448" transform="translate(160,194)"/>
<path d="M0 0 C2 1 2 1 2 1 Z " fill="#354447" transform="translate(165,191)"/>
<path d="M0 0 C2 1 2 1 2 1 Z " fill="#354447" transform="translate(168,189)"/>
<path d="M0 0 C2 1 2 1 2 1 Z " fill="#354447" transform="translate(171,187)"/>
<path d="M0 0 C2 1 2 1 2 1 Z " fill="#364447" transform="translate(175,184)"/>
<path d="M0 0 C2 1 2 1 2 1 Z " fill="#354447" transform="translate(180,180)"/>
<path d="" fill="#2F3B3E" transform="translate(0,0)"/>
<path d="" fill="#2C393C" transform="translate(0,0)"/>
<path d="" fill="#2E3B3E" transform="translate(0,0)"/>
<path d="" fill="#2D3A3D" transform="translate(0,0)"/>
<path d="" fill="#2D393D" transform="translate(0,0)"/>
<path d="" fill="#2D3B3E" transform="translate(0,0)"/>
<path d="" fill="#2F3C3F" transform="translate(0,0)"/>
<path d="" fill="#2D3B3D" transform="translate(0,0)"/>
<path d="" fill="#354447" transform="translate(0,0)"/>
<path d="" fill="#354447" transform="translate(0,0)"/>
<path d="" fill="#364548" transform="translate(0,0)"/>
<path d="" fill="#354448" transform="translate(0,0)"/>
<path d="" fill="#354447" transform="translate(0,0)"/>
<path d="" fill="#354447" transform="translate(0,0)"/>
<path d="" fill="#354448" transform="translate(0,0)"/>
<path d="" fill="#354448" transform="translate(0,0)"/>
<path d="" fill="#364447" transform="translate(0,0)"/>
<path d="" fill="#354548" transform="translate(0,0)"/>
<path d="" fill="#354548" transform="translate(0,0)"/>
<path d="" fill="#354448" transform="translate(0,0)"/>
<path d="M0 0 C2 1 2 1 2 1 Z " fill="#354447" transform="translate(234,127)"/>
<path d="M0 0 C2 1 2 1 2 1 Z " fill="#354547" transform="translate(237,126)"/>
<path d="M0 0 C2 1 2 1 2 1 Z " fill="#354447" transform="translate(239,125)"/>
<path d="M0 0 C2 1 2 1 2 1 Z " fill="#364547" transform="translate(241,124)"/>
<path d="M0 0 C2 1 2 1 2 1 Z " fill="#354447" transform="translate(188,119)"/>
<path d="M0 0 C2 1 2 1 2 1 Z " fill="#354447" transform="translate(191,118)"/>
<path d="" fill="#354547" transform="translate(0,0)"/>
<path d="" fill="#354447" transform="translate(0,0)"/>
<path d="" fill="#354447" transform="translate(0,0)"/>
<path d="M0 0 C2 1 2 1 2 1 Z " fill="#354447" transform="translate(253,102)"/>
<path d="M0 0 C2 1 2 1 2 1 Z " fill="#354447" transform="translate(251,101)"/>
<path d="M0 0 C2 1 2 1 2 1 Z " fill="#354448" transform="translate(249,100)"/>
<path d="M0 0 C2 1 2 1 2 1 Z " fill="#364448" transform="translate(247,99)"/>
<path d="" fill="#364447" transform="translate(0,0)"/>
<path d="" fill="#364447" transform="translate(0,0)"/>
<path d="" fill="#354547" transform="translate(0,0)"/>
<path d="" fill="#354447" transform="translate(0,0)"/>
<path d="" fill="#364446" transform="translate(0,0)"/>
<path d="" fill="#354447" transform="translate(0,0)"/>
<path d="M0 0 C2 1 2 1 2 1 Z " fill="#354447" transform="translate(205,72)"/>
<path d="" fill="#2F3C3F" transform="translate(0,0)"/>
<path d="" fill="#2F3C3F" transform="translate(0,0)"/>
<path d="" fill="#2F3C3F" transform="translate(0,0)"/>
<path d="" fill="#2F3C3F" transform="translate(0,0)"/>
<path d="" fill="#2F3C3F" transform="translate(0,0)"/>
<path d="" fill="#2F3C3E" transform="translate(0,0)"/>
<path d="" fill="#364547" transform="translate(0,0)"/>
<path d="" fill="#2E3A3D" transform="translate(0,0)"/>
<path d="" fill="#364547" transform="translate(0,0)"/>
<path d="" fill="#2F3D40" transform="translate(0,0)"/>
<path d="" fill="#2F3C3F" transform="translate(0,0)"/>
<path d="" fill="#364447" transform="translate(0,0)"/>
<path d="" fill="#2F3C3F" transform="translate(0,0)"/>
<path d="" fill="#2F3C40" transform="translate(0,0)"/>
<path d="" fill="#354447" transform="translate(0,0)"/>
<path d="" fill="#2F3D3F" transform="translate(0,0)"/>
<path d="" fill="#2F3C3F" transform="translate(0,0)"/>
<path d="" fill="#364447" transform="translate(0,0)"/>
<path d="" fill="#2F3D40" transform="translate(0,0)"/>
<path d="" fill="#364448" transform="translate(0,0)"/>
<path d="" fill="#2F3D40" transform="translate(0,0)"/>
<path d="" fill="#303D40" transform="translate(0,0)"/>
<path d="" fill="#364548" transform="translate(0,0)"/>
<path d="" fill="#354547" transform="translate(0,0)"/>
<path d="" fill="#2E3A3E" transform="translate(0,0)"/>
<path d="" fill="#364547" transform="translate(0,0)"/>
<path d="" fill="#2F3C3F" transform="translate(0,0)"/>
<path d="" fill="#2F3C40" transform="translate(0,0)"/>
<path d="" fill="#364447" transform="translate(0,0)"/>
<path d="" fill="#364547" transform="translate(0,0)"/>
<path d="" fill="#354447" transform="translate(0,0)"/>
<path d="" fill="#2F3C3E" transform="translate(0,0)"/>
<path d="" fill="#364547" transform="translate(0,0)"/>
<path d="" fill="#364547" transform="translate(0,0)"/>
<path d="" fill="#364447" transform="translate(0,0)"/>
<path d="" fill="#2F3C3F" transform="translate(0,0)"/>
<path d="" fill="#364447" transform="translate(0,0)"/>
<path d="" fill="#354548" transform="translate(0,0)"/>
<path d="" fill="#354448" transform="translate(0,0)"/>
<path d="" fill="#364447" transform="translate(0,0)"/>
<path d="" fill="#364548" transform="translate(0,0)"/>
<path d="" fill="#364548" transform="translate(0,0)"/>
<path d="" fill="#364548" transform="translate(0,0)"/>
<path d="" fill="#354448" transform="translate(0,0)"/>
<path d="" fill="#364447" transform="translate(0,0)"/>
<path d="" fill="#364548" transform="translate(0,0)"/>
<path d="" fill="#354448" transform="translate(0,0)"/>
<path d="" fill="#364447" transform="translate(0,0)"/>
<path d="" fill="#354448" transform="translate(0,0)"/>
<path d="" fill="#364447" transform="translate(0,0)"/>
<path d="" fill="#364547" transform="translate(0,0)"/>
<path d="" fill="#364448" transform="translate(0,0)"/>
<path d="" fill="#364548" transform="translate(0,0)"/>
<path d="" fill="#364547" transform="translate(0,0)"/>
<path d="" fill="#364548" transform="translate(0,0)"/>
<path d="" fill="#354548" transform="translate(0,0)"/>
<path d="" fill="#364447" transform="translate(0,0)"/>
<path d="" fill="#2F3D40" transform="translate(0,0)"/>
<path d="" fill="#364548" transform="translate(0,0)"/>
<path d="" fill="#354547" transform="translate(0,0)"/>
<path d="" fill="#354447" transform="translate(0,0)"/>
<path d="" fill="#354548" transform="translate(0,0)"/>
<path d="" fill="#364447" transform="translate(0,0)"/>
<path d="" fill="#364548" transform="translate(0,0)"/>
<path d="" fill="#364548" transform="translate(0,0)"/>
<path d="" fill="#354448" transform="translate(0,0)"/>
<path d="" fill="#364548" transform="translate(0,0)"/>
<path d="" fill="#364447" transform="translate(0,0)"/>
<path d="" fill="#364548" transform="translate(0,0)"/>
<path d="" fill="#364447" transform="translate(0,0)"/>
<path d="" fill="#354448" transform="translate(0,0)"/>
<path d="" fill="#364547" transform="translate(0,0)"/>
<path d="" fill="#364448" transform="translate(0,0)"/>
<path d="" fill="#364547" transform="translate(0,0)"/>
<path d="" fill="#364548" transform="translate(0,0)"/>
<path d="" fill="#354548" transform="translate(0,0)"/>
<path d="" fill="#364548" transform="translate(0,0)"/>
<path d="" fill="#354547" transform="translate(0,0)"/>
<path d="" fill="#364448" transform="translate(0,0)"/>
<path d="" fill="#354548" transform="translate(0,0)"/>
<path d="" fill="#354547" transform="translate(0,0)"/>
<path d="" fill="#364447" transform="translate(0,0)"/>
<path d="" fill="#364447" transform="translate(0,0)"/>
<path d="" fill="#354547" transform="translate(0,0)"/>
<path d="" fill="#364547" transform="translate(0,0)"/>
<path d="" fill="#364547" transform="translate(0,0)"/>
<path d="" fill="#364547" transform="translate(0,0)"/>
<path d="" fill="#354548" transform="translate(0,0)"/>
<path d="" fill="#364447" transform="translate(0,0)"/>
<path d="" fill="#354547" transform="translate(0,0)"/>
<path d="" fill="#364547" transform="translate(0,0)"/>
<path d="" fill="#364547" transform="translate(0,0)"/>
</svg>
