<?xml version="1.0" encoding="UTF-8"?>
<svg version="1.1" xmlns="http://www.w3.org/2000/svg" width="225" height="225">
<path d="M0 0 C74.25 0 148.5 0 225 0 C225 74.25 225 148.5 225 225 C150.75 225 76.5 225 0 225 C0 150.75 0 76.5 0 0 Z " fill="#502AD3" transform="translate(0,0)"/>
<path d="M0 0 C3.96 0 7.92 0 12 0 C14.80828605 3.06056707 16.13692918 5.00771572 17.875 8.625 C18.85251158 10.44760327 19.83446771 12.26782815 20.8203125 14.0859375 C21.32594727 15.0459668 21.83158203 16.00599609 22.35253906 16.99511719 C25.22848678 22.24069581 28.50267809 27.22920493 31.75 32.25 C33.8125 35.4675 35.875 38.685 38 42 C38.33 28.14 38.66 14.28 39 0 C42.3 0 45.6 0 49 0 C49 19.47 49 38.94 49 59 C38 59 38 59 35.45703125 56.97485352 C34.91433594 56.03569092 34.37164062 55.09652832 33.8125 54.12890625 C33.17570312 53.07767578 32.53890625 52.02644531 31.8828125 50.94335938 C31.26148437 49.82767578 30.64015625 48.71199219 30 47.5625 C28.73046646 45.41719903 27.45960367 43.2726842 26.1875 41.12890625 C24.805625 38.77636719 23.42375 36.42382812 22 34 C18.37 28.39 14.74 22.78 11 17 C10.67 30.86 10.34 44.72 10 59 C6.7 59 3.4 59 0 59 C0 39.53 0 20.06 0 0 Z " fill="#F5F3FC" transform="translate(55,84)"/>
<path d="M0 0 C10.23 0 20.46 0 31 0 C31 2.97 31 5.94 31 9 C24.07 9 17.14 9 10 9 C10 14.28 10 19.56 10 25 C16.27 25 22.54 25 29 25 C29 27.64 29 30.28 29 33 C22.73 33 16.46 33 10 33 C10 38.94 10 44.88 10 51 C17.26 51 24.52 51 32 51 C32 53.64 32 56.28 32 59 C21.44 59 10.88 59 0 59 C0 39.53 0 20.06 0 0 Z " fill="#F9F8FD" transform="translate(116,84)"/>
<path d="M0 0 C14.19 0 28.38 0 43 0 C43 2.97 43 5.94 43 9 C37.72 9 32.44 9 27 9 C27 25.5 27 42 27 59 C23.7 59 20.4 59 17 59 C17 42.5 17 26 17 9 C11.39 9 5.78 9 0 9 C0 6.03 0 3.06 0 0 Z " fill="#F3F1FB" transform="translate(151,84)"/>
<path d="M0 0 C3.0625 0.3125 3.0625 0.3125 4.9375 1.5 C6.48479478 3.99286381 6.56655716 5.43217335 6.0625 8.3125 C4.4375 10.1875 4.4375 10.1875 2.0625 11.3125 C-1.0625 11.1875 -1.0625 11.1875 -3.9375 10.3125 C-5.9375 7.3125 -5.9375 7.3125 -5.6875 4.75 C-4.58727173 1.17425813 -3.7416128 0.39804391 0 0 Z " fill="#F5F4FC" transform="translate(39.9375,132.6875)"/>
</svg>
