<?xml version="1.0" encoding="UTF-8"?>
<svg version="1.1" xmlns="http://www.w3.org/2000/svg" width="800" height="500">
<path d="M0 0 C264 0 528 0 800 0 C800 165 800 330 800 500 C536 500 272 500 0 500 C0 335 0 170 0 0 Z " fill="#FEFEFE" transform="translate(0,0)"/>
<path d="M0 0 C60.06 0 120.12 0 182 0 C182 60.06 182 120.12 182 182 C121.94 182 61.88 182 0 182 C0 121.94 0 61.88 0 0 Z " fill="#F6DE1D" transform="translate(585,117)"/>
<path d="M0 0 C4.00746715 2.41818103 6.78839307 4.88549912 9.25 8.875 C9.07958412 11.74934788 8.47467209 12.67220268 6.32421875 14.61328125 C5.53660156 15.13277344 4.74898437 15.65226562 3.9375 16.1875 C3.15761719 16.71988281 2.37773438 17.25226563 1.57421875 17.80078125 C-0.75 18.875 -0.75 18.875 -2.90625 18.671875 C-4.75 17.875 -4.75 17.875 -6.9375 15.8125 C-10.39712838 13.42920045 -12.59979594 13.2862398 -16.71875 13.4921875 C-18.91448249 13.74830514 -18.91448249 13.74830514 -20.875 15.5 C-22.08736889 18.79071555 -21.85743213 20.5527036 -20.75 23.875 C-17.09118328 27.30344678 -13.04738354 29.27494923 -8.5 31.25 C0.92017637 35.51096277 9.8312182 39.87463727 14.5625 49.5625 C16.29918053 57.93014256 16.03044867 65.59050678 11.25 72.875 C5.93273266 79.34819502 -1.8145586 82.34641482 -9.99609375 83.22265625 C-21.23773701 83.52720018 -30.10022033 81.13060899 -38.4375 73.375 C-40.37276101 71.28282593 -42.11193014 69.20278348 -43.75 66.875 C-42.32106495 63.28729749 -40.73491303 61.90989404 -37.375 60.0625 C-36.60414063 59.62292969 -35.83328125 59.18335938 -35.0390625 58.73046875 C-32.37997727 57.73671506 -31.34023573 57.78266677 -28.75 58.875 C-27.04220027 60.49949243 -25.37449243 62.16720027 -23.75 63.875 C-20.32670149 66.15719901 -18.90862332 66.17241163 -14.875 66.1875 C-13.84632813 66.20425781 -12.81765625 66.22101563 -11.7578125 66.23828125 C-8.33889385 65.82534692 -6.47898089 64.94980658 -3.75 62.875 C-2.49670216 60.02210302 -2.49670216 60.02210302 -2.75 56.875 C-5.9825217 51.19950932 -11.33924375 49.43083875 -17.0625 46.9375 C-25.46411938 43.26654853 -34.16015574 39.34787916 -38.08203125 30.4765625 C-39.78668581 23.83738157 -40.37901963 15.57682534 -37.57421875 9.203125 C-36.10187661 7.17913012 -34.61166072 5.54255391 -32.75 3.875 C-31.904375 3.09125 -31.05875 2.3075 -30.1875 1.5 C-21.92508868 -4.00827421 -8.97195707 -4.20856508 0 0 Z " fill="#040400" transform="translate(737.75,202.125)"/>
<path d="M0 0 C26.07 0 52.14 0 79 0 C79 0.99 79 1.98 79 3 C53.92 3 28.84 3 3 3 C3 20.16 3 37.32 3 55 C26.76 55 50.52 55 75 55 C75 56.32 75 57.64 75 59 C51.57 59 28.14 59 4 59 C4 77.48 4 95.96 4 115 C29.74 115 55.48 115 82 115 C82.99 113.02 82.99 113.02 84 111 C84.78235232 109.84707716 85.59500015 108.71424709 86.43359375 107.6015625 C86.91248047 106.96387939 87.39136719 106.32619629 87.88476562 105.66918945 C88.39716797 104.99460693 88.90957031 104.32002441 89.4375 103.625 C89.96666016 102.9239917 90.49582031 102.2229834 91.04101562 101.50073242 C97.55935786 92.89454424 104.24834163 84.42394413 111 76 C109.68768184 72.34137943 108.10610563 69.54640591 105.7265625 66.48046875 C105.07171875 65.63000977 104.416875 64.77955078 103.7421875 63.90332031 C102.69417969 62.55898926 102.69417969 62.55898926 101.625 61.1875 C100.17923753 59.31154462 98.73393006 57.43523849 97.2890625 55.55859375 C96.56879883 54.62644043 95.84853516 53.69428711 95.10644531 52.73388672 C92.04409252 48.75935884 89.01586417 44.75986555 86 40.75 C85.49033691 40.07735107 84.98067383 39.40470215 84.45556641 38.71166992 C81 34.11696569 81 34.11696569 81 33 C83.1328125 32.515625 83.1328125 32.515625 86 33 C88.34238952 35.30123721 90.06070033 38.024749 91.875 40.75 C93.00955389 42.38952104 94.14636672 44.02748065 95.28515625 45.6640625 C95.88215332 46.5293457 96.47915039 47.39462891 97.09423828 48.28613281 C100.39087565 52.98065254 103.8549024 57.54845214 107.3125 62.125 C107.97685059 63.00768555 108.64120117 63.89037109 109.32568359 64.79980469 C110.88218893 66.86775081 112.44028449 68.93447476 114 71 C118.17464516 67.20486804 121.27334392 62.67286925 124.5625 58.125 C125.81119127 56.42091523 127.06120589 54.71779944 128.3125 53.015625 C128.93253906 52.17193359 129.55257812 51.32824219 130.19140625 50.45898438 C131.08666016 49.24178711 131.08666016 49.24178711 132 48 C132.54269531 47.26072266 133.08539063 46.52144531 133.64453125 45.75976562 C135.10264059 43.78670374 136.57881574 41.82886772 138.0625 39.875 C138.49054932 39.28992676 138.91859863 38.70485352 139.35961914 38.10205078 C141.37115587 35.48637869 142.61124094 34.12003409 145.80859375 33.1328125 C146.89333984 33.06707031 146.89333984 33.06707031 148 33 C144.61126759 38.40481372 140.89789544 43.50217241 136.9375 48.5 C136.47915771 49.08072266 136.02081543 49.66144531 135.54858398 50.25976562 C133.44471939 52.9220744 131.33645534 55.58051127 129.21337891 58.22753906 C127.38046053 60.5175986 125.56438062 62.82023956 123.75 65.125 C122.87202759 66.2087793 122.87202759 66.2087793 121.97631836 67.31445312 C121.44272705 67.99701172 120.90913574 68.67957031 120.359375 69.3828125 C119.87952148 69.98496582 119.39966797 70.58711914 118.90527344 71.20751953 C117.80516971 72.97662614 117.80516971 72.97662614 118.24047852 75.06347656 C119.39177928 77.99890493 121.23290373 80.15704321 123.1875 82.625 C124.09376103 83.77863717 125.00001035 84.93228354 125.90625 86.0859375 C126.64681641 87.02131348 126.64681641 87.02131348 127.40234375 87.97558594 C129.74067164 90.93851608 132.05233447 93.92195782 134.36645508 96.90380859 C136.11069962 99.1510522 137.85752491 101.39625805 139.60546875 103.640625 C140.15509277 104.34896484 140.7047168 105.05730469 141.27099609 105.78710938 C142.49872722 107.35843879 143.73717383 108.92142191 144.98291016 110.47851562 C145.62405762 111.28482422 146.26520508 112.09113281 146.92578125 112.921875 C147.51399658 113.6550293 148.10221191 114.38818359 148.70825195 115.14355469 C150 117 150 117 150 119 C147.3211758 118.93668234 145.56873276 118.56730378 143.63964844 116.64306641 C142.15262165 114.73990596 140.75525859 112.79449751 139.375 110.8125 C138.31792633 109.34786004 137.25930013 107.8843395 136.19921875 106.421875 C135.66731934 105.68130859 135.13541992 104.94074219 134.58740234 104.17773438 C132.20316593 100.90683483 129.70461864 97.7316354 127.1875 94.5625 C123.50306845 89.91651369 119.87865129 85.23535014 116.33984375 80.4765625 C115.89769531 79.98929687 115.45554687 79.50203125 115 79 C114.34 79 113.68 79 113 79 C111.59946911 80.67520398 110.28102288 82.41923092 109 84.1875 C108.18578383 85.30012954 107.37064828 86.41208676 106.5546875 87.5234375 C105.92191895 88.3892041 105.92191895 88.3892041 105.27636719 89.27246094 C102.49848202 93.03227644 99.60777614 96.70544395 96.69831848 100.36387634 C94.83497892 102.78110291 93.25781972 105.2198907 91.76933289 107.88282776 C85.98758717 117.76501968 85.98758717 117.76501968 80.98407364 119.83332443 C75.2997211 121.09466014 69.5458866 120.7269325 63.76953125 120.46484375 C62.13268713 120.44274277 60.49573641 120.42746879 58.85876465 120.41906738 C52.84170867 120.3409567 46.82693403 120.13152877 40.8125 119.9375 C27.344375 119.628125 13.87625 119.31875 0 119 C0 79.73 0 40.46 0 0 Z " fill="#4A4A4A" transform="translate(49,171)"/>
<path d="M0 0 C5.61 0 11.22 0 17 0 C17.09073497 8.3022496 17.16396408 16.60410714 17.20724869 24.90672112 C17.22803376 28.76287279 17.25618242 32.61866469 17.30175781 36.47460938 C17.34554361 40.20290741 17.36920521 43.93086161 17.37950897 47.65939713 C17.3868422 49.07464121 17.40116079 50.48986864 17.42292023 51.90496445 C17.55552467 60.89453975 17.4868171 69.72275345 11.38531494 76.8991394 C5.82732079 82.33537921 -0.95756716 84.1225541 -8.5625 84.375 C-16.55265435 84.12949246 -23.77368579 81.34053892 -29.4453125 75.515625 C-31.5683246 73.06506246 -32.96845821 71.09462536 -34 68 C-32.07053972 66.63292504 -30.13289523 65.28155046 -28.1875 63.9375 C-27.10855469 63.18339844 -26.02960937 62.42929687 -24.91796875 61.65234375 C-23.95503906 61.10707031 -22.99210938 60.56179688 -22 60 C-19 61 -19 61 -16.875 64.0625 C-15.2141217 66.17404345 -14.44338752 66.90710719 -11.78125 67.46484375 C-7.59234141 67.52604534 -5.5721035 67.38140233 -2 65 C-0.92429907 61.7728972 -0.8428884 59.3634259 -0.79467773 55.96801758 C-0.77473251 54.72695755 -0.75478729 53.48589752 -0.73423767 52.20722961 C-0.71725473 50.8529981 -0.70037587 49.49876527 -0.68359375 48.14453125 C-0.66301772 46.75875741 -0.64202108 45.37298975 -0.62062073 43.98722839 C-0.56546699 40.34259047 -0.51602826 36.69789654 -0.46777344 33.05316162 C-0.41750944 29.3329165 -0.36184896 25.61275257 -0.30664062 21.89257812 C-0.19914098 14.59511896 -0.09817671 7.29759164 0 0 Z " fill="#020200" transform="translate(667,201)"/>
<path d="M0 0 C10.75770252 6.72806144 16.28317677 16.26140264 19.19775391 28.54467773 C19.88256658 32.36627701 19.92549464 36.14956118 19.8984375 40.0234375 C19.89106567 41.2762854 19.89106567 41.2762854 19.88354492 42.55444336 C19.64238214 55.2989688 15.48762766 67.38180781 6.75390625 76.88671875 C-2.4848709 84.66060871 -12.71280399 86.58545261 -24.4140625 85.7109375 C-33.90515495 83.60848031 -41.35438842 79.04774847 -46.8515625 71.0234375 C-48.42981762 68.53349278 -49.47611938 66.52476685 -50.4140625 63.7109375 C-50.7440625 79.8809375 -51.0740625 96.0509375 -51.4140625 112.7109375 C-52.7340625 112.7109375 -54.0540625 112.7109375 -55.4140625 112.7109375 C-55.4140625 74.7609375 -55.4140625 36.8109375 -55.4140625 -2.2890625 C-54.0940625 -2.2890625 -52.7740625 -2.2890625 -51.4140625 -2.2890625 C-51.0840625 4.3109375 -50.7540625 10.9109375 -50.4140625 17.7109375 C-49.4446875 16.0403125 -48.4753125 14.3696875 -47.4765625 12.6484375 C-36.94529371 -3.77105573 -17.38972563 -9.28577582 0 0 Z M-43.7265625 12.140625 C-51.88549077 24.56788148 -53.56501197 40.32003439 -50.6640625 54.7734375 C-50.28883476 56.09837958 -49.87223557 57.41234411 -49.4140625 58.7109375 C-49.15753906 59.4534375 -48.90101563 60.1959375 -48.63671875 60.9609375 C-45.46851147 69.01063154 -40.07227575 75.56273866 -32.4140625 79.7109375 C-23.30719415 82.79896314 -11.71485673 83.81655032 -2.7890625 79.6484375 C6.96032536 73.70611111 10.99525157 66.11030013 14.69921875 55.53125 C17.75583264 42.3622263 17.07209679 26.21290215 10.23046875 14.36328125 C5.44279672 7.49624496 -0.96503778 1.3024077 -9.4140625 -0.2890625 C-23.28365082 -1.76075515 -34.50113711 0.80103963 -43.7265625 12.140625 Z " fill="#393939" transform="translate(261.4140625,206.2890625)"/>
<path d="M0 0 C8.50993283 6.8319179 14.14597716 15.83825049 15.75390625 26.74609375 C15.96371614 31.01222823 15.94140625 35.28730312 15.94140625 39.55859375 C-7.48859375 39.55859375 -30.91859375 39.55859375 -55.05859375 39.55859375 C-52.80687153 59.46821236 -52.80687153 59.46821236 -41.05859375 74.55859375 C-34.74031598 78.25426624 -28.99691725 79.27402126 -21.74609375 79.18359375 C-20.82691162 79.17521484 -19.90772949 79.16683594 -18.96069336 79.15820312 C-10.29327908 78.87089397 -3.44398779 76.83831564 2.88671875 70.66015625 C6.37483371 66.39690463 8.26858367 61.7543142 9.94140625 56.55859375 C10.60207344 54.8895398 11.26578877 53.22165215 11.94140625 51.55859375 C12.93140625 51.55859375 13.92140625 51.55859375 14.94140625 51.55859375 C14.09326627 61.3122035 10.78540293 68.8248178 3.58984375 75.578125 C-6.40777964 83.05422391 -17.9826145 84.56148406 -30.05859375 83.55859375 C-38.85531463 81.94331498 -45.24957461 77.23949099 -51.05859375 70.55859375 C-53.21024683 67.35949325 -54.71237677 64.16492296 -56.05859375 60.55859375 C-56.37570312 59.74003906 -56.6928125 58.92148437 -57.01953125 58.078125 C-61.4398278 44.67529923 -60.29973802 28.05048763 -54.37109375 15.37109375 C-48.7468476 4.89508827 -41.6951605 -1.38677955 -30.62109375 -5.81640625 C-19.69387181 -7.73346273 -9.28807781 -6.32339843 0 0 Z M-46.05859375 8.55859375 C-53.12732557 17.3065492 -55.05859375 24.31320511 -55.05859375 35.55859375 C-32.94859375 35.55859375 -10.83859375 35.55859375 11.94140625 35.55859375 C11.94140625 23.12886701 10.34505893 14.94995898 1.94140625 5.55859375 C-12.9189339 -6.94993604 -32.96878955 -5.44252593 -46.05859375 8.55859375 Z " fill="#3B3B3B" transform="translate(393.05859375,208.44140625)"/>
<path d="M0 0 C5.32818303 4.15068401 7.99700267 9.01015773 9.62109375 15.52734375 C9.88292784 17.97985642 9.83591513 20.05689785 9.62109375 22.52734375 C8.30109375 22.52734375 6.98109375 22.52734375 5.62109375 22.52734375 C5.523125 21.80289063 5.42515625 21.0784375 5.32421875 20.33203125 C4.18328509 12.95530497 2.84413525 8.04972405 -3.25390625 3.27734375 C-12.34559299 -1.81400083 -23.52606389 -1.93459595 -33.6015625 0.21484375 C-39.04148765 2.18404743 -42.24509027 4.67498352 -45.37890625 9.52734375 C-47.4246638 14.24832271 -46.83370632 19.87057205 -45.50390625 24.71484375 C-39.12831609 33.15312484 -26.22853385 34.54217209 -16.54296875 36.75585938 C-7.09310089 39.03778769 3.05769244 41.7948214 9.37109375 49.65234375 C12.83108274 55.72267946 12.79032145 62.21852315 10.98828125 68.859375 C8.1591428 75.52441739 2.40451006 79.3842992 -4.00390625 82.33984375 C-14.64257959 86.08308067 -28.03260895 86.25758584 -38.37890625 81.52734375 C-45.95106462 77.46569551 -50.57195756 72.79157896 -53.37890625 64.52734375 C-53.57421875 61.6328125 -53.57421875 61.6328125 -53.50390625 58.71484375 C-53.48585938 57.73902344 -53.4678125 56.76320313 -53.44921875 55.7578125 C-53.42601562 55.02175781 -53.4028125 54.28570312 -53.37890625 53.52734375 C-52.38890625 53.52734375 -51.39890625 53.52734375 -50.37890625 53.52734375 C-50.2809375 54.22859375 -50.18296875 54.92984375 -50.08203125 55.65234375 C-48.52905854 66.28309512 -48.52905854 66.28309512 -42 74.31640625 C-34.64767435 78.83268197 -29.25342059 79.75629675 -20.75390625 79.83984375 C-19.79355469 79.86884766 -18.83320312 79.89785156 -17.84375 79.92773438 C-9.08960415 80.0049419 -1.78316706 77.73753605 4.62109375 71.52734375 C6.8355484 68.08870114 6.9195802 65.13041845 6.93359375 61.08984375 C6.95035156 59.97738281 6.96710937 58.86492187 6.984375 57.71875 C6.50159279 53.47753427 5.18635228 50.85511478 1.921875 48.0859375 C-4.75277574 44.32243109 -11.8032991 42.77138867 -19.18798828 41.04980469 C-43.61927337 35.22375721 -43.61927337 35.22375721 -49.44140625 26.40234375 C-51.0878698 19.59696108 -51.95995507 12.49547156 -48.44140625 6.15234375 C-37.49008039 -8.73897753 -14.76616295 -9.14095802 0 0 Z " fill="#373737" transform="translate(549.37890625,207.47265625)"/>
<path d="M0 0 C0.62261719 0.26683594 1.24523437 0.53367188 1.88671875 0.80859375 C6.98817246 3.29845727 10.06860465 7.20943108 13 12 C13.96070434 14.88211302 14.10581883 16.69850044 14.0625 19.6875 C14.05347656 20.49574219 14.04445313 21.30398437 14.03515625 22.13671875 C14.02355469 22.75160156 14.01195312 23.36648437 14 24 C13.01 24 12.02 24 11 24 C10.91363281 23.35933594 10.82726562 22.71867187 10.73828125 22.05859375 C9.76342122 16.05739119 8.51667479 11.26700935 4 7 C-5.05874013 0.98528996 -17.12909714 0.50582263 -27.61328125 2.49609375 C-32.60935892 4.21319229 -37.30845444 7.29468569 -40.140625 11.82421875 C-42.2362153 17.12987237 -41.69436686 23.12520946 -39.75 28.375 C-32.48395707 35.31076825 -21.92021829 36.84941153 -12.4465332 39.12963867 C8.87996428 44.32349367 8.87996428 44.32349367 15 53 C17.50986153 58.12884746 17.86057055 63.60168857 16.46484375 69.11328125 C14.59667106 74.53404463 12.16831566 78.63498791 7.1953125 81.765625 C6.18210937 82.25546875 5.16890625 82.7453125 4.125 83.25 C3.11695313 83.75015625 2.10890625 84.2503125 1.0703125 84.765625 C-8.45340288 88.59449785 -21.09105172 88.48073857 -30.72265625 85.03515625 C-38.19953067 81.63657697 -43.58927339 77.60964635 -47 70 C-48.81372735 65.00747682 -49.2190693 60.2576633 -49 55 C-47.68 55 -46.36 55 -45 55 C-44.91363281 55.845625 -44.82726562 56.69125 -44.73828125 57.5625 C-43.67943156 66.11101128 -42.60449794 72.23709747 -35.77734375 77.81640625 C-26.28614787 83.70231333 -14.7864649 83.50056176 -4 82 C1.81840898 80.60958132 7.19189 77.80068289 10.75 72.875 C12.91439242 67.85450212 12.92359516 62.31067219 12 57 C9.34190007 51.18540641 4.59661221 49.18444988 -1.08837891 46.99951172 C-7.39641874 44.83406521 -13.89645579 43.32758485 -20.3671875 41.73242188 C-39.22806473 36.88406696 -39.22806473 36.88406696 -44 29 C-45.87534209 23.37397373 -45.98461148 16.53080424 -44.38671875 10.80078125 C-41.27105977 4.69299163 -35.14792614 0.63260603 -28.9375 -1.875 C-19.58010009 -4.59951158 -8.8301748 -4.15431849 0 0 Z " fill="#373737" transform="translate(467,205)"/>
<path d="M0 0 C26.07 0 52.14 0 79 0 C79 0.99 79 1.98 79 3 C53.92 3 28.84 3 3 3 C3 20.49 3 37.98 3 56 C26.43 56 49.86 56 74 56 C74 56.66 74 57.32 74 58 C50.57 58 27.14 58 3 58 C3 77.14 3 96.28 3 116 C28.08 116 53.16 116 79 116 C79.33 116.66 79.66 117.32 80 118 C53.6 118 27.2 118 0 118 C0 79.06 0 40.12 0 0 Z " fill="#222222" transform="translate(49,171)"/>
<path d="M0 0 C1.32 0 2.64 0 4 0 C4 7.59 4 15.18 4 23 C4.99 22.67 5.98 22.34 7 22 C6.09171196 28.61752717 6.09171196 28.61752717 5.47265625 31.19921875 C4.82760356 35.02155578 4.85240579 38.75574159 4.875 42.625 C4.87693359 43.4195459 4.87886719 44.2140918 4.88085938 45.03271484 C4.9249155 51.05983701 5.26172409 57.0146917 6 63 C5.34 63 4.68 63 4 63 C4 80.16 4 97.32 4 115 C2.68 115 1.36 115 0 115 C0 77.05 0 39.1 0 0 Z " fill="#434343" transform="translate(206,204)"/>
<path d="M0 0 C1.85625 0.0309375 1.85625 0.0309375 3.75 0.0625 C3.75 1.3825 3.75 2.7025 3.75 4.0625 C2.73292969 4.08376953 2.73292969 4.08376953 1.6953125 4.10546875 C-7.47207419 4.57526557 -14.6929561 6.98951131 -21.125 13.75 C-26.62595653 20.5872738 -29.31827189 28.96431724 -29.45532227 37.65722656 C-29.47526749 38.77808655 -29.49521271 39.89894653 -29.51576233 41.05377197 C-29.53247482 42.25805847 -29.54918732 43.46234497 -29.56640625 44.703125 C-29.58718735 45.94044373 -29.60796844 47.17776245 -29.62937927 48.45257568 C-29.68365872 51.73388691 -29.73391779 55.01522733 -29.78222656 58.29663086 C-29.83256092 61.64833104 -29.8882636 64.9999372 -29.94335938 68.3515625 C-30.05044509 74.92180464 -30.15223036 81.49211298 -30.25 88.0625 C-31.24 88.0625 -32.23 88.0625 -33.25 88.0625 C-33.25 59.6825 -33.25 31.3025 -33.25 2.0625 C-32.26 2.0625 -31.27 2.0625 -30.25 2.0625 C-29.92 8.3325 -29.59 14.6025 -29.25 21.0625 C-28.569375 19.53625 -27.88875 18.01 -27.1875 16.4375 C-22.9679068 8.06923113 -16.93521397 4.19302999 -8.25 1.0625 C-5.4203983 0.21306791 -2.95064553 -0.04917743 0 0 Z " fill="#232323" transform="translate(329.25,201.9375)"/>
<path d="M0 0 C1.85625 0.0309375 1.85625 0.0309375 3.75 0.0625 C3.75 1.3825 3.75 2.7025 3.75 4.0625 C2.73292969 4.08376953 2.73292969 4.08376953 1.6953125 4.10546875 C-7.68054634 4.58594905 -14.85614818 7.04420543 -21.25 14.125 C-22.90391634 16.13275902 -24.16598535 17.87904614 -25.25 20.24609375 C-26.25 22.0625 -26.25 22.0625 -29.25 23.0625 C-27.20453263 15.14977098 -24.52111386 9.59543633 -17.33203125 5.33203125 C-11.53669741 2.36024618 -6.57680895 -0.10961348 0 0 Z " fill="#383838" transform="translate(329.25,201.9375)"/>
<path d="M0 0 C1 3 1 3 -0.25 5.625 C-2 8 -2 8 -5 9 C-3.375 2.25 -3.375 2.25 0 0 Z " fill="#2E2E2E" transform="translate(305,216)"/>
<path d="M0 0 C0.33 0.99 0.66 1.98 1 3 C-0.3125 5.1875 -0.3125 5.1875 -2 7 C-2.66 7 -3.32 7 -4 7 C-3.6875 4.625 -3.6875 4.625 -3 2 C-2.01 1.34 -1.02 0.68 0 0 Z " fill="#323232" transform="translate(215,220)"/>
<path d="M0 0 C0.33 0.99 0.66 1.98 1 3 C-4.75 6.875 -4.75 6.875 -7 8 C-5.50902342 4.2047869 -3.24299151 2.38957269 0 0 Z " fill="#373737" transform="translate(154,257)"/>
</svg>
