<?xml version="1.0" encoding="UTF-8"?>
<svg version="1.1" xmlns="http://www.w3.org/2000/svg" width="225" height="225">
<path d="M0 0 C74.25 0 148.5 0 225 0 C225 74.25 225 148.5 225 225 C150.75 225 76.5 225 0 225 C0 150.75 0 76.5 0 0 Z " fill="#049688" transform="translate(0,0)"/>
<path d="M0 0 C0.99 0 1.98 0 3 0 C3 23.1 3 46.2 3 70 C15.21 70 27.42 70 40 70 C39.24648118 74.52111291 38.83441853 76.8316781 36.92581177 80.66304016 C36.49123657 81.54491501 36.05666138 82.42678986 35.60891724 83.33538818 C35.13098724 84.28472229 34.65305725 85.2340564 34.16064453 86.2121582 C33.65813171 87.22579941 33.1556189 88.23944061 32.63787842 89.28379822 C30.97765671 92.62691164 29.30573413 95.96400698 27.6328125 99.30078125 C26.47516447 101.62131077 25.31793341 103.94204835 24.16110229 106.26298523 C21.73691051 111.12177385 19.30688729 115.9775827 16.87255859 120.83129883 C14.05722898 126.44500142 11.25511385 132.06515623 8.45947564 137.68868762 C5.76830898 143.10088999 3.06603548 148.50745969 0.35915756 153.91182518 C-0.79138993 156.21209772 -1.93884211 158.51392108 -3.0831871 160.81728554 C-4.67988416 164.02800821 -6.28911056 167.23212954 -7.90185547 170.43481445 C-8.375737 171.39426971 -8.84961853 172.35372498 -9.33786011 173.34225464 C-9.77807495 174.21003036 -10.21828979 175.07780609 -10.67184448 175.97187805 C-11.05124617 176.73009511 -11.43064785 177.48831217 -11.82154655 178.2695055 C-13 180 -13 180 -16 181 C-16 157.9 -16 134.8 -16 111 C-28.87 111 -41.74 111 -55 111 C-54.21270068 106.27620406 -53.79975382 104.11229528 -51.68603516 100.18261719 C-50.96871719 98.83118622 -50.96871719 98.83118622 -50.23690796 97.45245361 C-49.71786896 96.49361267 -49.19882996 95.53477173 -48.6640625 94.546875 C-47.56189327 92.47380266 -46.46068117 90.40022122 -45.36035156 88.32617188 C-44.51760681 86.74485474 -44.51760681 86.74485474 -43.65783691 85.1315918 C-41.12524244 80.34761575 -38.66533056 75.52756745 -36.2109375 70.703125 C-35.73646179 69.77254776 -35.26198608 68.84197052 -34.77313232 67.88319397 C-33.80250283 65.97932734 -32.8323113 64.07523736 -31.86254883 62.17092896 C-29.2832166 57.10619021 -26.70022624 52.04331792 -24.1171875 46.98046875 C-23.34523041 45.46724281 -23.34523041 45.46724281 -22.55767822 43.92344666 C-17.55790055 34.12645538 -12.53377245 24.34206039 -7.5 14.5625 C-7.11092468 13.80658569 -6.72184937 13.05067139 -6.32098389 12.27185059 C-4.21497565 8.18072519 -2.10799206 4.09010365 0 0 Z " fill="#FDFEFE" transform="translate(122,22)"/>
<path d="M0 0 C0.33 0 0.66 0 1 0 C1.07927734 0.59723877 1.15855469 1.19447754 1.24023438 1.80981445 C5.44906104 32.21044847 18.41716057 59.34090436 42.81640625 78.6953125 C61.16132511 91.97568321 80.52829298 99.41879041 103 102 C103 102.33 103 102.66 103 103 C69.01 103 35.02 103 0 103 C0 69.01 0 35.02 0 0 Z " fill="#FDFEFE" transform="translate(0,122)"/>
<path d="M0 0 C0.33 0 0.66 0 1 0 C1 33.33 1 66.66 1 101 C-34.64 101 -70.28 101 -107 101 C-107 100.67 -107 100.34 -107 100 C-105.90945312 99.91363281 -104.81890625 99.82726562 -103.6953125 99.73828125 C-73.25375019 97.03130393 -45.66624355 84.57795406 -25.53515625 61.12890625 C-11.5613672 43.14213162 -2.93990641 22.58779577 0 0 Z " fill="#FDFEFD" transform="translate(224,124)"/>
<path d="M0 0 C33.33 0 66.66 0 101 0 C101 0.33 101 0.66 101 1 C100.34257813 1.08636719 99.68515625 1.17273438 99.0078125 1.26171875 C77.34520867 4.46120902 56.35798983 11.93739426 40 27 C38.74896484 28.05960938 38.74896484 28.05960938 37.47265625 29.140625 C20.46865232 43.76662537 9.91267703 63.57725714 4 85 C3.78472656 85.73992187 3.56945312 86.47984375 3.34765625 87.2421875 C1.91879816 92.43613882 1.41661972 97.64972572 1 103 C0.67 103 0.34 103 0 103 C0 69.01 0 35.02 0 0 Z " fill="#FDFEFE" transform="translate(0,0)"/>
<path d="M0 0 C34.32 0 68.64 0 104 0 C104 33.33 104 66.66 104 101 C103.67 101 103.34 101 103 101 C102.88398438 99.71609375 102.76796875 98.4321875 102.6484375 97.109375 C100.06788108 74.2326084 89.1048902 53.08318861 74 36 C73.35933594 35.26007812 72.71867187 34.52015625 72.05859375 33.7578125 C60.91244604 21.76908343 46.81033574 14.43656672 32 8 C30.81019531 7.45601563 29.62039062 6.91203125 28.39453125 6.3515625 C19.50050515 2.81032771 9.514874 1.64925023 0 1 C0 0.67 0 0.34 0 0 Z " fill="#FDFEFE" transform="translate(121,0)"/>
</svg>
