<?xml version="1.0" encoding="UTF-8"?>
<svg version="1.1" xmlns="http://www.w3.org/2000/svg" width="2206" height="938">
<path d="M0 0 C727.98 0 1455.96 0 2206 0 C2206 309.54 2206 619.08 2206 938 C1478.02 938 750.04 938 0 938 C0 628.46 0 318.92 0 0 Z " fill="#FEFEFE" transform="translate(0,0)"/>
<path d="M0 0 C139.775625 -0.04125 279.55125 -0.0825 423.5625 -0.125 C467.77033447 -0.14320801 511.97816895 -0.16141602 557.52563477 -0.18017578 C611.32214355 -0.18920898 611.32214355 -0.18920898 636.4705658 -0.19088745 C655.27779488 -0.19288149 674.08500968 -0.20152308 692.89223475 -0.21334685 C712.05486984 -0.22523179 731.21749587 -0.22967813 750.38013452 -0.2268899 C761.7843344 -0.22545112 773.18850067 -0.22946996 784.59269435 -0.24161519 C792.1140498 -0.24908436 799.63538277 -0.24936169 807.15673973 -0.24367068 C811.44616571 -0.24063383 815.73552693 -0.24082688 820.02494609 -0.24976516 C823.93269656 -0.25784457 827.8403319 -0.25675269 831.74808055 -0.24827967 C833.15482453 -0.24684871 834.5615769 -0.24878785 835.96831013 -0.25447057 C848.87467611 -0.30331676 848.87467611 -0.30331676 855 2 C855 2.66 855 3.32 855 4 C855.763125 3.62875 856.52625 3.2575 857.3125 2.875 C868.05908977 0.32496175 879.39491036 6.61146766 889 11 C889.99 11.66 890.98 12.32 892 13 C892 13.66 892 14.32 892 15 C893.28390625 15.35191406 893.28390625 15.35191406 894.59375 15.7109375 C898.39475183 17.14939003 901.33674837 19.13902122 904.5 21.625 C905.35863647 22.29378174 905.35863647 22.29378174 906.23461914 22.97607422 C910.65290884 26.51652035 913.89545274 30.2669939 917 35 C918.09968727 36.39936508 919.20387124 37.79520801 920.3125 39.1875 C922.49296423 42.07391088 923.76822801 44.29164823 924 48 C924.66 48 925.32 48 926 48 C926.96238036 50.03976214 927.91972527 52.08190046 928.875 54.125 C929.67550781 55.83042969 929.67550781 55.83042969 930.4921875 57.5703125 C936.73607421 71.77272838 937.44990953 87.23935821 937.39872742 102.53088379 C937.40418635 104.22126382 937.41094631 105.91164004 937.41887146 107.60201031 C937.43673928 112.20377233 937.43636006 116.80537156 937.43274301 121.40716 C937.43210772 126.41290401 937.44879113 131.41859632 937.4632225 136.42431545 C937.48600514 145.14606492 937.49785924 153.86777461 937.50231743 162.58955193 C937.50889973 175.43303085 937.53232627 188.27643968 937.55920608 201.11989018 C937.60600525 223.74948705 937.63604714 246.37908174 937.65854562 269.00871446 C937.67806173 288.61233638 937.70303919 308.21594159 937.73352051 327.81954956 C937.73552382 329.11359221 937.73752712 330.40763486 937.73959114 331.74089093 C937.74769741 336.97536973 937.75582307 342.20984849 937.76398201 347.44432721 C937.83724299 394.51905636 937.89426722 441.59379008 937.94080916 488.66855265 C937.97599477 524.24667128 938.02102712 559.82474894 938.08251953 595.40283203 C938.13984673 628.59298474 938.18902741 661.78312524 938.21979427 694.97331429 C938.22213092 697.47699266 938.22447342 699.98067103 938.22682502 702.48434938 C938.2283759 704.13597885 938.22991693 705.78760833 938.23144797 707.43923782 C938.24291523 719.64212306 938.2617261 731.84498219 938.28427124 744.04785156 C938.30944787 757.69506224 938.32409321 771.34223636 938.32403928 784.98947138 C938.32426633 791.79244515 938.32928156 798.59531937 938.3475666 805.39827156 C938.36392634 811.52841905 938.36632051 817.65840779 938.35757315 823.78856945 C938.35683851 825.97851537 938.36109102 828.16847044 938.37108648 830.35839367 C938.49714278 859.61210217 933.16605382 885.57760449 913 908 C912.38640625 908.69609375 911.7728125 909.3921875 911.140625 910.109375 C896.58776055 925.6573071 875.23712234 936.28435275 854 938 C849.22632972 938.1431392 844.45371049 938.13264369 839.67838287 938.12304783 C838.21208945 938.123788 836.7457962 938.12496716 835.27950343 938.12654402 C831.24680342 938.12960867 827.21412865 938.126442 823.18143052 938.12226575 C818.80561485 938.11883412 814.42980177 938.12120526 810.0539856 938.12284851 C802.37564975 938.12492747 794.69732165 938.12327708 787.0189867 938.11921513 C775.45323473 938.11311674 763.88748746 938.11284497 752.32173417 938.11368043 C732.94019599 938.11492302 713.5586612 938.11162697 694.17712402 938.10557556 C667.97062051 938.09740765 641.76412279 938.09547292 615.55761719 938.09460449 C552.53841077 938.08935034 489.51920532 938.07538928 426.5 938.0625 C285.755 938.041875 145.01 938.02125 0 938 C0 628.46 0 318.92 0 0 Z " fill="#8EC6DF" transform="translate(0,0)"/>
<path d="M0 0 C5.10333294 3.6177837 9.1293724 7.08325683 13 12 C15.55612636 14.68720976 18.1199811 17.09748464 21 19.4375 C24.07903881 22.06751232 26.45078401 24.8625034 29 28 C31.55612636 30.68720976 34.1199811 33.09748464 37 35.4375 C40.07903881 38.06751232 42.45078401 40.8625034 45 44 C47.55612636 46.68720976 50.1199811 49.09748464 53 51.4375 C56.07903881 54.06751232 58.45078401 56.8625034 61 60 C63.55612636 62.68720976 66.1199811 65.09748464 69 67.4375 C72.07903881 70.06751232 74.45078401 72.8625034 77 76 C79.51606095 78.64508971 82.02917766 81.02346899 84.875 83.3125 C87.27040581 85.26727941 89.25144496 87.36466194 91.25341797 89.7199707 C94.70365008 93.70595068 98.32791659 97.45753114 102.0703125 101.16796875 C102.71443085 101.81067215 103.35854919 102.45337555 104.02218628 103.11555481 C106.05409005 105.14192915 108.08945857 107.16478049 110.125 109.1875 C111.49632777 110.55380162 112.86742337 111.9203363 114.23828125 113.28710938 C117.30588428 116.34481992 120.37528515 119.40070345 123.44830322 122.45297241 C124.88501582 123.88536182 126.31184915 125.32764187 127.73779297 126.77075195 C130.04804751 129.11839189 130.04804751 129.11839189 133 131.4375 C136.07903881 134.06751232 138.45078401 136.8625034 141 140 C142.65402498 141.67921318 144.32241268 143.34432601 146 145 C157 156 157 156 159.65625 158.69140625 C162.03342939 161.10633412 162.03342939 161.10633412 165 163.4375 C168.07903881 166.06751232 170.45078401 168.8625034 173 172 C175.55612636 174.68720976 178.1199811 177.09748464 181 179.4375 C184.07903881 182.06751232 186.45078401 184.8625034 189 188 C191.55612636 190.68720976 194.1199811 193.09748464 197 195.4375 C200.07903881 198.06751232 202.45078401 200.8625034 205 204 C207.55612636 206.68720976 210.1199811 209.09748464 213 211.4375 C216.07903881 214.06751232 218.45078401 216.8625034 221 220 C223.55612636 222.68720976 226.1199811 225.09748464 229 227.4375 C232.07903881 230.06751232 234.45078401 232.8625034 237 236 C239.51606095 238.64508971 242.02917766 241.02346899 244.875 243.3125 C248.02984706 245.88640335 250.57017557 248.85833494 253.20703125 251.94921875 C255.98325676 255.12464009 258.99040395 258.0482808 262 261 C263.299375 262.3303125 263.299375 262.3303125 264.625 263.6875 C266.94100165 266.02931677 266.94100165 266.02931677 269.5 267.9375 C272.42320625 270.34914516 274.60595036 273.0672892 277 276 C278.65404626 277.67919223 280.32239676 279.34434215 282 281 C293 292 293 292 295.65625 294.69140625 C298.03342939 297.10633412 298.03342939 297.10633412 301 299.4375 C304.07903881 302.06751232 306.45078401 304.8625034 309 308 C311.55612636 310.68720976 314.1199811 313.09748464 317 315.4375 C320.07903881 318.06751232 322.45078401 320.8625034 325 324 C327.55612636 326.68720976 330.1199811 329.09748464 333 331.4375 C336.07903881 334.06751232 338.45078401 336.8625034 341 340 C342.65402498 341.67921318 344.32241268 343.34432601 346 345 C357 356 357 356 359.69921875 358.70703125 C361.21758106 360.22023783 362.75520887 361.71438677 364.3125 363.1875 C366 365 366 365 366 367 C366.86625 367.37125 366.86625 367.37125 367.75 367.75 C370.32939979 369.18299988 372.06121592 370.78424676 374 373 C374 373.66 374 374.32 374 375 C374.804375 375.3403125 374.804375 375.3403125 375.625 375.6875 C381.24521815 378.79341003 384.99375399 383.06923568 389 388 C391.55612636 390.68720976 394.1199811 393.09748464 397 395.4375 C400.07903881 398.06751232 402.45078401 400.8625034 405 404 C407.39179247 406.45012887 409.82524731 408.8346934 412.3125 411.1875 C414 413 414 413 414 415 C414.89643219 415.40943848 414.89643219 415.40943848 415.81097412 415.82714844 C417.9384059 416.96699868 419.32540472 418.07214943 421.02441406 419.765625 C421.58469299 420.31959961 422.14497192 420.87357422 422.722229 421.44433594 C423.31404968 422.04020508 423.90587036 422.63607422 424.515625 423.25 C425.13145447 423.86391602 425.74728394 424.47783203 426.3817749 425.11035156 C427.67852646 426.40574483 428.97276657 427.70365644 430.26464844 429.00390625 C432.24975202 430.99975068 434.24533591 432.98466726 436.2421875 434.96875 C437.50064211 436.22852555 438.75847654 437.48892101 440.015625 438.75 C440.6155426 439.34586914 441.21546021 439.94173828 441.83355713 440.55566406 C446 444.77006753 446 444.77006753 446 447 C446.53753906 447.21011719 447.07507813 447.42023438 447.62890625 447.63671875 C450.90338288 449.51940795 453.3317159 452.12213364 455.9375 454.8125 C456.44990234 455.33392578 456.96230469 455.85535156 457.49023438 456.39257812 C458.51144231 457.43195241 459.53082678 458.47312156 460.54833984 459.51611328 C462.68064161 461.69575172 464.84049979 463.84734448 467 466 C478 477 478 477 480.73046875 479.73828125 C482.07149958 481.0746958 483.42684715 482.39740941 484.8125 483.6875 C486 485 486 485 486 487 C486.86625 487.37125 486.86625 487.37125 487.75 487.75 C490.32939979 489.18299988 492.06121592 490.78424676 494 493 C494 493.66 494 494.32 494 495 C494.99 495.33 495.98 495.66 497 496 C497.09392138 510.19620486 497.16394429 524.39236074 497.20724869 538.58881378 C497.22804219 545.18220362 497.25620846 551.77538337 497.30175781 558.36865234 C497.34551031 564.74237609 497.36919891 571.11589891 497.37950897 577.48976135 C497.38684783 579.91039691 497.40117748 582.33102262 497.42292023 584.75157166 C497.66083504 612.35868597 491.78098477 635.85927015 473 657 C472.38511719 657.69867187 471.77023437 658.39734375 471.13671875 659.1171875 C455.56037107 675.72751115 432.80718416 686.33007357 410.07510757 687.1398077 C408.68000767 687.15162606 407.28485751 687.15830872 405.88970947 687.16062927 C405.11390494 687.16571709 404.33810041 687.17080491 403.53878665 687.17604691 C400.9610807 687.19163793 398.38340249 687.20026038 395.80566406 687.20874023 C393.94892708 687.21828859 392.09219184 687.22818017 390.23545837 687.23838806 C384.16220171 687.26962766 378.08893188 687.29000761 372.015625 687.30859375 C370.98146422 687.31189107 369.94730345 687.31518839 368.88180447 687.31858563 C359.1287414 687.34933325 349.37567509 687.37603264 339.62257767 687.39300442 C327.15474964 687.41495897 314.68734943 687.45707248 302.21969247 687.52644199 C293.44587057 687.5736052 284.67216454 687.59792669 275.89821982 687.6052013 C270.65874851 687.61016433 265.41976098 687.62531006 260.18042755 687.6649456 C255.25872014 687.70169516 250.33777533 687.71026031 245.4159565 687.69693947 C243.6083096 687.69699359 241.80062979 687.70736063 239.99310875 687.7286911 C237.52859397 687.75622618 235.06689022 687.7469336 232.60235596 687.72825623 C231.5249346 687.75344862 231.5249346 687.75344862 230.42574716 687.77914995 C228.42152786 687.74108028 228.42152786 687.74108028 225 687 C222.69672775 684.00917149 222.69672775 684.00917149 221 681 C218.37233611 680.03780298 218.37233611 680.03780298 216 680 C216 678.68 216 677.36 216 676 C214.68 676 213.36 676 212 676 C211.79375 675.05125 211.5875 674.1025 211.375 673.125 C210.92125 672.09375 210.4675 671.0625 210 670 C209.01 669.67 208.02 669.34 207 669 C206.01 668.67 205.02 668.34 204 668 C203.29373761 666.01363702 202.63106429 664.01151741 202 662 C199.39760682 659.1472308 196.68890184 657.22963395 193 656 C191.97265625 654.40625 191.97265625 654.40625 191.0625 652.5 C190.09068303 650.59121798 190.09068303 650.59121798 189 649 C188.34 648.835 187.68 648.67 187 648.5 C185 648 185 648 184.03515625 646.4375 C183.71417969 645.798125 183.39320313 645.15875 183.0625 644.5 C182.13368895 642.58631102 182.13368895 642.58631102 181 641 C178.42938689 640.35232207 178.42938689 640.35232207 176 640 C174.9375 637.75 174.9375 637.75 174 635 C171.58381795 631.54831136 168.90818467 629.06664173 165.6328125 626.44140625 C163.10028443 624.20575348 160.99470181 621.6343807 158.8125 619.0625 C156.44574406 616.36929496 153.88967418 613.90672505 151.28515625 611.4453125 C150 610 150 610 150 608 C149.443125 607.773125 148.88625 607.54625 148.3125 607.3125 C145.34144815 605.62622733 143.35477875 603.469646 141 601 C140.071875 600.113125 139.14375 599.22625 138.1875 598.3125 C136 596 136 596 136 594 C135.43925781 593.76796875 134.87851562 593.5359375 134.30078125 593.296875 C131.41318045 591.66922905 129.4844698 589.63740168 127.1875 587.25 C124.32070375 584.31594754 121.48630826 581.47436333 118.3125 578.875 C115.12304677 576.2220903 112.51124493 573.23790978 109.82421875 570.0859375 C105.29195009 564.90342901 100.41587736 560.24487685 95 556 C92.13833918 553.28509102 89.52553788 550.46039445 87 547.4375 C84.56804854 544.55772117 81.99445392 542.30342609 79 540 C76.13833918 537.28509102 73.52553788 534.46039445 71 531.4375 C68.57257272 528.55570813 65.96083553 526.33750174 63 524 C61.64613064 522.34997172 60.31321858 520.6825613 59 519 C57.34646183 517.32030745 55.67724836 515.65601736 54 514 C52.97971759 512.98122046 51.9602229 511.9616516 50.94140625 510.94140625 C50.39734131 510.39734131 49.85327637 509.85327637 49.29272461 509.29272461 C42.54801432 502.54801432 35.80330404 495.80330404 29.05859375 489.05859375 C28.28213501 488.28322266 28.28213501 488.28322266 27.48999023 487.4921875 C26.07146724 486.07157263 24.66052455 484.64340057 23.25 483.21484375 C21.05181973 480.96127742 21.05181973 480.96127742 18.5625 479.125 C15.89266129 476.91098741 13.81143401 474.55604562 11.625 471.87890625 C9.53613039 469.46365077 7.26623224 467.24678255 5 465 C4.4062558 464.41111496 3.8125116 463.82222992 3.20077515 463.21549988 C1.83314426 461.85961297 0.46527568 460.50396578 -0.90278625 459.14851379 C-4.04903407 456.02894961 -7.19006198 452.90415233 -10.33081055 449.77905273 C-11.99245992 448.12753836 -13.65588844 446.47781221 -15.32104492 444.82983398 C-17.72520805 442.44979527 -20.12297293 440.06347424 -22.51953125 437.67578125 C-23.26942825 436.93620682 -24.01932526 436.19663239 -24.79194641 435.43464661 C-25.47653427 434.75020981 -26.16112213 434.06577301 -26.86645508 433.3605957 C-27.47314529 432.75834671 -28.07983551 432.15609772 -28.70491028 431.53559875 C-30 430 -30 430 -30 428 C-30.804375 427.6596875 -30.804375 427.6596875 -31.625 427.3125 C-36.28973477 424.73462026 -39.7861038 421.34301973 -43.20532227 417.3203125 C-46.92804216 413.02602782 -50.86990788 409.00208385 -54.90234375 405 C-55.6249086 404.2788501 -56.34747345 403.5577002 -57.0919342 402.81469727 C-59.37142604 400.54074585 -61.6543924 398.27032046 -63.9375 396 C-65.49567506 394.44684765 -67.05361993 392.89346433 -68.61132812 391.33984375 C-72.40489759 387.55722414 -76.20131615 383.7774831 -80 380 C-76.50816829 380 -75.92670416 380.55251194 -73.25390625 382.640625 C-72.50947266 383.21071289 -71.76503906 383.78080078 -70.99804688 384.36816406 C-70.19431641 384.98916992 -69.39058594 385.61017578 -68.5625 386.25 C-58.7896543 393.61520593 -48.6495895 399.98803249 -38 406 C-37.22188965 406.44327637 -36.4437793 406.88655273 -35.64208984 407.34326172 C-8.51416307 422.66451128 21.37298015 431.86253329 52 437 C52.96502441 437.16516113 53.93004883 437.33032227 54.92431641 437.50048828 C86.16885258 442.62923832 117.84875434 440.6059401 149 436 C150.56862793 435.7836792 150.56862793 435.7836792 152.16894531 435.56298828 C183.40665988 431.22587712 214.39391115 420.90887257 243.77978516 409.71020508 C246 409 246 409 249 409 C250.485 411.97 250.485 411.97 252 415 C258.56400333 415.39759106 263.26858738 414.1761699 269.3125 411.6875 C270.10978516 411.37876953 270.90707031 411.07003906 271.72851562 410.75195312 C276.98285412 408.76519143 276.98285412 408.76519143 281 405 C281.11875488 404.00170166 281.23750977 403.00340332 281.35986328 401.97485352 C282 399 282 399 284.26904297 397.48022461 C285.74074951 396.94667358 285.74074951 396.94667358 287.2421875 396.40234375 C288.30824219 395.99306641 289.37429688 395.58378906 290.47265625 395.16210938 C291.59542969 394.75798828 292.71820312 394.35386719 293.875 393.9375 C296.08631554 393.12838859 298.29236617 392.30470316 300.4921875 391.46484375 C301.47558105 391.110271 302.45897461 390.75569824 303.47216797 390.39038086 C306.54563717 388.69988375 307.52241398 387.14382594 309 384 C309.97419582 378.22669199 307.45923262 374.79465473 304.375 370.1875 C303.69147461 369.13453735 303.69147461 369.13453735 302.99414062 368.06030273 C302.08774579 366.6680867 301.17544913 365.27969237 300.25683594 363.89550781 C299.17964133 362.2709276 298.12288079 360.63283038 297.0703125 358.9921875 C294.6493625 354.8440024 294.6493625 354.8440024 291 352 C285.09736918 351.43411356 280.62405221 353.60106608 275.390625 355.95507812 C271.75854425 357.51746104 269.74580083 358.29548448 266 357 C260.1603032 356.5545994 255.93810354 357.79953845 250.625 359.9375 C249.90183594 360.21529297 249.17867187 360.49308594 248.43359375 360.77929688 C244.95696252 361.95332189 244.95696252 361.95332189 242 364 C241.76924918 365.34747084 241.58846937 366.70377565 241.4375 368.0625 C241.293125 369.361875 241.14875 370.66125 241 372 C197.09558391 378.95290307 149.84596423 366.99709921 113.62109375 341.6796875 C107.88407002 337.47400216 102.52505639 332.93761188 97.30078125 328.11328125 C95.22214766 326.20404395 93.09579254 324.38023356 90.9375 322.5625 C74.95745167 308.56794866 62.66887604 289.60434714 52.375 271.1875 C51.93671875 270.40415283 51.4984375 269.62080566 51.046875 268.8137207 C48 263.25747385 48 263.25747385 48 261 C40.97821831 264.58147625 33.95750378 268.16504017 26.9375 271.75 C25.9038028 272.27788116 24.87010559 272.80576233 23.80508423 273.34963989 C12.41040444 279.17020788 1.01863501 284.99391125 -10.3125 290.9375 C-17.98712259 294.96136667 -25.69891064 298.89345022 -33.46289062 302.74169922 C-39.24990488 305.61181772 -45.03228453 308.49121829 -50.8125 311.375 C-51.80049088 311.86785492 -51.80049088 311.86785492 -52.80844116 312.3706665 C-60.53972702 316.23055672 -68.24412317 320.13168267 -75.875 324.1875 C-78.08392389 325.35405772 -80.29364683 326.5190802 -82.50390625 327.68310547 C-84.35194975 328.65810025 -86.19800212 329.63687115 -88.04296875 330.61767578 C-91.31102425 332.3468754 -94.59151344 334.05031573 -97.875 335.75 C-98.9047998 336.30067139 -99.93459961 336.85134277 -100.99560547 337.41870117 C-101.96385254 337.91474854 -102.93209961 338.4107959 -103.9296875 338.921875 C-104.78804199 339.37143555 -105.64639648 339.82099609 -106.53076172 340.28417969 C-109.74456134 341.21584475 -111.09760955 340.55639395 -114 339 C-116.359375 337.08203125 -116.359375 337.08203125 -118.75 334.8125 C-122.77320177 331.06113619 -126.91268257 327.70960107 -131.3828125 324.5078125 C-131.91648437 324.01023437 -132.45015625 323.51265625 -133 323 C-133 322.01 -133 321.02 -133 320 C-119.67033021 312.94591722 -106.25064639 306.09421486 -92.75 299.375 C-83.24922346 294.64628003 -73.77639354 289.89063611 -64.41699219 284.88623047 C-55.60892352 280.20828907 -46.65691261 275.81342618 -37.72924805 271.36975098 C-28.72172009 266.884519 -19.74994781 262.35431098 -10.87304688 257.61425781 C-3.07442688 253.46748481 4.84021478 249.55335307 12.7578125 245.63964844 C18.87556331 242.60544138 24.89316102 239.45481462 30.83789062 236.09277344 C33 235 33 235 35 235 C34.78907715 234.39341553 34.5781543 233.78683105 34.36083984 233.16186523 C29.51461814 219.14253207 25.30623606 205.10733562 21.69677734 190.72314453 C20.56976866 186.31857031 19.35174835 181.94017013 18.125 177.5625 C17.80172729 176.40741943 17.80172729 176.40741943 17.47192383 175.22900391 C16.98285949 173.48555948 16.49169903 171.74270321 16 170 C12.96081573 170 11.76381386 170.39815206 9.07470703 171.63916016 C8.29126923 171.99674408 7.50783142 172.354328 6.70065308 172.7227478 C5.85326569 173.11588165 5.0058783 173.5090155 4.1328125 173.9140625 C2.30788408 174.74830545 0.48268009 175.58194577 -1.34277344 176.41503906 C-2.75206116 177.0606781 -2.75206116 177.0606781 -4.18981934 177.71936035 C-8.55229297 179.70740218 -12.93573332 181.64725728 -17.3203125 183.5859375 C-19.08892236 184.36974857 -20.85747612 185.15368622 -22.62597656 185.93774414 C-23.96988464 186.53330612 -23.96988464 186.53330612 -25.34094238 187.14089966 C-42.56974981 194.77798195 -59.76260647 202.4903041 -76.92477417 210.27590942 C-87.93894022 215.27162091 -98.96864971 220.2218762 -110.05151367 225.0637207 C-117.73164084 228.42463605 -125.3746394 231.86403656 -133.01147461 235.32183838 C-135.02985255 236.23522587 -137.04896363 237.14697068 -139.06835938 238.05810547 C-140.35548045 238.63897147 -141.64259007 239.21986286 -142.9296875 239.80078125 C-143.54853821 240.08008484 -144.16738892 240.35938843 -144.80499268 240.64715576 C-148.33789546 242.24343051 -151.86295732 243.85565774 -155.3828125 245.48046875 C-156.81757843 246.13309816 -158.25245938 246.78547483 -159.6875 247.4375 C-160.84636719 247.97246094 -162.00523437 248.50742187 -163.19921875 249.05859375 C-166.29441198 250.09895856 -167.03973439 250.16912618 -170 249 C-172.29003906 247.05053711 -172.29003906 247.05053711 -174.765625 244.52734375 C-175.65507812 243.62822266 -176.54453125 242.72910156 -177.4609375 241.80273438 C-178.84152344 240.38444336 -178.84152344 240.38444336 -180.25 238.9375 C-181.19461673 237.97783027 -182.13992195 237.01883771 -183.0859375 236.06054688 C-185.39749172 233.71361172 -187.7017634 231.35996609 -190 229 C-186.92241006 226.50114922 -183.83462268 224.88776508 -180.21484375 223.28515625 C-179.05944092 222.77057861 -177.90403809 222.25600098 -176.71362305 221.72583008 C-175.45494437 221.17132088 -174.19623583 220.61687944 -172.9375 220.0625 C-171.62063696 219.47793648 -170.30398992 218.89288617 -168.98754883 218.30737305 C-165.6263155 216.8136702 -162.26264206 215.32555511 -158.89819336 213.83911133 C-153.99171037 211.67016187 -149.09009815 209.49021152 -144.1875 207.3125 C-142.57174072 206.59574097 -142.57174072 206.59574097 -140.92333984 205.86450195 C-129.92239497 200.9789501 -118.95012352 196.03016591 -107.97616577 191.0843811 C-95.27035494 185.35922664 -82.54692723 179.67549038 -69.80657959 174.02764893 C-57.57927014 168.606231 -45.37969402 163.12488281 -33.1875 157.625 C-19.17265303 151.30310709 -5.1244128 145.07398041 9 139 C8.45467802 124.95746672 7.33135719 111.02230547 5.95834351 97.03823853 C4.09717028 77.98093567 2.44575542 58.91932673 1.1875 39.8125 C1.12451721 38.88729553 1.06153442 37.96209106 0.99664307 37.0088501 C0.16352017 24.65542889 -0.1509302 12.38068952 0 0 Z " fill="#3C808B" transform="translate(440,251)"/>
<path d="M0 0 C0 89.1 0 178.2 0 270 C-13.86 270 -27.72 270 -42 270 C-44.31 265.38 -46.62 260.76 -49 256 C-50.78141527 252.8443501 -52.56787536 249.72471666 -54.4375 246.625 C-55.10555664 245.50351562 -55.10555664 245.50351562 -55.78710938 244.359375 C-56.85367925 242.57029004 -57.9261428 240.78472042 -59 239 C-63.38275675 239.60641594 -66.87591318 241.30711995 -70.71484375 243.39453125 C-71.35911316 243.73827286 -72.00338257 244.08201447 -72.66717529 244.43617249 C-74.7607349 245.5553068 -76.84915087 246.68367714 -78.9375 247.8125 C-80.3790595 248.58592217 -81.82087437 249.35886857 -83.26293945 250.13134766 C-87.51375039 252.41145418 -91.75755779 254.70436969 -96 257 C-97.1907392 257.64342155 -98.38149346 258.28681524 -99.57226562 258.93017578 C-104.32853671 261.50304168 -109.08087839 264.08305069 -113.82421875 266.6796875 C-114.56526855 267.08348633 -115.30631836 267.48728516 -116.06982422 267.90332031 C-118.15362731 269.05174146 -118.15362731 269.05174146 -120.61328125 270.7890625 C-123.88247777 272.44773831 -126.91083475 272.53322912 -130.5 272.5 C-131.2319458 272.49427979 -131.9638916 272.48855957 -132.71801758 272.48266602 C-153.16348483 271.84715542 -172.21116875 264.39892785 -186.921875 250.13671875 C-201.96252262 234.06452229 -208.39917298 210.21253708 -211.6875 189 C-211.86684082 187.84491943 -211.86684082 187.84491943 -212.04980469 186.66650391 C-213.79050844 174.50428248 -214.15934156 162.22620043 -214.203125 149.95703125 C-214.20882507 148.66850754 -214.21452515 147.37998383 -214.22039795 146.05241394 C-214.23079087 143.34068422 -214.2367074 140.62898304 -214.24023438 137.91723633 C-214.24458412 135.20388079 -214.258363 132.4908495 -214.28125 129.77758789 C-214.58314307 93.19663432 -213.82252984 51.27676338 -187 23 C-173.07565839 10.63190833 -154.67410472 3.86957262 -136.12255859 3.84228516 C-134.96785946 3.83456636 -134.96785946 3.83456636 -133.78983307 3.82669163 C-132.11951221 3.81591468 -130.4491769 3.80721804 -128.7788353 3.80037498 C-125.17177207 3.78486218 -121.564834 3.75696368 -117.95784187 3.72990322 C-115.07126628 3.70838332 -112.18468255 3.68837421 -109.2980957 3.66842651 C-67.86459052 3.42425398 -67.86459052 3.42425398 -26.51318359 1.01611328 C-25.7369162 0.94970139 -24.9606488 0.88328949 -24.16085815 0.81486511 C-22.19410127 0.64101367 -20.22876253 0.45129134 -18.26367188 0.25952148 C-12.18641414 -0.11038947 -6.08850521 0 0 0 Z " fill="#010101" transform="translate(1674,374)"/>
<path d="M0 0 C20.13 0 40.26 0 61 0 C61.33 72.6 61.66 145.2 62 220 C67.28 212.08 72.56 204.16 78 196 C82.99465223 188.57966626 87.99283722 181.16187493 93 173.75 C95.47961287 170.07842611 97.95879299 166.40656051 100.4375 162.734375 C101.02739716 161.86046616 101.61729431 160.98655731 102.22506714 160.08616638 C105.14400931 155.75947475 108.05520822 151.42806733 110.9453125 147.08203125 C117.20602296 137.66761715 123.55031385 128.30898505 129.875 118.9375 C131.8693189 115.98187511 133.86354522 113.02618779 135.85769653 110.07044983 C137.09071405 108.24292782 138.32384352 106.41548135 139.55709839 104.58811951 C140.1117276 103.76618607 140.66635681 102.94425262 141.23779297 102.09741211 C141.72440399 101.37637802 142.21101501 100.65534393 142.71237183 99.91246033 C143.81280516 98.27803267 144.90704251 96.63943624 146 95 C148.86001587 94.63923645 148.86001587 94.63923645 152.56103516 94.65942383 C153.57096779 94.65876671 153.57096779 94.65876671 154.6013031 94.65809631 C156.83084938 94.66018944 159.05964731 94.6835438 161.2890625 94.70703125 C162.83319691 94.71262537 164.37733664 94.71689634 165.92147827 94.71989441 C169.98883727 94.73135774 174.05587571 94.76083738 178.12310791 94.79400635 C182.27213199 94.82467538 186.42120778 94.83839294 190.5703125 94.85351562 C198.7136889 94.88570595 206.85680459 94.93691992 215 95 C213.90000856 96.74717784 212.7975581 98.49280767 211.6940918 100.23779297 C211.08043259 101.21005829 210.46677338 102.18232361 209.83451843 103.18405151 C207.35319436 106.99283351 204.6254221 110.55835733 201.8125 114.125 C197.41944774 119.78163332 193.16215192 125.50217311 189.0625 131.375 C184.24123815 138.27860605 179.29160071 145.07566883 174.28149414 151.84326172 C170.31686214 157.20240306 166.39336566 162.58889167 162.5 168 C158.03990204 174.19665321 153.53592655 180.35865773 149 186.5 C147.84241996 188.07419819 146.68486787 189.64841694 145.52734375 191.22265625 C143.10253359 194.51710972 140.65310729 197.791634 138.19140625 201.05859375 C136.98145736 202.68466263 135.77181108 204.31095673 134.5625 205.9375 C133.98822266 206.68902344 133.41394531 207.44054687 132.82226562 208.21484375 C132.30470703 208.91609375 131.78714844 209.61734375 131.25390625 210.33984375 C130.79314697 210.95206787 130.3323877 211.56429199 129.85766602 212.19506836 C128.82526387 213.96858115 128.82526387 213.96858115 129.19238281 215.98413086 C130.10069862 218.25135081 131.20808558 219.95496573 132.66796875 221.9140625 C133.22419922 222.66558594 133.78042969 223.41710937 134.35351562 224.19140625 C135.26133789 225.39603516 135.26133789 225.39603516 136.1875 226.625 C137.12819336 227.88763672 137.12819336 227.88763672 138.08789062 229.17578125 C142.88889818 235.59311202 147.80075374 241.92124048 152.74682617 248.22705078 C157.54211019 254.35855027 162.15741505 260.61048087 166.75 266.89453125 C170.74126896 272.33798066 174.83360847 277.68965367 179 283 C184.4815112 289.98715905 189.78833481 297.08619584 195.03564453 304.25048828 C199.43984921 310.25847191 203.94376433 316.17564541 208.50390625 322.06640625 C211.80252763 326.32963754 215.0925318 330.59931808 218.375 334.875 C219.06577637 335.76751465 219.75655273 336.6600293 220.46826172 337.57958984 C221.12584473 338.43762207 221.78342773 339.2956543 222.4609375 340.1796875 C223.33951416 341.32026611 223.33951416 341.32026611 224.23583984 342.48388672 C226.38666895 345.55148218 228.17930534 348.7259482 230 352 C220.76020341 352.49018008 211.524973 352.86137099 202.27494049 353.08805561 C197.97724026 353.19696759 193.68852075 353.34404332 189.39599609 353.58422852 C161.76754895 355.09033542 161.76754895 355.09033542 153.8911438 349.98483276 C148.85780966 345.18641756 145.41966153 339.69478283 142.30439758 333.51748657 C140.50185722 330.03858473 138.29242586 327.06458997 135.9375 323.9375 C135.15658484 322.83846644 134.37883528 321.73717089 133.60546875 320.6328125 C130.40340187 316.13089669 127.07258113 311.72577646 123.75 307.3125 C117.03928013 298.39866363 110.40154538 289.43391096 103.79541016 280.44238281 C100.57595266 276.06279989 97.35001776 271.68798912 94.125 267.3125 C92.94007763 265.70444663 91.75517923 264.09637561 90.5703125 262.48828125 C90.07289551 261.81321533 89.57547852 261.13814941 89.06298828 260.44262695 C88.71220215 259.96656006 88.36141602 259.49049316 88 259 C84.33149198 262.37060133 81.69601446 266.14243103 78.9375 270.25 C78.07187797 271.52622035 77.20597579 272.80225072 76.33984375 274.078125 C75.85475342 274.8309375 75.36966309 275.58375 74.86987305 276.359375 C73.39367361 278.44405618 71.93000952 280.20456103 70.21801758 282.078125 C59.29850978 294.75691026 60.54107047 308.47516561 60.8125 324.5 C60.874375 333.575 60.93625 342.65 61 352 C40.87 352 20.74 352 0 352 C0 235.84 0 119.68 0 0 Z " fill="#010101" transform="translate(1974,291)"/>
<path d="M0 0 C1.03802666 -0.00128164 1.03802666 -0.00128164 2.09702355 -0.00258917 C4.39698987 -0.0042256 6.69688192 0.00124708 8.99684143 0.00672913 C10.65302529 0.00701142 12.30920928 0.00685244 13.96539307 0.00628662 C18.44831768 0.0060003 22.93121541 0.01187039 27.41413379 0.01886058 C32.10397883 0.02512156 36.79382452 0.02570009 41.4836731 0.02688599 C50.35868731 0.02999121 59.23368917 0.0381937 68.10869795 0.04823548 C78.21507501 0.05942173 88.32145268 0.0649134 98.42783439 0.06993091 C119.21199425 0.08037699 139.99613718 0.09871241 160.7802887 0.12025452 C160.7802887 19.26025452 160.7802887 38.40025452 160.7802887 58.12025452 C147.14651917 58.17632874 147.14651917 58.17632874 133.23731995 58.23353577 C127.46321643 58.2638282 121.6891326 58.29486433 115.91505432 58.32923889 C106.75955536 58.38360662 97.60411099 58.43502444 88.44850159 58.46669006 C81.77880022 58.48977193 75.10924366 58.5232821 68.43965739 58.56895608 C64.91303613 58.59275206 61.38655707 58.61156948 57.85985756 58.61786842 C53.90845292 58.62512238 49.95740226 58.65567455 46.00611877 58.68788147 C44.28088486 58.68572884 44.28088486 58.68572884 42.52079773 58.68353271 C33.19782482 58.79029561 21.75918987 59.30444709 14.2099762 65.46400452 C-1.89457339 84.12064119 6.02863264 125.46796175 5.7802887 140.12025452 C46.0402887 140.12025452 86.3002887 140.12025452 127.7802887 140.12025452 C124.7802887 184.12025452 124.7802887 184.12025452 123.7802887 198.12025452 C84.8402887 198.12025452 45.9002887 198.12025452 5.7802887 198.12025452 C5.7802887 243.00025452 5.7802887 287.88025452 5.7802887 334.12025452 C-15.6697113 334.12025452 -37.1197113 334.12025452 -59.2197113 334.12025452 C-59.30799903 298.08527886 -59.38181482 262.05040573 -59.42397262 226.01535276 C-59.42897507 221.75490966 -59.43415239 217.4944668 -59.43943787 213.23402405 C-59.44048711 212.3858958 -59.44153635 211.53776756 -59.44261739 210.66393846 C-59.45999229 196.95597579 -59.49151381 183.24808066 -59.52832249 169.54015797 C-59.56581323 155.46013042 -59.5879643 141.38013808 -59.59606528 127.30006266 C-59.60153625 118.62153096 -59.61877538 109.94319022 -59.65137717 101.26471734 C-59.67262564 95.30241933 -59.67888815 89.34021912 -59.67371681 83.37788606 C-59.67117097 79.94497149 -59.67489498 76.51238906 -59.6965332 73.07953453 C-59.80636025 52.63930121 -59.49074589 30.87046682 -44.44236755 14.99525452 C-32.00068142 4.49963177 -16.10147082 -0.01204298 0 0 Z " fill="#010101" transform="translate(1153.219711303711,309.87974548339844)"/>
<path d="M0 0 C0.556875 1.08796875 1.11375 2.1759375 1.6875 3.296875 C6.31118209 12.23980762 11.1472635 20.7871184 17 29 C17.42039551 29.59554687 17.84079102 30.19109375 18.27392578 30.8046875 C23.48143405 38.16087936 28.80963394 45.22013105 34.97265625 51.81640625 C36.79658423 53.78090671 38.48858077 55.80325061 40.1875 57.875 C58.42151861 78.71387841 84.28771904 92.82728585 110 102 C110.69883301 102.25120605 111.39766602 102.50241211 112.11767578 102.76123047 C138.41218133 111.960158 165.54211484 111.53476031 193 111 C192.95665527 109.71778564 192.91331055 108.43557129 192.86865234 107.11450195 C192.79476929 104.9289093 192.79476929 104.9289093 193 103 C195.1015625 101.16796875 195.1015625 101.16796875 198 100 C199.01835938 99.54238281 200.03671875 99.08476563 201.0859375 98.61328125 C214.18322167 93.43347647 214.18322167 93.43347647 219.72265625 95.70703125 C223.30418024 96.16777619 226.17475727 94.50197926 229.375 93.0625 C238.12211451 89.13326828 238.12211451 89.13326828 243 90 C247.63423947 93.61556764 250.53156758 98.57940283 253.625 103.5 C254.10195313 104.24636719 254.57890625 104.99273438 255.0703125 105.76171875 C256.39105315 107.83454783 257.69728408 109.91581402 259 112 C259.59683594 112.93972656 260.19367188 113.87945313 260.80859375 114.84765625 C262.45280498 117.81801817 262.47866533 119.64934269 262 123 C258.86718629 129.78929423 253.60549504 131.34136935 246.875 133.875 C245.86050781 134.2771875 244.84601563 134.679375 243.80078125 135.09375 C236.37699298 138 236.37699298 138 234 138 C234.0825 138.9075 234.165 139.815 234.25 140.75 C234 144 234 144 232.53125 145.96875 C229.0568132 148.75687829 225.38869033 150.17432215 221.25 151.75 C220.08984375 152.22373047 220.08984375 152.22373047 218.90625 152.70703125 C213.71309101 154.71981602 209.57077385 155.49695229 204 155 C202 153.1875 202 153.1875 201 151 C201 150.01 201 149.02 201 148 C200.03102783 148.35191406 199.06205566 148.70382812 198.0637207 149.06640625 C178.21551692 156.25363035 158.43056312 162.96328176 137.97558594 168.22167969 C135.16036872 168.95805255 132.36740104 169.75275355 129.5703125 170.5546875 C117.96359991 173.72700747 105.88676435 175.20890522 94 177 C92.87464844 177.17096191 91.74929688 177.34192383 90.58984375 177.51806641 C17.67387307 188.18302384 -56.91964686 170.32674841 -116.25 126.4375 C-125.73305229 119.19843201 -134.73062249 111.5458399 -143.45751953 103.42041016 C-145.02785761 101.97434701 -146.61772011 100.55310888 -148.21484375 99.13671875 C-153.79349163 94.16606066 -158.80580576 89.23412515 -163 83 C-155.47215794 78.23992769 -147.6384137 74.21156425 -139.65863037 70.28244019 C-136.07373627 68.51671569 -132.49580123 66.7370108 -128.91796875 64.95703125 C-127.8684201 64.43521019 -127.8684201 64.43521019 -126.79766846 63.90284729 C-121.61677571 61.32138561 -116.47998589 58.66625955 -111.375 55.9375 C-103.32528709 51.63965488 -95.16944075 47.56368835 -87 43.5 C-78.91391723 39.47774546 -70.84034029 35.44573591 -62.875 31.1875 C-52.08678637 25.42293944 -41.10930523 20.02797107 -30.15185547 14.59448242 C-28.65832965 13.85245117 -27.16500026 13.11002443 -25.671875 12.3671875 C-24.946586 12.00653702 -24.221297 11.64588654 -23.47402954 11.27430725 C-17.78751892 8.43057326 -12.17407373 5.46135824 -6.60565186 2.39279175 C-2.21225157 0 -2.21225157 0 0 0 Z " fill="#FDFEFE" transform="translate(488,512)"/>
<path d="M0 0 C2.9478435 1.97767363 4.64049852 3.5350445 5.50561523 7.06036377 C5.78996235 9.64363173 5.9014793 12.19099534 5.96875 14.7890625 C6.0146376 15.77631317 6.06052521 16.76356384 6.10780334 17.7807312 C6.20621001 19.93078642 6.29438025 22.08132883 6.37356567 24.23217773 C6.59135726 30.07654119 6.890449 35.91682207 7.18359375 41.7578125 C7.24369125 42.98683289 7.30378876 44.21585327 7.3657074 45.4821167 C8.09533813 59.84882303 9.31386686 74.17061124 10.5625 88.5 C10.72177979 90.35108368 10.72177979 90.35108368 10.88427734 92.23956299 C11.95716704 104.69901436 13.04476227 117.15565154 14.41297913 129.58679199 C14.92423992 134.42033744 15.07462417 139.13876822 15 144 C4.62465169 148.85751972 -5.76934187 153.67247816 -16.1875 158.4375 C-16.93333344 158.7787088 -17.67916687 159.1199176 -18.44760132 159.47146606 C-33.60709051 166.40168358 -48.83361974 173.17637864 -64.07373047 179.92694092 C-72.87119671 183.82577527 -81.65466295 187.75584801 -90.4375 191.6875 C-91.23836029 192.0459198 -92.03922058 192.4043396 -92.86434937 192.77362061 C-100.76929522 196.31153624 -108.6730018 199.85220159 -116.57421875 203.3984375 C-131.66419281 210.1704932 -146.76918469 216.90776741 -161.88525391 223.62133789 C-162.61914337 223.94734482 -163.35303284 224.27335175 -164.10916138 224.60923767 C-165.52571058 225.23798762 -166.94259117 225.86599162 -168.35983276 226.49317932 C-171.22642076 227.76243726 -174.08764819 229.04033974 -176.93554688 230.35107422 C-182.70024112 233 -182.70024112 233 -186 233 C-198.00094754 209.26509305 -206.33651676 185.01143137 -213.29492188 159.40063477 C-213.9185306 157.01540711 -213.9185306 157.01540711 -215 155 C-216.2375 155.20625 -217.475 155.4125 -218.75 155.625 C-221.08433171 156.01405529 -222.69593468 156.07869926 -224.9921875 155.484375 C-228.09939541 153.1872174 -229.59515374 149.96933882 -231.375 146.625 C-231.7678418 145.90691162 -232.16068359 145.18882324 -232.56542969 144.44897461 C-235.38703613 139.25465365 -238.07124762 133.99573466 -240.6484375 128.67578125 C-241.94311735 126.11261449 -243.38063229 123.70026215 -244.875 121.25 C-247.34238506 116.81191128 -247.81478871 114.05169003 -247 109 C-241.99338134 98.0239514 -226.57224765 94.31469398 -216.015625 90.05078125 C-210.01682571 87.61636209 -204.07252863 85.05658456 -198.125 82.5 C-196.35527832 81.73961426 -196.35527832 81.73961426 -194.54980469 80.96386719 C-192.67986267 80.16029247 -190.80998335 79.35657291 -188.94024658 78.55252075 C-184.11852227 76.47929609 -179.29416006 74.41228632 -174.46875 72.34765625 C-160.48749121 66.36459084 -146.51292779 60.36714768 -132.5625 54.3125 C-92.10559295 36.75907993 -92.10559295 36.75907993 -78.42382812 31.39428711 C-75.19981037 30.08136887 -72.05652857 28.66738898 -68.90625 27.1875 C-62.30319538 24.11956578 -55.63757634 21.22366863 -48.9375 18.375 C-46.49589553 17.33639964 -44.05442245 16.29750034 -41.61328125 15.2578125 C-40.6825882 14.86172791 -40.6825882 14.86172791 -39.73309326 14.4576416 C-35.85034374 12.8013787 -31.98014198 11.11884233 -28.11811829 9.41482544 C-25.5693725 8.29066911 -23.01722451 7.17435441 -20.46487427 6.05841064 C-18.6606868 5.26568019 -16.86140951 4.46180448 -15.06225586 3.65771484 C-13.96147705 3.1777002 -12.86069824 2.69768555 -11.7265625 2.203125 C-10.28144287 1.56358887 -10.28144287 1.56358887 -8.80712891 0.91113281 C-5.55293853 -0.1451064 -3.39541604 -0.51736467 0 0 Z " fill="#FEFEFE" transform="translate(435,246)"/>
<path d="M0 0 C1.14275391 0.78117187 1.14275391 0.78117187 2.30859375 1.578125 C16.23297283 11.62809844 25.20545798 28.18655709 28 45 C29.15839559 54.26716472 29 63.66071618 29 73 C11.51 73 -5.98 73 -24 73 C-24.66 68.05 -25.32 63.1 -26 58 C-29.45216627 49.60283881 -33.24097024 43.7441814 -41.6796875 39.9140625 C-55.60902302 34.42674851 -73.07745023 33.44706014 -87.26171875 38.671875 C-94.36983479 42.11946338 -99.97268233 46.4969457 -103 54 C-103.53086838 56.81705493 -103.57333676 59.51486639 -103.5 62.375 C-103.48404785 63.49600098 -103.48404785 63.49600098 -103.46777344 64.63964844 C-103.26805213 70.44673507 -102.21461889 75.07761483 -99 80 C-98.4225 80.928125 -97.845 81.85625 -97.25 82.8125 C-91.86638169 88.04657336 -85.04712767 89.73093662 -77.83984375 91 C-76.98059296 91.16110764 -76.12134216 91.32221527 -75.23605347 91.48820496 C-72.47183212 92.00349565 -69.70483523 92.50173298 -66.9375 93 C-65.02999284 93.35350028 -63.12268508 93.70807818 -61.21557617 94.0637207 C-52.35653012 95.70721422 -43.48874741 97.27445034 -34.59692383 98.72998047 C-13.41469726 102.21051467 6.66462364 109.08439385 19.8125 127.1875 C27.27367808 138.36780351 30.89263572 149.90098751 33 163 C33.185625 163.91523437 33.37125 164.83046875 33.5625 165.7734375 C36.30697932 186.0139725 33.893334 208.09276258 21.60546875 224.9609375 C21.07566406 225.63382813 20.54585937 226.30671875 20 227 C19.43925781 227.73476563 18.87851563 228.46953125 18.30078125 229.2265625 C7.41988091 242.50262959 -8.74109437 250.14737396 -24.9375 254.8125 C-25.60354248 255.0074707 -26.26958496 255.20244141 -26.95581055 255.40332031 C-39.34161237 258.71398602 -52.1557401 259.33606207 -64.90942383 259.26074219 C-67.06555148 259.24998478 -69.22084971 259.26074161 -71.37695312 259.2734375 C-80.7559678 259.28276329 -89.72060481 258.45434211 -99 257 C-100.54028032 256.7858514 -102.08062949 256.57219645 -103.62109375 256.359375 C-123.00496512 253.26430444 -141.32804417 246.16139869 -154.04296875 230.48046875 C-166.62205109 213.01995147 -169 195.40936353 -169 174 C-150.52 174 -132.04 174 -113 174 C-112.01 181.425 -112.01 181.425 -111 189 C-109.74047728 192.26688705 -108.63699216 195.0009792 -107 198 C-106.67128906 198.71800781 -106.34257813 199.43601562 -106.00390625 200.17578125 C-104.53059751 202.85296095 -102.88054163 203.01939009 -100 204 C-99.38253906 204.309375 -98.76507812 204.61875 -98.12890625 204.9375 C-87.54268197 210.22090001 -76.46948264 210.19824452 -64.875 210.3125 C-63.77873291 210.33022461 -62.68246582 210.34794922 -61.55297852 210.36621094 C-50.23166948 210.35600006 -39.43313976 208.43313976 -31.1875 200.1875 C-25.46247267 191.84531733 -26.11979167 181.36249998 -27.6875 171.6875 C-29.23011418 165.04239278 -32.67737016 159.25054853 -38.16772461 155.07739258 C-45.78245121 150.59987246 -54.7272351 149.03986577 -63.3125 147.5625 C-64.46532471 147.35496094 -65.61814941 147.14742187 -66.8059082 146.93359375 C-73.14935691 145.80337306 -79.5029521 144.75225655 -85.8671875 143.74609375 C-108.4954292 140.15796943 -128.19364127 136.77758072 -145 120 C-145.97453125 119.04287109 -145.97453125 119.04287109 -146.96875 118.06640625 C-154.39203853 110.23613918 -158.39879014 100.34139531 -161 90 C-161.33555908 88.78989258 -161.67111816 87.57978516 -162.0168457 86.33300781 C-163.02864084 82.26681614 -163.3378283 78.30651422 -163.37109375 74.125 C-163.38012222 73.39740479 -163.3891507 72.66980957 -163.39845276 71.92016602 C-163.41286382 70.38741095 -163.42181903 68.85459565 -163.42553711 67.32177734 C-163.43733303 65.0324062 -163.48651597 62.74582764 -163.53710938 60.45703125 C-163.7441869 41.59160748 -157.46587111 25.20164047 -144.45703125 11.296875 C-111.0129706 -22.68515981 -38.47964711 -27.90673473 0 0 Z " fill="#010101" transform="translate(1890,388)"/>
<path d="M0 0 C20.13 0 40.26 0 61 0 C61 116.49 61 232.98 61 353 C40.87 353 20.74 353 0 353 C0 236.51 0 120.02 0 0 Z " fill="#000000" transform="translate(1363,291)"/>
<path d="M0 0 C2.3736742 2.3736742 2.65044919 3.8127369 3.48046875 7.0390625 C3.89075317 8.60503174 3.89075317 8.60503174 4.30932617 10.20263672 C4.59912354 11.3320166 4.8889209 12.46139648 5.1875 13.625 C5.81048019 15.99532344 6.4355292 18.36510398 7.0625 20.734375 C7.3821875 21.94287109 7.701875 23.15136719 8.03125 24.39648438 C9.51343943 29.90987045 11.08635443 35.39512719 12.6875 40.875 C12.97850586 41.87120361 13.26951172 42.86740723 13.56933594 43.89379883 C15.35783361 49.95942825 17.24323316 55.96955223 19.37109375 61.92578125 C20 64 20 64 20 67 C5.89483498 74.37589037 -8.24782767 81.66197884 -22.5 88.75 C-30.46128301 92.70960839 -38.4056117 96.68677252 -46.25 100.875 C-55.82568784 105.98759227 -65.55274879 110.7931971 -75.26965332 115.62969971 C-84.27902421 120.11585036 -93.252378 124.64740365 -102.13134766 129.38793945 C-109.92998024 133.53432716 -117.84633808 137.44358313 -125.76000977 141.36474609 C-132.54506095 144.73623159 -139.22480519 148.21990068 -145.77734375 152.0234375 C-148 153 -148 153 -151 152 C-152.8970557 149.76870115 -154.6466146 147.54461853 -156.375 145.1875 C-156.89884277 144.47972412 -157.42268555 143.77194824 -157.96240234 143.04272461 C-167.83682926 129.53089022 -176.58845208 115.29372966 -184.94384766 100.80664062 C-186.90326079 97.45489369 -188.96813952 94.16654121 -191.0390625 90.8828125 C-192 89 -192 89 -192 86 C-191.10321533 85.60433838 -190.20643066 85.20867676 -189.2824707 84.80102539 C-171.73474113 77.05360251 -154.22830208 69.22758763 -136.8125 61.1875 C-123.5873597 55.08374721 -110.31179767 49.11854739 -96.96044922 43.29492188 C-79.3851597 35.60736327 -61.90056538 27.71371177 -44.41110229 19.83352661 C-29.62888948 13.17349351 -14.82639706 6.56115188 0 0 Z " fill="#FDFEFE" transform="translate(455,419)"/>
<path d="M0 0 C0 41.58 0 83.16 0 126 C-7.26 129.96 -14.52 133.92 -22 138 C-24.25585938 139.26457031 -26.51171875 140.52914062 -28.8359375 141.83203125 C-40.21047924 148.05808583 -49.02813813 152.5654503 -62 149 C-72.76481706 145.626134 -79.46672309 140.8437302 -85 131 C-92.78306118 115.43387765 -92.52621908 96.0614637 -92.375 79.0625 C-92.36901794 77.69058502 -92.36901794 77.69058502 -92.36291504 76.29095459 C-92.27371153 58.83184556 -91.90838372 41.32664786 -85 25 C-84.46246094 23.68322266 -84.46246094 23.68322266 -83.9140625 22.33984375 C-79.78558436 13.15467259 -73.70788098 7.36563169 -64.6875 3.0078125 C-43.89592668 -4.7890275 -22.79147554 0 0 0 Z " fill="#FDFDFD" transform="translate(1613,432)"/>
<path d="M0 0 C0.33 0 0.66 0 1 0 C1.15855469 1.00417969 1.31710938 2.00835938 1.48046875 3.04296875 C4.40609132 20.58591647 10.76502682 36.47330433 22.49609375 50.07421875 C24 52 24 52 24 54 C24.66 54 25.32 54 26 54 C27.17206211 55.13758969 28.33817582 56.28183697 29.4765625 57.453125 C44.3456045 72.5509215 62.4762445 79.63835039 83 83 C83 83.33 83 83.66 83 84 C55.61 84 28.22 84 0 84 C0 56.28 0 28.56 0 0 Z " fill="#FCFDFE" transform="translate(0,854)"/>
<path d="M0 0 C27.39 0 54.78 0 83 0 C83 0.33 83 0.66 83 1 C81.81664063 1.24234375 80.63328125 1.4846875 79.4140625 1.734375 C66.88586646 4.35603907 66.88586646 4.35603907 55 9 C53.85273437 9.53109375 52.70546875 10.0621875 51.5234375 10.609375 C42.50684857 14.96417582 35.45577042 20.37433554 28.46386719 27.51367188 C27.11136571 28.88692554 25.71741174 30.21901974 24.3203125 31.546875 C10.85930092 45.0498212 4.16789604 63.53450072 1 82 C0.67 82 0.34 82 0 82 C0 54.94 0 27.88 0 0 Z " fill="#FEFEFE" transform="translate(0,0)"/>
<path d="M0 0 C1.72357119 2.58535679 2.44735018 4.03811614 3.1875 6.9375 C3.45626953 7.94103516 3.45626953 7.94103516 3.73046875 8.96484375 C4.03268678 11.24680888 3.68756692 12.82026659 3 15 C1.16052663 13.21427748 -0.67157741 11.42197551 -2.5 9.625 C-3.28697266 8.86316406 -3.28697266 8.86316406 -4.08984375 8.0859375 C-5.43153181 6.76167396 -6.71995815 5.38394135 -8 4 C-8 3.34 -8 2.68 -8 2 C-5.36 1.34 -2.72 0.68 0 0 Z " fill="#4B8B97" transform="translate(220,400)"/>
<path d="M0 0 C-0.33 0.99 -0.66 1.98 -1 3 C-2.8253125 3.2165625 -2.8253125 3.2165625 -4.6875 3.4375 C-7.13263546 3.73610946 -9.46373253 4.10081142 -11.875 4.625 C-14 5 -14 5 -16 4 C-18.3400417 4.28241883 -20.67504723 4.61250787 -23 5 C-23 5.66 -23 6.32 -23 7 C-23.95712891 7.16435547 -23.95712891 7.16435547 -24.93359375 7.33203125 C-25.75988281 7.49058594 -26.58617187 7.64914063 -27.4375 7.8125 C-28.26121094 7.96332031 -29.08492187 8.11414062 -29.93359375 8.26953125 C-30.61550781 8.51058594 -31.29742187 8.75164063 -32 9 C-32.33 9.99 -32.66 10.98 -33 12 C-34.65 11.67 -36.3 11.34 -38 11 C-34.1292553 7.48793435 -30.32277888 5.81158472 -25.375 4.375 C-24.67004395 4.16335205 -23.96508789 3.9517041 -23.23876953 3.73364258 C-15.63891229 1.50800717 -7.97690642 -0.43118413 0 0 Z " fill="#C2DFEA" transform="translate(89,0)"/>
<path d="M0 0 C1.093125 0.185625 2.18625 0.37125 3.3125 0.5625 C6.93624133 1.2578068 6.93624133 1.2578068 10 0 C14.33094958 0 16.27034861 0.96564469 20 3 C19.67 3.99 19.34 4.98 19 6 C19.66 6 20.32 6 21 6 C21 6.66 21 7.32 21 8 C14.02660829 6.87238772 7.31474655 5.26580832 1 2 C0.67 1.34 0.34 0.68 0 0 Z " fill="#5AACD2" transform="translate(54,928)"/>
<path d="M0 0 C3.62590381 1.55636242 6.16858915 3.7792923 9.0625 6.4375 C10.34833984 7.61119141 10.34833984 7.61119141 11.66015625 8.80859375 C12.43230469 9.53175781 13.20445312 10.25492188 14 11 C14.59683594 11.54785156 15.19367188 12.09570312 15.80859375 12.66015625 C17 14 17 14 17 16 C15.02 16 13.04 16 11 16 C10.67 15.01 10.34 14.02 10 13 C9.34 12.67 8.68 12.34 8 12 C8 10.35 8 8.7 8 7 C5.69 7.33 3.38 7.66 1 8 C0.67 5.36 0.34 2.72 0 0 Z " fill="#7ABDDA" transform="translate(344,616)"/>
<path d="M0 0 C0.99 0.33 1.98 0.66 3 1 C2.67 3.31 2.34 5.62 2 8 C5.32534757 9.10844919 7.62182575 8.84454356 11 8 C11 9.98 11 11.96 11 14 C10.01 14.33 9.02 14.66 8 15 C5.3359375 13.26953125 5.3359375 13.26953125 2.375 10.8125 C1.39273437 10.01457031 0.41046875 9.21664062 -0.6015625 8.39453125 C-2.89240513 6.10741963 -3.69580192 5.15062302 -4 2 C-3.34 1.67 -2.68 1.34 -2 1 C-1.34 1.33 -0.68 1.66 0 2 C0 1.34 0 0.68 0 0 Z " fill="#5BACD2" transform="translate(29,904)"/>
<path d="M0 0 C2.64 0 5.28 0 8 0 C7.01 0.495 7.01 0.495 6 1 C6.33 1.639375 6.66 2.27875 7 2.9375 C8.33056928 7.01236841 8.16659199 10.75190425 8 15 C4.10873653 11.66463131 1.82900259 7.73789501 0 3 C0 2.01 0 1.02 0 0 Z " fill="#5BADD3" transform="translate(8,880)"/>
<path d="M0 0 C1.51266251 4.36991392 0.80158879 8.2082133 -1.0625 12.375 C-1.371875 12.91125 -1.68125 13.4475 -2 14 C-1.34 14.33 -0.68 14.66 0 15 C0 15.66 0 16.32 0 17 C-0.99 17.33 -1.98 17.66 -3 18 C-4.03740882 21.25374924 -4.03740882 21.25374924 -4.6875 25.0625 C-4.93886719 26.35285156 -5.19023438 27.64320312 -5.44921875 28.97265625 C-5.63097656 29.97167969 -5.81273437 30.97070312 -6 32 C-6.33 32 -6.66 32 -7 32 C-7.2160907 26.3965446 -6.44521671 21.45163025 -5.1875 16 C-4.9390332 14.84757812 -4.9390332 14.84757812 -4.68554688 13.671875 C-3.59349402 8.82563291 -2.09151102 4.50663692 0 0 Z " fill="#BEDDE9" transform="translate(7,57)"/>
<path d="M0 0 C3.96457262 1.37099303 6.72954737 3.1890365 9.9375 5.875 C13.51884604 8.81930541 17.08251377 11.52579817 21 14 C17.50248986 15.16583671 16.45233541 15.2213683 13 14 C10.52274694 12.02835451 8.36831074 9.79021596 6.1875 7.5 C5.59001953 6.89285156 4.99253906 6.28570313 4.37695312 5.66015625 C0 1.16815179 0 1.16815179 0 0 Z " fill="#478792" transform="translate(360,630)"/>
<path d="M0 0 C1.0725 0.165 2.145 0.33 3.25 0.5 C7.03028752 1.08810915 7.03028752 1.08810915 11 1 C13.75 2.375 13.75 2.375 16 4 C16 4.66 16 5.32 16 6 C15.34 6 14.68 6 14 6 C14.33 6.99 14.66 7.98 15 9 C9.26800429 7.53025751 4.66416601 4.55513098 0 1 C0 0.67 0 0.34 0 0 Z " fill="#60AED2" transform="translate(38,919)"/>
<path d="M0 0 C3.43752007 1.5277867 6.18953688 3.50181056 9 6 C9 6.66 9 7.32 9 8 C9.99 8.33 10.98 8.66 12 9 C13.4296875 10.48828125 13.4296875 10.48828125 14.875 12.3125 C17.33228507 15.29810136 19.87002546 17.69854814 23 20 C22.67 20.99 22.34 21.98 22 23 C18.8636964 19.88834095 15.73063335 16.77346679 12.60058594 13.65551758 C11.53442344 12.59439642 10.46736689 11.5341728 9.39941406 10.47485352 C7.86810398 8.95561777 6.3399957 7.43322584 4.8125 5.91015625 C3.89082031 4.99371338 2.96914063 4.07727051 2.01953125 3.13305664 C0 1 0 1 0 0 Z " fill="#6BB2CD" transform="translate(856,666)"/>
<path d="M0 0 C2.78710718 0.35825561 3.82431267 0.80536212 5.73828125 2.92578125 C6.25777344 3.71339844 6.77726562 4.50101563 7.3125 5.3125 C8.11107422 6.48232422 8.11107422 6.48232422 8.92578125 7.67578125 C10 10 10 10 9.66796875 12.29296875 C9.44753906 12.85628906 9.22710937 13.41960938 9 14 C6.66475218 11.74259377 4.81294927 9.7194239 3 7 C2.01 7.495 2.01 7.495 1 8 C0.375 6.1875 0.375 6.1875 0 4 C0.66 3.01 1.32 2.02 2 1 C1.34 0.67 0.68 0.34 0 0 Z " fill="#82BFDB" transform="translate(281,542)"/>
<path d="M0 0 C1.125 1.625 1.125 1.625 2 4 C1.25465624 6.86670678 0.32208367 9.35583266 -1 12 C-3.5625 12.625 -3.5625 12.625 -6 13 C-4.58707905 8.1725201 -2.57025846 4.2837641 0 0 Z " fill="#BADAE9" transform="translate(14,44)"/>
<path d="M0 0 C-2.80649235 1.8709949 -5.49960473 3.23017952 -8.5625 4.625 C-9.53316406 5.07101562 -10.50382812 5.51703125 -11.50390625 5.9765625 C-14 7 -14 7 -16 7 C-16 6.34 -16 5.68 -16 5 C-15.34 4.67 -14.68 4.34 -14 4 C-14 3.34 -14 2.68 -14 2 C-9.35150485 -0.3992233 -5.08913926 -0.19957409 0 0 Z " fill="#A2CEE2" transform="translate(348,281)"/>
<path d="M0 0 C0.66 0 1.32 0 2 0 C3.40234375 1.57421875 3.40234375 1.57421875 4.9375 3.6875 C5.46472656 4.41324219 5.99195313 5.13898437 6.53515625 5.88671875 C8.13720564 8.197942 9.62118619 10.54877544 11 13 C9.35 13 7.7 13 6 13 C5.67 11.68 5.34 10.36 5 9 C4.34 9 3.68 9 3 9 C3 7.35 3 5.7 3 4 C2.34 4 1.68 4 1 4 C0.67 2.68 0.34 1.36 0 0 Z " fill="#BFDDE9" transform="translate(909,27)"/>
<path d="M0 0 C1.12894876 0.93274109 2.25300876 1.87140122 3.375 2.8125 C4.00148438 3.33457031 4.62796875 3.85664062 5.2734375 4.39453125 C7 6 7 6 9 9 C3.25 10.125 3.25 10.125 1 9 C1 7.68 1 6.36 1 5 C0.69595322 3.32774271 0.36871088 1.65919896 0 0 Z " fill="#71B6D6" transform="translate(367,638)"/>
<path d="M0 0 C1.14926266 0.95421808 2.29430541 1.91352045 3.4375 2.875 C4.07558594 3.40867187 4.71367188 3.94234375 5.37109375 4.4921875 C7 6 7 6 8 8 C5.03 8 2.06 8 -1 8 C-1.125 2.25 -1.125 2.25 0 0 Z " fill="#5CACCE" transform="translate(561,832)"/>
<path d="M0 0 C0.66 0.33 1.32 0.66 2 1 C-6.44827586 8 -6.44827586 8 -10 8 C-10 8.66 -10 9.32 -10 10 C-11.98 10.66 -13.96 11.32 -16 12 C-11.44468318 7.00384607 -6.06000601 3.03000301 0 0 Z " fill="#C2E0EA" transform="translate(49,11)"/>
<path d="M0 0 C0.33 0 0.66 0 1 0 C1 3.3 1 6.6 1 10 C-2.99996286 8.66667905 -3.83782337 6.5042173 -6 3 C-5.195625 2.690625 -4.39125 2.38125 -3.5625 2.0625 C-1.10919595 1.23664655 -1.10919595 1.23664655 0 0 Z " fill="#66B0D0" transform="translate(936,737)"/>
<path d="M0 0 C2.79872437 2.52788007 4.45773019 4.20411134 5 8 C4.01 8.66 3.02 9.32 2 10 C1.01 9.67 0.02 9.34 -1 9 C-1.125 2.25 -1.125 2.25 0 0 Z " fill="#82C0DB" transform="translate(273,526)"/>
<path d="M0 0 C-0.33 2.31 -0.66 4.62 -1 7 C-5.67692308 5.52307692 -5.67692308 5.52307692 -7.3125 2.875 C-7.539375 2.25625 -7.76625 1.6375 -8 1 C-5.23735711 0.40267181 -2.83967231 0 0 0 Z " fill="#448591" transform="translate(220,401)"/>
<path d="M0 0 C1.2684375 0.12375 1.2684375 0.12375 2.5625 0.25 C3.2225 1.24 3.8825 2.23 4.5625 3.25 C1.2625 4.57 -2.0375 5.89 -5.4375 7.25 C-5.4375 5.6 -5.4375 3.95 -5.4375 2.25 C-4.7775 1.92 -4.1175 1.59 -3.4375 1.25 C-2.4375 0.25 -2.4375 0.25 0 0 Z " fill="#A3CFE3" transform="translate(373.4375,265.75)"/>
<path d="M0 0 C0 0.66 0 1.32 0 2 C-1.59915881 2.69906942 -3.20455045 3.38389468 -4.8125 4.0625 C-5.70582031 4.44535156 -6.59914063 4.82820313 -7.51953125 5.22265625 C-10 6 -10 6 -13 5 C-12.4375 3.0625 -12.4375 3.0625 -11 1 C-7.23593762 0.16354169 -3.85635778 0 0 0 Z " fill="#A3D0E3" transform="translate(404,256)"/>
<path d="M0 0 C2.97 0.495 2.97 0.495 6 1 C5.67 1.99 5.34 2.98 5 4 C5.66 4 6.32 4 7 4 C7.66 5.98 8.32 7.96 9 10 C4.50486731 8.50162244 2.37078067 4.87680938 0 1 C0 0.67 0 0.34 0 0 Z " fill="#5EADD3" transform="translate(16,896)"/>
<path d="M0 0 C1.65 0 3.3 0 5 0 C3.515 5.445 3.515 5.445 2 11 C1.34 11 0.68 11 0 11 C0 7.37 0 3.74 0 0 Z " fill="#5CAED4" transform="translate(1,848)"/>
<path d="M0 0 C2.475 0.495 2.475 0.495 5 1 C5 1.66 5 2.32 5 3 C5.66 3 6.32 3 7 3 C7 2.34 7 1.68 7 1 C8.32 1.66 9.64 2.32 11 3 C9.73637508 3.55827609 8.4637081 4.09612097 7.1875 4.625 C6.47980469 4.92664063 5.77210938 5.22828125 5.04296875 5.5390625 C4.36878906 5.69117188 3.69460938 5.84328125 3 6 C2.01 5.34 1.02 4.68 0 4 C0 2.68 0 1.36 0 0 Z " fill="#468790" transform="translate(373,449)"/>
<path d="M0 0 C-1.02568864 2.70408823 -1.97263411 3.97795525 -4.25 5.8125 C-7.61870251 7.26716699 -9.49835238 6.89577032 -13 6 C-10.87838666 3.87838666 -9.2266841 3.07013751 -6.5 1.875 C-5.7059375 1.52179688 -4.911875 1.16859375 -4.09375 0.8046875 C-2 0 -2 0 0 0 Z " fill="#468791" transform="translate(361,430)"/>
<path d="M0 0 C0.99 0.33 1.98 0.66 3 1 C4.6875 4.5625 4.6875 4.5625 6 8 C5.01 8.495 5.01 8.495 4 9 C1.375 8.0625 1.375 8.0625 -1 7 C-0.67 4.69 -0.34 2.38 0 0 Z " fill="#82BFDD" transform="translate(297,563)"/>
<path d="M0 0 C2 0 2 0 3.65625 1.64453125 C4.56890625 2.71767578 4.56890625 2.71767578 5.5 3.8125 C6.41265625 4.87404297 6.41265625 4.87404297 7.34375 5.95703125 C9 8 9 8 11 11 C10.01 11.33 9.02 11.66 8 12 C8 11.34 8 10.68 8 10 C6.68 9.67 5.36 9.34 4 9 C3.896875 8.443125 3.79375 7.88625 3.6875 7.3125 C2.86866423 4.55823422 1.54146219 2.41272343 0 0 Z " fill="#58A7C9" transform="translate(588,859)"/>
<path d="M0 0 C0.66 0 1.32 0 2 0 C3.5078125 1.75 3.5078125 1.75 5.125 4 C5.66382813 4.7425 6.20265625 5.485 6.7578125 6.25 C7.16773438 6.8275 7.57765625 7.405 8 8 C6.68 8.99 5.36 9.98 4 11 C2.5393715 8.35261084 2 7.10551666 2 4 C1.34 3.34 0.68 2.68 0 2 C0 1.34 0 0.68 0 0 Z " fill="#59A9CC" transform="translate(574,845)"/>
<path d="M0 0 C2.97 1.98 2.97 1.98 6 4 C5.67 4.99 5.34 5.98 5 7 C3.35 7.33 1.7 7.66 0 8 C0 5.36 0 2.72 0 0 Z " fill="#7CBDDB" transform="translate(336,608)"/>
<path d="M0 0 C-2.28459758 2.28459758 -4.12537344 2.97129748 -7.125 4.125 C-8.03507812 4.47820312 -8.94515625 4.83140625 -9.8828125 5.1953125 C-10.58148438 5.46085937 -11.28015625 5.72640625 -12 6 C-12.33 5.34 -12.66 4.68 -13 4 C-9.41420832 -0.98892755 -5.61771415 -0.43213186 0 0 Z " fill="#9FCEE3" transform="translate(310,297)"/>
<path d="M0 0 C0.99 0.99 1.98 1.98 3 3 C0.01353231 4.99097846 -2.59687262 5.94124926 -6 7 C-6.33 6.34 -6.66 5.68 -7 5 C-6.01 4.34 -5.02 3.68 -4 3 C-2.66209359 2.00612666 -1.32781878 1.0073108 0 0 Z " fill="#A5D0E4" transform="translate(415,248)"/>
<path d="M0 0 C5.75 3.625 5.75 3.625 8 7 C5 8 5 8 2 7 C2 6.01 2 5.02 2 4 C1.34 4 0.68 4 0 4 C0 2.68 0 1.36 0 0 Z " fill="#BFDDEB" transform="translate(896,16)"/>
<path d="M0 0 C2.5 1.3125 2.5 1.3125 5 3 C5 3.99 5 4.98 5 6 C3.02 6 1.04 6 -1 6 C-1.33 5.01 -1.66 4.02 -2 3 C-2.66 2.67 -3.32 2.34 -4 2 C-2.68 2 -1.36 2 0 2 C0 1.34 0 0.68 0 0 Z " fill="#6DB1CA" transform="translate(356,626)"/>
<path d="M0 0 C2.64 0.33 5.28 0.66 8 1 C7.67 2.98 7.34 4.96 7 7 C5.83040013 6.02433888 4.66438823 5.044375 3.5 4.0625 C2.8503125 3.51722656 2.200625 2.97195313 1.53125 2.41015625 C1.0259375 1.94480469 0.520625 1.47945312 0 1 C0 0.67 0 0.34 0 0 Z " fill="#7ABAD4" transform="translate(727,537)"/>
<path d="M0 0 C2.97 0.33 5.94 0.66 9 1 C8.01 2.485 8.01 2.485 7 4 C7.30840599 6.15274948 7.30840599 6.15274948 8 8 C6.66102417 7.04956626 5.32894573 6.08940853 4 5.125 C3.2575 4.59132813 2.515 4.05765625 1.75 3.5078125 C1.1725 3.01023437 0.595 2.51265625 0 2 C0 1.34 0 0.68 0 0 Z " fill="#70B4D0" transform="translate(806,616)"/>
<path d="M0 0 C1.32 0.33 2.64 0.66 4 1 C4 1.66 4 2.32 4 3 C0.7 4.32 -2.6 5.64 -6 7 C-5.67 5.68 -5.34 4.36 -5 3 C-4.01 2.67 -3.02 2.34 -2 2 C-1.34 2.33 -0.68 2.66 0 3 C0 2.01 0 1.02 0 0 Z " fill="#A1CFE2" transform="translate(283,305)"/>
<path d="M0 0 C0.33 0.99 0.66 1.98 1 3 C-0.9375 5.6875 -0.9375 5.6875 -3 8 C-4.32 7.67 -5.64 7.34 -7 7 C-4.69 4.69 -2.38 2.38 0 0 Z " fill="#BBDBE9" transform="translate(31,24)"/>
<path d="M0 0 C4.51617599 -0.07654536 8.59085217 -0.10228696 13 1 C12 3 12 3 9 5 C8.34 4.67 7.68 4.34 7 4 C7 3.34 7 2.68 7 2 C4.69 1.67 2.38 1.34 0 1 C0 0.67 0 0.34 0 0 Z " fill="#C8E2ED" transform="translate(848,0)"/>
<path d="M0 0 C1.08174162 3.36541838 0.92538169 4.29847322 0 8 C-1.98 5.69 -3.96 3.38 -6 1 C-3.03 1.495 -3.03 1.495 0 2 C0 1.34 0 0.68 0 0 Z " fill="#75B7D3" transform="translate(797,600)"/>
<path d="M0 0 C1.65 1.65 3.3 3.3 5 5 C2.09399739 6.25664978 0.20395416 7 -3 7 C-3 5.68 -3 4.36 -3 3 C-1.68 3 -0.36 3 1 3 C0.67 2.01 0.34 1.02 0 0 Z " fill="#83C0D8" transform="translate(267,497)"/>
<path d="M0 0 C1.65 1.65 3.3 3.3 5 5 C3.35 5.66 1.7 6.32 0 7 C-0.66 6.01 -1.32 5.02 -2 4 C-1.34 2.68 -0.68 1.36 0 0 Z " fill="#64AFD3" transform="translate(498,769)"/>
<path d="M0 0 C1.98 1.65 3.96 3.3 6 5 C4.02 5.99 4.02 5.99 2 7 C0.4375 5.75 0.4375 5.75 -1 4 C-0.6875 1.8125 -0.6875 1.8125 0 0 Z " fill="#78BBDA" transform="translate(329,601)"/>
<path d="M0 0 C0.66 0.33 1.32 0.66 2 1 C2 2.32 2 3.64 2 5 C-0.375 6.0625 -0.375 6.0625 -3 7 C-3.66 6.67 -4.32 6.34 -5 6 C-5 5.01 -5 4.02 -5 3 C-4.01 3 -3.02 3 -2 3 C-1.34 2.01 -0.68 1.02 0 0 Z " fill="#99CAE1" transform="translate(205,337)"/>
<path d="M0 0 C-4.44 2.96 -4.44 2.96 -7 4 C-7.99 3.67 -8.98 3.34 -10 3 C-6.46873184 -0.69178035 -5.02635024 -1.19045137 0 0 Z " fill="#9CCCE2" transform="translate(266,316)"/>
<path d="M0 0 C2.375 0.25 2.375 0.25 5 1 C6.3125 3.0625 6.3125 3.0625 7 5 C5.125 5.625 5.125 5.625 3 6 C0.8614515 3.8614515 0.57344937 2.86724686 0 0 Z " fill="#52A9D1" transform="translate(47,920)"/>
<path d="M0 0 C0.8125 1.6875 0.8125 1.6875 1 4 C-1.46026571 6.87030999 -3.85489214 8.90326143 -7 11 C-5.5140084 6.40693504 -3.14985318 3.56430755 0 0 Z " fill="#C0DEEB" transform="translate(22,33)"/>
<path d="M0 0 C1.65 1.65 3.3 3.3 5 5 C3.68 5.99 2.36 6.98 1 8 C-0.42944945 5.64561267 -1.08661261 4.51967567 -0.625 1.75 C-0.41875 1.1725 -0.2125 0.595 0 0 Z " fill="#5CABCF" transform="translate(569,840)"/>
<path d="M0 0 C1.32 0.33 2.64 0.66 4 1 C4 1.66 4 2.32 4 3 C4.66 3 5.32 3 6 3 C6.33 4.32 6.66 5.64 7 7 C7.99 6.67 8.98 6.34 10 6 C9.67 6.99 9.34 7.98 9 9 C5.51127585 7.83709195 4.90023136 6.86032391 2.8125 3.9375 C2.28269531 3.20402344 1.75289062 2.47054687 1.20703125 1.71484375 C0.80871094 1.14894531 0.41039062 0.58304688 0 0 Z " fill="#65AECB" transform="translate(920,730)"/>
<path d="M0 0 C0.66 0.66 1.32 1.32 2 2 C1.625 5.125 1.625 5.125 1 8 C-1.97 7.505 -1.97 7.505 -5 7 C-4.360625 6.21625 -3.72125 5.4325 -3.0625 4.625 C-1.01857687 2.20460719 -1.01857687 2.20460719 0 0 Z " fill="#498791" transform="translate(749,635)"/>
<path d="M0 0 C5.78461538 3.44615385 5.78461538 3.44615385 6.875 6.25 C6.936875 7.11625 6.936875 7.11625 7 8 C6.01 8 5.02 8 4 8 C3.67 6.35 3.34 4.7 3 3 C2.01 3 1.02 3 0 3 C0 2.01 0 1.02 0 0 Z " fill="#78B6D1" transform="translate(349,620)"/>
<path d="M0 0 C0.66 1.32 1.32 2.64 2 4 C-0.64 4.33 -3.28 4.66 -6 5 C-6.33 4.34 -6.66 3.68 -7 3 C-4.69 2.01 -2.38 1.02 0 0 Z " fill="#458691" transform="translate(422,402)"/>
<path d="M0 0 C1.80411967 2.75924185 2.0127245 3.88972103 1.625 7.25 C1.41875 8.1575 1.2125 9.065 1 10 C-1.59482129 7.40517871 -1.69990302 5.60116375 -2 2 C-1.34 1.34 -0.68 0.68 0 0 Z " fill="#63B0D4" transform="translate(6,868)"/>
<path d="M0 0 C1.32 1.32 2.64 2.64 4 4 C1.07175348 4.97608217 -0.95613276 5.08226668 -4 5 C-4 4.01 -4 3.02 -4 2 C-2.68 2 -1.36 2 0 2 C0 1.34 0 0.68 0 0 Z " fill="#5CACCE" transform="translate(556,827)"/>
<path d="M0 0 C-0.33 0.66 -0.66 1.32 -1 2 C-3.64860427 2.59355614 -6.29197322 2.74209269 -9 3 C-9.33 2.34 -9.66 1.68 -10 1 C-3.375 -1.125 -3.375 -1.125 0 0 Z " fill="#4F8D96" transform="translate(641,677)"/>
<path d="M0 0 C0.66 0.33 1.32 0.66 2 1 C-3.75 5 -3.75 5 -6 5 C-6 5.66 -6 6.32 -6 7 C-6.99 6.67 -7.98 6.34 -9 6 C-9 5.34 -9 4.68 -9 4 C-7.54618103 3.30300448 -6.08677047 2.61766134 -4.625 1.9375 C-3.40683594 1.36322266 -3.40683594 1.36322266 -2.1640625 0.77734375 C-1.44992187 0.52082031 -0.73578125 0.26429688 0 0 Z " fill="#4B8B95" transform="translate(435,396)"/>
<path d="M0 0 C1.32 1.32 2.64 2.64 4 4 C2.35 4.66 0.7 5.32 -1 6 C-1.66 5.01 -2.32 4.02 -3 3 C-2.01 2.67 -1.02 2.34 0 2 C0 1.34 0 0.68 0 0 Z " fill="#67B1D1" transform="translate(483,754)"/>
<path d="M0 0 C3.34148439 1.17403506 5.81103718 2.15434834 8 5 C8.6875 7.1875 8.6875 7.1875 9 9 C7 9 7 9 5.2734375 7.28515625 C4.64695312 6.55167969 4.02046875 5.81820312 3.375 5.0625 C2.74335937 4.33160156 2.11171875 3.60070312 1.4609375 2.84765625 C0 1 0 1 0 0 Z " fill="#67AECA" transform="translate(879,689)"/>
<path d="M0 0 C1.65 0 3.3 0 5 0 C5 1.32 5 2.64 5 4 C5.66 4 6.32 4 7 4 C7.33 5.32 7.66 6.64 8 8 C7.34 8 6.68 8 6 8 C4.4921875 6.25 4.4921875 6.25 2.875 4 C2.33617187 3.2575 1.79734375 2.515 1.2421875 1.75 C0.62730469 0.88375 0.62730469 0.88375 0 0 Z " fill="#6BB0CD" transform="translate(848,658)"/>
<path d="M0 0 C1.65 0 3.3 0 5 0 C5.66 1.32 6.32 2.64 7 4 C6.34 4.66 5.68 5.32 5 6 C3.35 4.02 1.7 2.04 0 0 Z " fill="#7BBAD6" transform="translate(704,514)"/>
<path d="M0 0 C1.65 0 3.3 0 5 0 C5 1.32 5 2.64 5 4 C3.35 4.33 1.7 4.66 0 5 C0 3.35 0 1.7 0 0 Z " fill="#9ACBE0" transform="translate(224,329)"/>
<path d="M0 0 C1.423125 0.2784375 1.423125 0.2784375 2.875 0.5625 C5.89868793 1.28686632 5.89868793 1.28686632 8 0 C7.34 1.98 6.68 3.96 6 6 C3.97945196 4.35830472 1.97956942 2.69088222 0 1 C0 0.67 0 0.34 0 0 Z " fill="#6BB2D1" transform="translate(895,705)"/>
<path d="M0 0 C2 3 2 3 1.625 5.1875 C1.41875 5.785625 1.2125 6.38375 1 7 C-0.32 5.68 -1.64 4.36 -3 3 C-2.01 2.01 -1.02 1.02 0 0 Z " fill="#7FBDD7" transform="translate(692,496)"/>
<path d="M0 0 C2.475 0.99 2.475 0.99 5 2 C5 2.66 5 3.32 5 4 C5.66 4 6.32 4 7 4 C7.33 5.32 7.66 6.64 8 8 C6.85073734 7.04578192 5.70569459 6.08647955 4.5625 5.125 C3.92441406 4.59132813 3.28632812 4.05765625 2.62890625 3.5078125 C1 2 1 2 0 0 Z " fill="#67B0CD" transform="translate(911,721)"/>
<path d="M0 0 C0.99 0.99 1.98 1.98 3 3 C2.67 3.66 2.34 4.32 2 5 C0.68 5 -0.64 5 -2 5 C-2 3.68 -2 2.36 -2 1 C-1.34 0.67 -0.68 0.34 0 0 Z " fill="#72B9D6" transform="translate(363,634)"/>
<path d="M0 0 C0 3 0 3 -2 6 C-3.32 4.35 -4.64 2.7 -6 1 C-4.7934375 1.0309375 -4.7934375 1.0309375 -3.5625 1.0625 C-1.06645115 1.29633621 -1.06645115 1.29633621 0 0 Z " fill="#6CB3D2" transform="translate(894,697)"/>
<path d="M0 0 C1.32 1.32 2.64 2.64 4 4 C3.34 4 2.68 4 2 4 C2 4.66 2 5.32 2 6 C1.01 6 0.02 6 -1 6 C-0.67 4.02 -0.34 2.04 0 0 Z " fill="#6CB4D3" transform="translate(418,689)"/>
<path d="M0 0 C-0.99 0.33 -1.98 0.66 -3 1 C-3 1.66 -3 2.32 -3 3 C-5.64 2.67 -8.28 2.34 -11 2 C-11 1.67 -11 1.34 -11 1 C-9.5437328 0.63743142 -8.08488815 0.28520207 -6.625 -0.0625 C-5.40683594 -0.35833984 -5.40683594 -0.35833984 -4.1640625 -0.66015625 C-2 -1 -2 -1 0 0 Z " fill="#538C97" transform="translate(705,666)"/>
<path d="M0 0 C0 0.99 0 1.98 0 3 C-1.98 3.66 -3.96 4.32 -6 5 C-6 4.01 -6 3.02 -6 2 C-2.25 0 -2.25 0 0 0 Z " fill="#47878F" transform="translate(417,434)"/>
<path d="M0 0 C0 0.66 0 1.32 0 2 C-3.465 3.485 -3.465 3.485 -7 5 C-7 4.01 -7 3.02 -7 2 C-4.35261084 0.5393715 -3.10551666 0 0 0 Z " fill="#478794" transform="translate(439,425)"/>
</svg>
