<svg width="135" height="306" viewBox="0 0 135 306" fill="none" xmlns="http://www.w3.org/2000/svg">
<path d="M3.9375 0C3.3125 0 2.6875 0 2.0625 0C1.95833 6.89835 1.85938 13.7967 1.76563 20.6951C1.26141 57.7967 0.907846 94.8983 0.704945 132C0.291066 146.007 12.9027 158.754 27 158.449C39.4167 158.483 51.8333 158.5 64.25 158.5C78.8333 158.5 93.4167 158.477 108 158.43C119.48 158.106 129.944 168.419 129.742 180C129.95 214.935 130.291 249.87 130.766 284.805C130.859 291.703 130.958 298.602 131.062 305.5C131.688 305.5 132.312 305.5 132.938 305.5C133.042 298.602 133.141 291.703 133.234 284.805C133.709 249.87 134.05 214.935 134.258 180C134.678 166.014 122.088 153.272 108 153.57C93.4167 153.523 78.8333 153.5 64.25 153.5C51.8333 153.5 39.4167 153.517 27 153.551C15.5296 153.868 5.08725 143.561 5.29506 132C5.09215 94.8983 4.73859 57.7967 4.23437 20.6951C4.14062 13.7967 4.04167 6.89835 3.9375 0Z" fill="white" fill-opacity="0.17"/>
</svg>
