<?xml version="1.0" encoding="UTF-8"?>
<svg version="1.1" xmlns="http://www.w3.org/2000/svg" width="2048" height="2048">
<path d="M0 0 C479.16 0 958.32 0 1452 0 C1450.85140307 21.8233416 1450.85140307 21.8233416 1450.13595009 29.64002705 C1450.05454204 30.56111313 1449.97313399 31.48219921 1449.88925903 32.43119699 C1449.62103612 35.45665288 1449.34797478 38.48165025 1449.07485962 41.50666809 C1448.87658928 43.73150072 1448.67862327 45.95636049 1448.48093086 48.18124455 C1447.93893442 54.27114778 1447.39265817 60.36066049 1446.84566198 66.4501164 C1446.31188583 72.40018213 1445.78140942 78.35054184 1445.25082952 84.30089325 C1444.15293818 96.61226731 1443.05181687 108.92335053 1441.94892693 121.23427773 C1440.83188397 133.70338594 1439.71640769 146.17263289 1438.60281563 158.64204979 C1438.53234038 159.43118756 1438.46186512 160.22032534 1438.38925426 161.03337638 C1438.0298428 165.05793631 1437.67045898 169.0824987 1437.31108665 173.10706212 C1434.71090027 202.22574733 1432.10753364 231.34414747 1429.50253296 260.46240234 C1426.91541232 289.38103384 1424.32980489 318.29980004 1421.74624634 347.21875 C1421.62554638 348.56979648 1421.62554638 348.56979648 1421.50240804 349.94813684 C1420.43840341 361.85807779 1419.37449492 373.76802732 1418.310616 385.6779795 C1417.063474 399.63951279 1415.81626097 413.60103974 1414.56906027 427.56256778 C1414.14899903 432.2648582 1413.72894059 436.96714888 1413.30888809 441.66944008 C1411.00062188 467.50937674 1408.69187993 493.34927085 1406.38273634 519.18912912 C1397.763402 615.64159362 1389.15283755 712.09483577 1376.47265625 854.35546875 C1376.30360838 856.25226523 1376.13456051 858.1490617 1375.96551263 860.04585817 C1371.99481073 904.59911536 1368.02475903 949.15243048 1364.05505031 993.70577618 C1361.66715451 1020.50590743 1359.279033 1047.30601857 1356.89068604 1074.10610962 C1356.81330691 1074.97439587 1356.73592778 1075.84268213 1356.65620383 1076.73728008 C1355.95848721 1084.56649038 1355.26076801 1092.39570044 1354.56304638 1100.22491029 C1351.82312882 1130.96983765 1349.08333804 1161.71477631 1346.34359498 1192.45971921 C1346.20641811 1193.9990953 1346.06924116 1195.53847138 1345.9320641 1197.07784745 C1345.53197613 1201.5675631 1345.13188982 1206.0572789 1344.73180584 1210.54699491 C1344.60099517 1212.01494286 1344.47018418 1213.48289079 1344.33937287 1214.95083869 C1343.63366444 1222.87021991 1342.92799014 1230.78960417 1342.22240216 1238.70899612 C1341.96988528 1241.54317096 1341.71736644 1244.37734562 1341.46484661 1247.2115202 C1341.40269078 1247.90913689 1341.34053495 1248.60675359 1341.27649562 1249.32551019 C1340.47687483 1258.30005897 1339.67689301 1267.27457547 1338.87654636 1276.24905955 C1338.26758191 1283.07756493 1337.65881191 1289.90608764 1337.05014038 1296.73461914 C1336.9595204 1297.75122133 1336.9595204 1297.75122133 1336.86706971 1298.78836093 C1334.93147683 1320.50344748 1333.00510947 1342.21934296 1331.08262069 1363.9355933 C1330.54908697 1369.9617662 1330.0150414 1375.98789357 1329.48064381 1382.01398993 C1329.4058952 1382.85689251 1329.33114658 1383.69979509 1329.25413286 1384.56824018 C1328.87939714 1388.79372251 1328.50459206 1393.01919868 1328.12973762 1397.24467048 C1327.32530914 1406.31365101 1326.52265036 1415.38278492 1325.72223653 1424.45212067 C1325.17932344 1430.60219617 1324.63444217 1436.75209528 1324.088017 1442.90185972 C1323.77191772 1446.46021652 1323.45675518 1450.01865014 1323.14400841 1453.57730329 C1322.8037325 1457.4490354 1322.45921281 1461.32038315 1322.11428547 1465.1917038 C1322.01535743 1466.32527786 1321.91642939 1467.45885193 1321.81450353 1468.62677673 C1321.72131541 1469.66491026 1321.62812729 1470.7030438 1321.53211528 1471.77263594 C1321.41334336 1473.11531863 1321.41334336 1473.11531863 1321.292172 1474.48512623 C1320.99658451 1477.02939885 1320.53762515 1479.49666144 1320 1482 C1294.37112657 1489.26141699 1268.71598655 1496.42313644 1243.03833008 1503.51000977 C1232.74744523 1506.35026019 1222.45773988 1509.19478044 1212.16796875 1512.0390625 C1211.11593136 1512.32983421 1210.06389397 1512.62060593 1208.97997665 1512.9201889 C1187.57098902 1518.83772038 1166.16909215 1524.78063012 1144.76898575 1530.73018646 C1112.20022853 1539.78471852 1079.62395237 1548.8116677 1047.04174805 1557.81768799 C1017.35512662 1566.02347202 987.67464998 1574.25103076 958 1582.5 C927.19350809 1591.06345303 896.3809389 1599.60464056 865.5625 1608.125 C864.59309856 1608.39301422 863.62369713 1608.66102844 862.62491989 1608.93716431 C859.70689753 1609.74392069 856.78887357 1610.55067129 853.87084961 1611.35742188 C849.99722958 1612.42837278 846.12361342 1613.49933768 842.25 1614.5703125 C841.29543474 1614.83422539 840.34086948 1615.09813828 839.35737801 1615.37004852 C817.84187481 1621.31869491 796.32881488 1627.27615127 774.81666183 1633.23690033 C772.08362124 1633.99414791 769.3505469 1634.75127358 766.61746216 1635.50836182 C762.3739826 1636.68385841 758.13058361 1637.8596454 753.88725281 1639.03567886 C752.34194924 1639.46391874 750.79662121 1639.89207036 749.25126648 1640.32012558 C747.14147649 1640.90455592 745.03178503 1641.48934063 742.92211914 1642.07421875 C741.74670059 1642.39994873 740.57128204 1642.72567871 739.36024475 1643.0612793 C737.08146254 1643.69788175 734.81662753 1644.38623557 732.56736755 1645.12036133 C725.71664202 1646.80960781 720.24917435 1646.06956651 713.53369141 1644.19360352 C712.82648956 1643.99910866 712.11928772 1643.8046138 711.39065552 1643.60422516 C709.04147122 1642.95550634 706.69665695 1642.29224391 704.3515625 1641.62890625 C702.66125032 1641.1589671 700.97068116 1640.68995143 699.27987671 1640.2217865 C694.6881219 1638.94767138 690.09997719 1637.66097305 685.5123291 1636.37216187 C680.63144509 1635.00346938 675.74721244 1633.64683324 670.86328125 1632.2890625 C662.67055002 1630.00995384 654.47966139 1627.72433568 646.29003906 1625.43408203 C634.62134163 1622.1712765 622.94825369 1618.92442909 611.2734375 1615.68359375 C610.35283665 1615.4280176 609.43223579 1615.17244144 608.48373795 1614.90912056 C604.77289584 1613.87892347 601.06204785 1612.8487476 597.35116005 1611.8187151 C590.80412073 1610.00132474 584.25765383 1608.18188245 577.71142578 1606.36157227 C551.98332217 1599.2081244 526.24469987 1592.09346728 500.5 1585 C470.0466957 1576.60916543 439.60526047 1568.17656806 409.17193604 1559.71356201 C379.72777702 1551.52583725 350.27319901 1543.37680823 320.80975723 1535.25875854 C289.6888843 1526.68380518 258.58170331 1518.06035137 227.48077393 1509.4133606 C195.66514032 1500.56772361 163.83915226 1491.76063613 132 1483 C130.31070838 1470.41321431 129.10137571 1457.80842957 127.98583984 1445.15971375 C127.79065484 1442.97082095 127.59521851 1440.78195055 127.39955556 1438.59310043 C126.8636351 1432.58969859 126.33126275 1426.58598666 125.79947636 1420.58221741 C125.27962753 1414.71971261 124.75705905 1408.85745063 124.23457391 1402.99518029 C123.15341268 1390.86352129 122.07493137 1378.7316254 120.99791336 1366.59959793 C119.90693609 1354.31048187 118.81467642 1342.02148076 117.72086716 1329.73261642 C117.65168662 1328.95537185 117.58250609 1328.17812728 117.51122918 1327.37732984 C117.15841756 1323.41355984 116.80558382 1319.44979181 116.45274128 1315.48602456 C113.89892826 1286.79655668 111.34778648 1258.10685178 108.79803467 1229.41702271 C106.26459848 1200.91094109 103.72995128 1172.40496755 101.19366455 1143.8991394 C101.11466635 1143.0112599 101.03566814 1142.12338039 100.95427605 1141.20859545 C99.99055031 1130.3770994 99.02676853 1119.54560834 98.0629638 1108.71411932 C96.59299509 1092.19420805 95.12312205 1075.67428827 93.65325402 1059.15436805 C93.4056616 1056.37167085 93.15806736 1053.58897381 92.91047283 1050.80627681 C90.55979018 1024.38705886 88.2096062 997.9677966 85.8597845 971.54850207 C77.43984868 876.88232391 69.01360071 782.21671056 57.58166323 653.92307501 C57.00235774 647.42223931 56.42306108 640.92140283 55.84377003 634.42056584 C51.88298652 589.97245406 47.92191553 545.5243679 43.96070284 501.07629437 C40.73295273 464.85827409 37.50526448 428.64024829 34.27778151 392.4222042 C34.05511978 389.92355215 33.8324568 387.42490021 33.60979348 384.9262483 C30.36586911 348.52398899 27.12243201 312.12168639 23.88079834 275.71922302 C23.74792122 274.22706851 23.61504406 272.73491401 23.48216686 271.2427595 C22.32120949 258.20566009 21.16028418 245.16855782 19.99950361 232.13144267 C19.2628688 223.85807016 18.52618769 215.58470178 17.78942871 207.31134033 C17.73008472 206.64494226 17.67074073 205.97854419 17.60959843 205.29195224 C15.6766345 183.58629992 13.74058144 161.88092447 11.80261123 140.17571861 C10.3116038 123.47617269 8.82238425 106.77646814 7.33493912 90.07660455 C6.44706651 80.10920419 5.55747069 70.14196127 4.66523507 60.1749505 C4.08809818 53.72614257 3.51310388 47.27714614 2.93998012 40.82798032 C2.62012083 37.22945845 2.29929737 33.63103005 1.9756875 30.03284335 C1.63327951 26.22555162 1.29558329 22.41785078 0.95840454 18.61009216 C0.85950814 17.51930786 0.76061173 16.42852355 0.65871847 15.30468518 C0.57069389 14.30173206 0.4826693 13.29877895 0.39197731 12.26543331 C0.31561849 11.41015323 0.23925967 10.55487314 0.16058695 9.67367548 C-0.03276551 6.45447408 0 3.22500276 0 0 Z " fill="#E44D26" transform="translate(298,402)"/>
<path d="M0 0 C300.3 0 600.6 0 910 0 C910 11.24939485 910 11.24939485 909.63623047 15.06079102 C909.55525116 15.93396973 909.47427185 16.80714844 909.39083862 17.70678711 C909.30053375 18.62983643 909.21022888 19.55288574 909.1171875 20.50390625 C909.02261261 21.51066406 908.92803772 22.51742187 908.83059692 23.5546875 C908.51628777 26.89103949 908.19557152 30.22674441 907.875 33.5625 C907.64922552 35.94843774 907.42397766 38.33442536 907.19921875 40.72045898 C906.84216403 44.5093258 906.48465934 48.29814619 906.12542725 52.08680725 C905.23844749 61.44198754 904.36800939 70.79857478 903.5078125 80.15625 C903.44513058 80.83779585 903.38244865 81.5193417 903.31786728 82.22154045 C902.76365598 88.24783863 902.21016857 94.27420328 901.65667725 100.30056763 C899.15290092 127.5383786 896.56904648 154.76810736 894 182 C664.98 182 435.96 182 200 182 C204.0368997 227.23166882 204.0368997 227.23166882 208.1413269 272.45700073 C210.29043041 295.94607554 212.42241912 319.436491 214.4375 342.9375 C214.52121857 343.90462921 214.60493713 344.87175842 214.69119263 345.86819458 C214.92064266 348.52518034 215.14657589 351.18243726 215.37109375 353.83984375 C215.43634247 354.59224335 215.50159119 355.34464294 215.56881714 356.11984253 C215.90098126 360.11629168 216 363.97426553 216 368 C434.13 368 652.26 368 877 368 C874.6908178 399.17395969 874.6908178 399.17395969 873.35180664 413.87426758 C873.25417023 414.94931549 873.15653381 416.0243634 873.05593872 417.13198853 C872.95497894 418.24343231 872.85401917 419.3548761 872.75 420.5 C872.53290214 422.90842748 872.31603092 425.3168754 872.09936523 427.7253418 C871.63929786 432.83700041 871.17817337 437.94856208 870.71630859 443.06005859 C869.99048012 451.09827703 869.26991467 459.13696141 868.55078125 467.17578125 C868.49012671 467.85371798 868.42947216 468.5316547 868.3669796 469.23013496 C868.11980187 471.99288714 867.872647 474.75564135 867.6255331 477.51839924 C866.92798901 485.31700294 866.22974132 493.11554358 865.53125 500.9140625 C865.46769129 501.62374113 865.40413258 502.33341976 865.33864784 503.06460381 C864.52613691 512.1362785 863.71197912 521.20780355 862.89608765 530.2791748 C862.28424334 537.08189164 861.67324025 543.88468396 861.0625 550.6875 C861.00110588 551.3711412 860.93971176 552.05478241 860.87645721 552.75914001 C859.35627371 569.68906862 857.85358045 586.62039004 856.3828125 603.5546875 C856.24386589 605.15385481 856.10491424 606.75302167 855.96595764 608.35218811 C855.86187167 609.55012827 855.86187167 609.55012827 855.75568295 610.77226925 C855.39971508 614.86902093 855.04368523 618.96576721 854.6875 623.0625 C854.58104471 624.28697657 854.58104471 624.28697657 854.47243881 625.53619003 C851.49456428 659.77229636 848.35856923 693.99329046 845.20263672 728.21337891 C844.82385867 732.32063484 844.445117 736.42789412 844.06640625 740.53515625 C843.97464363 741.53019669 843.88288101 742.52523712 843.78833771 743.5504303 C841.78205133 765.31133725 839.82957775 787.07676812 837.90353394 808.84492493 C837.16977793 817.12331494 836.42267565 825.40046986 835.67249489 833.67738342 C832.91553184 864.10336371 830.18156874 894.52602698 828 925 C821.84325021 927.08539529 815.66245152 929.06559272 809.4375 930.9375 C808.56544922 931.19982422 807.69339844 931.46214844 806.79492188 931.73242188 C800.27789165 933.66991735 793.73334128 935.33870776 787.125 936.9375 C782.36707938 938.12698016 777.68858513 939.56500879 773 941 C765.74867931 943.2193436 758.4964564 945.15408313 751.125 946.9375 C746.3670693 948.12698267 741.68864037 949.56516414 737 951 C730.34786141 953.03375476 723.6926226 954.89413264 716.93310547 956.53344727 C709.66778336 958.3019916 702.47926673 960.33308732 695.28222656 962.35888672 C691.52390951 963.414657 687.76179211 964.45669367 684 965.5 C682.49998134 965.91659949 680.99998135 966.33326619 679.5 966.75 C580.5 994.25 580.5 994.25 578.25146484 994.87451172 C576.74652608 995.29260466 575.24164354 995.7109 573.73681641 996.12939453 C570.06280567 997.15087905 566.38799244 998.16921195 562.7109375 999.1796875 C554.0736261 1001.55851687 545.46875023 1004.0305447 536.875 1006.5625 C528.94669302 1008.8963605 521.01766679 1011.03099962 512.984375 1012.97265625 C507.40502491 1014.36749377 501.92528506 1016.10495216 496.42749023 1017.78710938 C489.98393133 1019.74364307 483.51216336 1021.4156771 476.96484375 1022.984375 C474.0908666 1023.69399899 471.26806194 1024.51135339 468.44140625 1025.390625 C467.67916748 1025.62644287 466.91692871 1025.86226074 466.1315918 1026.10522461 C464.66979938 1026.56338891 463.21131457 1027.03230037 461.75708008 1027.51391602 C457.35129605 1028.89282552 454.45441255 1029.13266236 450 1028 C448.81446533 1027.70838989 448.81446533 1027.70838989 447.60498047 1027.41088867 C444.72978299 1026.69427488 441.86476927 1025.94469237 439 1025.1875 C437.96979736 1024.91687744 436.93959473 1024.64625488 435.87817383 1024.36743164 C429.36427593 1022.64802452 422.87586187 1020.86364321 416.40625 1018.984375 C412.50744071 1017.85765488 408.5988297 1016.76978001 404.6875 1015.6875 C397.28797042 1013.63811456 389.89315332 1011.57226837 382.5 1009.5 C375.33548775 1007.49217617 368.17004041 1005.48799642 361 1003.5 C352.7425638 1001.21050752 344.49115491 998.89966175 336.24047852 996.5859375 C331.57771993 995.27898711 326.91469344 993.97344956 322.24609375 992.6875 C314.93554846 990.67319493 307.64437233 988.60889082 300.37084961 986.46411133 C290.26755572 983.48562771 280.13896646 980.68208518 269.93823242 978.05664062 C263.89723807 976.50090341 257.88919365 974.86565554 251.8984375 973.125 C246.52648905 971.56587476 241.13688926 970.06898937 235.75 968.5625 C234.6583252 968.25707275 233.56665039 967.95164551 232.44189453 967.63696289 C225.5925774 965.72187459 218.74112836 963.81460552 211.88769531 961.91430664 C204.334085 959.81844336 196.7864668 957.7012374 189.23828125 955.5859375 C183.16085055 953.88336861 177.08196112 952.18631085 171 950.5 C162.74188271 948.21031868 154.49004227 945.89840706 146.23828125 943.5859375 C139.46207394 941.68760902 132.68346421 939.7982674 125.90209961 937.91845703 C118.24357228 935.7937382 110.59129885 933.64668898 102.93945312 931.49804688 C101.93978516 931.21767578 100.94011719 930.93730469 99.91015625 930.6484375 C99.03496338 930.40270996 98.15977051 930.15698242 97.25805664 929.90380859 C92.50972303 928.58658634 87.75471761 927.2939601 83 926 C79.04178108 884.53924773 75.24056195 843.0661698 71.66796875 801.5703125 C71.25576019 796.78708062 70.84322171 792.00387721 70.43065262 787.22067642 C70.25041659 785.12983274 70.07049414 783.03896224 69.89059448 780.9480896 C68.20269423 761.34812763 66.4343487 741.75637149 64.6171875 722.16796875 C64.40948542 719.92562032 64.20180312 717.68327006 63.99414062 715.44091797 C63.06722374 705.43831487 62.13752285 695.43599727 61.19702721 685.43466091 C60.80637734 681.27127556 60.41940042 677.10755405 60.03323746 672.94375038 C59.85188745 670.99775988 59.6688932 669.05192179 59.48412704 667.10625267 C59.22884646 664.41666934 58.97928438 661.72660992 58.73095703 659.03637695 C58.65621281 658.26419893 58.58146858 657.49202091 58.50445938 656.69644356 C57.99281327 651.06078996 58 645.72142648 58 640 C118.06 640 178.12 640 240 640 C241.13686021 643.41058063 241.37840245 646.42360686 241.67675781 650.01098633 C241.73724084 650.72548856 241.79772387 651.43999079 241.86003971 652.1761446 C242.06113564 654.56116814 242.25705268 656.9465899 242.453125 659.33203125 C242.59477097 661.02052937 242.73680249 662.70899519 242.87919617 664.39743042 C243.18219848 667.99684129 243.48315754 671.59641442 243.78244019 675.19613647 C244.56128344 684.5611622 245.35231141 693.92516024 246.14453125 703.2890625 C246.22326036 704.22086775 246.30198948 705.152673 246.38310432 706.11271477 C247.99747954 725.20014043 249.74276278 744.2734548 251.57714844 763.34106445 C251.67494095 764.36934357 251.77273346 765.39762268 251.87348938 766.45706177 C252.05153364 768.32760307 252.2322425 770.19789395 252.41642761 772.06784058 C252.85992882 776.73808485 253.08572869 781.308626 253 786 C253.92554688 786.10957031 254.85109375 786.21914062 255.8046875 786.33203125 C260.99780836 787.07781026 266.04427531 788.40020927 271.125 789.6875 C272.18396484 789.95369141 273.24292969 790.21988281 274.33398438 790.49414062 C281.9562602 792.43046294 289.51487687 794.54359186 297.06298828 796.7487793 C304.67672113 798.95433908 312.35205791 800.86033889 320.04980469 802.74780273 C327.53746062 804.59798537 334.94422777 806.66051532 342.34765625 808.8203125 C349.02057761 810.75434585 355.73286014 812.45840476 362.48144531 814.10571289 C369.4232344 815.81663087 376.280557 817.77218572 383.14453125 819.76953125 C389.06703063 821.48047551 395.01147649 823.03809053 401 824.5 C407.9007532 826.18592926 414.73886578 828.02491919 421.5625 830 C425.04133533 831.00115484 428.52059334 832.00083279 432 833 C432.86141602 833.2484668 433.72283203 833.49693359 434.61035156 833.75292969 C437.13240051 834.47419567 439.65896794 835.17684771 442.1875 835.875 C442.9287915 836.09027344 443.67008301 836.30554687 444.43383789 836.52734375 C453.78408462 839.0669948 461.73389944 838.21465923 470.875 835.3125 C472.72568699 834.75360307 474.57727499 834.19768221 476.4296875 833.64453125 C477.8233252 833.2261499 477.8233252 833.2261499 479.24511719 832.79931641 C483.46686801 831.57439508 487.72796648 830.5330091 492 829.5 C498.88276671 827.82168989 505.6977758 825.97937691 512.5 824 C520.12150457 821.78222098 527.76983394 819.77665471 535.48046875 817.89453125 C541.53064839 816.40335668 547.51726112 814.74091515 553.5 813 C561.12150457 810.78222098 568.76983394 808.77665471 576.48046875 806.89453125 C582.53064839 805.40335668 588.51726112 803.74091515 594.5 802 C602.11542364 799.78399046 609.75662225 797.77498073 617.46289062 795.90112305 C623.69380581 794.36982769 629.84459999 792.62145632 636 790.8125 C643.29894898 788.67351082 650.43206839 786.90877854 658 786 C657.97655518 784.78127197 657.95311035 783.56254395 657.92895508 782.30688477 C657.93289445 776.19662081 658.54042304 770.16628674 659.13671875 764.08984375 C659.32004872 762.16539278 659.50337563 760.24094151 659.68658161 758.31647873 C659.88213857 756.27013142 660.07970659 754.2239871 660.27783203 752.17788696 C660.90910114 745.6548161 661.52604794 739.13038092 662.14458084 732.60609245 C662.35626927 730.37437303 662.56841579 728.14269747 662.78060913 725.911026 C664.06561727 712.38220666 665.29626254 698.84879367 666.5 685.3125 C666.59895569 684.20253662 666.69791138 683.09257324 666.79986572 681.94897461 C667.99179223 668.56838977 669.15936141 655.18578715 670.30939102 641.8015461 C670.50469767 639.52985716 670.70038796 637.2582016 670.89620972 634.98655701 C671.02716144 633.46719367 671.15811237 631.94783027 671.2890625 630.4284668 C671.38632472 629.3002257 671.38632472 629.3002257 671.48555183 628.14919186 C671.85109474 623.90512957 672.21423653 619.66087687 672.57339478 615.4162693 C674.46114284 593.24372911 676.72885903 571.14362448 679 549 C471.1 549 263.2 549 49 549 C47.02 525.24 47.02 525.24 45 501 C44.15496572 491.56699965 43.30093048 482.13600011 42.4140625 472.70703125 C42.18938312 470.29720885 41.96496566 467.88736201 41.74078369 465.47749329 C41.27521069 460.47571636 40.80850958 455.47404692 40.34075928 450.47247314 C39.11106076 437.31951438 37.89052341 424.16570538 36.671875 411.01171875 C36.55244915 409.72298859 36.4330233 408.43425842 36.30997849 407.10647583 C34.42819109 386.78507679 32.60983877 366.45943154 30.875 346.125 C28.46127338 317.84103556 25.84308034 289.57772485 23.20233536 261.31412888 C20.73897906 234.94530331 18.31693863 208.57503563 16.0625 182.1875 C13.06179979 147.06751817 9.78562841 111.97331077 6.51391602 76.87768555 C2.84034266 37.46495993 2.84034266 37.46495993 1.39618492 21.27936363 C1.26690511 19.83200484 1.13693442 18.38470756 1.00620461 16.93747902 C0.83090092 14.99327076 0.65888729 13.04876668 0.48706055 11.10424805 C0.39200729 10.03579147 0.29695404 8.9673349 0.19902039 7.86650085 C0.01734314 5.24979416 0 2.62300601 0 0 Z " fill="#FEFEFE" transform="translate(568,705)"/>
<path d="M0 0 C195.69 0 391.38 0 593 0 C590.30399408 36.39607988 590.30399408 36.39607988 589.62231445 45.36987305 C589.49626607 47.03580968 589.37131221 48.7018294 589.24731445 50.36791992 C589.06197215 52.8561581 588.87315452 55.34411134 588.68359375 57.83203125 C588.62940781 58.56944046 588.57522186 59.30684967 588.51939392 60.06660461 C588.20842927 64.09346671 587.6942669 68.02302691 587 72 C586.82815713 74.43580452 586.68456485 76.87369419 586.5625 79.3125 C586.21996482 85.5080427 585.59199383 91.61675717 584.80322266 97.77392578 C583.76646097 106.28073749 583.25318283 114.83054458 582.69750977 123.37988281 C582.62072998 124.53713867 582.5439502 125.69439453 582.46484375 126.88671875 C582.399021 127.92014404 582.33319824 128.95356934 582.26538086 130.01831055 C581.99548938 133.05067914 581.51435036 136.00065575 581 139 C580.82815713 141.43580452 580.68456485 143.87369419 580.5625 146.3125 C580.21996482 152.5080427 579.59199383 158.61675717 578.80322266 164.77392578 C577.76646097 173.28073749 577.25318283 181.83054458 576.69750977 190.37988281 C576.62072998 191.53713867 576.5439502 192.69439453 576.46484375 193.88671875 C576.399021 194.92014404 576.33319824 195.95356934 576.26538086 197.01831055 C575.99548938 200.05067914 575.51435036 203.00065575 575 206 C574.82815713 208.43580452 574.68456485 210.87369419 574.5625 213.3125 C574.21996482 219.5080427 573.59199383 225.61675717 572.80322266 231.77392578 C571.76646097 240.28073749 571.25318283 248.83054458 570.69750977 257.37988281 C570.62072998 258.53713867 570.5439502 259.69439453 570.46484375 260.88671875 C570.399021 261.92014404 570.33319824 262.95356934 570.26538086 264.01831055 C569.99548938 267.05067914 569.51435036 270.00065575 569 273 C568.82815713 275.43580452 568.68456485 277.87369419 568.5625 280.3125 C568.21996482 286.5080427 567.59199383 292.61675717 566.80322266 298.77392578 C565.76646097 307.28073749 565.25318283 315.83054458 564.69750977 324.37988281 C564.62072998 325.53713867 564.5439502 326.69439453 564.46484375 327.88671875 C564.399021 328.92014404 564.33319824 329.95356934 564.26538086 331.01831055 C563.99548938 334.05067914 563.51435036 337.00065575 563 340 C562.82815713 342.43580452 562.68456485 344.87369419 562.5625 347.3125 C562.21996482 353.5080427 561.59199383 359.61675717 560.80322266 365.77392578 C559.76646097 374.28073749 559.25318283 382.83054458 558.69750977 391.37988281 C558.62072998 392.53713867 558.5439502 393.69439453 558.46484375 394.88671875 C558.399021 395.92014404 558.33319824 396.95356934 558.26538086 398.01831055 C557.99548938 401.05067914 557.51435036 404.00065575 557 407 C556.82815713 409.43580452 556.68456485 411.87369419 556.5625 414.3125 C556.21996482 420.5080427 555.59199383 426.61675717 554.80322266 432.77392578 C553.76646097 441.28073749 553.25318283 449.83054458 552.69750977 458.37988281 C552.62072998 459.53713867 552.5439502 460.69439453 552.46484375 461.88671875 C552.399021 462.92014404 552.33319824 463.95356934 552.26538086 465.01831055 C551.99548938 468.05067914 551.51435036 471.00065575 551 474 C550.82815713 476.43580452 550.68456485 478.87369419 550.5625 481.3125 C550.21996482 487.5080427 549.59199383 493.61675717 548.80322266 499.77392578 C547.76646097 508.28073749 547.25318283 516.83054458 546.69750977 525.37988281 C546.62072998 526.53713867 546.5439502 527.69439453 546.46484375 528.88671875 C546.399021 529.92014404 546.33319824 530.95356934 546.26538086 532.01831055 C545.99548938 535.05067914 545.51435036 538.00065575 545 541 C544.82815713 543.43580452 544.68456485 545.87369419 544.5625 548.3125 C544.21996482 554.5080427 543.59199383 560.61675717 542.80322266 566.77392578 C541.76646097 575.28073749 541.25318283 583.83054458 540.69750977 592.37988281 C540.62072998 593.53713867 540.5439502 594.69439453 540.46484375 595.88671875 C540.399021 596.92014404 540.33319824 597.95356934 540.26538086 599.01831055 C539.99548938 602.05067914 539.51435036 605.00065575 539 608 C538.82815713 610.43580452 538.68456485 612.87369419 538.5625 615.3125 C538.21996482 621.5080427 537.59199383 627.61675717 536.80322266 633.77392578 C535.76646097 642.28073749 535.25318283 650.83054458 534.69750977 659.37988281 C534.62072998 660.53713867 534.5439502 661.69439453 534.46484375 662.88671875 C534.399021 663.92014404 534.33319824 664.95356934 534.26538086 666.01831055 C533.99548938 669.05067914 533.51435036 672.00065575 533 675 C532.82815713 677.43580452 532.68456485 679.87369419 532.5625 682.3125 C532.21996482 688.5080427 531.59199383 694.61675717 530.80322266 700.77392578 C529.76646097 709.28073749 529.25318283 717.83054458 528.69750977 726.37988281 C528.62072998 727.53713867 528.5439502 728.69439453 528.46484375 729.88671875 C528.399021 730.92014404 528.33319824 731.95356934 528.26538086 733.01831055 C527.99548938 736.05067914 527.51435036 739.00065575 527 742 C526.82815713 744.43580452 526.68456485 746.87369419 526.5625 749.3125 C526.21996482 755.5080427 525.59199383 761.61675717 524.80322266 767.77392578 C523.76646097 776.28073749 523.25318283 784.83054458 522.69750977 793.37988281 C522.62072998 794.53713867 522.5439502 795.69439453 522.46484375 796.88671875 C522.399021 797.92014404 522.33319824 798.95356934 522.26538086 800.01831055 C521.99548938 803.05067914 521.51435036 806.00065575 521 809 C520.82815713 811.43580452 520.68456485 813.87369419 520.5625 816.3125 C520.21996482 822.5080427 519.59199383 828.61675717 518.80322266 834.77392578 C517.76646097 843.28073749 517.25318283 851.83054458 516.69750977 860.37988281 C516.62072998 861.53713867 516.5439502 862.69439453 516.46484375 863.88671875 C516.399021 864.92014404 516.33319824 865.95356934 516.26538086 867.01831055 C515.99548938 870.05067914 515.51435036 873.00065575 515 876 C514.74023713 879.68203559 514.55996501 883.36411662 514.37890625 887.05078125 C514.11120926 891.21505754 513.60365973 895.34107962 513.08984375 899.48046875 C511.68429294 910.95386181 510.87589446 922.47651357 510 934 C508.14714715 958.37659535 508.14714715 958.37659535 506.75 969.48828125 C505.46917534 979.95502027 504.79901161 990.4880035 504 1001 C503.67060162 1005.33364747 503.3366028 1009.66690678 503 1014 C502.92910156 1014.95261719 502.85820313 1015.90523437 502.78515625 1016.88671875 C502.34659894 1022.52641186 501.75936138 1028.13528154 501.07324219 1033.74975586 C499.87026577 1043.67316383 498.99799186 1053.62190015 498.12755585 1063.57914543 C497.81582711 1067.14456415 497.50107395 1070.70970562 497.18560791 1074.27479553 C496.83680865 1078.21690217 496.48809988 1082.15901628 496.14042282 1086.10122204 C494.68149786 1102.63934591 493.19726797 1119.17520341 491.71446419 1135.71120024 C491.33047295 1139.99378576 490.94668016 1144.27638906 490.56286621 1148.55899048 C490.09718305 1153.75493801 489.63145563 1158.95088156 489.16556549 1164.14681053 C488.37055335 1173.01343182 487.57594113 1181.88008862 486.78222656 1190.74682617 C486.07460372 1198.65181585 485.36631193 1206.55674524 484.65719819 1214.46160132 C484.28620072 1218.59753145 483.91551768 1222.73348915 483.54564667 1226.86952019 C483.20168401 1230.71570012 482.85681628 1234.56179784 482.51126099 1238.40783501 C482.38556235 1239.80860951 482.26018646 1241.20941302 482.13516998 1242.61024857 C481.49779712 1249.75004697 480.82663139 1256.87947259 480 1264 C471.62674766 1266.9134668 463.20654241 1269.34700376 454.625 1271.5625 C442.69120138 1274.68044944 430.8377996 1278.03668505 419 1281.5 C406.43361527 1285.17373075 393.84570736 1288.68968844 381.18212891 1292.01611328 C370.97117909 1294.71038528 360.81972947 1297.58883796 350.67175293 1300.50900269 C338.55847645 1303.99440762 326.42472946 1307.39844865 314.27575684 1310.75720215 C304.37679287 1313.49471573 294.49364249 1316.27961279 284.625 1319.125 C275.320885 1321.80546331 265.98894266 1324.34961062 256.625 1326.8125 C245.02887495 1329.86443295 233.50907052 1333.13608628 222 1336.5 C209.43334366 1340.17285615 196.84574026 1343.6896798 184.18212891 1347.01611328 C173.97117909 1349.71038528 163.81972947 1352.58883796 153.67175293 1355.50900269 C141.55847645 1358.99440762 129.42472946 1362.39844865 117.27575684 1365.75720215 C107.37679287 1368.49471573 97.49364249 1371.27961279 87.625 1374.125 C77.10845496 1377.15475759 66.54996493 1379.99279107 55.96533203 1382.77416992 C43.4183793 1386.09981929 30.96357434 1389.73534245 18.51416016 1393.4074707 C17.72631134 1393.63852509 16.93846252 1393.86957947 16.1267395 1394.1076355 C14.65276704 1394.54002098 13.17961685 1394.97522414 11.70748901 1395.41384888 C7.77662983 1396.56495292 4.07255301 1397.32124117 0 1398 C-0.33 1335.96 -0.66 1273.92 -1 1210 C3.72494502 1207.97502356 7.52331676 1206.47156395 12.375 1205.25 C19.27955039 1203.47581527 26.14038286 1201.56527968 33 1199.625 C41.39315045 1197.25716387 49.80433718 1194.98541663 58.25 1192.8125 C65.07733169 1191.05424701 71.82998612 1189.18562205 78.55078125 1187.05078125 C84.02752071 1185.38232948 89.55773714 1183.91471243 95.08447266 1182.421875 C102.21544574 1180.49374237 109.32837323 1178.50703595 116.4375 1176.5 C125.65588607 1173.90071268 134.90409142 1171.44564991 144.17944336 1169.05859375 C149.99071408 1167.55329811 155.71798024 1165.88787865 161.4375 1164.0625 C167.43563313 1162.2735831 173.50879553 1160.76873194 179.5703125 1159.2109375 C184.58630121 1157.91437645 189.56276071 1156.57571467 194.5 1155 C200.44346459 1153.1031496 206.45969728 1151.55246588 212.5 1150 C219.57805672 1148.1796547 226.58392154 1146.26378375 233.55078125 1144.05078125 C239.02752071 1142.38232948 244.55773714 1140.91471243 250.08447266 1139.421875 C257.21544574 1137.49374237 264.32837323 1135.50703595 271.4375 1133.5 C280.65588607 1130.90071268 289.90409142 1128.44564991 299.17944336 1126.05859375 C304.99071408 1124.55329811 310.71798024 1122.88787865 316.4375 1121.0625 C321.42443141 1119.57516958 326.46026855 1118.29522061 331.5 1117 C338.63209688 1115.16678188 345.69204914 1113.25603262 352.70507812 1111.0078125 C356.40732362 1109.87541257 360.1315193 1108.86810605 363.875 1107.8828125 C364.56335937 1107.70049072 365.25171875 1107.51816895 365.9609375 1107.33032227 C367.64031165 1106.8856963 369.32011195 1106.44268042 371 1106 C371.05945801 1105.16944092 371.11891602 1104.33888184 371.18017578 1103.4831543 C373.35971587 1073.40509962 376.07111899 1043.37611918 378.79356384 1013.34355164 C379.72069059 1003.11267136 380.63703654 992.88086884 381.546875 982.6484375 C383.92216017 955.94979997 386.33140592 929.25554552 388.87091064 902.57189941 C391.0066427 880.11680832 393.01631418 857.65123981 395.00741577 835.18292236 C396.1825696 821.92623267 397.37044846 808.67068842 398.55862427 795.41516113 C398.93902652 791.17100537 399.31903022 786.92681397 399.69897461 782.68261719 C400.90240962 769.2407573 402.10751557 755.799051 403.31677437 742.3577137 C403.87844656 736.11352943 404.43943805 729.86928403 405 723.625 C405.06180828 722.93650845 405.12361656 722.24801689 405.18729782 721.53866196 C407.09823484 700.24641381 408.96882306 678.95087819 410.81351089 657.65279388 C412.8249441 634.43320097 414.84817567 611.21468362 416.9128418 587.99975586 C417.17776191 585.02020985 417.44139145 582.04055419 417.70385742 579.06079102 C418.06634336 574.94649255 418.43330542 570.8326058 418.80078125 566.71875 C418.90779861 565.49824951 419.01481598 564.27774902 419.12507629 563.02026367 C419.22600082 561.89918213 419.32692535 560.77810059 419.4309082 559.62304688 C419.56031548 558.16650696 419.56031548 558.16650696 419.69233704 556.68054199 C419.98846968 554.10045894 420.49068209 551.54658955 421 549 C202.87 549 -15.26 549 -240 549 C-241.74232477 532.73830212 -243.47272596 516.51134662 -244.8671875 500.22265625 C-245.0285251 498.36525971 -245.19016548 496.50788944 -245.3520813 494.65054321 C-245.68977901 490.7721472 -246.0260096 486.89362875 -246.36083984 483.01498413 C-247.23204574 472.9235375 -248.11080794 462.83275021 -248.9921875 452.7421875 C-249.1219762 451.25505658 -249.1219762 451.25505658 -249.2543869 449.73788261 C-250.33193128 437.40633426 -251.44339151 425.07908606 -252.6328125 412.7578125 C-252.75268524 411.51380173 -252.87255798 410.26979095 -252.99606323 408.98808289 C-253.52950237 403.47604212 -254.07226701 397.96511613 -254.62841797 392.45532227 C-254.81487965 390.55746435 -255.00124711 388.65959717 -255.1875 386.76171875 C-255.27146027 385.96367828 -255.35542053 385.16563782 -255.44192505 384.34341431 C-256.13978442 377.14105713 -256 370.35692393 -256 363 C-26.98 363 202.04 363 438 363 C438 359.7 438 356.4 438 353 C438.10754151 351.10122265 438.24315485 349.20352162 438.42382812 347.31030273 C438.51843323 346.29362518 438.61303833 345.27694763 438.71051025 344.22946167 C438.86927643 342.59800705 438.86927643 342.59800705 439.03125 340.93359375 C439.14273376 339.74621613 439.25421753 338.5588385 439.36907959 337.33547974 C439.67729166 334.05800413 439.9894091 330.78092667 440.30293274 327.50395584 C440.85074315 321.75959208 441.38661986 316.0140919 441.92447662 310.26878929 C442.06960174 308.71926456 442.21490346 307.16975635 442.36037445 305.62026405 C443.64545445 291.92966609 444.88556464 278.23526366 446.109375 264.5390625 C446.19825989 263.54505747 446.28714478 262.55105244 446.37872314 261.52692604 C447.17851244 252.58185001 447.97708957 243.63666674 448.77172852 234.69113159 C449.1892056 229.99168714 449.60850041 225.29240784 450.02893829 220.59322739 C450.18324802 218.86435206 450.33686147 217.1354144 450.48967743 215.4064064 C450.7025685 212.99806726 450.9179473 210.58996102 451.13378906 208.18188477 C451.22109158 207.18360232 451.22109158 207.18360232 451.31015778 206.16515255 C452.0694086 197.75945658 453.06740555 189.39335006 454 181 C304.18 181 154.36 181 0 181 C0 121.27 0 61.54 0 0 Z " fill="#F06529" transform="translate(1024,524)"/>
<path d="M0 0 C300.3 0 600.6 0 910 0 C910 11.24939485 910 11.24939485 909.63623047 15.06079102 C909.55525116 15.93396973 909.47427185 16.80714844 909.39083862 17.70678711 C909.30053375 18.62983643 909.21022888 19.55288574 909.1171875 20.50390625 C909.02261261 21.51066406 908.92803772 22.51742187 908.83059692 23.5546875 C908.51628777 26.89103949 908.19557152 30.22674441 907.875 33.5625 C907.64922552 35.94843774 907.42397766 38.33442536 907.19921875 40.72045898 C906.84216403 44.5093258 906.48465934 48.29814619 906.12542725 52.08680725 C905.23844749 61.44198754 904.36800939 70.79857478 903.5078125 80.15625 C903.44513058 80.83779585 903.38244865 81.5193417 903.31786728 82.22154045 C902.76365598 88.24783863 902.21016857 94.27420328 901.65667725 100.30056763 C899.15290092 127.5383786 896.56904648 154.76810736 894 182 C664.98 182 435.96 182 200 182 C204.0368997 227.23166882 204.0368997 227.23166882 208.1413269 272.45700073 C210.29043041 295.94607554 212.42241912 319.436491 214.4375 342.9375 C214.52121857 343.90462921 214.60493713 344.87175842 214.69119263 345.86819458 C214.92064266 348.52518034 215.14657589 351.18243726 215.37109375 353.83984375 C215.43634247 354.59224335 215.50159119 355.34464294 215.56881714 356.11984253 C215.90098126 360.11629168 216 363.97426553 216 368 C294.87 368 373.74 368 455 368 C455 427.73 455 487.46 455 549 C321.02 549 187.04 549 49 549 C47.02 525.24 47.02 525.24 45 501 C44.15496572 491.56699965 43.30093048 482.13600011 42.4140625 472.70703125 C42.18938312 470.29720885 41.96496566 467.88736201 41.74078369 465.47749329 C41.27521069 460.47571636 40.80850958 455.47404692 40.34075928 450.47247314 C39.11106076 437.31951438 37.89052341 424.16570538 36.671875 411.01171875 C36.55244915 409.72298859 36.4330233 408.43425842 36.30997849 407.10647583 C34.42819109 386.78507679 32.60983877 366.45943154 30.875 346.125 C28.46127338 317.84103556 25.84308034 289.57772485 23.20233536 261.31412888 C20.73897906 234.94530331 18.31693863 208.57503563 16.0625 182.1875 C13.06179979 147.06751817 9.78562841 111.97331077 6.51391602 76.87768555 C2.84034266 37.46495993 2.84034266 37.46495993 1.39618492 21.27936363 C1.26690511 19.83200484 1.13693442 18.38470756 1.00620461 16.93747902 C0.83090092 14.99327076 0.65888729 13.04876668 0.48706055 11.10424805 C0.39200729 10.03579147 0.29695404 8.9673349 0.19902039 7.86650085 C0.01734314 5.24979416 0 2.62300601 0 0 Z " fill="#EBEAEA" transform="translate(568,705)"/>
<path d="M0 0 C60.06 0 120.12 0 182 0 C183.13686021 3.41058063 183.37840245 6.42360686 183.67675781 10.01098633 C183.73724084 10.72548856 183.79772387 11.43999079 183.86003971 12.1761446 C184.06113564 14.56116814 184.25705268 16.9465899 184.453125 19.33203125 C184.59477097 21.02052937 184.73680249 22.70899519 184.87919617 24.39743042 C185.18219848 27.99684129 185.48315754 31.59641442 185.78244019 35.19613647 C186.56128344 44.5611622 187.35231141 53.92516024 188.14453125 63.2890625 C188.22326036 64.22086775 188.30198948 65.152673 188.38310432 66.11271477 C189.99747954 85.20014043 191.74276278 104.2734548 193.57714844 123.34106445 C193.7238372 124.88348312 193.7238372 124.88348312 193.87348938 126.45706177 C194.05153364 128.32760307 194.2322425 130.19789395 194.41642761 132.06784058 C194.85992882 136.73808485 195.08572869 141.308626 195 146 C195.92554688 146.10957031 196.85109375 146.21914062 197.8046875 146.33203125 C202.99780836 147.07781026 208.04427531 148.40020927 213.125 149.6875 C214.18396484 149.95369141 215.24292969 150.21988281 216.33398438 150.49414062 C223.9562602 152.43046294 231.51487687 154.54359186 239.06298828 156.7487793 C246.67672113 158.95433908 254.35205791 160.86033889 262.04980469 162.74780273 C269.53746062 164.59798537 276.94422777 166.66051532 284.34765625 168.8203125 C291.02057761 170.75434585 297.73286014 172.45840476 304.48144531 174.10571289 C311.4232344 175.81663087 318.280557 177.77218572 325.14453125 179.76953125 C331.06703063 181.48047551 337.01147649 183.03809053 343 184.5 C349.90069563 186.1859152 356.73925532 188.02367685 363.5625 190 C370.50265713 192.00979292 377.45242504 193.96417106 384.4375 195.8125 C385.21230713 196.01939453 385.98711426 196.22628906 386.78540039 196.43945312 C390.83898124 197.50309841 394.84761872 198.38800086 399 199 C398.34 199.33 397.68 199.66 397 200 C397.495 293.555 397.495 293.555 398 389 C394.1600772 388.36001287 390.60596995 387.70706725 386.875 386.73046875 C385.45513794 386.3600647 385.45513794 386.3600647 384.0065918 385.98217773 C383.0144165 385.71993408 382.02224121 385.45769043 381 385.1875 C379.96979736 384.91687744 378.93959473 384.64625488 377.87817383 384.36743164 C371.36427593 382.64802452 364.87586187 380.86364321 358.40625 378.984375 C354.50744071 377.85765488 350.5988297 376.76978001 346.6875 375.6875 C339.28797042 373.63811456 331.89315332 371.57226837 324.5 369.5 C317.33548775 367.49217617 310.17004041 365.48799642 303 363.5 C294.7425638 361.21050752 286.49115491 358.89966175 278.24047852 356.5859375 C273.57771993 355.27898711 268.91469344 353.97344956 264.24609375 352.6875 C256.93554846 350.67319493 249.64437233 348.60889082 242.37084961 346.46411133 C232.26755572 343.48562771 222.13896646 340.68208518 211.93823242 338.05664062 C205.89723807 336.50090341 199.88919365 334.86565554 193.8984375 333.125 C188.52648905 331.56587476 183.13688926 330.06898937 177.75 328.5625 C176.11248779 328.10435913 176.11248779 328.10435913 174.44189453 327.63696289 C167.5925774 325.72187459 160.74112836 323.81460552 153.88769531 321.91430664 C146.334085 319.81844336 138.7864668 317.7012374 131.23828125 315.5859375 C125.16085055 313.88336861 119.08196112 312.18631085 113 310.5 C104.74188271 308.21031868 96.49004227 305.89840706 88.23828125 303.5859375 C81.46207394 301.68760902 74.68346421 299.7982674 67.90209961 297.91845703 C60.24357228 295.7937382 52.59129885 293.64668898 44.93945312 291.49804688 C43.93978516 291.21767578 42.94011719 290.93730469 41.91015625 290.6484375 C41.03496338 290.40270996 40.15977051 290.15698242 39.25805664 289.90380859 C34.50972303 288.58658634 29.75471761 287.2939601 25 286 C21.04178108 244.53924773 17.24056195 203.0661698 13.66796875 161.5703125 C13.25576019 156.78708062 12.84322171 152.00387721 12.43065262 147.22067642 C12.25041659 145.12983274 12.07049414 143.03896224 11.89059448 140.9480896 C10.20269423 121.34812763 8.4343487 101.75637149 6.6171875 82.16796875 C6.40948542 79.92562032 6.20180312 77.68327006 5.99414062 75.44091797 C5.06722374 65.43831487 4.13752285 55.43599727 3.19702721 45.43466091 C2.80637734 41.27127556 2.41940042 37.10755405 2.03323746 32.94375038 C1.85188745 30.99775988 1.6688932 29.05192179 1.48412704 27.10625267 C1.22884646 24.41666934 0.97928438 21.72660992 0.73095703 19.03637695 C0.65621281 18.26419893 0.58146858 17.49202091 0.50445938 16.69644356 C-0.00718673 11.06078996 0 5.72142648 0 0 Z " fill="#EAEAEA" transform="translate(626,1345)"/>
<path d="M0 0 C150.15 0 300.3 0 455 0 C455 11.24939485 455 11.24939485 454.63623047 15.06079102 C454.51476906 16.37048355 454.51476906 16.37048355 454.39085388 17.70663452 C454.25538902 19.09128403 454.25538902 19.09128403 454.1171875 20.50390625 C454.02256729 21.51111725 453.92794708 22.51832825 453.83045959 23.55606079 C453.51618724 26.89195411 453.19551724 30.22720141 452.875 33.5625 C452.64995513 35.94111326 452.42543954 38.31977665 452.20141602 40.69848633 C451.7217063 45.7897089 451.24001378 50.88073883 450.75732422 55.97167969 C449.65399774 67.62551493 448.58478052 79.28251055 447.51274872 90.93925762 C447.06696707 95.78526199 446.61921836 100.6310817 446.17041016 105.47680664 C445.12986471 116.71527976 444.08947564 127.95368965 443.08424377 139.19538879 C442.72479228 143.21251132 442.36140323 147.22927273 441.99758911 151.2460022 C441.83518806 153.05243109 441.67485853 154.85904767 441.51681519 156.66586304 C441.30289216 159.1110763 441.08190776 161.55555756 440.859375 164 C440.80127151 164.6875386 440.74316803 165.37507721 440.68330383 166.08345032 C440.20067497 171.26656539 439.15369767 175.80836049 438 181 C293.46 181 148.92 181 0 181 C0 121.27 0 61.54 0 0 Z " fill="#FEFEFE" transform="translate(1023,705)"/>
<path d="M0 0 C32.01 0 64.02 0 97 0 C101.12088516 5.8869788 105.03111444 11.50054997 108.5625 17.6875 C112.54289427 24.55126823 116.61637364 31.35241444 120.75 38.125 C121.34167969 39.09445557 121.93335938 40.06391113 122.54296875 41.06274414 C123.7554273 43.04850431 124.96815701 45.03409893 126.18115234 47.01953125 C127.97478047 49.95867382 129.76367881 52.90063573 131.55078125 55.84375 C139.30046706 68.60421216 147.11968788 81.31978938 155 94 C158.67612832 90.7147722 160.97425785 86.9319883 163.375 82.6875 C164.26132321 81.151363 165.14944287 79.61626155 166.0390625 78.08203125 C166.51504883 77.26041504 166.99103516 76.43879883 167.48144531 75.59228516 C170.18031532 70.98511445 172.96673152 66.431511 175.75 61.875 C176.34216309 60.90457764 176.93432617 59.93415527 177.54443359 58.93432617 C178.75776307 56.94654843 179.97146962 54.9590008 181.18554688 52.97167969 C183.54800019 49.10249485 185.90506533 45.23004562 188.26147461 41.35717773 C189.41550182 39.46059293 190.56995776 37.56426893 191.72485352 35.66821289 C194.78529717 30.64339145 197.83984988 25.61509722 200.88671875 20.58203125 C201.52287109 19.53273438 202.15902344 18.4834375 202.81445312 17.40234375 C204.03490148 15.38904939 205.25373289 13.37477368 206.47070312 11.359375 C207.02048828 10.45316406 207.57027344 9.54695312 208.13671875 8.61328125 C208.61842529 7.81704346 209.10013184 7.02080566 209.59643555 6.20043945 C210.95969448 4.06318901 212.47898942 2.0280141 214 0 C246.34 0 278.68 0 312 0 C312 91.08 312 182.16 312 276 C281.31 276 250.62 276 219 276 C218.67 232.11 218.34 188.22 218 143 C214.37 148.61 210.74 154.22 207 160 C204.87636524 163.27173978 202.75204969 166.54298637 200.625 169.8125 C199.5234325 171.50650716 198.42187015 173.20051768 197.3203125 174.89453125 C196.77149414 175.73838379 196.22267578 176.58223633 195.65722656 177.45166016 C192.93741031 181.63395863 190.21874278 185.81700366 187.5 190 C184.22714758 195.03553696 180.95403102 200.07090121 177.6796875 205.10546875 C174.97965042 209.25723266 172.28074949 213.40973249 169.58300781 217.56298828 C168.51488327 219.20734657 167.44651832 220.85154873 166.37792969 222.49560547 C164.83418442 224.87135709 163.29188162 227.24803856 161.75 229.625 C161.28384277 230.34196045 160.81768555 231.0589209 160.33740234 231.79760742 C158.03322913 235.31967939 158.03322913 235.31967939 156 239 C151.95170473 237.65056824 150.94254354 235.06563396 148.875 231.5625 C144.25868369 223.95889523 139.44620859 216.49672655 134.5625 209.0625 C133.44502991 207.35892824 132.3279086 205.65512814 131.21081543 203.9513092 C130.13109581 202.30451462 129.05114554 200.65787127 127.97119141 199.01123047 C125.3834544 195.05815291 122.81287044 191.09422998 120.25 187.125 C119.39193418 185.79687042 118.53386126 184.46874542 117.67578125 183.140625 C117.2473291 182.47740234 116.81887695 181.81417969 116.37744141 181.13085938 C113.73488963 177.04291328 111.08719099 172.95832145 108.4375 168.875 C107.9434668 168.11203613 107.44943359 167.34907227 106.94042969 166.56298828 C102.02699681 158.99541004 97.00634765 151.50952147 92 144 C91.67 187.56 91.34 231.12 91 276 C60.97 276 30.94 276 0 276 C0 184.92 0 93.84 0 0 Z " fill="#000000" transform="translate(1038,0)"/>
<path d="M0 0 C30.69 0 61.38 0 93 0 C93 30.03 93 60.06 93 91 C120.72 91 148.44 91 177 91 C177 60.97 177 30.94 177 0 C207.69 0 238.38 0 270 0 C270 91.08 270 182.16 270 276 C239.31 276 208.62 276 177 276 C177 245.64 177 215.28 177 184 C149.61 184 122.22 184 94 184 C94 214.36 94 244.72 94 276 C62.98 276 31.96 276 0 276 C0 184.92 0 93.84 0 0 Z " fill="#000000" transform="translate(433,0)"/>
<path d="M0 0 C73.92 0 147.84 0 224 0 C222.85294712 21.79400471 222.85294712 21.79400471 221.984375 30.48046875 C221.88852615 31.47613358 221.79267731 32.4717984 221.69392395 33.49763489 C221.48905327 35.62317969 221.28246987 37.74856004 221.07424927 39.8737793 C220.50210392 45.72091627 219.94533136 51.56952607 219.38671875 57.41796875 C219.27081894 58.62838837 219.15491913 59.83880798 219.0355072 61.08590698 C217.8289393 73.71959282 216.68735791 86.35880985 215.5625 99 C215.46168121 100.13069916 215.36086243 101.26139832 215.25698853 102.42636108 C213.97903293 116.77185195 212.72771978 131.11955516 211.4921875 145.46875 C210.97434562 151.47920008 210.45607909 157.48961348 209.9375 163.5 C209.84226107 164.60442759 209.84226107 164.60442759 209.74509811 165.73116684 C207.69393248 189.50787141 205.50491707 213.26624805 203 237 C202.14994385 237.21615967 201.2998877 237.43231934 200.42407227 237.6550293 C180.70800466 242.62406031 180.70800466 242.62406031 161.16040039 248.20581055 C154.12770878 250.32261794 146.99261789 252.0204032 139.86157227 253.77001953 C134.02746593 255.2117841 128.24870769 256.74941121 122.5 258.5 C114.68989866 260.87832163 106.79091372 262.82464508 98.86328125 264.76953125 C93.02863001 266.21155532 87.24927531 267.74923836 81.5 269.5 C73.68989866 271.87832163 65.79091372 273.82464508 57.86328125 275.76953125 C52.02858747 277.21156583 46.24948431 278.74984962 40.5 280.5 C33.50866823 282.62153152 26.46047567 284.46902149 19.375 286.25 C18.35470703 286.50845703 17.33441406 286.76691406 16.28320312 287.03320312 C14.82430664 287.39575195 14.82430664 287.39575195 13.3359375 287.765625 C12.47532715 287.97993164 11.6147168 288.19423828 10.72802734 288.41503906 C7.51561582 289.10386473 4.25241252 289.53536964 1 290 C0.67 194.3 0.34 98.6 0 0 Z " fill="#F16529" transform="translate(1023,1254)"/>
<path d="M0 0 C84.48 0 168.96 0 256 0 C256 61.05 256 122.1 256 185 C176.8 185 97.6 185 16 185 C13.70292434 166.62339474 13.70292434 166.62339474 12.91845703 157.47705078 C12.82705444 156.44002518 12.73565186 155.40299957 12.64147949 154.33454895 C12.34423455 150.95503315 12.05105544 147.57517769 11.7578125 144.1953125 C11.54635202 141.78528241 11.33458387 139.3752793 11.12252808 136.96530151 C10.56593864 130.63274315 10.01257747 124.29990743 9.46020508 117.96697998 C8.58687463 107.95723271 7.7099779 97.94779869 6.83083344 87.93856049 C6.61571598 85.48734746 6.40099853 83.0360993 6.18668365 80.58481598 C5.10490854 68.21640074 4.00375348 55.85117444 2.78808594 43.49511719 C2.69310507 42.52487295 2.5981242 41.55462872 2.50026512 40.55498314 C2.06357943 36.10406289 1.61970014 31.65410002 1.16140747 27.20535278 C1.00567333 25.64066587 0.85013372 24.07595959 0.69482422 22.51123047 C0.62361736 21.84953732 0.55241051 21.18784416 0.47904587 20.5060997 C-0.19333055 13.60207653 0 7.05435126 0 0 Z " fill="#E44D26" transform="translate(768,887)"/>
<path d="M0 0 C84.48 0 168.96 0 256 0 C256 30.36 256 60.72 256 92 C228.94 92 201.88 92 174 92 C174 152.72 174 213.44 174 276 C143.64 276 113.28 276 82 276 C82 215.28 82 154.56 82 92 C54.94 92 27.88 92 0 92 C0 61.64 0 31.28 0 0 Z " fill="#000000" transform="translate(742,0)"/>
<path d="M0 0 C30.69 0 61.38 0 93 0 C93 60.72 93 121.44 93 184 C136.23 184 179.46 184 224 184 C224 214.36 224 244.72 224 276 C150.08 276 76.16 276 0 276 C0 184.92 0 93.84 0 0 Z " fill="#000000" transform="translate(1394,0)"/>
</svg>
