<?xml version="1.0" encoding="UTF-8"?>
<svg version="1.1" xmlns="http://www.w3.org/2000/svg" width="2109" height="2049">
<path d="M0 0 C1.10577393 0.28278809 1.10577393 0.28278809 2.23388672 0.57128906 C19.97276948 5.33295513 36.40060749 13.96096552 52.84863281 21.95465088 C54.93463683 22.96824004 57.02175894 23.97948187 59.109375 24.98974609 C64.32571667 27.51416668 69.54191676 30.0388404 74.75341797 32.57324219 C82.96008687 36.55971055 91.2106112 40.43770009 99.5 44.25 C111.77390879 49.89762913 123.91262104 55.80467797 136.04608154 61.74691772 C147.44688123 67.32775081 158.88980943 72.78113439 170.42578125 78.078125 C180.99772453 82.95276087 191.45022151 88.06246193 201.90734863 93.17755127 C211.8498248 98.03846921 221.81701602 102.81915943 231.875 107.4375 C244.0278083 113.01889602 256.04024215 118.86703972 268.04974365 124.74874878 C278.31875051 129.7756484 288.60837371 134.7304783 299 139.5 C311.11208831 145.0591749 323.0823607 150.88764669 335.05029297 156.74902344 C345.31911662 161.77583079 355.60856015 166.73056387 366 171.5 C378.11208831 177.0591749 390.0823607 182.88764669 402.05029297 188.74902344 C412.31911662 193.77583079 422.60856015 198.73056387 433 203.5 C445.11208831 209.0591749 457.0823607 214.88764669 469.05029297 220.74902344 C479.31911662 225.77583079 489.60856015 230.73056387 500 235.5 C511.25181685 240.66432973 522.38202733 246.05492132 533.5 251.5 C545.7487583 257.49881405 558.03058393 263.38660244 570.42578125 269.078125 C580.99772453 273.95276087 591.45022151 279.06246193 601.90734863 284.17755127 C611.8498248 289.03846921 621.81701602 293.81915943 631.875 298.4375 C643.16780918 303.62392594 654.34025036 309.03457592 665.5 314.5 C676.70157286 319.98584066 687.91709084 325.41443839 699.25 330.625 C709.20107163 335.21592656 719.13022266 339.85011189 729.0123291 344.58782959 C730.51143795 345.30452662 732.01241649 346.01732988 733.51550293 346.72564697 C767.66700282 362.83662141 795.83801318 389.00695429 809.04780579 425.01547241 C811.61320863 432.46486696 813.59924766 439.9701363 815.41796875 447.6328125 C815.75627765 449.04401906 816.09468651 450.45520166 816.43318176 451.86636353 C821.72008778 474.00042839 826.74325874 496.19783454 831.81644893 518.38156754 C833.53199637 525.88257069 835.25075711 533.38283708 836.96972656 540.88305664 C837.12700596 541.56931094 837.28428535 542.25556525 837.44633079 542.96261513 C838.08136509 545.73342161 838.71641182 548.50422525 839.35149753 551.27501994 C840.30173369 555.42078709 841.25178113 559.56659741 842.20168149 563.7124415 C847.32778676 586.084852 852.47669846 608.45193186 857.64402008 630.81485748 C859.53287462 638.98969968 861.42078528 647.16475994 863.30859375 655.33984375 C863.52618851 656.28209305 863.74378326 657.22434235 863.9679718 658.19514465 C870.59239967 686.88295827 877.19447362 715.57592601 883.79882622 744.26836634 C884.48420539 747.24596668 885.16959928 750.22356363 885.85499251 753.20116073 C888.80935981 766.03602212 891.76362669 778.87090663 894.71774292 791.70582581 C899.49224293 812.44984966 904.26733282 833.19373763 909.04296875 853.9375 C909.2073896 854.65168988 909.37181045 855.36587976 909.54121375 856.10171175 C911.03391933 862.58552833 912.52663217 869.06934324 914.01935482 875.5531559 C916.3409961 885.63747671 918.66258064 895.72181057 920.98413086 905.80615234 C921.31661888 907.25041136 921.64910694 908.69467037 921.98159504 910.13892937 C922.1462353 910.85409238 922.31087557 911.56925538 922.48050493 912.30609 C922.72752628 913.37909922 922.72752628 913.37909922 922.97953796 914.4737854 C923.22663461 915.54712177 923.22663461 915.54712177 923.47872311 916.6421417 C927.84658299 935.61520909 932.21448281 954.58826729 936.58264852 973.56126428 C937.09672867 975.79415805 937.61080635 978.02705239 938.12488365 980.25994682 C939.66712886 986.95867335 941.20939359 993.65739538 942.75174034 1000.35609853 C943.60517933 1004.06275359 944.45860102 1007.76941264 945.31201172 1011.47607422 C945.4805671 1012.20816927 945.64912249 1012.94026433 945.82278562 1013.69454408 C948.1699036 1023.88905353 950.51617138 1034.08375833 952.86181283 1044.27860761 C954.3348055 1050.68056529 955.80800783 1057.08247473 957.28125 1063.484375 C957.44174505 1064.18182312 957.6022401 1064.87927123 957.76759863 1065.59785414 C962.26720812 1085.15104435 966.77778553 1104.70166848 971.29888189 1124.24990141 C972.39027088 1128.96918584 973.48080075 1133.68866812 974.57070923 1138.40829468 C974.79671836 1139.3869763 974.79671836 1139.3869763 975.02729332 1140.38542926 C975.7750773 1143.623695 976.52274055 1146.86198855 977.27031898 1150.10030174 C978.9757693 1157.48654759 980.68527915 1164.87183764 982.39799881 1172.25640106 C983.44032858 1176.75495128 984.47873173 1181.25440107 985.51603699 1185.75411224 C985.99134746 1187.81226782 986.46828406 1189.87004871 986.94703674 1191.92740631 C996.6517076 1233.64497391 995.26445285 1272.64980807 973.16796875 1310.10546875 C968.42531931 1317.50400187 962.87607026 1324.23080244 957.2890625 1330.99609375 C954.3175964 1334.59617239 951.42742671 1338.25243029 948.5625 1341.9375 C943.88364843 1347.93902858 939.05639066 1353.80966361 934.20263672 1359.67016602 C929.99738913 1364.75887383 925.88862044 1369.91349234 921.82763672 1375.11767578 C918.42484539 1379.47440345 914.94879057 1383.76517612 911.4375 1388.03515625 C903.91595501 1397.18395857 896.45398396 1406.3751997 889.16455078 1415.71020508 C885.12127491 1420.87563967 880.98171171 1425.9597668 876.83374023 1431.04125977 C873.36106518 1435.30310909 869.94173694 1439.60131101 866.5625 1443.9375 C861.88286684 1449.93844134 857.05641321 1455.80963637 852.20263672 1461.67016602 C847.99738913 1466.75887383 843.88862044 1471.91349234 839.82763672 1477.11767578 C836.42484539 1481.47440345 832.94879057 1485.76517612 829.4375 1490.03515625 C821.91595501 1499.18395857 814.45398396 1508.3751997 807.16455078 1517.71020508 C803.12127491 1522.87563967 798.98171171 1527.9597668 794.83374023 1533.04125977 C791.36106518 1537.30310909 787.94173694 1541.60131101 784.5625 1545.9375 C779.8799785 1551.94214522 775.05012135 1557.81660123 770.19384766 1563.68115234 C766.5465898 1568.09520299 762.95875211 1572.54737739 759.4375 1577.0625 C752.86344934 1585.49207102 746.09350292 1593.76001108 739.33398438 1602.04101562 C733.20990338 1609.54679292 727.12576332 1617.07625122 721.16357422 1624.71142578 C717.12065899 1629.87648012 712.98138149 1634.96017134 708.83374023 1640.04125977 C705.36106518 1644.30310909 701.94173694 1648.60131101 698.5625 1652.9375 C693.88286684 1658.93844134 689.05641321 1664.80963637 684.20263672 1670.67016602 C679.99738913 1675.75887383 675.88862044 1680.91349234 671.82763672 1686.11767578 C668.42484539 1690.47440345 664.94879057 1694.76517612 661.4375 1699.03515625 C653.91595501 1708.18395857 646.45398396 1717.3751997 639.16455078 1726.71020508 C635.12127491 1731.87563967 630.98171171 1736.9597668 626.83374023 1742.04125977 C623.36106518 1746.30310909 619.94173694 1750.60131101 616.5625 1754.9375 C611.88286684 1760.93844134 607.05641321 1766.80963637 602.20263672 1772.67016602 C597.99738913 1777.75887383 593.88862044 1782.91349234 589.82763672 1788.11767578 C586.42484539 1792.47440345 582.94879057 1796.76517612 579.4375 1801.03515625 C571.91595501 1810.18395857 564.45398396 1819.3751997 557.16455078 1828.71020508 C553.12127491 1833.87563967 548.98171171 1838.9597668 544.83374023 1844.04125977 C541.36106518 1848.30310909 537.94173694 1852.60131101 534.5625 1856.9375 C529.88286684 1862.93844134 525.05641321 1868.80963637 520.20263672 1874.67016602 C515.99738913 1879.75887383 511.88862044 1884.91349234 507.82763672 1890.11767578 C504.42484539 1894.47440345 500.94879057 1898.76517612 497.4375 1903.03515625 C494.49040886 1906.61983923 491.55490221 1910.21376006 488.625 1913.8125 C488.06973633 1914.49393066 487.51447266 1915.17536133 486.94238281 1915.87744141 C483.82359531 1919.71643814 480.7540422 1923.58730645 477.72900391 1927.50048828 C472.16681244 1934.68740931 466.25409449 1941.40945106 460 1948 C459.14921875 1948.94746094 459.14921875 1948.94746094 458.28125 1949.9140625 C438.09142176 1971.64903065 406.15006333 1984.49028904 377 1987 C372.41742974 1987.14711386 367.83704318 1987.13949323 363.25241566 1987.13422108 C361.84928973 1987.13617618 360.44616436 1987.13856586 359.04303983 1987.14134905 C355.18435768 1987.14773236 351.3256964 1987.14791201 347.46700998 1987.14707164 C343.26991748 1987.14724147 339.07283237 1987.15315133 334.87574357 1987.1583125 C326.54980829 1987.16763149 318.22387833 1987.17155937 309.89793849 1987.17383147 C299.92533273 1987.17679539 289.952734 1987.18549395 279.98013194 1987.19424575 C255.87502277 1987.215084 231.76991238 1987.2255592 207.66479631 1987.23437535 C196.25900285 1987.23858298 184.85320992 1987.24380483 173.44741691 1987.24905988 C134.3968398 1987.26695005 95.34626254 1987.28194541 56.29568195 1987.28938007 C53.8443233 1987.28985483 51.39296465 1987.29033072 48.941606 1987.29080774 C47.11814265 1987.2911623 47.11814265 1987.2911623 45.25784167 1987.29152403 C39.0988964 1987.29272521 32.93995113 1987.29394067 26.78100586 1987.29516602 C24.94762063 1987.29552624 24.94762063 1987.29552624 23.07719731 1987.29589374 C-16.54255281 1987.30378495 -56.16227297 1987.32721312 -95.78201002 1987.35972196 C-137.67915712 1987.39403663 -179.57628671 1987.41373275 -221.4734481 1987.41702431 C-226.07485156 1987.41744185 -230.67625501 1987.41792141 -235.27765846 1987.41844749 C-236.41063712 1987.41857069 -237.54361578 1987.41869388 -238.71092712 1987.4188208 C-256.92736587 1987.42115083 -275.14376977 1987.43679984 -293.3601961 1987.45728934 C-311.67946669 1987.47756721 -329.99869552 1987.48301536 -348.31797525 1987.47351871 C-359.19373464 1987.46831134 -370.0693548 1987.47414512 -380.9450941 1987.49605338 C-388.22108624 1987.50959923 -395.49698295 1987.50845115 -402.77297613 1987.49565142 C-406.91140466 1987.48877992 -411.04956774 1987.48799809 -415.18797215 1987.50521151 C-458.69815843 1987.67484242 -495.19905123 1977.53627126 -527 1946.3125 C-532.15699064 1941.13650731 -536.65470825 1935.56816084 -541.0859375 1929.76953125 C-544.28528381 1925.59180847 -547.63865651 1921.54771254 -551 1917.5 C-555.6937346 1911.83468896 -560.29790772 1906.114261 -564.81640625 1900.30859375 C-568.4648513 1895.63900956 -572.22014714 1891.0635992 -576 1886.5 C-580.8104999 1880.69185874 -585.5329416 1874.82778059 -590.17236328 1868.88232422 C-593.57515461 1864.52559655 -597.05120943 1860.23482388 -600.5625 1855.96484375 C-607.62398655 1847.37563175 -614.65384653 1838.76222318 -621.5 1830 C-627.5593745 1822.24581138 -633.77732331 1814.62332608 -640 1807 C-646.68230682 1798.81358661 -653.33391277 1790.61093609 -659.84082031 1782.28417969 C-665.46049385 1775.10866286 -671.23685878 1768.06035472 -677 1761 C-683.68230682 1752.81358661 -690.33391277 1744.61093609 -696.84082031 1736.28417969 C-702.46049385 1729.10866286 -708.23685878 1722.06035472 -714 1715 C-720.68230682 1706.81358661 -727.33391277 1698.61093609 -733.84082031 1690.28417969 C-739.46049385 1683.10866286 -745.23685878 1676.06035472 -751 1669 C-757.68230682 1660.81358661 -764.33391277 1652.61093609 -770.84082031 1644.28417969 C-776.46049385 1637.10866286 -782.23685878 1630.06035472 -788 1623 C-794.68230682 1614.81358661 -801.33391277 1606.61093609 -807.84082031 1598.28417969 C-813.46049385 1591.10866286 -819.23685878 1584.06035472 -825 1577 C-831.68097011 1568.81522419 -838.3336976 1560.6159627 -844.83642578 1552.28857422 C-848.87934101 1547.12351988 -853.01861851 1542.03982866 -857.16625977 1536.95874023 C-860.63893482 1532.69689091 -864.05826306 1528.39868899 -867.4375 1524.0625 C-872.12065104 1518.05704749 -876.95081655 1512.18149691 -881.80834961 1506.31665039 C-885.89251734 1501.37465665 -889.87891521 1496.36774396 -893.81640625 1491.30859375 C-897.46485231 1486.63900827 -901.22018942 1482.06363521 -905 1477.5 C-909.71303848 1471.80855537 -914.34453001 1466.06675353 -918.88671875 1460.23828125 C-922.36853869 1455.77910835 -925.92242356 1451.38260975 -929.5 1447 C-933.53210829 1442.06057874 -937.51810853 1437.09180764 -941.4375 1432.0625 C-946.12065104 1426.05704749 -950.95081655 1420.18149691 -955.80834961 1414.31665039 C-959.89251734 1409.37465665 -963.87891521 1404.36774396 -967.81640625 1399.30859375 C-971.46485231 1394.63900827 -975.22018942 1390.06363521 -979 1385.5 C-983.71303848 1379.80855537 -988.34453001 1374.06675353 -992.88671875 1368.23828125 C-996.36854085 1363.77910558 -999.92253789 1359.38270563 -1003.5 1355 C-1008.02896177 1349.44922782 -1012.50771975 1343.86475746 -1016.90625 1338.20996094 C-1019.21699068 1335.2445104 -1021.55700067 1332.31315572 -1023.96484375 1329.42578125 C-1045.7121168 1303.21896745 -1057.98793848 1273.44244491 -1058.375 1239.1875 C-1058.43107422 1237.41536133 -1058.43107422 1237.41536133 -1058.48828125 1235.60742188 C-1058.56783036 1227.11776423 -1057.45516129 1219.24252204 -1055.80541992 1210.93676758 C-1055.58205491 1209.79618896 -1055.3586899 1208.65561035 -1055.12855625 1207.48046875 C-1052.84839768 1195.98421511 -1050.25536476 1184.56816157 -1047.58984375 1173.15625 C-1047.06861334 1170.90770283 -1046.54785099 1168.65904711 -1046.0275116 1166.41029358 C-1044.91680057 1161.61389405 -1043.80323752 1156.81816986 -1042.68731689 1152.02297974 C-1040.89239371 1144.30938925 -1039.10439211 1136.5942018 -1037.31787109 1128.87866211 C-1037.00966537 1127.54769959 -1036.70145817 1126.21673741 -1036.39324951 1124.88577557 C-1035.92693828 1122.87205185 -1035.46063541 1120.85832621 -1034.99436522 1118.84459299 C-1034.04821332 1114.75851347 -1033.10154266 1110.67255455 -1032.15446234 1106.58669013 C-1025.72452373 1078.84652097 -1019.35236181 1051.0931986 -1012.99034119 1023.33737564 C-1010.35811749 1011.85483296 -1007.72394763 1000.37273648 -1005.08984375 988.890625 C-1004.79811405 987.6188975 -1004.50638435 986.34716999 -1004.20581436 985.03690529 C-997.53201442 955.94549572 -990.83650667 926.85908919 -984.13896847 897.77313757 C-981.56500352 886.59492082 -978.99124583 875.41665637 -976.41796875 864.23828125 C-976.26679627 863.58158738 -976.1156238 862.92489352 -975.95987034 862.24829984 C-971.06713792 840.99381801 -966.1814015 819.73773503 -961.30078125 798.48046875 C-961.14044088 797.78211599 -960.98010052 797.08376324 -960.81490135 796.36424828 C-958.37629479 785.74290245 -955.93811226 775.1214593 -953.5 764.5 C-950.89996267 753.17312586 -948.29981638 741.84627676 -945.69921875 730.51953125 C-945.5389086 729.82130941 -945.37859844 729.12308758 -945.2134304 728.4037075 C-940.34232878 707.18832208 -935.46511198 685.97435012 -930.58203125 664.76171875 C-930.27655976 663.43467333 -929.97108833 662.10762789 -929.66561699 660.78058243 C-926.6585013 647.71713534 -923.65048617 634.65389585 -920.64083767 621.59103203 C-914.62356852 595.47299299 -908.61775571 569.35245998 -902.64697772 543.22375685 C-901.5077964 538.23871709 -900.36787501 533.25384705 -899.22746277 528.26908875 C-899.06825566 527.57316405 -898.90904856 526.87723936 -898.74501699 526.16022605 C-898.1071788 523.37213953 -897.46933101 520.58405521 -896.83140028 517.79598987 C-895.13734626 510.39194739 -893.4448959 502.98754768 -891.75796509 495.58187866 C-890.33789461 489.34804138 -888.91362756 483.11517727 -887.48635101 476.88298607 C-886.96842097 474.61778959 -886.4520611 472.35223334 -885.93750763 470.08626747 C-883.42621662 459.03019348 -880.82058737 448.01095837 -877.87866211 437.06054688 C-877.64585069 436.18353371 -877.41303926 435.30652054 -877.17317295 434.40293121 C-871.34543862 413.14993615 -859.82781604 395.07744228 -845 379 C-844.31292969 378.24203125 -843.62585938 377.4840625 -842.91796875 376.703125 C-821.65913897 354.32540944 -790.85093878 342.96988343 -763.36645508 330.31738281 C-751.76218709 324.94641547 -740.29029618 319.3097996 -728.80950928 313.68087769 C-717.13760189 307.96077419 -705.42838293 302.36078822 -693.61328125 296.94140625 C-683.49979024 292.28092033 -673.50020823 287.39775127 -663.5 282.5 C-651.29819397 276.52405506 -639.06346889 270.65992746 -626.71484375 264.9921875 C-615.70832824 259.91618151 -604.83236413 254.58089972 -593.94769287 249.24996948 C-583.72130582 244.2438354 -573.47468806 239.30972219 -563.125 234.5625 C-551.4913088 229.22517931 -539.99193646 223.63450223 -528.5 218 C-515.9320598 211.8379326 -503.33660367 205.7773733 -490.61328125 199.94140625 C-480.49979024 195.28092033 -470.50020823 190.39775127 -460.5 185.5 C-448.29819397 179.52405506 -436.06346889 173.65992746 -423.71484375 167.9921875 C-413.56842754 163.31284375 -403.53419001 158.41431324 -393.5 153.5 C-381.29818282 147.52407652 -369.06346972 141.65992784 -356.71484375 135.9921875 C-345.70832824 130.91618151 -334.83236413 125.58089972 -323.94769287 120.24996948 C-313.72130582 115.2438354 -303.47468806 110.30972219 -293.125 105.5625 C-281.4913088 100.22517931 -269.99193646 94.63450223 -258.5 89 C-245.9320598 82.8379326 -233.33660367 76.7773733 -220.61328125 70.94140625 C-210.49979024 66.28092033 -200.50020823 61.39775127 -190.5 56.5 C-178.30410806 50.52695154 -166.07612099 44.66373153 -153.73242188 39.00097656 C-144.28196544 34.64409074 -134.93208311 30.09360798 -125.58666992 25.5166626 C-85.78969926 6.02854244 -45.29988864 -11.82639901 0 0 Z " fill="#326CE5" transform="translate(1087,32)"/>
<path d="M0 0 C1.39591965 1.03486211 2.77253556 2.09645867 4.125 3.1875 C4.72699219 3.64253906 5.32898437 4.09757812 5.94921875 4.56640625 C10.34253246 8.34761782 12.84225643 12.96854721 15.4375 18.0625 C15.94422241 19.0522583 15.94422241 19.0522583 16.46118164 20.06201172 C26.92268068 41.67344052 20.13197521 68.02950373 16.23550415 90.55026245 C15.00246485 97.73973742 14.03416122 104.94968174 13.125 112.1875 C13.01269043 113.00919678 12.90038086 113.83089355 12.78466797 114.67749023 C11.14577483 126.79408166 10.86654377 138.95788203 10.77252197 151.16824341 C10.7576334 152.95759528 10.7363813 154.74690672 10.70843506 156.53610229 C10.24126211 172.27293233 10.24126211 172.27293233 17.44921875 185.78125 C18.61904297 186.72484375 18.61904297 186.72484375 19.8125 187.6875 C23.12505773 190.77197999 24.72393768 192.63616082 25.1875 197.1875 C25.21354052 198.85409344 25.18415294 200.5217531 25.125 202.1875 C25.11925155 203.7916569 25.11826952 205.39583529 25.12109375 207 C25.12165771 207.79019531 25.12222168 208.58039063 25.12280273 209.39453125 C25.12352783 209.98621094 25.12425293 210.57789063 25.125 211.1875 C26.22972656 211.29707031 27.33445312 211.40664063 28.47265625 211.51953125 C32.76358655 211.95195422 37.05103078 212.4133161 41.33789062 212.88427734 C43.11464714 213.07757899 44.89195395 213.26593178 46.66992188 213.44775391 C100.55735503 219.03210734 155.09018825 235.41371225 204.125 258.1875 C204.7173645 258.46207031 205.309729 258.73664063 205.92004395 259.01953125 C234.53335114 272.30353634 262.14249936 287.23349043 288.125 305.1875 C288.7422998 305.61321289 289.35959961 306.03892578 289.99560547 306.47753906 C304.56365905 316.5536886 318.73453091 327.09360101 332.16015625 338.65625 C334.87736882 340.97608366 337.64308681 343.21193466 340.4375 345.4375 C353.84953652 356.38094429 365.97913926 368.88298151 378.125 381.1875 C382.17404893 379.82353466 384.54856866 377.97434294 387.6875 375.125 C393.82796885 370.47161068 399.34379117 370.33948 406.77954102 370.48803711 C416.15541357 370.59240846 422.81925287 366.97614661 429.9375 361.125 C430.53296631 360.64603271 431.12843262 360.16706543 431.74194336 359.67358398 C437.23961096 355.2007442 442.46460929 350.44998379 447.62304688 345.59228516 C449.14792773 344.16605557 450.6882546 342.75862596 452.234375 341.35546875 C462.71687493 331.82402476 473.22679159 322.06233028 482.375 311.22265625 C485.26161739 307.86567486 488.29207642 304.63884612 491.30761719 301.39770508 C493.27072501 299.2740496 495.13404726 297.17496664 496.828125 294.828125 C497.25609375 294.28671875 497.6840625 293.7453125 498.125 293.1875 C498.785 293.1875 499.445 293.1875 500.125 293.1875 C500.125 292.5275 500.125 291.8675 500.125 291.1875 C503.10304607 288.41463427 506.33140082 285.95070737 509.53417969 283.44287109 C511.06153749 282.23758045 512.56650965 281.00408558 514.0703125 279.76953125 C525.03079087 271.04499047 537.03818188 266.15395628 551.125 267.1875 C562.99480968 268.90396758 573.71061062 273.43445977 581.125 283.1875 C588.58909771 293.92816029 589.85811482 304.35501892 588.125 317.1875 C586.3811457 326.21095637 582.32644535 333.50299469 576.125 340.1875 C575.28388672 341.1465625 575.28388672 341.1465625 574.42578125 342.125 C563.34737348 354.04450163 549.15181061 361.55685554 535.03051758 369.20849609 C524.76609321 374.77647105 514.87152893 380.75694731 505.125 387.1875 C504.25375488 387.75742676 503.38250977 388.32735352 502.48486328 388.91455078 C474.05776102 405.12699349 474.05776102 405.12699349 455.6640625 430.13134766 C455.35605506 432.14672329 455.11108833 434.16254216 454.875 436.1875 C454.11294321 441.23159018 453.3181228 444.93183657 449.3125 448.375 C447.93656176 449.34146309 446.54103919 450.28080824 445.125 451.1875 C443.9454001 452.15104686 442.77717426 453.12882083 441.625 454.125 C440.3875 455.1459375 440.3875 455.1459375 439.125 456.1875 C439.65673828 456.99574219 439.65673828 456.99574219 440.19921875 457.8203125 C451.37453248 475.0838722 461.52073853 493.01046098 471.125 511.1875 C471.58084473 512.04714355 472.03668945 512.90678711 472.50634766 513.79248047 C509.56240677 584.21099367 531.99908515 667.83018943 532.328125 747.625 C532.33500336 748.77269867 532.34188171 749.92039734 532.34896851 751.10287476 C532.36606346 754.79778251 532.37242596 758.49255477 532.375 762.1875 C532.37667175 763.4486261 532.37834351 764.7097522 532.38006592 766.00909424 C532.3813265 781.90724552 532.11786088 797.71846086 530.75 813.5625 C530.68687622 814.30064941 530.62375244 815.03879883 530.55871582 815.79931641 C529.83366768 824.00940672 528.77986433 832.10861806 527.125 840.1875 C527.92164063 840.36925781 528.71828125 840.55101562 529.5390625 840.73828125 C531.12847656 841.11533203 531.12847656 841.11533203 532.75 841.5 C533.79414062 841.74363281 534.83828125 841.98726562 535.9140625 842.23828125 C542.14547133 844.08041306 545.61389535 846.27759543 549.5 851.5 C555.70801663 859.83548301 562.19532401 863.93633846 572.25 866.1875 C573.30074707 866.42895752 574.35149414 866.67041504 575.43408203 866.91918945 C601.93242073 872.61631389 629.17621937 875.12842262 656.1875 876.75 C679.73667718 878.1707435 701.90442626 880.24940235 719.125 898.1875 C721.86435672 901.37750875 723.96372303 904.4766287 725.8125 908.25 C726.22886719 909.08660156 726.64523437 909.92320312 727.07421875 910.78515625 C730.78335793 919.26515845 730.76169764 932.15073032 727.5 940.8125 C721.92572653 952.17544208 712.94031532 960.60219595 701.125 965.1875 C677.0885219 972.24976419 653.62006923 962.47835389 631.61328125 953.3125 C608.88580145 943.90743053 585.1114794 935.70563309 561.125 930.1875 C560.38016357 930.00928711 559.63532715 929.83107422 558.86791992 929.64746094 C547.81747844 927.06583027 539.51403469 927.17236692 529.390625 932.77734375 C527.23939395 933.99754827 527.23939395 933.99754827 526.125 935.1875 C521.3125225 935.36910292 516.62902167 935.09339099 511.83203125 934.6796875 C510.22485229 934.54216064 510.22485229 934.54216064 508.58520508 934.40185547 C507.7733374 934.33111816 506.96146973 934.26038086 506.125 934.1875 C505.87967529 934.92983887 505.63435059 935.67217773 505.3815918 936.43701172 C499.41154897 954.39262887 492.83101673 971.88897488 485.125 989.1875 C484.40159424 990.82162842 484.40159424 990.82162842 483.66357422 992.48876953 C476.85362304 1007.80048753 469.43965132 1022.63885061 461.125 1037.1875 C460.61888184 1038.07856445 460.11276367 1038.96962891 459.59130859 1039.88769531 C445.11619769 1065.25908175 428.69491541 1089.62152684 410.125 1112.1875 C409.41085937 1113.074375 408.69671875 1113.96125 407.9609375 1114.875 C403.53402575 1120.35159185 398.97175319 1125.66075123 394.23046875 1130.8671875 C392.39582315 1132.88904184 390.59731214 1134.93428522 388.8125 1137 C377.34769607 1150.11762464 365.39449097 1163.27187696 352.06640625 1174.52734375 C349.59055003 1176.64452462 347.20838732 1178.85531829 344.8125 1181.0625 C339.4100248 1185.98327302 333.82262419 1190.6145049 328.125 1195.1875 C326.99301214 1196.11139449 325.86152513 1197.0359029 324.73046875 1197.9609375 C305.02632874 1214.00322258 283.99508953 1228.26291754 262.125 1241.1875 C262.55037906 1245.22860104 263.63421734 1248.49905819 265.25 1252.1875 C267.42975452 1257.46313776 267.20423492 1260.52115491 265.0625 1265.8125 C261.009418 1280.4035952 268.3566718 1293.35163021 275 1306 C275.5566333 1307.06460449 276.1132666 1308.12920898 276.68676758 1309.22607422 C282.90182421 1320.92267478 289.9114089 1332.0870859 297.125 1343.1875 C297.59534668 1343.91646484 298.06569336 1344.64542969 298.55029297 1345.39648438 C302.28601583 1351.17334623 306.10477202 1356.85807739 310.23828125 1362.359375 C318.49959125 1373.38912221 325.26267171 1384.70641396 331.125 1397.1875 C331.64320312 1398.28578125 332.16140625 1399.3840625 332.6953125 1400.515625 C336.72410769 1410.60169966 336.9822662 1423.9495151 333.5 1434.25 C332.7563385 1435.91807405 331.9647745 1437.5656855 331.125 1439.1875 C330.7125 1440.04601563 330.3 1440.90453125 329.875 1441.7890625 C324.06061397 1452.72407259 314.7763998 1458.21783852 303.24609375 1461.765625 C290.31465374 1464.33762412 279.22946626 1460.68068 268.40234375 1453.8046875 C251.23924464 1441.61682638 245.02312991 1419.51821606 239.23474121 1400.37281799 C230.53639953 1371.6203911 221.44774844 1342.70768582 207.125 1316.1875 C206.65964844 1315.27355469 206.19429687 1314.35960937 205.71484375 1313.41796875 C201.44129235 1305.90499063 194.36188315 1302.98343399 186.4140625 1300.2578125 C183.75190129 1299.0130477 182.98960675 1298.03100118 181.5625 1295.5 C180.95148438 1294.44232422 180.95148438 1294.44232422 180.328125 1293.36328125 C179.93109375 1292.64527344 179.5340625 1291.92726563 179.125 1291.1875 C178.35443037 1289.85401425 177.58361949 1288.52066786 176.8125 1287.1875 C175.9771875 1285.7025 175.9771875 1285.7025 175.125 1284.1875 C171.13474152 1284.87935558 167.46684961 1286.03326372 163.6484375 1287.375 C162.34260747 1287.82759119 161.03643872 1288.27920593 159.72998047 1288.72998047 C159.04208435 1288.96763123 158.35418823 1289.20528198 157.64544678 1289.45013428 C139.38085592 1295.72746699 120.90282471 1300.70758337 102.125 1305.1875 C101.01914551 1305.45288574 99.91329102 1305.71827148 98.77392578 1305.99169922 C64.88479133 1314.02335358 29.59572745 1318.21046386 -5.22265625 1318.42578125 C-7.20173477 1318.44033607 -7.20173477 1318.44033607 -9.22079468 1318.45518494 C-13.45968687 1318.48224417 -17.69853201 1318.49335161 -21.9375 1318.5 C-22.65997547 1318.50144516 -23.38245094 1318.50289032 -24.12681961 1318.50437927 C-47.60966364 1318.54230556 -70.61295601 1317.59030483 -93.875 1314.1875 C-96.17422946 1313.88222789 -98.47369762 1313.57874652 -100.7734375 1313.27734375 C-139.7717622 1307.94288822 -177.59484237 1297.31843928 -214.54125977 1283.94677734 C-216.78295416 1283.08437159 -216.78295416 1283.08437159 -218.875 1283.1875 C-219.37386719 1284.28449219 -219.87273438 1285.38148437 -220.38671875 1286.51171875 C-226.0052625 1298.05575756 -226.0052625 1298.05575756 -231.12109375 1301.15234375 C-233.35087573 1301.91794519 -235.59923335 1302.63167345 -237.86328125 1303.2890625 C-246.50375519 1305.86663579 -250.66379211 1313.60242598 -254.80477905 1321.12858582 C-256.6298018 1324.63960401 -258.16690381 1328.25900328 -259.6875 1331.91015625 C-260.03175522 1332.73336365 -260.37601044 1333.55657104 -260.73069763 1334.40472412 C-264.4711426 1343.46410126 -267.73936145 1352.67561047 -270.9375 1361.9375 C-271.23970459 1362.806026 -271.54190918 1363.674552 -271.85327148 1364.56939697 C-276.80278489 1378.79517017 -281.32558804 1393.11105428 -285.57275391 1407.56152344 C-291.25383049 1426.61522528 -299.29488297 1446.18713979 -316.75 1457.1875 C-326.53477816 1462.411895 -337.72324411 1465.18869389 -348.69140625 1462.49609375 C-360.68255228 1458.51016343 -369.73072505 1451.45151557 -375.6875 1440.25 C-380.98714097 1428.74420053 -381.71586509 1416.0961257 -378 1403.9375 C-372.12363124 1388.19605409 -363.40580262 1374.65101375 -353.40185547 1361.25732422 C-340.49081055 1343.75495152 -329.22204806 1324.62076086 -319.05712891 1305.41748047 C-318.24080729 1303.87756275 -317.41429517 1302.34301919 -316.57958984 1300.81298828 C-310.8108303 1290.15820268 -306.87946096 1281.5656262 -308.875 1269.1875 C-309.46772139 1267.34347791 -310.09107606 1265.50891576 -310.75 1263.6875 C-312.6963686 1257.80415854 -310.62557619 1253.65025636 -308.07373047 1248.3125 C-306.34748014 1244.87860458 -306.34748014 1244.87860458 -306.07543945 1241.1328125 C-307.08666465 1238.67252476 -308.0547366 1238.08811378 -310.34765625 1236.77734375 C-311.0739624 1236.35090576 -311.80026855 1235.92446777 -312.54858398 1235.48510742 C-313.33692627 1235.03627197 -314.12526855 1234.58743652 -314.9375 1234.125 C-316.59841711 1233.14410976 -318.25723527 1232.15965778 -319.9140625 1231.171875 C-320.75098633 1230.67365234 -321.58791016 1230.17542969 -322.45019531 1229.66210938 C-341.31305571 1218.19093773 -358.94296208 1204.30054818 -375.875 1190.1875 C-376.45475586 1189.70684082 -377.03451172 1189.22618164 -377.63183594 1188.73095703 C-385.01805241 1182.59976244 -392.19840205 1176.2736756 -399.21923828 1169.72558594 C-401.01164667 1168.06056487 -402.81612079 1166.40920001 -404.62109375 1164.7578125 C-414.51403285 1155.65625975 -423.77833293 1146.08015723 -432.875 1136.1875 C-433.84470931 1135.14291086 -434.81472719 1134.09860802 -435.78515625 1133.0546875 C-441.40229227 1126.96005151 -446.68807448 1120.6500375 -451.875 1114.1875 C-452.79889449 1113.05551214 -453.7234029 1111.92402513 -454.6484375 1110.79296875 C-479.20903823 1080.62294891 -500.00307818 1047.57508459 -517.51464844 1012.87304688 C-518.67216759 1010.58792292 -519.84825847 1008.3147482 -521.0390625 1006.046875 C-532.85907363 983.3486388 -541.6287019 959.35632839 -549.875 935.1875 C-551.16792969 935.32929687 -552.46085938 935.47109375 -553.79296875 935.6171875 C-565.39422073 936.67397945 -572.67866747 936.2431068 -582.875 930.1875 C-610.53520056 920.96743315 -660.15766158 947.1954913 -686.0625 958.0625 C-705.30685374 966.04622138 -727.81827339 973.68518251 -748.3359375 965.44921875 C-759.94299481 959.68140412 -767.48395247 952.00076858 -772.875 940.1875 C-775.57996212 930.98826122 -775.4657762 917.91315417 -771.1953125 909.3125 C-761.33289149 893.43925435 -748.10436477 885.33397231 -730.22265625 881.046875 C-720.07529074 878.94800985 -710.02239117 877.89383023 -699.677948 877.41119385 C-648.40159845 876.53260381 -648.40159845 876.53260381 -601.875 860.1875 C-601.215 860.1875 -600.555 860.1875 -599.875 860.1875 C-599.60945312 859.62933594 -599.34390625 859.07117187 -599.0703125 858.49609375 C-595.35259122 851.31578892 -591.49558485 846.30049714 -583.69189453 843.70483398 C-575.10176739 841.1875 -575.10176739 841.1875 -571.875 841.1875 C-572.00052246 840.41801025 -572.12604492 839.64852051 -572.25537109 838.85571289 C-576.29051115 813.47920767 -577.17124125 788.29023427 -577.1875 762.625 C-577.19090393 761.36178925 -577.19430786 760.09857849 -577.19781494 758.79708862 C-577.23564052 734.25446202 -575.61550893 710.10281316 -572.125 685.8125 C-571.99461334 684.89316681 -571.86422668 683.97383362 -571.72988892 683.02664185 C-569.47666052 667.23262103 -566.69605934 651.68725112 -562.875 636.1875 C-562.55891558 634.88415494 -562.24300396 633.58076796 -561.92724609 632.27734375 C-551.45708225 589.33715016 -535.68886018 548.66420009 -515.875 509.1875 C-515.41351562 508.26727051 -514.95203125 507.34704102 -514.4765625 506.39892578 C-506.44056745 490.49435225 -497.4534654 475.05331861 -487.30078125 460.40234375 C-485.72854754 458.16082271 -485.72854754 458.16082271 -484.875 455.1875 C-485.4421875 454.92066406 -486.009375 454.65382813 -486.59375 454.37890625 C-491.53519956 451.79818345 -496.54161523 448.72060829 -498.59570312 443.27783203 C-499.39400096 440.34374922 -499.98714285 437.38810517 -500.57397461 434.40576172 C-504.06197628 416.69924127 -521.8224909 406.70918488 -535.875 397.1875 C-543.12603663 392.38989988 -550.48416978 387.7658904 -557.875 383.1875 C-558.56158691 382.75985352 -559.24817383 382.33220703 -559.95556641 381.89160156 C-566.85651048 377.60701854 -573.87751142 373.63008681 -581.04150391 369.80078125 C-590.87786519 364.53349354 -600.07776556 359.05309576 -608.875 352.1875 C-609.41334473 351.77790039 -609.95168945 351.36830078 -610.50634766 350.94628906 C-622.1010426 342.09215838 -631.14238035 330.95468702 -633.875 316.1875 C-634.85209449 302.71641033 -632.53135084 291.84628381 -623.875 281.1875 C-616.70828511 273.45730876 -606.57737428 268.80193442 -596.1328125 267.96875 C-576.87854387 267.36861695 -562.29072404 276.4868606 -548.70019531 289.22607422 C-541.07731741 296.58319132 -533.79255851 304.16477582 -526.875 312.1875 C-520.07503741 319.88893062 -512.94047159 327.22511611 -505.6875 334.5 C-504.84421143 335.34788086 -504.00092285 336.19576172 -503.13208008 337.06933594 C-498.20694508 341.9823865 -493.16580394 346.6724447 -487.875 351.1875 C-486.80658807 352.12289488 -485.7388388 353.0590474 -484.671875 353.99609375 C-472.57405582 365.60929382 -472.57405582 365.60929382 -457.9206543 371.14233398 C-457.18758057 371.07344971 -456.45450684 371.00456543 -455.69921875 370.93359375 C-444.04426365 370.15690133 -437.21578571 371.33347547 -428.234375 379 C-427.45578125 379.721875 -426.6771875 380.44375 -425.875 381.1875 C-418.74939298 375.34110434 -412.38508012 368.7644716 -405.9206543 362.21264648 C-400.09018401 356.31046301 -394.22533104 350.53761193 -387.875 345.1875 C-386.83037265 344.28687169 -385.78608238 343.3858522 -384.7421875 342.484375 C-377.52142078 336.33823936 -370.18985191 330.36716981 -362.67871094 324.57910156 C-361.49432921 323.66532573 -360.31259248 322.74810927 -359.13378906 321.82714844 C-339.23933463 306.30436999 -317.83583094 292.5804971 -295.875 280.1875 C-294.95251465 279.66381836 -294.0300293 279.14013672 -293.07958984 278.60058594 C-266.70579796 263.71193633 -239.31224184 251.5252204 -210.875 241.1875 C-209.2048584 240.57914307 -209.2048584 240.57914307 -207.50097656 239.95849609 C-173.3568991 227.68780761 -138.06780948 219.84841108 -102.25 214.4375 C-101.54774292 214.33013519 -100.84548584 214.22277039 -100.12194824 214.1121521 C-90.05181797 212.58641516 -80.04799836 211.67330356 -69.875 211.1875 C-69.89143555 210.15991577 -69.89143555 210.15991577 -69.90820312 209.11157227 C-69.94014154 206.46893499 -69.9054183 203.8300896 -69.875 201.1875 C-69.9059375 199.2384375 -69.9059375 199.2384375 -69.9375 197.25 C-69.26362121 192.17548853 -65.57413078 188.89268757 -62.19921875 185.2890625 C-55.28132939 176.05745889 -55.19196546 166.453143 -55.3125 155.375 C-55.31576294 154.56480408 -55.31902588 153.75460815 -55.3223877 152.91986084 C-55.48285303 125.1047456 -59.02276047 97.06661658 -64.078125 69.734375 C-67.4792432 50.99074155 -68.54203195 29.79835074 -57.875 13.1875 C-43.50316391 -5.65805939 -21.1709423 -13.45274527 0 0 Z " fill="#FEFEFE" transform="translate(1076.875,295.8125)"/>
<path d="M0 0 C1.50735018 0.25580759 3.01489911 0.51044635 4.52262878 0.76400757 C8.46812755 1.43072585 12.41076748 2.11302633 16.35296631 2.7989502 C20.24346265 3.47311779 24.1364677 4.13243074 28.02929688 4.79296875 C35.77630213 6.11006721 43.5203597 7.44384169 51.26373291 8.78210449 C58.98462589 10.11629435 66.70711602 11.44119098 74.4296875 12.765625 C75.16557413 12.89187382 75.90146076 13.01812263 76.65964699 13.14819717 C87.60298327 15.02511584 98.55039857 16.87562329 109.50482178 18.6867981 C123.97912307 21.08087689 138.44492544 23.52044381 152.90274048 26.01202393 C169.89621053 28.93953794 186.90619573 31.7670077 203.91796875 34.5859375 C197.85232245 53.30563388 189.67771713 70.99009027 180.91796875 88.5859375 C180.49789551 89.43542969 180.07782227 90.28492188 179.64501953 91.16015625 C169.36204024 111.81879223 156.78523483 131.16738737 142.91796875 149.5859375 C142.47114746 150.18438477 142.02432617 150.78283203 141.56396484 151.39941406 C132.63896856 163.33317754 122.96411277 174.58787459 112.91796875 185.5859375 C112.04269531 186.55402344 111.16742187 187.52210938 110.265625 188.51953125 C102.55425496 197.02694002 94.69694804 205.35524603 85.95703125 212.82421875 C83.69104645 214.78199489 81.49653381 216.80822698 79.29296875 218.8359375 C73.64206074 223.93300461 67.68642462 228.59139901 61.66308594 233.23486328 C60.03397114 234.49612815 58.41688369 235.77288571 56.80078125 237.05078125 C50.26861957 242.17844506 43.56696216 246.99872031 36.73046875 251.7109375 C35.47230347 252.58274658 35.47230347 252.58274658 34.1887207 253.47216797 C33.40456787 254.00729004 32.62041504 254.54241211 31.8125 255.09375 C31.10971924 255.57473145 30.40693848 256.05571289 29.68286133 256.55126953 C27.91796875 257.5859375 27.91796875 257.5859375 25.91796875 257.5859375 C25.56831055 256.71646484 25.21865234 255.84699219 24.85839844 254.95117188 C14.96700959 230.37491706 4.83327694 205.90409568 -5.37828064 181.4593811 C-9.48235219 171.63291278 -13.56730285 161.79856985 -17.64453125 151.9609375 C-17.98543793 151.13846527 -18.3263446 150.31599304 -18.67758179 149.46859741 C-25.18807361 133.7590698 -31.68780867 118.04505997 -38.17211914 102.32470703 C-38.95849184 100.41829252 -39.74486876 98.51187974 -40.53125 96.60546875 C-40.91485184 95.67545044 -41.29845367 94.74543213 -41.69367981 93.78723145 C-43.87880743 88.49232593 -46.07161022 83.20070628 -48.27339172 77.91270447 C-49.57671323 74.78160393 -50.87654413 71.64906081 -52.17593384 68.5163269 C-52.76904174 67.08910046 -53.36384539 65.66257724 -53.96054077 64.23684692 C-65.41938234 36.85315163 -65.41938234 36.85315163 -60.51953125 21.7734375 C-55.97138623 10.98149756 -47.81450211 3.10331581 -36.95703125 -1.3515625 C-25.077601 -4.56280465 -11.86700669 -2.0937399 0 0 Z " fill="#326CE5" transform="translate(1267.08203125,1174.4140625)"/>
<path d="M0 0 C0.13770832 12.16541859 -0.27206579 24.23354429 -0.97802734 36.37695312 C-1.08355107 38.25330929 -1.18866682 40.12968843 -1.29341125 42.00608826 C-1.5762341 47.04971276 -1.86506935 52.09297543 -2.15535688 57.13617516 C-2.39832517 61.36782234 -2.63817656 65.59964389 -2.87802184 69.83146906 C-3.44434985 79.82360289 -4.0154674 89.8154547 -4.58984375 99.80712891 C-5.17978323 110.07067307 -5.76251884 120.3346077 -6.34155118 130.59877253 C-6.84139514 139.45557649 -7.34528816 148.3121436 -7.8524605 157.16853094 C-8.1542526 162.43869685 -8.45468084 167.70893034 -8.75138474 172.97938538 C-9.03071573 177.93742511 -9.31517165 182.89514628 -9.60336876 187.8526783 C-9.7075107 189.65796472 -9.80995833 191.46334993 -9.91045952 193.2688427 C-10.39723416 201.99515872 -10.99027389 210.68393836 -11.99917603 219.36730957 C-12.07925884 220.05766784 -12.15934165 220.74802611 -12.24185121 221.45930433 C-13.83259135 234.3795817 -18.49143219 243.76432027 -28.4921875 252.2734375 C-35.66460717 257.21145852 -45.31571466 259.94183637 -54 259 C-64.43039093 256.93347007 -72.47196881 252.00543913 -81 246 C-81.66016113 245.54028809 -82.32032227 245.08057617 -83.00048828 244.60693359 C-87.29751162 241.61394665 -91.56856871 238.58585365 -95.83105469 235.54394531 C-97.95793475 234.02994379 -100.09081697 232.52490129 -102.2265625 231.0234375 C-109.48212145 225.9225699 -116.70023881 220.77646174 -123.875 215.5625 C-130.07537641 211.0590758 -136.34714668 206.67893295 -142.6875 202.375 C-149.0337122 198.06671551 -155.27931683 193.65663267 -161.44262695 189.09106445 C-168.86882063 183.59625797 -176.44015641 178.30852251 -184 173 C-192.64210485 166.92641559 -201.26137813 160.82622381 -209.8125 154.625 C-224.701136 143.83596881 -239.82692357 133.38380929 -255 123 C-253.51556158 119.53891463 -251.55369767 117.31486374 -248.875 114.6875 C-248.15054688 113.96949219 -247.42609375 113.25148438 -246.6796875 112.51171875 C-232.43349448 99.15850867 -217.03237964 87.11880695 -201 76 C-200.19079102 75.43812988 -199.38158203 74.87625977 -198.54785156 74.29736328 C-145.62440079 37.78244834 -67.09433257 -2.27679602 0 0 Z " fill="#326CE5" transform="translate(1000,622)"/>
<path d="M0 0 C0.42917725 0.36859131 0.85835449 0.73718262 1.30053711 1.11694336 C4.27754782 3.6715102 7.25781783 6.22172829 10.25390625 8.75390625 C17.04424418 14.5088958 23.6671315 20.40280936 30.16357422 26.48779297 C33.72035693 29.8188122 37.32205496 33.07770481 41.01171875 36.26171875 C43.54052928 38.47256489 46.01872564 40.73596443 48.5 43 C51.61907011 45.84524228 54.74755391 48.6719958 57.9375 51.4375 C61.88589474 54.86700919 65.72857458 58.40876823 69.57568359 61.95068359 C72.98616889 65.08531289 76.44167816 68.15733845 79.94140625 71.19140625 C82.4895665 73.4301125 84.99410593 75.71410212 87.5 78 C91.28934126 81.45575413 95.11083698 84.8652289 98.98046875 88.23046875 C103.02666383 91.77578088 107.00683622 95.39522905 111 99 C112.66640851 100.50028679 114.33307353 102.00028872 116 103.5 C118.52500493 105.7717129 121.04913304 108.04435414 123.5703125 110.3203125 C127.35910841 113.73833939 131.15305946 117.1474454 135 120.5 C140.58979989 125.37143203 146.07534898 130.3589515 151.578125 135.328125 C152.41859375 136.08609375 153.2590625 136.8440625 154.125 137.625 C154.95 138.37136719 155.775 139.11773438 156.625 139.88671875 C158.1050925 141.20370895 159.6025445 142.50175121 161.125 143.76953125 C170.87375434 151.89984004 178.89997532 161.75200491 180.44140625 174.7109375 C180.81763168 186.67733343 178.07129805 195.65627025 170.265625 204.77734375 C159.79225881 215.05207714 144.17839344 218.26131545 130.5 222.1640625 C128.74206465 222.66982595 126.98426595 223.17606457 125.22659302 223.68273926 C121.45792415 224.76806767 117.6883554 225.8501897 113.91802979 226.92974854 C107.93334364 228.64335391 101.95064646 230.36382921 95.96826172 232.08544922 C89.71517924 233.88459714 83.46194022 235.68319316 77.20797729 237.47927856 C62.4705431 241.71181626 47.73757667 245.95959896 33.0078125 250.21875 C31.49161442 250.65712252 31.49161442 250.65712252 29.94478607 251.10435104 C24.94344336 252.550401 19.94215988 253.99665565 14.94091797 255.4430542 C0.81727286 259.52766986 -13.30688352 263.61049309 -27.43395996 267.68322754 C-30.43921502 268.54965533 -33.44416832 269.41711722 -36.44885254 270.28552246 C-40.44678631 271.44083654 -44.44594887 272.59183299 -48.4453125 273.7421875 C-49.60666718 274.07832062 -50.76802185 274.41445374 -51.96456909 274.76077271 C-53.00767242 275.05998627 -54.05077576 275.35919983 -55.12548828 275.66748047 C-56.02631134 275.92705536 -56.9271344 276.18663025 -57.85525513 276.45407104 C-60 277 -60 277 -62 277 C-63.74740535 260.95463637 -64.40462965 245.0740651 -64.375 228.9375 C-64.37412384 227.76157288 -64.37324768 226.58564575 -64.37234497 225.37408447 C-64.22188957 163.75817347 -50.84962652 103.02889288 -25 47 C-24.57638184 46.06526855 -24.15276367 45.13053711 -23.71630859 44.16748047 C-16.76503952 28.86109446 -8.69052413 14.38359115 0 0 Z " fill="#326CE5" transform="translate(677,828)"/>
<path d="M0 0 C3.64126105 1.21375368 3.88400222 2.02601712 5.71484375 5.28515625 C6.22998535 6.19555664 6.74512695 7.10595703 7.27587891 8.04394531 C7.82421387 9.04006836 8.37254883 10.03619141 8.9375 11.0625 C9.51161621 12.09600586 10.08573242 13.12951172 10.67724609 14.19433594 C46.8628362 79.89426332 67.58334935 153.15955284 67.20581055 228.35351562 C67.18735428 232.15501529 67.18530312 235.95627228 67.18554688 239.7578125 C67.18063632 242.21614791 67.17481004 244.6744817 67.16796875 247.1328125 C67.16685593 248.2486673 67.1657431 249.36452209 67.16459656 250.51419067 C67.05528945 268.83413166 67.05528945 268.83413166 65 275 C55.95219034 273.46664351 47.22556771 270.86396794 38.43359375 268.29296875 C36.78717449 267.81490014 35.1406413 267.33722371 33.4940033 266.85990906 C29.97707115 265.83965907 26.46087628 264.816921 22.94525146 263.79217529 C17.372451 262.1678964 11.7979763 260.54942032 6.22314453 258.93212891 C4.32397216 258.38111194 2.42480225 257.83008651 0.52563477 257.27905273 C-0.41959045 257.00480469 -1.36481567 256.73055664 -2.33868408 256.44799805 C-5.22827052 255.60938454 -8.11769823 254.77022628 -11.00708008 253.9309082 C-28.78005601 248.76869701 -46.5630995 243.6418176 -64.35031128 238.52890015 C-66.62030275 237.87635031 -68.89023765 237.22360404 -71.16015625 236.57080078 C-97.43115419 229.0158682 -123.7113242 221.49320469 -150 214 C-150 213.34 -150 212.68 -150 212 C-150.886875 211.89945313 -151.77375 211.79890625 -152.6875 211.6953125 C-160.62566953 210.02904578 -167.48674174 203.57119048 -172 197 C-177.09005164 188.79187036 -179.41131331 179.19888386 -177.53515625 169.62890625 C-173.65481359 154.91115686 -163.29163802 145.37728085 -152.09375 135.80859375 C-149.51946364 133.58490982 -147.01157751 131.29422946 -144.5 129 C-140.73649479 125.56735239 -136.93870649 122.1844499 -133.09375 118.84375 C-130.53580973 116.59123543 -128.0182102 114.29682908 -125.5 112 C-121.73649479 108.56735239 -117.93870649 105.1844499 -114.09375 101.84375 C-111.53580973 99.59123543 -109.0182102 97.29682908 -106.5 95 C-102.73649479 91.56735239 -98.93870649 88.1844499 -95.09375 84.84375 C-92.53580973 82.59123543 -90.0182102 80.29682908 -87.5 78 C-83.73649479 74.56735239 -79.93870649 71.1844499 -76.09375 67.84375 C-72.5718753 64.74239765 -69.11922978 61.56486667 -65.65234375 58.40234375 C-63.47539004 56.43058156 -61.28161326 54.48634663 -59.0625 52.5625 C-55.6531142 49.6011649 -52.3220569 46.55847514 -49 43.5 C-45.04137814 39.85585671 -41.0482324 36.26086283 -36.984375 32.734375 C-32.94626738 29.20500535 -28.98025811 25.59429369 -25 22 C-14.02640035 12.09050698 -14.02640035 12.09050698 -8.8828125 7.64453125 C-7.58983859 6.51519096 -6.31450281 5.36543332 -5.0546875 4.19921875 C-4.43851563 3.63847656 -3.82234375 3.07773437 -3.1875 2.5 C-2.37345703 1.74203125 -2.37345703 1.74203125 -1.54296875 0.96875 C-1.03378906 0.6490625 -0.52460937 0.329375 0 0 Z " fill="#326CE5" transform="translate(1429,829)"/>
<path d="M0 0 C9.04526717 7.99264246 15.05438057 17.52843294 20.5 28.1875 C21.79908498 30.68002771 23.10706799 33.16786289 24.4140625 35.65625 C24.89950027 36.58494904 24.89950027 36.58494904 25.39474487 37.53240967 C28.42877035 43.32312076 31.62885124 49.01317651 34.875 54.6875 C39.26673275 62.38576004 43.55043201 70.13273152 47.75 77.9375 C51.93757719 85.7156819 56.19724449 93.44509844 60.5625 101.125 C65.45725434 109.73744919 70.28348303 118.38547523 75.0625 127.0625 C75.39754547 127.67080658 75.73259094 128.27911316 76.07778931 128.90585327 C77.78646011 132.00878308 79.49424456 135.11219968 81.20166016 138.21582031 C84.21498235 143.69227595 87.23588136 149.16455062 90.25631714 154.63708496 C91.90547171 157.62512351 93.55433912 160.61332049 95.203125 163.6015625 C95.53066269 164.19517578 95.85820038 164.78878906 96.19566345 165.40039062 C98.31731884 169.24594557 100.43776321 173.09216623 102.55749512 176.93878174 C104.01950287 179.59174367 105.4819046 182.24448834 106.94433594 184.8972168 C107.63854298 186.15671131 108.33255891 187.41631117 109.02636719 188.67602539 C109.99104554 190.42751657 110.95644773 192.17860902 111.921875 193.9296875 C112.50130859 194.98124023 113.08074219 196.03279297 113.67773438 197.11621094 C114.99139479 199.47345625 116.33585147 201.80653188 117.703125 204.1328125 C119.25 206.9375 119.25 206.9375 119.25 208.9375 C26.02273682 237.78044198 -69.60186946 239.47095064 -162.75 208.9375 C-162.17576217 204.13983555 -159.99567371 200.42516816 -157.625 196.3125 C-156.70790577 194.6916481 -155.79126788 193.07053793 -154.875 191.44921875 C-154.37355469 190.56669434 -153.87210938 189.68416992 -153.35546875 188.77490234 C-150.41374023 183.57588032 -147.52292453 178.3485222 -144.625 173.125 C-143.67343018 171.41256104 -143.67343018 171.41256104 -142.70263672 169.66552734 C-137.69680788 160.65650667 -132.71621252 151.6336856 -127.74139404 142.60751343 C-122.31364966 132.76035313 -116.85997774 122.92785998 -111.39453125 113.1015625 C-106.82915767 104.88963267 -102.28517099 96.66612827 -97.75 88.4375 C-91.99277542 77.99157391 -86.21452706 67.55763893 -80.41210938 57.13671875 C-77.08884516 51.16396722 -73.78312989 45.18237711 -70.5 39.1875 C-69.78326409 37.88082593 -69.06646759 36.5741851 -68.34960938 35.26757812 C-67.31653811 33.38458067 -66.28460617 31.50101982 -65.25708008 29.61499023 C-49.37577024 0.46514102 -49.37577024 0.46514102 -32.75 -6.0625 C-21.26549305 -8.4371161 -9.71547523 -7.06580017 0 0 Z " fill="#326CE5" transform="translate(1076.75,1270.0625)"/>
<path d="M0 0 C8.87360014 7.05854557 14.11271177 14.66269782 16.48828125 25.88671875 C18.10275014 40.07958703 12.09172038 53.67124012 6.52664185 66.40103149 C5.09085249 69.68613427 3.68267244 72.9828766 2.27235413 76.27897644 C1.53385628 78.00447809 0.79405104 79.72942076 0.05296326 81.45381165 C-3.79886227 90.42649115 -7.49910057 99.45921246 -11.1875 108.5 C-12.5198945 111.759499 -13.85352474 115.01849141 -15.1875 118.27734375 C-15.52001266 119.08987106 -15.85252533 119.90239838 -16.19511414 120.73954773 C-19.99799392 130.02542816 -23.8408532 139.29468248 -27.6875 148.5625 C-28.03980682 149.41139801 -28.39211365 150.26029602 -28.75509644 151.13491821 C-30.53925357 155.43355257 -32.32394044 159.73196671 -34.10888672 164.03027344 C-36.59732578 170.02322284 -39.08300321 176.01731615 -41.56771851 182.0118103 C-43.32438778 186.24981211 -45.08193794 190.48744271 -46.84179688 194.72412109 C-50.18546782 202.77640347 -53.51865228 210.83266193 -56.82223511 218.90148926 C-58.39437026 222.73984157 -59.97139646 226.57617537 -61.54882812 230.41235352 C-62.30405643 232.25297962 -63.05685018 234.09460665 -63.80712891 235.93725586 C-64.84326011 238.48152325 -65.88750047 241.02231581 -66.93359375 243.5625 C-67.24111069 244.32389282 -67.54862762 245.08528564 -67.86546326 245.86975098 C-70.02226785 251.07363392 -70.02226785 251.07363392 -72.25 252.1875 C-86.87994984 242.78461807 -100.99892817 232.45382979 -114.25 221.1875 C-114.77867676 220.74229004 -115.30735352 220.29708008 -115.85205078 219.83837891 C-131.80799434 206.40012054 -147.93252582 192.35964327 -161.40234375 176.375 C-162.95400871 174.53793366 -164.53181055 172.73480579 -166.12890625 170.9375 C-174.00819004 162.03399239 -181.28082056 152.81684665 -188.25 143.1875 C-188.7435498 142.50961426 -189.23709961 141.83172852 -189.74560547 141.13330078 C-201.28928704 125.23209542 -211.73239711 108.73044089 -221.04101562 91.42480469 C-222.23554311 89.21425343 -223.45221505 87.01707523 -224.671875 84.8203125 C-247.25 43.62300363 -247.25 43.62300363 -247.25 31.1875 C-234.74592898 28.69255625 -222.20258333 26.46338309 -209.625 24.375 C-208.87145233 24.24986023 -208.11790466 24.12472046 -207.34152222 23.99578857 C-198.07388738 22.45952541 -188.80188331 20.9509971 -179.52734375 19.45703125 C-175.87230578 18.86774432 -172.21735512 18.27791994 -168.5625 17.6875 C-167.65142487 17.54034546 -166.74034973 17.39319092 -165.80166626 17.24157715 C-153.27558334 15.21417005 -140.78066753 13.06143529 -128.30343628 10.75335693 C-116.46219214 8.56406199 -104.59992281 6.53401725 -92.71582031 4.59106445 C-84.88833388 3.3084714 -77.07000236 1.98804606 -69.26177979 0.59231567 C-65.06353975 -0.157676 -60.86347578 -0.89719807 -56.66339111 -1.63677979 C-54.62808012 -1.9982523 -52.59365354 -2.36474795 -50.5602417 -2.73675537 C-16.17571017 -9.02106913 -16.17571017 -9.02106913 0 0 Z " fill="#326CE5" transform="translate(887.25,1178.8125)"/>
<path d="M0 0 C8.8581994 -0.49212219 17.24082321 1.33029763 25.875 3.0625 C26.67200317 3.22061157 27.46900635 3.37872314 28.29016113 3.54162598 C86.47764358 15.12334893 143.16128483 36.8578233 192 71 C192.63180176 71.43634766 193.26360352 71.87269531 193.91455078 72.32226562 C214.93618529 86.84433892 235.00868729 102.81312955 253 121 C251.84348828 124.46953515 251.09844223 124.90133928 248.16015625 126.8984375 C247.35376709 127.45345947 246.54737793 128.00848145 245.71655273 128.58032227 C244.84071533 129.17256592 243.96487793 129.76480957 243.0625 130.375 C241.22049104 131.64067184 239.37936224 132.90762547 237.5390625 134.17578125 C236.60739258 134.81596191 235.67572266 135.45614258 234.71582031 136.11572266 C230.74509487 138.87067222 226.8407409 141.71315159 222.9375 144.5625 C216.8012949 149.02692167 210.59103128 153.36323964 204.3125 157.625 C197.9662776 161.9332679 191.72068231 166.34336798 185.55737305 170.90893555 C178.83747764 175.88113618 171.99792626 180.67995517 165.15722656 185.48388672 C161.60070618 187.98343307 158.05060227 190.49205761 154.5 193 C150.26403277 195.99158195 146.02713382 198.98178834 141.78515625 201.96484375 C134.52765027 207.07231989 127.30413676 212.22035849 120.125 217.4375 C113.14287024 222.5087231 106.05794021 227.4088662 98.91479492 232.25 C93.8368854 235.70426016 88.86328493 239.27026068 83.9375 242.9375 C72.03851326 251.73219967 59.512126 260.12613755 44 258 C32.54233716 255.4085591 23.72939054 249.6841737 17 240 C13.1727969 232.40358172 11.90334734 225.1869217 11.4309082 216.7512207 C11.38175955 215.92373227 11.33261089 215.09624384 11.28197289 214.24368 C11.11819544 211.47123411 10.95948803 208.69852168 10.80078125 205.92578125 C10.68427254 203.93490953 10.56746926 201.94405502 10.45039368 199.95321655 C10.13291938 194.53773978 9.82001092 189.12200815 9.50818634 183.70620346 C9.24680931 179.1732548 8.98328011 174.64043226 8.71979141 170.10760593 C8.02362499 158.12949217 7.3328544 146.15107247 6.64393997 134.17253971 C6.14302149 125.4686756 5.63818785 116.7650446 5.13134766 108.06152344 C4.49353137 97.10808469 3.85939304 86.15444095 3.2300005 75.20051479 C2.89615811 69.39059981 2.56094804 63.58077269 2.22207642 57.77114868 C1.90255591 52.29017031 1.58788075 46.80893375 1.27675438 41.32747269 C1.16237013 39.32581627 1.04636552 37.32425161 0.92852211 35.32279587 C0.2355335 23.53260886 -0.15394244 11.8110488 0 0 Z " fill="#326CE5" transform="translate(1109,622)"/>
<path d="M0 0 C1.51209016 -0.02065841 3.02416086 -0.04278812 4.53620911 -0.0663147 C7.7031303 -0.10511864 10.86828716 -0.11204993 14.03540039 -0.09912109 C17.26878387 -0.08953083 20.49470466 -0.13102374 23.72680664 -0.22216797 C51.89478362 -1.00788941 51.89478362 -1.00788941 58.10595703 4.20605469 C61.08785412 7.54781951 62.85382378 11.2198408 64.70703125 15.2734375 C66.44625741 17.66603266 66.44625741 17.66603266 68.23828125 19.6484375 C68.73312012 20.25357178 69.22795898 20.85870605 69.73779297 21.48217773 C70.2226416 22.07329346 70.70749023 22.66440918 71.20703125 23.2734375 C80.55151918 34.72232539 80.55151918 34.72232539 84.93188477 40.48754883 C86.85734798 43.01212525 88.75294465 45.31595828 91.0859375 47.4765625 C93.44512896 49.75069773 94.54993575 51.19170022 95.70703125 54.2734375 C95.32396744 57.17075538 94.81268327 59.75515 94.08984375 62.56640625 C92.5576991 69.03355117 91.35480435 75.42272852 90.52687073 82.01834106 C86.05188238 116.92547764 86.05188238 116.92547764 77.13916016 124.95458984 C69.13207646 130.918083 59.48015816 133.97288585 50.03222656 136.86181641 C43.79187718 138.80910698 38.1333048 141.78128741 32.33203125 144.7734375 C30.55865309 145.64877472 28.78044753 146.51444667 26.99609375 147.3671875 C26.28146973 147.71458984 25.5668457 148.06199219 24.83056641 148.41992188 C21.51340141 149.75319491 18.90921866 150.6461836 15.40893555 149.56089783 C14.62429932 149.16818192 13.83966309 148.775466 13.03125 148.37084961 C12.1326123 147.92966293 11.23397461 147.48847626 10.30810547 147.03392029 C9.34662598 146.54448441 8.38514648 146.05504852 7.39453125 145.55078125 C6.38922363 145.05308731 5.38391602 144.55539337 4.34814453 144.0426178 C1.12779487 142.44502051 -2.08266208 140.82860665 -5.29296875 139.2109375 C-8.46929139 137.62615473 -11.64747764 136.04524193 -14.82751465 134.46792603 C-16.88050976 133.44347603 -18.92821217 132.40834713 -20.97033691 131.36239624 C-27.0772062 128.24822071 -27.0772062 128.24822071 -33.49804688 125.89111328 C-41.15211703 123.42097548 -41.15211703 123.42097548 -43.27050781 119.43331909 C-45.56701668 113.57064089 -46.64706315 107.4411428 -47.79296875 101.2734375 C-48.18923879 99.36065488 -48.59070332 97.44894116 -48.99731445 95.53833008 C-49.78530301 91.8033973 -50.54519839 88.06463893 -51.27978516 84.31884766 C-52.66863149 77.29298663 -54.39276443 70.35539722 -56.11328125 63.40429688 C-57.06563403 59.29944785 -57.4592958 56.32513906 -56.29296875 52.2734375 C-55.02124023 50.30395508 -55.02124023 50.30395508 -53.4140625 48.41796875 C-52.82681396 47.71857178 -52.23956543 47.0191748 -51.63452148 46.29858398 C-51.00618408 45.56841064 -50.37784668 44.8382373 -49.73046875 44.0859375 C-48.43833767 42.55247454 -47.14666758 41.01862302 -45.85546875 39.484375 C-45.23414063 38.75186523 -44.6128125 38.01935547 -43.97265625 37.26464844 C-42.01656843 34.94577456 -40.11367349 32.58929521 -38.23046875 30.2109375 C-35.88380096 27.25606207 -33.5184671 24.31795594 -31.1328125 21.39453125 C-30.56248291 20.69529541 -29.99215332 19.99605957 -29.40454102 19.27563477 C-28.28263154 17.9013627 -27.15950652 16.52808166 -26.03491211 15.15600586 C-25.24612671 14.18932983 -25.24612671 14.18932983 -24.44140625 13.203125 C-23.97911621 12.63835449 -23.51682617 12.07358398 -23.04052734 11.49169922 C-21.27536254 9.40375174 -21.27536254 9.40375174 -20.29820251 7.29141235 C-15.68117899 -0.80001027 -8.36291859 -0.00119473 0 0 Z " fill="#326CE5" transform="translate(1035.29296875,987.7265625)"/>
</svg>
