<?xml version="1.0" encoding="UTF-8"?>
<svg version="1.1" xmlns="http://www.w3.org/2000/svg" width="512" height="456">
<path d="M0 0 C1.24265625 0.01135986 2.4853125 0.02271973 3.765625 0.03442383 C12.58776326 0.22150042 20.04704854 1.09605416 28.25 4.5 C29.22839844 4.86222656 30.20679688 5.22445313 31.21484375 5.59765625 C56.15590972 15.2660064 77.60130975 32.04461531 96.796875 50.35546875 C98.92221406 52.21344828 100.66694579 53.41970396 103.25 54.5 C103.84425781 53.88253906 104.43851562 53.26507813 105.05078125 52.62890625 C111.1213965 46.42611587 117.41938689 40.86166406 124.25 35.5 C125.2709375 34.6853125 126.291875 33.870625 127.34375 33.03125 C149.7814059 15.28170068 174.60882743 0.45910338 203.8125 0.125 C205.02486328 0.08761719 206.23722656 0.05023437 207.48632812 0.01171875 C220.74477833 -0.11624484 231.43841349 4.62985507 241.25 13.5 C254.42360535 27.98481956 260.27521174 47.97253872 260.48828125 67.328125 C260.49798447 68.06651108 260.50768768 68.80489716 260.51768494 69.56565857 C260.54261012 71.9604949 260.55522422 74.35504677 260.5625 76.75 C260.56511841 77.57102203 260.56773682 78.39204407 260.57043457 79.23794556 C260.57766647 100.49224159 257.31850445 120.8755005 252.25 141.5 C252.94746338 141.72026855 253.64492676 141.94053711 254.36352539 142.16748047 C289.91591473 153.48211636 333.70774889 168.65343666 352.921875 203.53515625 C359.12532352 216.79958882 360.90932619 231.82999893 356.3125 245.9375 C343.77550067 275.906563 312.83051838 292.18195461 284.3984375 304.09375 C274.23479524 308.18702528 263.74298867 311.37002311 253.25 314.5 C253.96507671 321.80557751 255.22810883 328.88227616 256.70117188 336.06835938 C259.35433817 349.45524787 260.60493675 362.5862042 260.56567383 376.20898438 C260.56250114 378.49917786 260.58614945 380.78808825 260.61132812 383.078125 C260.70422522 404.9443463 256.04579248 426.9576716 240.60546875 443.27734375 C228.04095481 455.1334108 214.72094944 456.99265846 198.12890625 456.7734375 C165.94340047 455.73668544 135.24682007 431.24810294 112.5546875 410.5859375 C109.50569294 407.82633903 106.38659453 405.15928666 103.25 402.5 C99.40371834 404.09810294 96.86817855 406.57962952 93.875 409.4375 C87.32720093 415.56806722 80.40999061 421.10437932 73.25 426.5 C72.39535156 427.14799561 72.39535156 427.14799561 71.5234375 427.80908203 C47.00809259 446.27255098 18.58115028 460.57916659 -12.88818359 456.20263672 C-20.98622836 454.63452432 -27.47432533 450.70747472 -33.75 445.5 C-34.37390625 444.99984375 -34.9978125 444.4996875 -35.640625 443.984375 C-48.62794957 432.40108552 -53.96067273 413.14206411 -55.75 396.5 C-56.06726248 390.80923555 -56.13796209 385.13604261 -56.125 379.4375 C-56.12545319 378.65841278 -56.12590637 377.87932556 -56.12637329 377.07662964 C-56.09486062 358.48012679 -53.8434729 340.45391881 -49.3293457 322.39038086 C-48.7835297 319.66728113 -48.63897399 317.2667426 -48.75 314.5 C-49.53310547 314.25467529 -50.31621094 314.00935059 -51.12304688 313.7565918 C-81.15411269 304.2656004 -110.2391518 293.13679508 -133.75 271.5 C-134.43320313 270.89800781 -135.11640625 270.29601562 -135.8203125 269.67578125 C-145.89678249 260.34487967 -153.23761952 247.37466484 -154.19140625 233.5859375 C-154.87799748 215.28258828 -148.94008303 202.09304759 -137.234375 188.16796875 C-133.12880097 183.75899538 -128.56239035 180.10584549 -123.75 176.5 C-122.99460937 175.91863281 -122.23921875 175.33726562 -121.4609375 174.73828125 C-99.57910338 158.60888806 -73.40946326 149.60624523 -47.75 141.5 C-47.92128418 140.70529297 -48.09256836 139.91058594 -48.26904297 139.09179688 C-48.91933103 136.05858289 -49.56337342 133.02411906 -50.20361328 129.98876953 C-50.61161977 128.06314909 -51.02639915 126.13896757 -51.44140625 124.21484375 C-54.5179343 109.58257619 -56.10743457 95.30792695 -56.06567383 80.36376953 C-56.06250156 78.00116227 -56.0861436 75.63979899 -56.11132812 73.27734375 C-56.19564463 53.30159698 -52.55003455 33.41603341 -39.75 17.5 C-39.0075 16.448125 -38.265 15.39625 -37.5 14.3125 C-27.05262235 3.62768195 -14.56225795 -0.22459301 0 0 Z M-21.19140625 31.328125 C-36.88761848 53.20054105 -34.64681691 83.65016532 -30.75 108.90234375 C-29.16681541 118.18871087 -27.02228189 127.36097665 -24.75 136.5 C-24.08919434 136.36948242 -23.42838867 136.23896484 -22.74755859 136.10449219 C-6.62388753 132.94883968 9.46615409 130.37891844 25.7578125 128.296875 C26.87704102 128.15185547 27.99626953 128.00683594 29.14941406 127.85742188 C31.07323706 127.63565204 33.00314642 127.45674404 34.93652344 127.34570312 C38.83436541 127.11102893 40.71764934 126.90774118 43.88671875 124.48046875 C44.66660156 123.49691406 45.44648438 122.51335937 46.25 121.5 C46.7651416 120.86143066 47.2802832 120.22286133 47.81103516 119.56494141 C49.59133444 117.33587849 51.32949102 115.07848966 53.0625 112.8125 C54.31467768 111.18977498 55.56727842 109.56737632 56.8203125 107.9453125 C57.41618164 107.17219727 58.01205078 106.39908203 58.62597656 105.60253906 C67.12982613 94.59304531 76.17867523 84.04235041 85.25 73.5 C83.66596343 69.46876921 80.82527059 66.91249663 77.6875 64.0625 C77.1195874 63.54389404 76.5516748 63.02528809 75.96655273 62.4909668 C55.4738967 44.10068611 26.72199462 21.73793011 -2.25390625 22.2265625 C-9.60837669 23.03221654 -16.23548884 25.76608819 -21.19140625 31.328125 Z M142.25 51.5 C141.33863281 52.21800781 140.42726563 52.93601562 139.48828125 53.67578125 C132.46154543 59.31922243 125.83359993 65.35300879 119.25 71.5 C120.92042097 75.52463999 123.71573076 78.52435727 126.5625 81.75 C136.81746293 93.5648246 146.55959977 105.6563314 155.66943359 118.3815918 C156.22453613 119.15027588 156.77963867 119.91895996 157.3515625 120.7109375 C157.83963379 121.39462402 158.32770508 122.07831055 158.83056641 122.78271484 C161.89897674 126.49499525 164.78538165 126.86995591 169.34765625 127.359375 C170.60900391 127.5027832 171.87035156 127.64619141 173.16992188 127.79394531 C173.84466553 127.86794556 174.51940918 127.9419458 175.21459961 128.01818848 C188.31402847 129.46563497 201.28165371 131.40744715 214.25 133.75 C215.38515549 133.95490051 215.38515549 133.95490051 216.54324341 134.16394043 C220.7809223 134.93147552 225.01634255 135.71053996 229.25 136.5 C241.11909523 85.7746847 241.11909523 85.7746847 229.25 36.5 C223.97008589 28.80367359 218.44783908 24.41228865 209.25 22.5 C185.69476249 18.45211641 159.53819848 37.83869631 142.25 51.5 Z M99.83984375 91.64453125 C94.58109011 96.95301306 89.89829162 102.65497396 85.25 108.5 C84.76321777 109.1098877 84.27643555 109.71977539 83.77490234 110.34814453 C82.2419447 112.27076324 80.71370579 114.19701831 79.1875 116.125 C78.69797852 116.74125244 78.20845703 117.35750488 77.70410156 117.99243164 C75.32252934 120.47878978 75.32252934 120.47878978 74.25 123.5 C92.73 123.5 111.21 123.5 130.25 123.5 C126.45082509 117.80123764 122.90362066 112.63514913 118.4375 107.5625 C117.92268066 106.97130371 117.40786133 106.38010742 116.87744141 105.77099609 C115.83710865 104.57923676 114.79418978 103.38972937 113.74853516 102.20263672 C112.33905532 100.60118472 110.94017276 98.99106473 109.54296875 97.37890625 C108.74503906 96.47011719 107.94710937 95.56132813 107.125 94.625 C106.42117188 93.82320313 105.71734375 93.02140625 104.9921875 92.1953125 C102.91919744 90.17809796 102.14149732 89.77643015 99.83984375 91.64453125 Z M72.38769531 146.54016113 C69.86107856 146.5877013 67.33781801 146.66519701 64.8125 146.7578125 C64.09118896 146.77141815 63.36987793 146.7850238 62.62670898 146.79904175 C59.40182904 146.95397037 57.55113895 147.2672563 54.96899414 149.26293945 C53.26939383 151.4747613 51.67991124 153.68060301 50.18359375 156.03515625 C49.62140137 156.916875 49.05920898 157.79859375 48.47998047 158.70703125 C47.88846191 159.64933594 47.29694336 160.59164062 46.6875 161.5625 C46.06762207 162.54476562 45.44774414 163.52703125 44.80908203 164.5390625 C35.08718826 180.03809602 26.18103654 195.98275027 17.5390625 212.10498047 C16.4147705 214.1938639 15.27308004 216.27180646 14.125 218.34765625 C13.568125 219.38792969 13.01125 220.42820312 12.4375 221.5 C11.74720703 222.7684375 11.74720703 222.7684375 11.04296875 224.0625 C9.76252329 227.99845058 10.76578342 231.34149848 12.3347168 235.09521484 C12.78500244 235.95840332 13.23528809 236.8215918 13.69921875 237.7109375 C14.2104126 238.69626465 14.72160645 239.6815918 15.24829102 240.69677734 C15.80572998 241.74559082 16.36316895 242.7944043 16.9375 243.875 C17.5162085 244.97408691 18.09491699 246.07317383 18.69116211 247.20556641 C26.80173435 262.47188475 35.56255592 277.35873582 44.75 292 C45.21801025 292.74685059 45.68602051 293.49370117 46.16821289 294.26318359 C47.50233422 296.36078649 48.87382713 298.42982591 50.25 300.5 C50.71019531 301.24894531 51.17039063 301.99789062 51.64453125 302.76953125 C54.18214686 306.62041424 55.3287444 308.25740924 59.9140625 309.46484375 C61.35884981 309.50552754 62.80471369 309.51459571 64.25 309.5 C66.02892146 309.60071286 67.80755735 309.70654855 69.5859375 309.81640625 C71.59873065 309.90384617 73.61177739 309.9855797 75.625 310.0625 C76.71425781 310.1042334 77.80351562 310.1459668 78.92578125 310.18896484 C95.58356647 310.773323 112.22002985 310.70061202 128.875 310.0625 C129.89980469 310.02334473 130.92460937 309.98418945 131.98046875 309.94384766 C134.73947157 309.82399084 137.49378914 309.67170696 140.25 309.5 C141.41619873 309.44392578 141.41619873 309.44392578 142.60595703 309.38671875 C145.77233874 309.14264803 147.81343768 308.8629656 150.2890625 306.8046875 C150.81242188 306.00289062 151.33578125 305.20109375 151.875 304.375 C152.53242188 303.37984375 153.18984375 302.3846875 153.8671875 301.359375 C154.66435108 300.07470718 155.45826439 298.78802016 156.25 297.5 C156.75305664 296.69626953 157.25611328 295.89253906 157.77441406 295.06445312 C166.29726284 281.42590259 174.45844919 267.56870158 182.25 253.5 C183.09183838 251.98817139 183.09183838 251.98817139 183.95068359 250.44580078 C185.67511899 247.32871886 187.37265116 244.19844557 189.0625 241.0625 C189.86421631 239.61423828 189.86421631 239.61423828 190.68212891 238.13671875 C193.42917649 233.02827149 193.42917649 233.02827149 194.33984375 227.3984375 C192.80321601 223.31177877 190.99453549 219.44487849 189 215.5625 C188.55744873 214.69206055 188.11489746 213.82162109 187.65893555 212.92480469 C177.85928915 193.85723627 166.8436663 175.52413415 155.25 157.5 C154.40671143 156.18467285 154.40671143 156.18467285 153.54638672 154.84277344 C152.7480542 153.6173584 152.7480542 153.6173584 151.93359375 152.3671875 C151.4636499 151.6438623 150.99370605 150.92053711 150.50952148 150.17529297 C149.33849165 148.35834106 149.33849165 148.35834106 147.25 147.5 C144.76396772 147.25635359 142.30529381 147.07616309 139.8125 146.9453125 C139.02609131 146.90326691 138.23968262 146.86122131 137.42944336 146.81790161 C126.89537446 146.31639315 116.35313951 146.35073362 105.80957031 146.36962891 C102.255816 146.37499122 98.70218802 146.36964998 95.1484375 146.36328125 C87.56030723 146.35918598 79.97496449 146.4337038 72.38769531 146.54016113 Z M11.33203125 152.77734375 C10.59297043 152.90814835 9.85390961 153.03895294 9.092453 153.17372131 C7.53979887 153.44956701 5.98758179 153.72788302 4.43579102 154.00854492 C2.0603966 154.43788018 -0.31631334 154.85921229 -2.69335938 155.27929688 C-4.20581239 155.54901288 -5.71818514 155.8191795 -7.23046875 156.08984375 C-7.93987106 156.21592514 -8.64927338 156.34200653 -9.38017273 156.47190857 C-12.2589766 156.99465969 -14.96935135 157.57311712 -17.75 158.5 C-16.25329997 166.42570698 -13.60546941 173.71971924 -10.75 181.25 C-10.29882812 182.45527344 -9.84765625 183.66054687 -9.3828125 184.90234375 C-7.55031322 189.78720131 -5.70229664 194.66160273 -3.75 199.5 C-3.09 199.5 -2.43 199.5 -1.75 199.5 C-1.35844727 198.78158936 -0.96689453 198.06317871 -0.56347656 197.32299805 C1.28464603 193.94097685 3.13953378 190.56274201 5 187.1875 C5.33581085 186.57818634 5.6716217 185.96887268 6.01760864 185.34109497 C10.96643286 176.38487835 16.13245191 167.6263485 21.74316406 159.06323242 C24.31689415 155.57210815 24.31689415 155.57210815 25.25 151.5 C20.48157608 151.34803873 16.00666515 151.92589819 11.33203125 152.77734375 Z M179.25 151.5 C180.6254374 155.2044168 182.31515056 158.45510745 184.375 161.82421875 C184.9949585 162.84523682 185.61491699 163.86625488 186.25366211 164.91821289 C186.91245361 165.99707764 187.57124512 167.07594238 188.25 168.1875 C194.49735216 178.49754743 200.49958523 188.90570644 206.25 199.5 C206.91 199.5 207.57 199.5 208.25 199.5 C209.76404677 195.53566387 211.27557499 191.57037892 212.78491211 187.60424805 C213.29726442 186.25894117 213.81026944 184.91388267 214.32397461 183.5690918 C219.7746183 171.31608004 219.7746183 171.31608004 222.25 158.5 C200.95270201 153.38113441 200.95270201 153.38113441 179.25 151.5 Z M245.25 164.5 C244.94408936 165.36351074 244.63817871 166.22702148 244.32299805 167.11669922 C242.86913824 171.20569684 241.40661605 175.2914622 239.9375 179.375 C239.67077484 180.11675476 239.40404968 180.85850952 239.12924194 181.6227417 C235.01246585 193.03221135 230.58251101 204.2311289 225.64135742 215.31201172 C221.53307513 223.87814675 221.53307513 223.87814675 222.05639648 233.03564453 C223.29995355 236.15495954 224.66161821 239.19814428 226.0625 242.25 C230.27189385 251.77429884 234.17950845 261.34235159 237.75 271.125 C238.15839111 272.24358398 238.56678223 273.36216797 238.98754883 274.51464844 C239.74086474 276.58496891 240.49253718 278.65588849 241.2421875 280.72753906 C242.55125563 284.32874489 243.8960343 287.9154626 245.25 291.5 C252.24036838 290.29000296 258.78279111 288.51133492 265.4375 286.0625 C266.84394775 285.54623047 266.84394775 285.54623047 268.27880859 285.01953125 C283.6271801 279.23557038 299.1417857 272.491017 312.25 262.5 C313.19875 261.79359375 314.1475 261.0871875 315.125 260.359375 C324.98341898 252.69766894 333.87768483 243.59223451 335.625 230.7421875 C336.1269936 219.47870612 330.66909466 211.72513849 323.54296875 203.5390625 C303.73067432 182.43375517 272.53905115 171.58967142 245.25 164.5 Z M-119.75 204.5 C-126.04932327 210.90816686 -130.81119853 218.37015688 -131.0625 227.5625 C-130.88550067 238.78720727 -125.43028989 246.64390948 -117.75 254.5 C-108.78391664 262.80001505 -98.57377233 268.9468397 -87.75 274.5 C-86.6053125 275.09296875 -85.460625 275.6859375 -84.28125 276.296875 C-76.30982528 280.21077272 -68.0905426 283.33440933 -59.75 286.375 C-58.67500244 286.76880859 -57.60000488 287.16261719 -56.49243164 287.56835938 C-51.22726946 289.44532846 -46.32797845 291.00875758 -40.75 291.5 C-37.83694913 284.40532725 -35.22119998 277.23732226 -32.6875 270 C-28.98239999 259.47281108 -24.77552236 249.23402942 -20.11694336 239.09179688 C-16.71203667 231.53616765 -16.71203667 231.53616765 -17.75 223.5 C-19.27538884 219.54778649 -20.96514703 215.68233816 -22.6875 211.8125 C-28.34618103 198.80828091 -33.15647979 185.63012846 -37.77954102 172.2253418 C-38.70679912 169.62132112 -39.70529504 167.05887148 -40.75 164.5 C-66.77373862 164.5 -102.11555915 187.12159459 -119.75 204.5 Z M-2.75 256.5 C-6.26996288 263.03941822 -8.80470391 269.79254995 -11.26928711 276.79174805 C-11.94057875 278.69623457 -12.62106836 280.59725211 -13.30273438 282.49804688 C-15.95633225 289.87982238 -15.95633225 289.87982238 -17.75 297.5 C-13.63962549 298.95682694 -9.64733845 299.99145284 -5.35546875 300.75390625 C-3.55045898 301.07584961 -3.55045898 301.07584961 -1.70898438 301.40429688 C-0.46439453 301.62150391 0.78019531 301.83871094 2.0625 302.0625 C3.29548828 302.28357422 4.52847656 302.50464844 5.79882812 302.73242188 C12.27316384 303.87657837 18.70519255 304.87028339 25.25 305.5 C23.97189066 302.11222683 22.50821561 299.06763249 20.6328125 295.97265625 C20.11356201 295.10785645 19.59431152 294.24305664 19.05932617 293.35205078 C18.50349854 292.43149902 17.9476709 291.51094727 17.375 290.5625 C10.68392234 279.37575121 4.40687313 267.98768093 -1.75 256.5 C-2.08 256.5 -2.41 256.5 -2.75 256.5 Z M206.25 256.5 C205.89397705 257.17764404 205.5379541 257.85528809 205.17114258 258.5534668 C198.23727802 271.7059644 191.18376073 284.64228016 183.16333008 297.17456055 C182.64794678 297.98320557 182.13256348 298.79185059 181.6015625 299.625 C181.14604004 300.32882812 180.69051758 301.03265625 180.22119141 301.7578125 C179.08769656 303.45871729 179.08769656 303.45871729 179.25 305.5 C200.34261924 302.53135994 200.34261924 302.53135994 221.25 298.5 C222.49008711 294.77973868 221.83842971 293.59402173 220.5546875 289.94140625 C220.16796875 288.83216797 219.78125 287.72292969 219.3828125 286.58007812 C218.96773438 285.41927734 218.55265625 284.25847656 218.125 283.0625 C217.5371875 281.37350586 217.5371875 281.37350586 216.9375 279.65039062 C213.52099139 266.52503977 213.52099139 266.52503977 206.25 256.5 Z M-24.75 320.5 C-32.05890873 350.17807331 -41.27510203 389.93779306 -25.75 418.5 C-21.55545391 425.15563181 -16.56274564 430.55404844 -8.94140625 433.10546875 C13.42839493 437.13283046 34.3332636 424.97517119 52.23242188 412.91992188 C64.44767941 404.32312398 75.76243967 394.11007856 86.25 383.5 C85.77691406 383.05011719 85.30382812 382.60023438 84.81640625 382.13671875 C79.64357126 377.10505275 75.06247794 371.76499185 70.56298828 366.12939453 C69.13976353 364.36319855 67.69490917 362.61635136 66.24609375 360.87109375 C65.74520233 360.2637439 65.24431091 359.65639404 64.72824097 359.03063965 C63.62477544 357.69418976 62.51661963 356.36158946 61.40240479 355.03408813 C58.45173966 351.45244617 55.81465442 347.9044787 53.50512695 343.87475586 C47.81184812 334.13525599 47.81184812 334.13525599 38.40087891 328.54956055 C32.88034983 327.3402128 27.31690947 326.96363261 21.6875 326.625 C18.85198411 326.37720575 16.01928912 326.10600672 13.1859436 325.83465576 C11.31824688 325.65925989 9.44952103 325.49447956 7.57992554 325.34063721 C-1.37769196 324.57334439 -10.06079035 322.83420985 -18.81602478 320.83346558 C-21.07988659 320.38672161 -21.07988659 320.38672161 -24.75 320.5 Z M220.5078125 321.41796875 C219.54262695 321.61664551 218.57744141 321.81532227 217.58300781 322.02001953 C215.3863026 322.47708133 213.19037194 322.93787718 210.99511719 323.40185547 C203.8275867 324.83825559 196.85329817 325.76370558 189.5703125 326.27734375 C171.57889 326.76796907 171.57889 326.76796907 156.16796875 334.48046875 C153.05918028 338.3565653 150.76645497 342.57382235 148.57470703 347.01953125 C146.43096345 351.03361802 143.565642 354.36211257 140.625 357.8125 C139.56053195 359.10622317 138.49672058 360.40048695 137.43359375 361.6953125 C133.27979101 366.6809011 129.05700771 371.60667777 124.80859375 376.51171875 C122.56402845 379.13323395 120.38661529 381.79026908 118.25 384.5 C121.56299439 387.52291654 124.90175397 390.51625975 128.25 393.5 C128.76933105 393.9655127 129.28866211 394.43102539 129.82373047 394.91064453 C151.24033725 414.02774303 177.63107218 434.24473145 207.58203125 433.7109375 C215.3938404 433.26169608 220.95410211 430.19828229 226.25 424.5 C236.22590762 412.11324803 237.64680562 394.72433082 237.625 379.4375 C237.62338867 378.23375732 237.62177734 377.03001465 237.62011719 375.78979492 C237.37144681 357.06272132 234.04201086 338.57199839 229.25 320.5 C226.002377 320.5 223.62526365 320.74785959 220.5078125 321.41796875 Z M74.25 332.5 C76.2267504 336.45350081 78.58378545 339.69015032 81.3125 343.125 C82.04460693 344.0521582 82.04460693 344.0521582 82.79150391 344.99804688 C86.46444239 349.60862982 90.311188 354.02662465 94.30078125 358.3671875 C96.71263055 361.00620497 98.99050147 363.73029213 101.25 366.5 C104.13049818 365.21202564 106.01335974 363.94427451 108.0625 361.55078125 C108.57530518 360.95676514 109.08811035 360.36274902 109.61645508 359.75073242 C110.1555249 359.11111572 110.69459473 358.47149902 111.25 357.8125 C112.09244263 356.82503784 112.09244263 356.82503784 112.9519043 355.81762695 C117.04748159 350.98957251 121.07847278 346.10791814 125.0625 341.1875 C125.58392578 340.5478833 126.10535156 339.9082666 126.64257812 339.24926758 C129.3451089 336.24641585 129.3451089 336.24641585 130.25 332.5 C111.77 332.5 93.29 332.5 74.25 332.5 Z " fill="#60DAFB" transform="translate(153.75,-0.5)"/>
<path d="M0 0 C10.79842791 7.0353394 17.35896452 16.15026044 21.640625 28.1796875 C24.43513378 41.63673947 22.05226769 54.65318124 15.078125 66.3671875 C8.25288569 76.30923799 -1.43679746 82.82160476 -13.171875 85.8671875 C-26.0188018 88.11250624 -38.46460021 86.25973169 -49.4296875 79.078125 C-50.16960937 78.55476563 -50.90953125 78.03140625 -51.671875 77.4921875 C-52.62707031 76.83089844 -52.62707031 76.83089844 -53.6015625 76.15625 C-62.60874372 69.23072844 -67.57999722 58.43431745 -69.671875 47.4921875 C-71.01691494 34.34684872 -68.750493 22.39230172 -60.6484375 11.7734375 C-45.36816794 -5.86228864 -20.79819571 -11.73699349 0 0 Z " fill="#60DAFB" transform="translate(279.671875,187.5078125)"/>
</svg>
