<?xml version="1.0" encoding="UTF-8"?>
<svg version="1.1" xmlns="http://www.w3.org/2000/svg" width="148" height="148">
<path d="M0 0 C48.84 0 97.68 0 148 0 C148 48.84 148 97.68 148 148 C99.16 148 50.32 148 0 148 C0 99.16 0 50.32 0 0 Z " fill="#6CB52D" transform="translate(0,0)"/>
<path d="M0 0 C2 1 2 1 2.9296875 3.34375 C4.86220338 9.79611708 6.62081187 16.26221021 8.1875 22.8125 C8.35427246 23.50472656 8.52104492 24.19695313 8.69287109 24.91015625 C13.23212958 44.466756 14.10594158 67.70749275 4.0625 85.5625 C1.70662514 89.16387478 -0.71522063 92.18447483 -4 95 C-4.56203125 95.49113281 -5.1240625 95.98226562 -5.703125 96.48828125 C-21.54342213 109.46315878 -43.67335654 107.26876142 -62.875 107.125 C-65.22004826 107.11494933 -67.56510069 107.10582718 -69.91015625 107.09765625 C-75.60686316 107.07581009 -81.30341166 107.04249819 -87 107 C-84.39255919 104.39255919 -81.55325035 103.75981609 -78.11328125 102.71484375 C-76.69191902 102.26814206 -75.27095314 101.82017769 -73.8503418 101.37109375 C-73.10811371 101.1376123 -72.36588562 100.90413086 -71.60116577 100.66357422 C-47.0594003 92.87775271 -26.57217255 81.83864614 -13.890625 58.1640625 C-10.60521973 52.77862437 -10.60521973 52.77862437 -9 47 C-9.6290625 47.9178125 -10.258125 48.835625 -10.90625 49.78125 C-29.40695781 76.46405326 -53.85628609 87.59347245 -84.6875 94.875 C-85.63246338 95.10268066 -86.57742676 95.33036133 -87.55102539 95.56494141 C-88.4455542 95.76780762 -89.34008301 95.97067383 -90.26171875 96.1796875 C-91.05537842 96.36257324 -91.84903809 96.54545898 -92.66674805 96.73388672 C-96.96500622 97.22411392 -99.49290872 96.34151046 -103.0625 93.9375 C-108.13027579 89.44442043 -110.63621443 83.01356862 -111.23828125 76.37109375 C-111.51933495 65.26207661 -108.57174147 56.22795906 -101 48 C-91.91438476 38.6572447 -81.90397602 34.22537435 -68.84375 33.32421875 C-67.47650904 33.21747943 -66.10932308 33.11003376 -64.7421875 33.00195312 C-62.63486143 32.84285924 -60.52761213 32.68933671 -58.41894531 32.54907227 C-38.63991441 31.20135134 -20.88552323 24.81759794 -7 10 C-4.48799143 6.77091897 -2.18145306 3.45998681 0 0 Z " fill="#FDFEFC" transform="translate(133,17)"/>
<path d="M0 0 C22.11 0 44.22 0 67 0 C67 0.33 67 0.66 67 1 C66.3915625 1.07476562 65.783125 1.14953125 65.15625 1.2265625 C52.00881834 3.19867725 39.69356486 8.07624374 29 16 C28.29617187 16.52078125 27.59234375 17.0415625 26.8671875 17.578125 C17.35465704 25.26275745 10.75183808 35.86423356 6 47 C5.58621094 47.90105469 5.17242187 48.80210938 4.74609375 49.73046875 C-2.34299412 68.03365381 1.41377218 89.58520631 9 107 C12.45801957 113.79185611 16.77864236 119.46968629 22 125 C22.680625 123.824375 22.680625 123.824375 23.375 122.625 C25 120 25 120 27 118 C33.46153846 118.46153846 33.46153846 118.46153846 36 121 C36.375 123.875 36.375 123.875 36 127 C34.1329009 129.30275556 32.64352259 130.67823871 30 132 C43.15204623 141.44998877 56.66527977 146.60190866 72.9375 146.375 C73.99437012 146.36484863 75.05124023 146.35469727 76.14013672 146.34423828 C83.46634287 146.19823479 90.10308695 145.62360957 97 143 C98.68222656 142.39671875 98.68222656 142.39671875 100.3984375 141.78125 C108.99553968 138.4244639 115.96429979 133.94032174 123 128 C123.65484375 127.45859375 124.3096875 126.9171875 124.984375 126.359375 C137.00602401 115.44062957 145.14840782 97.7626157 146.22143555 81.68139648 C146.3415449 77.82790949 146.38696688 73.97989599 146.375 70.125 C146.37368576 69.09172073 146.37368576 69.09172073 146.37234497 68.03756714 C146.3243545 56.57714325 145.19095049 46.02523959 142 35 C141.7107666 33.97068359 141.4215332 32.94136719 141.12353516 31.88085938 C139.15684489 24.89763973 137.11349335 17.94013477 135 11 C133.07326499 13.56276725 131.17137058 16.13753324 129.3125 18.75 C128.1678125 20.35875 128.1678125 20.35875 127 22 C124.13644541 20.14255919 121.35870502 18.28382384 118.6796875 16.1640625 C106.96725728 7.03885567 94.4323712 3.33374513 80 1 C80 0.67 80 0.34 80 0 C102.44 0 124.88 0 148 0 C148 48.84 148 97.68 148 148 C99.16 148 50.32 148 0 148 C0 99.16 0 50.32 0 0 Z " fill="#FCFDFB" transform="translate(0,0)"/>
<path d="M0 0 C2.29496455 2.29496455 2.6778491 3.69285687 3.5859375 6.77734375 C3.87525146 7.75517822 4.16456543 8.7330127 4.46264648 9.74047852 C5.71414287 14.1259067 6.95302031 18.5140092 8.15576172 22.91308594 C8.66524364 24.77598049 9.18269661 26.63675693 9.71533203 28.49316406 C12.78039836 39.31912035 13.36076347 49.93197528 13.375 61.125 C13.37708466 61.79653107 13.37916931 62.46806213 13.38131714 63.15994263 C13.37867858 70.65058301 13.29868854 77.82624046 11 85 C9.515 85.495 9.515 85.495 8 86 C6.85475532 82.33250816 7.48804475 80.12653055 8.49755859 76.44482422 C9.53757155 71.38423641 9.33763873 66.20875809 9.3125 61.0625 C9.30404053 59.25724854 9.30404053 59.25724854 9.29541016 57.41552734 C9.16712981 47.95199439 8.34315871 39.17838334 6 30 C5.77473633 29.10925781 5.54947266 28.21851562 5.31738281 27.30078125 C4.56913895 24.40170309 3.7930189 21.51213809 3 18.625 C2.62657471 17.25819092 2.62657471 17.25819092 2.24560547 15.86376953 C1.87653076 14.58928955 1.87653076 14.58928955 1.5 13.2890625 C1.2834375 12.53318848 1.066875 11.77731445 0.84375 10.99853516 C-0.0925204 8.780853 -1.20245829 7.57472143 -3 6 C-2.01 4.02 -1.02 2.04 0 0 Z " fill="#74B936" transform="translate(134,9)"/>
<path d="M0 0 C3.375 0.875 3.375 0.875 5.375 2.875 C5.85097963 6.52417716 5.87603477 8.21291834 3.625 11.1875 C0.04166667 13.875 0.04166667 13.875 -2.625 13.875 C-5.375 12.3125 -5.375 12.3125 -7.625 9.875 C-8.31460811 6.19709009 -8.08327813 4.58991389 -6.0625 1.4375 C-3.625 -0.125 -3.625 -0.125 0 0 Z " fill="#F2F8EE" transform="translate(30.625,118.125)"/>
<path d="M0 0 C0.66 0 1.32 0 2 0 C4.48351814 5.55139349 3.85330338 10.16524985 3 16 C2.67 16 2.34 16 2 16 C1.34 10.72 0.68 5.44 0 0 Z " fill="#6AB525" transform="translate(142,45)"/>
<path d="M0 0 C0.66 0.66 1.32 1.32 2 2 C1.625 5.625 1.625 5.625 1 9 C-0.32 8.01 -1.64 7.02 -3 6 C-2.01 4.02 -1.02 2.04 0 0 Z " fill="#78BA3D" transform="translate(134,9)"/>
<path d="M0 0 C0.66 0 1.32 0 2 0 C2 0.99 2 1.98 2 3 C1.01 2.67 0.02 2.34 -1 2 C-0.67 1.34 -0.34 0.68 0 0 Z M-3 1 C-2.34 1.66 -1.68 2.32 -1 3 C-1.99 3.99 -2.98 4.98 -4 6 C-4.66 5.67 -5.32 5.34 -6 5 C-5.01 3.68 -4.02 2.36 -3 1 Z " fill="#72B836" transform="translate(139,102)"/>
</svg>
