<?xml version="1.0" encoding="iso-8859-1"?>
<!-- Uploaded to: SVG Repo, www.svgrepo.com, Generator: SVG Repo Mixer Tools -->
<svg version="1.1" id="Layer_1" xmlns="http://www.w3.org/2000/svg" xmlns:xlink="http://www.w3.org/1999/xlink" 
	 viewBox="0 0 512 512" xml:space="preserve">
<path style="fill:#FFBA00;" d="M265.426,87.961l-10.449,131.274l36.762-10.449c2.013-9.792,6.879-18.544,13.697-25.338l0.004,0.004
	c9.967-10.131,16.115-24.029,16.115-39.362C321.556,113.091,296.426,87.961,265.426,87.961z"/>
<path style="fill:#FDE09C;" d="M209.298,144.091c0,15.334,6.148,29.231,16.115,39.362l0.003-0.004
	c6.818,6.794,11.685,15.546,13.697,25.338l26.313,10.449V87.961C234.428,87.961,209.298,113.091,209.298,144.091z"/>
<polygon style="fill:#707070;" points="281.102,145.758 265.427,145.758 254.978,188.16 265.427,230.562 281.102,230.562 "/>
<rect x="249.753" y="145.759" style="fill:#B4B4B4;" width="15.674" height="84.808"/>
<g>
	<rect x="121.34" y="128.413" style="fill:#FFBA00;" width="51.526" height="31.348"/>
	
		<rect x="155.989" y="44.74" transform="matrix(-0.7071 -0.7071 0.7071 -0.7071 267.551 231.651)" style="fill:#FFBA00;" width="51.526" height="31.348"/>
</g>
<g>
	
		<rect x="333.422" y="34.652" transform="matrix(-0.7071 -0.7071 0.7071 -0.7071 553.2249 349.9823)" style="fill:#FF8E00;" width="31.348" height="51.526"/>
	<rect x="357.989" y="128.413" style="fill:#FF8E00;" width="51.526" height="31.348"/>
</g>
<rect x="249.753" style="fill:#FFBA00;" width="15.674" height="51.526"/>
<rect x="265.427" style="fill:#FF8E00;" width="15.674" height="51.526"/>
<path style="fill:#FF0F4D;" d="M369.516,208.786H248.473l-20.899,137.068L248.473,512h94.52V389.319
	c31.276-23.829,51.468-61.461,51.468-103.815C394.461,256.828,385.2,230.317,369.516,208.786z"/>
<path style="fill:#FF6E7A;" d="M158.528,208.786c-15.685,21.531-24.946,48.04-24.946,76.718l-31.097,89.42h31.097v76.477h69.236
	v60.597h45.656V208.786H158.528z"/>
</svg>