<?xml version="1.0" encoding="UTF-8"?>
<svg version="1.1" xmlns="http://www.w3.org/2000/svg" width="2048" height="2048">
<path d="M0 0 C1.26743042 -0.00701431 2.53486084 -0.01402863 3.84069824 -0.02125549 C7.90816129 -0.03865895 11.97547648 -0.04568969 16.04296875 -0.046875 C16.73651333 -0.04731686 17.43005791 -0.04775871 18.14461899 -0.04821396 C39.32884464 -0.05528994 60.20527677 0.34117497 81.23046875 3.203125 C82.53371094 3.36941406 83.83695313 3.53570312 85.1796875 3.70703125 C156.40798492 12.83431979 225.87416557 35.71471454 287.23046875 73.203125 C287.99665527 73.66702637 288.7628418 74.13092773 289.55224609 74.60888672 C309.44239398 86.67074749 328.44637863 100.20328594 346.23046875 115.203125 C346.76881348 115.65655273 347.3071582 116.10998047 347.86181641 116.57714844 C349.63420143 118.07320729 351.401973 119.5745307 353.16796875 121.078125 C353.69277832 121.52349609 354.21758789 121.96886719 354.75830078 122.42773438 C364.71465225 130.96260495 374.18111839 139.98675375 383.43237305 149.2746582 C385.05599104 150.90369072 386.68496478 152.52723228 388.31445312 154.15039062 C393.82959354 159.6617114 399.19889228 165.24144096 404.23046875 171.203125 C405.10726724 172.2129397 405.98482588 173.22209507 406.86328125 174.23046875 C414.33891552 182.9598536 421.35765877 191.99335659 428.23046875 201.203125 C428.76430176 201.91597656 429.29813477 202.62882813 429.84814453 203.36328125 C482.57376699 274.07047438 512.81625254 358.14631248 528.23046875 503.203125 C528.25753906 504.30744873 528.25753906 504.30744873 528.28515625 505.43408203 C528.37284163 509.69449531 528.32624515 513.94315709 528.23046875 518.203125 C528.21258301 519.07565918 528.19469727 519.94819336 528.17626953 520.84716797 C526.12987922 610.96302749 500.6650408 697.96100035 454.23046875 775.203125 C453.77671875 775.96109375 453.32296875 776.7190625 452.85546875 777.5 C439.96895762 798.92382476 425.09336537 819.28333416 408.77734375 838.21875 C406.36631738 841.04394041 404.04444398 843.92334759 401.73046875 846.828125 C397.721509 851.76388727 393.33249805 856.19962552 388.796875 860.640625 C386.01549979 863.41776676 383.45825685 866.32278888 380.90234375 869.3046875 C376.17408875 874.67368733 370.97169619 879.5084532 365.55078125 884.1640625 C363.19007531 886.23862227 360.89103612 888.36781164 358.59472656 890.51293945 C352.3427576 896.34889942 345.93442074 901.88588089 339.23046875 907.203125 C338.17566091 908.05063149 337.1209785 908.89829412 336.06640625 909.74609375 C260.39070208 970.23367526 168.54380477 1007.93455934 17.23046875 1021.203125 C17.23046875 956.193125 17.23046875 891.183125 17.23046875 824.203125 C-47.44953125 824.203125 -112.12953125 824.203125 -178.76953125 824.203125 C-178.76953125 874.033125 -178.76953125 923.863125 -178.76953125 975.203125 C-228.92953125 975.203125 -279.08953125 975.203125 -330.76953125 975.203125 C-330.76953125 925.373125 -330.76953125 875.543125 -330.76953125 824.203125 C-372.67953125 824.203125 -414.58953125 824.203125 -457.76953125 824.203125 C-457.76953125 782.293125 -457.76953125 740.383125 -457.76953125 697.203125 C-415.52953125 697.203125 -373.28953125 697.203125 -329.76953125 697.203125 C-329.76953125 738.783125 -329.76953125 780.363125 -329.76953125 823.203125 C-280.26953125 823.203125 -230.76953125 823.203125 -179.76953125 823.203125 C-179.76953125 758.193125 -179.76953125 693.183125 -179.76953125 626.203125 C-114.42953125 626.203125 -49.08953125 626.203125 18.23046875 626.203125 C18.23046875 690.883125 18.23046875 755.563125 18.23046875 822.203125 C64.93684903 819.08936631 109.12201334 812.1746249 151.23046875 791.203125 C152.14344727 790.75211426 153.05642578 790.30110352 153.99707031 789.83642578 C172.09133798 780.83198149 189.3552289 770.75619209 205.23046875 758.203125 C206.44669922 757.25759766 206.44669922 757.25759766 207.6875 756.29296875 C210.2284705 754.29385303 212.73293556 752.2562442 215.23046875 750.203125 C216.23078125 749.38972656 217.23109375 748.57632813 218.26171875 747.73828125 C232.8281563 735.69617195 246.76724978 722.25500823 258.23046875 707.203125 C259.29960266 705.87040199 260.3714692 704.53986883 261.4453125 703.2109375 C269.88432889 692.68860066 277.32641502 681.78591704 284.23046875 670.203125 C284.63072266 669.53635742 285.03097656 668.86958984 285.44335938 668.18261719 C328.04674235 596.65683538 338.4435605 510.9588463 318.6328125 430.61328125 C309.21507517 393.74824411 294.53549098 358.21313428 272.23046875 327.203125 C271.61196045 326.34025879 271.61196045 326.34025879 270.98095703 325.45996094 C268.46984938 321.98272404 265.87765791 318.57756393 263.23046875 315.203125 C262.17472656 313.85734375 262.17472656 313.85734375 261.09765625 312.484375 C248.17164332 296.36160619 233.59840572 280.84433894 217.23046875 268.203125 C215.94247081 267.18649877 214.65472877 266.16954829 213.3671875 265.15234375 C197.00620912 252.32588575 179.71834129 241.70191509 161.23046875 232.203125 C160.45493652 231.80383789 159.6794043 231.40455078 158.88037109 230.99316406 C85.89811668 194.17472637 -4.55513996 189.67612176 -81.64038086 214.98828125 C-119.15871248 227.84018786 -157.41985504 247.57343119 -186.46875 275.04296875 C-188.42416532 276.87886803 -190.4169189 278.63001293 -192.44921875 280.37890625 C-204.1585263 290.58900886 -215.38145941 301.8101911 -224.76953125 314.203125 C-225.79036334 315.50883252 -226.81261939 316.81342743 -227.8359375 318.1171875 C-272.06030085 374.76791019 -291.91499026 439.83960031 -294.76953125 511.203125 C-360.43953125 511.203125 -426.10953125 511.203125 -493.76953125 511.203125 C-493.76953125 415.2913946 -467.22752188 322.75146403 -396.31933594 210.27929688 C-394.77155885 208.20584125 -393.24176275 206.12009873 -391.71484375 204.03125 C-383.1195014 192.33635826 -373.77067815 181.40598088 -364 170.6796875 C-362.79191423 169.3383103 -361.58992159 167.99079386 -360.42407227 166.61254883 C-354.99217242 160.23509293 -349.07508975 154.35742425 -343.14526367 148.44848633 C-341.33592192 146.64450415 -339.53198806 144.83523835 -337.72851562 143.02539062 C-331.91131957 137.20453838 -326.06610442 131.51001737 -319.76953125 126.203125 C-318.6858519 125.25448358 -317.60377573 124.30400714 -316.5234375 123.3515625 C-307.58047515 115.55081734 -298.29151564 108.2819548 -288.76953125 101.203125 C-288.04749512 100.6654248 -287.32545898 100.12772461 -286.58154297 99.57373047 C-262.86086814 81.98543425 -237.69125636 65.96146367 -210.99072266 53.27099609 C-208.3663682 52.00929832 -205.7621948 50.70944365 -203.15625 49.41015625 C-188.34053281 42.07937092 -173.33396165 35.76337768 -157.76953125 30.203125 C-157.15356079 29.98205078 -156.53759033 29.76097656 -155.9029541 29.53320312 C-106.13673281 11.70535987 -53.02882457 0.19768286 0 0 Z " fill="#007FFF" transform="translate(1006.76953125,260.796875)"/>
<path d="M0 0 C14.77474515 12.81495292 25.89115795 27.65468091 34.03613281 45.36669922 C34.77188143 46.96367629 35.53603701 48.54750237 36.3046875 50.12890625 C50.38071647 80.86011236 49.04269259 117.87618253 37.82421875 149.1328125 C25.0618876 183.07586518 -0.29873266 208.47310799 -32.67871094 224.08007812 C-63.82010573 238.17761972 -100.73241246 239.25214062 -132.91552734 228.02099609 C-144.7779785 223.54603386 -155.94351457 217.74740535 -166.125 210.1875 C-166.92421875 209.61 -167.7234375 209.0325 -168.546875 208.4375 C-196.69996475 187.09267379 -214.76678187 155.99664366 -220.125 121.1875 C-224.7510068 87.37020415 -217.32017693 51.47634901 -196.81689453 23.81982422 C-191.41391899 16.802558 -185.40824946 10.41275023 -179.125 4.1875 C-178.35542969 3.42050781 -177.58585937 2.65351562 -176.79296875 1.86328125 C-128.48908336 -44.15853081 -49.78045486 -42.07044088 0 0 Z M-153.875 47.0625 C-169.05398371 65.24025854 -175.09376685 87.86117089 -173.125 111.1875 C-170.46570594 133.53588835 -159.22813015 153.59953605 -142.125 168.1875 C-122.45703302 183.04360334 -99.35362046 190.01668079 -74.765625 186.88720703 C-51.81907255 182.95079014 -31.18274992 170.58036802 -17.484375 151.6640625 C-12.67541566 144.64304002 -8.84610111 137.2607669 -6.125 129.1875 C-5.5371875 127.45693359 -5.5371875 127.45693359 -4.9375 125.69140625 C1.50842726 103.82449327 -1.1332647 80.77197929 -11.97265625 60.859375 C-14.94325333 55.6604927 -18.37117586 50.84793636 -22.125 46.1875 C-22.8984375 45.2078125 -23.671875 44.228125 -24.46875 43.21875 C-36.80158135 28.55027913 -57.33888305 18.5748094 -76.125 16.1875 C-107.66239138 14.48358723 -132.2751145 23.84262309 -153.875 47.0625 Z " fill="#007FFF" transform="translate(1256.125,1481.8125)"/>
<path d="M0 0 C152.22916667 0 152.22916667 0 191.7578125 37.625 C216.74949972 63.91594924 222.91537082 99.79010267 222.28125 134.7109375 C221.25867366 167.56120227 211.07703023 198.8186106 187.36694336 222.23803711 C137.51685691 269.01492826 61.3457127 258 0 258 C0 172.86 0 87.72 0 0 Z M49 44 C49 100.1 49 156.2 49 214 C105.34095321 214.78020941 105.34095321 214.78020941 153 188 C153.55300781 187.48179687 154.10601562 186.96359375 154.67578125 186.4296875 C170.80132158 169.82603142 172.45448366 143.66979079 172.21484375 121.9453125 C171.664247 100.63961208 165.63035532 80.36859609 149.84765625 65.34765625 C121.81806414 42.23958374 82.85378406 44 49 44 Z " fill="#0080FF" transform="translate(4,1455)"/>
<path d="M0 0 C0 -4.29 0 -8.58 0 -13 C15.18 -13 30.36 -13 46 -13 C46.0679234 9.35864151 46.12310141 31.71719848 46.15543652 54.07591724 C46.17085449 64.45925931 46.19184614 74.84253234 46.22631836 85.22583008 C46.25637694 94.28408203 46.27561177 103.34228395 46.28226548 112.4005844 C46.28615008 117.18946546 46.29517151 121.97820348 46.31719017 126.76703835 C46.33781648 131.29044553 46.34378205 135.81365314 46.33932304 140.33710289 C46.34013673 141.98200446 46.34594461 143.62691393 46.35761642 145.27177429 C46.55146219 174.04338243 40.09198621 199.38599875 19.75 220.625 C0.48033093 239.47347412 -24.18894798 243.4677931 -50.07704163 243.30352783 C-79.09994439 242.94008233 -101.96898068 229.3842456 -122.125 209.04296875 C-126.98635144 203.74612124 -126.98635144 203.74612124 -127.03515625 201.078125 C-125.48728815 197.97070677 -123.01904985 195.98759574 -120.4375 193.75 C-116.39280563 190.16217759 -112.47527887 186.51238979 -108.71875 182.62109375 C-108.00662354 181.88600586 -107.29449707 181.15091797 -106.56079102 180.39355469 C-105.15814094 178.93623077 -103.76515114 177.46953973 -102.38256836 175.99316406 C-101.73940674 175.32897461 -101.09624512 174.66478516 -100.43359375 173.98046875 C-99.86697021 173.38129639 -99.30034668 172.78212402 -98.71655273 172.16479492 C-97 171 -97 171 -94.88793945 171.20214844 C-92.30411948 172.29408219 -91.36135583 173.78235328 -89.75 176.0625 C-79.47371351 189.80050165 -67.82945417 197.18391603 -51 200 C-37.6223797 201.42177607 -25.28087092 198.03760093 -14.4765625 190.16015625 C-3.19173513 180.31708127 -1.58083401 165.94853541 0 152 C-0.61746094 152.38671875 -1.23492187 152.7734375 -1.87109375 153.171875 C-21.38558696 165.17165469 -43.16590438 168.24323625 -65.75 163.8125 C-87.4658162 158.1047977 -107.36815952 145.81461892 -119.09423828 126.16650391 C-128.03474646 110.19932131 -132.4076077 93.61393969 -132.3125 75.3125 C-132.30686035 74.17055176 -132.3012207 73.02860352 -132.29541016 71.85205078 C-131.9222849 45.75175424 -122.68930567 24.10957292 -104.625 5.3125 C-75.07834252 -23.37553666 -31.80238762 -24.23039057 0 0 Z M-71.41015625 37.21484375 C-83.87529599 51.21132744 -84.9476233 68.22272269 -84 86 C-83.44768014 89.94017157 -82.53306218 93.33802962 -81 97 C-80.67128906 97.84304688 -80.34257812 98.68609375 -80.00390625 99.5546875 C-75.04122899 110.8537935 -66.33087138 117.56893298 -55 122 C-44.46964422 124.85124251 -31.62466954 124.13954161 -22 119 C-11.58004752 112.74432693 -4.42469175 103.29653563 -1.02734375 91.671875 C2.71296393 75.87559883 1.68201852 60.29850462 -6.14453125 45.82421875 C-12.3599965 36.36362639 -20.44413726 29.74171892 -31.5078125 27.19140625 C-46.20303909 24.76231849 -60.16518798 26.86947294 -71.41015625 37.21484375 Z " fill="#007FFF" transform="translate(469,1543)"/>
<path d="M0 0 C13.10487369 12.80245353 19.98748433 31.81102863 20.62819099 50.01246452 C20.66190564 53.07510053 20.66271287 56.13616704 20.65258789 59.19897461 C20.65273392 60.36067169 20.65287994 61.52236877 20.6530304 62.7192688 C20.65233583 66.54463594 20.64456477 70.3699539 20.63671875 74.1953125 C20.63485295 76.8533181 20.63338059 79.511321 20.63243103 82.16932678 C20.62932985 88.44126989 20.62113289 94.71319545 20.61108154 100.98513085 C20.59988263 108.1290484 20.59440045 115.27296682 20.58938611 122.41689098 C20.57894921 137.10476042 20.56061889 151.79261104 20.5390625 166.48046875 C5.3590625 166.48046875 -9.8209375 166.48046875 -25.4609375 166.48046875 C-25.7909375 162.19046875 -26.1209375 157.90046875 -26.4609375 153.48046875 C-27.34394531 154.07214844 -28.22695312 154.66382813 -29.13671875 155.2734375 C-36.30891214 160.02207661 -43.36276923 164.45256126 -51.4609375 167.48046875 C-52.29882812 167.79886719 -53.13671875 168.11726563 -54 168.4453125 C-71.54189487 173.93031421 -91.90015308 171.39823595 -108.1484375 163.41796875 C-121.54121086 155.68248758 -130.18224055 145.48705251 -134.91796875 130.6484375 C-138.93841841 114.59556297 -136.95607853 96.26213001 -128.92578125 81.71484375 C-118.41602373 65.68396027 -101.66995003 58.17472928 -83.50390625 54.2421875 C-65.19506846 50.63434038 -46.44834127 51.77817792 -28.4609375 56.48046875 C-27.84318332 47.72208727 -28.06012777 40.69898442 -33.4609375 33.48046875 C-40.5585004 26.33750566 -49.65984897 23.64294609 -59.5234375 23.23046875 C-72.92792647 23.43390956 -83.65451568 28.34131957 -93.375 37.27734375 C-96.59815368 40.68157348 -99.0838636 44.45342591 -101.4609375 48.48046875 C-105.37423203 47.93401771 -107.04812735 46.18111262 -109.7109375 43.35546875 C-112.53700606 40.42780949 -115.36345583 37.61952313 -118.4609375 34.98046875 C-122.38279766 31.62562452 -125.98066147 27.99852251 -129.578125 24.30078125 C-131.33847089 22.41662977 -131.33847089 22.41662977 -133.4609375 21.48046875 C-131.79406001 11.68470925 -121.93868649 3.25295204 -114.4609375 -2.51953125 C-81.69938089 -25.56932871 -31.22179175 -26.85793901 0 0 Z M-87.8984375 101.60546875 C-91.14558884 105.50205036 -90.793231 109.91753459 -90.7421875 114.75390625 C-90.22376154 119.77975795 -87.6189055 122.38344643 -84.0859375 125.73046875 C-74.40991833 132.1811482 -62.42435302 130.73774691 -51.51318359 128.90332031 C-43.05565722 127.16070365 -33.63703025 122.6565615 -27.4609375 116.48046875 C-27.38768582 113.61779308 -27.36855545 110.77974975 -27.3984375 107.91796875 C-27.40294922 107.11166016 -27.40746094 106.30535156 -27.41210938 105.47460938 C-27.42393232 103.47653119 -27.44186836 101.47849092 -27.4609375 99.48046875 C-45.87921572 91.08079537 -71.63952999 87.43103656 -87.8984375 101.60546875 Z " fill="#007FFF" transform="translate(1830.4609375,1545.51953125)"/>
<path d="M0 0 C13.94970346 13.81726956 20.37775357 33.54811149 20.58900452 52.92504883 C20.59187996 55.0424797 20.58929835 57.15992257 20.58227539 59.27734375 C20.58242142 60.43918686 20.58256744 61.60102997 20.5827179 62.79808044 C20.58202419 66.61801047 20.57425722 70.43789104 20.56640625 74.2578125 C20.56454014 76.91438886 20.56306792 79.57096252 20.56211853 82.22753906 C20.55901934 88.4923657 20.5508251 94.75717473 20.54076904 101.02199364 C20.5295639 108.15867937 20.52408639 115.29536598 20.51907361 122.43205833 C20.50864122 137.1031534 20.49031341 151.77422945 20.46875 166.4453125 C5.28875 166.4453125 -9.89125 166.4453125 -25.53125 166.4453125 C-25.86125 162.1553125 -26.19125 157.8653125 -26.53125 153.4453125 C-27.41425781 154.03699219 -28.29726563 154.62867188 -29.20703125 155.23828125 C-36.37922464 159.98692036 -43.43308173 164.41740501 -51.53125 167.4453125 C-52.36914062 167.76371094 -53.20703125 168.08210938 -54.0703125 168.41015625 C-71.64008419 173.90387449 -92.03276293 171.36845071 -108.28125 163.3203125 C-121.51858831 155.70029487 -130.17606629 145.81798015 -134.76953125 131.33984375 C-138.94465777 115.47436298 -137.21957135 98.04476638 -129.71875 83.4453125 C-121.28122294 69.38978114 -107.9971871 60.46992707 -92.203125 56.21875 C-70.97648817 50.92761238 -49.725577 50.90466356 -28.53125 56.4453125 C-27.91349582 47.68693102 -28.13044027 40.66382817 -33.53125 33.4453125 C-40.6288129 26.30234941 -49.73016147 23.60778984 -59.59375 23.1953125 C-72.99823897 23.39875331 -83.72482818 28.30616332 -93.4453125 37.2421875 C-96.66846618 40.64641723 -99.1541761 44.41826966 -101.53125 48.4453125 C-105.66907214 47.93282994 -107.48210585 45.77100268 -110.28125 42.8203125 C-113.27564339 39.72960821 -116.25148836 36.73177666 -119.53125 33.9453125 C-124.47047519 29.72470409 -128.98230993 25.07814695 -133.53125 20.4453125 C-128.88316704 7.05498023 -115.53051638 -2.97252769 -103.33984375 -9.21484375 C-70.85539981 -24.71159517 -28.31063687 -24.56364082 0 0 Z M-87.96875 101.5703125 C-91.21590134 105.46689411 -90.8635435 109.88237834 -90.8125 114.71875 C-90.29407404 119.7446017 -87.689218 122.34829018 -84.15625 125.6953125 C-74.48023083 132.14599195 -62.49466552 130.70259066 -51.58349609 128.86816406 C-43.12596972 127.1255474 -33.70734275 122.62140525 -27.53125 116.4453125 C-27.45799832 113.58263683 -27.43886795 110.7445935 -27.46875 107.8828125 C-27.47326172 107.07650391 -27.47777344 106.27019531 -27.48242188 105.43945312 C-27.49424482 103.44137494 -27.51218086 101.44333467 -27.53125 99.4453125 C-45.94952822 91.04563912 -71.70984249 87.39588031 -87.96875 101.5703125 Z " fill="#0080FF" transform="translate(902.53125,1545.5546875)"/>
<path d="M0 0 C23.15428034 -0.69811901 45.04019588 6.03323661 62.18359375 22.01953125 C71.808233 32.04748872 78.17129322 45.62477129 82.109375 58.84375 C82.39578857 59.80293335 82.39578857 59.80293335 82.68798828 60.78149414 C87.36890364 77.72063618 86.234375 93.3006451 86.234375 111.15625 C46.304375 111.15625 6.374375 111.15625 -34.765625 111.15625 C-30.31558214 125.61888929 -26.27045378 136.23969459 -12.765625 143.46875 C-1.56427024 148.99441831 13.47153099 148.86608391 25.296875 145.59375 C34.8303904 142.12701713 41.91895094 135.80688703 49.12524414 128.88842773 C51.70208623 126.4334839 54.01852251 124.65198539 57.234375 123.15625 C57.70746094 123.63457275 58.18054687 124.11289551 58.66796875 124.60571289 C60.85401906 126.8128034 63.04416629 129.01578633 65.234375 131.21875 C65.97816406 131.97091797 66.72195313 132.72308594 67.48828125 133.49804688 C72.23462287 138.26502476 77.10815391 142.80078304 82.234375 147.15625 C84.796875 149.34375 84.796875 149.34375 86.234375 151.15625 C85.96820588 155.29563869 83.17977982 157.89261785 80.484375 160.78125 C79.99412842 161.30686523 79.50388184 161.83248047 78.9987793 162.37402344 C66.16554721 175.77541973 50.27714586 184.75557418 32.234375 189.15625 C30.89826172 189.49269531 30.89826172 189.49269531 29.53515625 189.8359375 C9.3982674 194.02992576 -13.12507168 191.71640372 -31.765625 183.15625 C-32.84457031 182.66382813 -33.92351562 182.17140625 -35.03515625 181.6640625 C-43.65099891 177.39191276 -50.07534563 171.92353978 -56.765625 165.15625 C-57.87744141 164.05990234 -57.87744141 164.05990234 -59.01171875 162.94140625 C-77.24638287 143.85365843 -82.29937648 117.11860787 -81.9765625 91.640625 C-81.19119394 63.89093603 -70.26984539 38.22576293 -50.40625 18.85546875 C-36.39071655 6.74473095 -18.22786105 1.02982266 0 0 Z M-22.765625 54.15625 C-27.6800373 60.43994512 -29.79261411 65.26420643 -31.765625 73.15625 C-8.995625 73.15625 13.774375 73.15625 37.234375 73.15625 C35.966508 61.74544698 32.50266829 55.07847621 23.6328125 47.78515625 C9.09726458 37.9132939 -10.92822443 42.2750072 -22.765625 54.15625 Z " fill="#0080FF" transform="translate(1584.765625,1525.84375)"/>
<path d="M0 0 C16.47735771 13.88369955 23.96971584 33.53900231 26.2040081 54.49644279 C26.57683947 59.24135158 26.53602733 63.98357548 26.51977539 68.74047852 C26.51992142 69.87320694 26.52006744 71.00593536 26.5202179 72.17298889 C26.51952525 75.89008548 26.51176335 79.60713099 26.50390625 83.32421875 C26.50203977 85.91210401 26.50061695 88.49998963 26.49961853 91.08787537 C26.49619992 97.18621477 26.48833093 103.28453332 26.47826904 109.38286489 C26.4670562 116.33094371 26.46158447 123.27902344 26.45657361 130.22710907 C26.44614678 144.50818818 26.42782211 158.78924598 26.40625 173.0703125 C10.89625 173.0703125 -4.61375 173.0703125 -20.59375 173.0703125 C-20.6030957 169.65469971 -20.61244141 166.23908691 -20.62207031 162.7199707 C-20.65592624 151.40035964 -20.7113247 140.08092121 -20.77765274 128.76145649 C-20.81732389 121.90240949 -20.84977647 115.04347524 -20.86474609 108.18432617 C-20.87922932 101.55761473 -20.91447628 94.93121744 -20.96205902 88.30464745 C-20.97682914 85.78390744 -20.98478849 83.2631175 -20.98563385 80.74233437 C-20.53470033 57.86796234 -20.53470033 57.86796234 -30.59375 37.9453125 C-38.12568208 30.88412617 -45.93356184 29.70606457 -55.9140625 29.7890625 C-64.862854 30.47304656 -73.23539582 34.14347734 -79.2109375 40.8984375 C-89.42765935 54.62239223 -88.19747196 71.50094291 -88.203125 87.71875 C-88.21812762 90.18739902 -88.23485909 92.65603809 -88.25323486 95.12466431 C-88.29668644 101.57878107 -88.31685819 108.03276248 -88.33197021 114.48699951 C-88.35162159 121.09037201 -88.39358237 127.69360003 -88.43359375 134.296875 C-88.50865548 147.22133383 -88.55702692 160.14568782 -88.59375 173.0703125 C-104.10375 173.0703125 -119.61375 173.0703125 -135.59375 173.0703125 C-135.59375 113.0103125 -135.59375 52.9503125 -135.59375 -8.9296875 C-120.41375 -8.9296875 -105.23375 -8.9296875 -89.59375 -8.9296875 C-89.09875 -4.9696875 -89.09875 -4.9696875 -88.59375 -0.9296875 C-87.68109375 -1.60064453 -87.68109375 -1.60064453 -86.75 -2.28515625 C-81.1891182 -6.12052914 -75.82517028 -8.82135554 -69.40625 -10.8046875 C-68.75398438 -11.00731201 -68.10171875 -11.20993652 -67.4296875 -11.41870117 C-45.17567787 -17.90292405 -18.64790082 -13.87358886 0 0 Z " fill="#007FFF" transform="translate(2017.59375,1539.9296875)"/>
<path d="M0 0 C6.13320469 5.15441784 12.30169979 10.47458304 17 17 C16.74307701 20.6263751 14.98353392 22.38047074 12.46484375 24.86328125 C11.73716797 25.58580078 11.00949219 26.30832031 10.25976562 27.05273438 C9.49341797 27.79845703 8.72707031 28.54417969 7.9375 29.3125 C7.19822266 30.04662109 6.45894531 30.78074219 5.69726562 31.53710938 C1.50106847 35.67456711 -2.79351094 39.65013354 -7.27124023 43.48120117 C-8.91803279 44.92798786 -10.46873814 46.43232846 -12 48 C-15.19845671 46.61027754 -17.06418136 45.02540776 -19.375 42.4375 C-28.35060808 33.24419994 -41.47697611 24.89076141 -54.5234375 23.96875 C-68.01708937 24.1390169 -77.9970567 28.32107719 -87.7421875 37.546875 C-100.06737398 50.93825409 -101.76322003 66.95305063 -101.17919922 84.30224609 C-100.51958091 94.23246722 -96.74296137 102.9569609 -91 111 C-90.56042969 111.63421875 -90.12085938 112.2684375 -89.66796875 112.921875 C-83.20621015 121.33892079 -73.36831673 126.42221267 -63 128 C-50.01872191 129.29812781 -38.18477626 126.23178153 -28 118 C-21.68106979 112.66159345 -15.77375874 106.9189091 -10 101 C-4.88501353 105.3234606 0.06195767 109.78402012 4.9375 114.375 C5.63681641 115.03185791 6.33613281 115.68871582 7.05664062 116.36547852 C11.79074635 120.82548702 16.46784492 125.33366927 21 130 C11.007072 149.18642176 -9.34384561 161.81993438 -29.5 168.1875 C-54.76759106 174.98075399 -80.41281772 172.84657172 -103.26660156 160.00390625 C-124.7374138 147.5689795 -139.01427194 128.61465723 -146.3125 105.0625 C-153.61704055 77.31778589 -150.32808935 48.85772504 -136 24 C-122.97372362 2.7597022 -103.07142473 -10.53752577 -79.359375 -17.203125 C-51.76304233 -23.74923182 -22.11695887 -17.63029361 0 0 Z " fill="#007FFF" transform="translate(1474,1546)"/>
<path d="M0 0 C15.51 0 31.02 0 47 0 C47 16.17 47 32.34 47 49 C60.86 49 74.72 49 89 49 C89 62.86 89 76.72 89 91 C75.14 91 61.28 91 47 91 C47.09091417 105.35464146 47.09091417 105.35464146 47.20898438 119.70898438 C47.26319865 125.56825307 47.31431292 131.42742835 47.34643555 137.28686523 C47.37255017 142.01380761 47.41300982 146.74043422 47.46318626 151.46718025 C47.47979996 153.26553465 47.49134833 155.06394359 47.49761391 156.86236382 C46.95318015 171.69930517 46.95318015 171.69930517 53.3125 184.4375 C58.26348617 187.31598033 62.80482464 188.25156642 68.4921875 188.4140625 C69.5735498 188.44967285 70.65491211 188.4852832 71.76904297 188.52197266 C73.12400879 188.55597168 74.47897461 188.5899707 75.875 188.625 C80.20625 188.74875 84.5375 188.8725 89 189 C89 202.86 89 216.72 89 231 C82.44421266 232.31115747 76.03924502 232.24424057 69.375 232.25 C68.68014496 232.25067474 67.98528992 232.25134949 67.26937866 232.25204468 C48.86412275 232.22364601 29.74984098 231.38266523 14.96484375 219.00390625 C-1.72858267 201.97860257 -0.16779069 174.3960458 -0.09765625 152.3515625 C-0.09578609 150.60037273 -0.09436502 148.84918243 -0.09336853 147.09799194 C-0.08959037 142.53774515 -0.07980151 137.97753133 -0.06866455 133.41729736 C-0.05834809 128.74434861 -0.05384921 124.07139441 -0.04882812 119.3984375 C-0.03817395 110.26560835 -0.02061654 101.1328121 0 92 C-8.58 92 -17.16 92 -26 92 C-26 77.81 -26 63.62 -26 49 C-17.42 49 -8.84 49 0 49 C0 32.83 0 16.66 0 0 Z " fill="#0080FF" transform="translate(654,1481)"/>
<path d="M0 0 C15.51 0 31.02 0 47 0 C47 85.47 47 170.94 47 259 C31.49 259 15.98 259 0 259 C0 173.53 0 88.06 0 0 Z " fill="#0080FF" transform="translate(956,1454)"/>
<path d="M0 0 C15.51 0 31.02 0 47 0 C47 60.39 47 120.78 47 183 C31.49 183 15.98 183 0 183 C0 122.61 0 62.22 0 0 Z " fill="#0080FF" transform="translate(258,1530)"/>
<path d="M0 0 C15.18 0 30.36 0 46 0 C46 60.39 46 120.78 46 183 C30.82 183 15.64 183 0 183 C0 122.61 0 62.22 0 0 Z " fill="#0080FF" transform="translate(554,1530)"/>
<path d="M0 0 C6.3207612 4.81581806 9.80128313 11.95787153 10.8671875 19.75 C11.33159878 29.02371277 9.21625761 36.76937119 2.9296875 43.75 C-4.67488445 50.10301449 -11.9030459 52.24925231 -21.75 52.05859375 C-29.48398401 51.33978818 -35.37000787 48.41259752 -40.6015625 42.6875 C-46.68130067 34.66741985 -47.8598041 26.64120189 -47.0703125 16.75 C-45.4188366 9.53722873 -41.95394058 4.21918012 -36.0703125 -0.25 C-24.47069052 -7.36154394 -11.68914398 -7.05759636 0 0 Z " fill="#0080FF" transform="translate(300.0703125,1456.25)"/>
<path d="M0 0 C6.57471186 4.69761217 12.25391085 9.88437435 14 18 C15.12666044 28.21185848 13.65244209 36.13000379 8.25 44.8125 C1.93911871 50.94807903 -5.40255369 54.2660413 -14.25 54.375 C-22.1288005 54.24024286 -27.79246802 52.1181815 -34.3125 47.8125 C-41.89437577 39.87797885 -43.4625938 31.57064367 -43.28515625 20.96875 C-42.93275219 16.06405784 -41.88010279 12.92013991 -39 9 C-38.4225 8.113125 -37.845 7.22625 -37.25 6.3125 C-27.76547906 -3.43547986 -12.19843473 -6.62501197 0 0 Z " fill="#007FFF" transform="translate(592,1454)"/>
</svg>
