<?xml version="1.0" encoding="UTF-8"?>
<svg version="1.1" xmlns="http://www.w3.org/2000/svg" width="321" height="258">
<path d="M0 0 C3.45105765 2.88703438 6.74844857 5.89131111 10 9 C10.99193359 9.8971875 10.99193359 9.8971875 12.00390625 10.8125 C24.1292824 22.17850916 33.26720421 37.02716477 38.66015625 52.6953125 C41.77241862 61.69686184 44.15622462 67.32541021 52.2265625 73.0078125 C68.41765945 84.63803707 77.93170915 106.22228174 81.59204102 125.26953125 C85.1712933 149.22546035 79.99183074 173.14172458 66.0625 192.9375 C64.73235749 194.64400066 63.37840261 196.33223807 62 198 C61.32453125 198.83789062 60.6490625 199.67578125 59.953125 200.5390625 C46.85153192 215.98364121 29.58778773 225.46792362 10 230 C9.25430913 230.17622485 8.50861826 230.3524497 7.7403307 230.5340147 C4.50910529 231.08347522 1.44505424 231.13555436 -1.83357239 231.14717102 C-2.5085087 231.15084771 -3.18344502 231.1545244 -3.87883395 231.1583125 C-6.13383006 231.1692992 -8.38878002 231.17318472 -10.64379883 231.17700195 C-12.26387679 231.18327075 -13.88395333 231.18991792 -15.50402832 231.19691467 C-20.82168585 231.21792055 -26.13934354 231.22831873 -31.45703125 231.23828125 C-33.29327598 231.2423311 -35.12952057 231.24644809 -36.965765 231.25063133 C-45.60059069 231.26968102 -54.23540787 231.2839085 -62.87025052 231.2922433 C-72.80546033 231.30199361 -82.74044604 231.32825619 -92.67557698 231.36874419 C-100.37353054 231.39902705 -108.07142034 231.41372393 -115.76943225 231.41702431 C-120.35753155 231.41936233 -124.94539142 231.42815761 -129.53342628 231.45348549 C-133.85996709 231.47698302 -138.18611456 231.48091365 -142.51270294 231.47072411 C-144.08791866 231.47023374 -145.66315518 231.4764041 -147.23830986 231.49028015 C-171.69172138 231.69338168 -193.95430833 223.11438099 -211.765625 206.234375 C-228.59810403 189.40189597 -239.23331933 168.40502538 -239.46875 144.35839844 C-239.4584375 143.14700195 -239.448125 141.93560547 -239.4375 140.6875 C-239.42847656 139.41293945 -239.41945312 138.13837891 -239.41015625 136.82519531 C-238.93071137 110.71542614 -227.70496677 90.13726495 -209.32421875 72.12109375 C-202.61694291 66 -202.61694291 66 -200 66 C-199.6596875 64.14375 -199.6596875 64.14375 -199.3125 62.25 C-195.51122373 45.41952161 -185.89267038 30.11316659 -175 17 C-174.33097656 16.17757812 -173.66195312 15.35515625 -172.97265625 14.5078125 C-167.93206229 8.54980983 -162.1696127 3.75238392 -156 -1 C-154.70255859 -2.0209375 -154.70255859 -2.0209375 -153.37890625 -3.0625 C-108.29814928 -37.35870738 -43.90932169 -34.85724614 0 0 Z M-129 51 C-129 51.33 -129 51.66 -129 52 C-128.18660156 52.18433594 -127.37320313 52.36867188 -126.53515625 52.55859375 C-112.16784742 56.19486426 -98.94156395 62.90844184 -88 73 C-87.50677246 73.44698242 -87.01354492 73.89396484 -86.50537109 74.35449219 C-79.58624849 80.67556082 -79.58624849 80.67556082 -77 84 C-77.29835606 87.61575907 -78.9857931 89.34354564 -81.51000977 91.81884766 C-82.25070206 92.55285797 -82.99139435 93.28686829 -83.75453186 94.04312134 C-84.55870041 94.82553192 -85.36286896 95.6079425 -86.19140625 96.4140625 C-87.01124496 97.22491302 -87.83108368 98.03576355 -88.67576599 98.8711853 C-91.29766258 101.46301974 -93.92921012 104.04474549 -96.5625 106.625 C-99.19846618 109.21325747 -101.83218414 111.80365007 -104.45994568 114.40023804 C-106.09642193 116.0168401 -107.73781756 117.6284795 -109.38441467 119.23477173 C-110.1219548 119.96247772 -110.85949493 120.69018372 -111.61938477 121.43994141 C-112.27366959 122.08073639 -112.92795441 122.72153137 -113.60206604 123.38174438 C-115.2179045 124.89583896 -115.2179045 124.89583896 -115 127 C-115.99 127 -116.98 127 -118 127 C-118.14501953 125.89978516 -118.14501953 125.89978516 -118.29296875 124.77734375 C-119.84472675 118.681764 -124.82501398 114.3516386 -130.0234375 111.12109375 C-139.32562142 106.35516002 -147.73922138 104.41219694 -158 107.125 C-167.98062241 110.46734797 -175.06870179 116.71553566 -180.0625 125.96875 C-184.10146019 135.44477199 -183.6891486 145.50456255 -180 155 C-175.21339818 163.95435539 -168.63028547 170.06652982 -159.0546875 173.45703125 C-154.3176691 174.70882889 -149.72177695 175.12592738 -144.83427429 175.13371277 C-143.01133347 175.14011024 -143.01133347 175.14011024 -141.15156555 175.14663696 C-139.81808468 175.14628751 -138.48460384 175.14582601 -137.15112305 175.14526367 C-135.73628654 175.14825832 -134.32145084 175.15166156 -132.90661621 175.15544128 C-129.07384043 175.1642547 -125.241087 175.16661829 -121.40830207 175.16725707 C-119.01046312 175.16796912 -116.6126298 175.17010639 -114.21479225 175.17275429 C-105.84021267 175.18199917 -97.46564897 175.18609028 -89.09106445 175.18530273 C-81.29989072 175.18470229 -73.50878629 175.19524984 -65.71763009 175.2110464 C-59.01593441 175.22414711 -52.31426132 175.22948556 -45.61255294 175.22884732 C-41.61553973 175.22859307 -37.61858814 175.23140426 -33.62158775 175.24202538 C-29.85982601 175.25174896 -26.09818427 175.25175652 -22.33641815 175.24450874 C-20.30927953 175.24297458 -18.28214081 175.25127995 -16.25502014 175.25994873 C-3.88546333 175.21755133 6.38594106 173.40635496 15.75 164.8125 C23.20280629 156.92639102 25.56383212 147.57767495 25.34765625 137.0078125 C24.87077082 128.66331516 21.00657035 120.73354443 15 115 C7.70730764 109.02117327 -0.48608967 105.69199571 -10 106 C-9.95359375 104.87464844 -9.9071875 103.74929687 -9.859375 102.58984375 C-9.30184867 83.32350775 -14.25194281 65.98702849 -27.375 51.5 C-40.1507584 38.08753943 -57.1491582 30.13310982 -75.66723633 29.64794922 C-96.50281374 29.47534463 -114.67385785 35.42942601 -129 51 Z " fill="#4185F3" transform="translate(239,27)"/>
<path d="M0 0 C1.65 1.65 3.3 3.3 5 5 C-8.2 18.2 -21.4 31.4 -35 45 C-39.62 42.36 -44.24 39.72 -49 37 C-65.24989827 29.7353396 -85.01118969 27.78050925 -102 34 C-112.13869944 38.10363732 -120.36949461 43.07601364 -128 51 C-127.09121094 51.268125 -126.18242188 51.53625 -125.24609375 51.8125 C-111.33458074 56.15003842 -98.85596635 62.0939307 -88 72 C-87.47148437 72.48082031 -86.94296875 72.96164063 -86.3984375 73.45703125 C-84.68334444 75.0350735 -82.99428301 76.63654631 -81.3125 78.25 C-80.49906128 79.01135254 -80.49906128 79.01135254 -79.66918945 79.78808594 C-78.17578125 81.265625 -78.17578125 81.265625 -76 84 C-76.27188629 87.60739326 -77.98572004 89.34765745 -80.49414062 91.81884766 C-81.23160522 92.55285797 -81.96906982 93.28686829 -82.72888184 94.04312134 C-83.52991333 94.82553192 -84.33094482 95.6079425 -85.15625 96.4140625 C-85.97371704 97.22491302 -86.79118408 98.03576355 -87.63342285 98.8711853 C-90.24863271 101.46296373 -92.87378009 104.04438252 -95.5 106.625 C-98.12447313 109.21445457 -100.74681829 111.80601417 -103.36657715 114.40023804 C-104.99828903 116.01492361 -106.63306568 117.62651887 -108.27111816 119.23477173 C-109.00858276 119.96247772 -109.74604736 120.69018372 -110.50585938 121.43994141 C-111.15792358 122.08073639 -111.80998779 122.72153137 -112.48181152 123.38174438 C-114.08959655 124.941014 -114.08959655 124.941014 -115 127 C-115.99 127 -116.98 127 -118 127 C-118.495 125.824375 -118.99 124.64875 -119.5 123.4375 C-123.58381496 115.34151596 -130.64219914 110.94220456 -139 108 C-147.93935849 105.31819245 -157.26679548 107.03167959 -165.421875 111.25390625 C-173.33431356 116.12616288 -178.77267549 122.91186567 -181 132 C-183.03832032 142.22320348 -181.55789431 151.55990581 -175.875 160.375 C-172.31591421 165.1001246 -168.13267327 168.13687613 -163 171 C-164.43258772 174.27196452 -166.18825316 176.43203956 -168.71533203 178.94238281 C-169.47596954 179.70286926 -170.23660706 180.46335571 -171.02029419 181.24688721 C-171.84117523 182.05744568 -172.66205627 182.86800415 -173.5078125 183.703125 C-174.76874222 184.95980988 -174.76874222 184.95980988 -176.05514526 186.24188232 C-178.74044001 188.91598431 -181.43260655 191.58304724 -184.125 194.25 C-185.94707155 196.06204062 -187.76869177 197.87453518 -189.58984375 199.6875 C-194.05467252 204.13028036 -198.52516283 208.56730165 -203 213 C-222.15968869 200.45510289 -233.44853071 179.65292472 -238.52832031 157.71875 C-242.60854642 134.20042809 -238.16294085 109.11883636 -224.609375 89.390625 C-218.25485525 80.65709181 -210.70256624 72.42852883 -202 66 C-201.34 66 -200.68 66 -200 66 C-199.6596875 64.14375 -199.6596875 64.14375 -199.3125 62.25 C-195.51122373 45.41952161 -185.89267038 30.11316659 -175 17 C-174.33097656 16.17757812 -173.66195312 15.35515625 -172.97265625 14.5078125 C-167.93206229 8.54980983 -162.1696127 3.75238392 -156 -1 C-154.70255859 -2.0209375 -154.70255859 -2.0209375 -153.37890625 -3.0625 C-108.30865612 -37.35071406 -43.89703817 -34.87095497 0 0 Z " fill="#FABB05" transform="translate(239,27)"/>
<path d="M0 0 C1.65 1.65 3.3 3.3 5 5 C-8.2 18.2 -21.4 31.4 -35 45 C-39.62 42.36 -44.24 39.72 -49 37 C-65.24989827 29.7353396 -85.01118969 27.78050925 -102 34 C-104.77325207 35.12247343 -107.48608168 36.33960437 -110.1875 37.625 C-110.81696533 37.91890625 -111.44643066 38.2128125 -112.0949707 38.515625 C-116.39524772 40.70724617 -119.15058724 43.22169109 -122.44921875 46.75390625 C-127.3910368 51.33180838 -131.55731477 51.83584934 -137.99794006 51.68951416 C-140.20980679 51.59457803 -142.41594503 51.4582986 -144.625 51.3125 C-159.99055256 50.47179504 -173.24091012 51.93118951 -187.1875 59.0625 C-187.88423828 59.40087891 -188.58097656 59.73925781 -189.29882812 60.08789062 C-192.97569868 61.89315376 -196.5209825 63.83152502 -200 66 C-196.63208416 47.62954998 -186.79147229 31.19519136 -175 17 C-174.33097656 16.17757812 -173.66195312 15.35515625 -172.97265625 14.5078125 C-167.93206229 8.54980983 -162.1696127 3.75238392 -156 -1 C-154.70255859 -2.0209375 -154.70255859 -2.0209375 -153.37890625 -3.0625 C-108.30865612 -37.35071406 -43.89703817 -34.87095497 0 0 Z " fill="#EA4234" transform="translate(239,27)"/>
<path d="M0 0 C3.81162028 0.84669476 7.47449056 1.02830282 11.3588562 1.07125854 C12.0699951 1.08191723 12.781134 1.09257591 13.51382256 1.10355759 C15.7788854 1.13215933 18.04387455 1.14947098 20.30905151 1.16647339 C21.90616813 1.18522764 23.50327529 1.20480405 25.10037231 1.22515869 C29.26272955 1.27603706 33.42511877 1.31589689 37.58761597 1.353302 C42.60397464 1.40073717 47.62018024 1.46214135 52.63641357 1.52114868 C60.2199379 1.60881948 67.80344101 1.67897002 75.38717651 1.75241089 C75.38717651 20.23241089 75.38717651 38.71241089 75.38717651 57.75241089 C55.31494571 57.91284613 55.31494571 57.91284613 46.66452026 57.94772339 C40.79474158 57.97150288 34.92521583 57.99942917 29.05563354 58.0541687 C24.3158341 58.09808807 19.57630642 58.12164373 14.83631897 58.13191986 C13.04087555 58.13922951 11.24544458 58.15349955 9.45011902 58.17533112 C-12.42763996 58.43044152 -30.26540881 52.67823043 -48.61282349 40.75241089 C-47.19380967 37.56453129 -45.47808245 35.31080526 -43.08792114 32.77828979 C-42.36601593 32.01134796 -41.64411072 31.24440613 -40.90032959 30.45422363 C-37.57780668 26.98918422 -34.24145244 23.53838896 -30.88577271 20.10543823 C-29.12373282 18.29011151 -27.37617022 16.460617 -25.64358521 14.61715698 C-23.13796005 11.95323163 -20.58920591 9.33827205 -18.02688599 6.72897339 C-16.88239487 5.48550644 -16.88239487 5.48550644 -15.71478271 4.21691895 C-10.28744822 -1.17153125 -7.34736881 -1.84038883 0 0 Z " fill="#33A852" transform="translate(84.61282348632813,200.24758911132813)"/>
</svg>
