<?xml version="1.0" standalone="no"?>
<!DOCTYPE svg PUBLIC "-//W3C//DTD SVG 20010904//EN"
 "http://www.w3.org/TR/2001/REC-SVG-20010904/DTD/svg10.dtd">
<svg version="1.0" xmlns="http://www.w3.org/2000/svg"
 width="250.000000pt" height="201.000000pt" viewBox="0 0 250.000000 201.000000"
 preserveAspectRatio="xMidYMid meet">

<g transform="translate(0.000000,201.000000) scale(0.100000,-0.100000)"
fill="#000000" stroke="none">
<path d="M1150 1999 c-323 -31 -621 -234 -767 -524 -29 -56 -73 -167 -73 -181
0 -2 21 10 48 26 26 16 81 42 122 57 67 24 91 27 222 29 l148 2 42 37 c24 21
79 55 123 76 158 77 314 76 471 -1 185 -91 295 -254 311 -461 6 -77 7 -79 32
-79 44 0 124 -44 168 -93 100 -109 96 -266 -10 -371 -82 -82 -104 -86 -448
-86 l-289 0 0 -211 0 -210 343 3 c342 3 342 3 423 31 218 73 398 265 455 484
27 107 27 261 -1 361 -39 139 -127 277 -226 355 -47 36 -57 50 -75 107 -47
142 -131 270 -253 388 -203 195 -477 288 -766 261z"/>
</g>
</svg>
