<svg version="1.1" id="Layer_1" xmlns="http://www.w3.org/2000/svg" xmlns:xlink="http://www.w3.org/1999/xlink" x="0px" y="0px"
	 width="100%" viewBox="0 0 225 225" enable-background="new 0 0 225 225" xml:space="preserve">
<path fill="#FDFEFE" opacity="1.000000" stroke="none" 
	d="
M1.000001,145.000000 
	C1.000000,97.024208 1.000000,49.048412 1.000000,1.036311 
	C75.937950,1.036311 150.875931,1.036311 225.906952,1.036311 
	C225.906952,75.900047 225.906952,150.800247 225.906952,225.850220 
	C151.000214,225.850220 76.000153,225.850220 1.000000,225.850220 
	C1.000000,209.921295 1.000000,193.929306 1.452857,177.468353 
	C4.331891,176.980453 6.758066,176.961533 9.444975,177.174683 
	C16.598238,195.645187 29.643030,206.141754 49.259140,208.766022 
	C49.652348,208.836029 49.816746,208.797089 50.445621,208.831985 
	C57.941105,208.870239 64.972107,208.834641 72.466225,208.873108 
	C85.614944,208.892151 98.300545,208.837097 111.432022,208.860168 
	C114.590820,208.894272 117.303749,208.850250 120.258240,208.869003 
	C120.499817,208.931763 120.981590,208.801071 121.422874,208.866501 
	C124.240456,208.883560 126.616745,208.835175 129.456085,208.865021 
	C136.610596,208.894562 143.302063,208.845886 150.456726,208.875336 
	C158.926178,208.560425 166.932449,208.167404 175.312805,207.815613 
	C177.849487,206.927979 180.012115,205.999100 182.376678,205.042023 
	C182.578598,205.013824 182.963257,204.878479 183.347473,204.971527 
	C188.184341,202.719925 192.636978,200.375275 197.395386,197.957779 
	C198.832550,196.672775 199.963928,195.460632 201.352325,194.204590 
	C204.829056,190.243195 208.048782,186.325699 211.271759,182.374725 
	C211.275009,182.341263 211.277069,182.274063 211.566132,182.127731 
	C212.333817,181.018280 212.812439,180.055161 213.543213,178.904572 
	C215.147629,175.144409 216.499893,171.571686 217.935303,167.672424 
	C218.025314,166.898575 218.032181,166.451248 218.233368,165.688278 
	C218.644547,163.917328 218.861404,162.462036 219.213043,160.712418 
	C219.336304,159.783310 219.324814,159.148514 219.505096,158.114899 
	C219.980820,149.827515 220.753082,141.862274 216.116898,134.362213 
	C214.603043,125.597343 209.433456,119.376884 203.687759,113.102234 
	C196.225723,106.641220 189.298981,99.885117 178.750214,98.746246 
	C176.644089,98.291550 174.840363,98.071236 172.865189,97.630028 
	C172.442123,96.932129 172.190491,96.455124 172.257050,95.831940 
	C172.348877,94.671997 172.406540,93.457695 171.853561,92.674530 
	C163.496414,80.838356 152.632690,72.015076 139.077896,66.915054 
	C127.466835,62.546368 115.435684,60.501068 102.670853,62.985329 
	C101.921188,63.064442 101.498909,63.170185 100.728920,63.236786 
	C99.259224,63.485649 98.137238,63.773659 96.625351,64.064804 
	C90.750595,66.232758 85.265724,68.397583 79.480026,70.653687 
	C78.665535,71.093842 78.151871,71.442703 77.351807,71.835419 
	C76.600319,72.207916 76.135231,72.536552 75.339302,72.934570 
	C70.969086,76.291969 66.929718,79.580009 62.895203,82.885391 
	C62.900059,82.902725 62.932751,82.898087 62.676186,82.980606 
	C62.222466,83.355164 62.025307,83.647194 61.554871,84.079399 
	C60.524849,85.161942 59.768108,86.104309 58.707359,87.182785 
	C53.929630,95.210159 49.455910,103.101425 44.769997,111.274391 
	C43.070107,113.073715 41.814785,114.987671 40.045513,116.025093 
	C36.543453,118.078545 32.757401,119.647659 28.780273,121.524979 
	C20.683382,128.128525 11.503839,133.524658 9.727921,145.213303 
	C8.943585,146.953278 8.440382,148.474136 7.709188,149.840775 
	C6.471824,149.901443 5.462450,150.116348 5.327661,150.145050 
	C3.706940,148.218216 2.353471,146.609100 1.000001,145.000000 
M165.079346,51.066803 
	C165.079346,51.066803 165.192520,51.194633 165.616135,51.077084 
	C165.898926,50.936428 166.077087,50.712490 166.557846,50.019630 
	C166.698257,49.677612 166.838669,49.335598 167.578262,48.671890 
	C169.329483,45.488571 171.481018,42.443813 172.652374,39.059780 
	C173.187149,37.514782 171.788773,35.300640 171.267197,33.389992 
	C169.409012,34.008144 166.957718,34.097923 165.828491,35.365486 
	C164.033020,37.380867 163.119492,40.181919 161.301819,43.101379 
	C159.127350,46.807625 156.595306,50.364510 154.954208,54.293533 
	C154.296585,55.868000 155.599426,58.261326 156.009933,60.281933 
	C158.126266,59.640057 160.758530,59.555355 162.217926,58.204021 
	C163.764297,56.772141 164.195877,54.136311 165.219864,51.592747 
	C165.219864,51.592747 165.230255,51.146645 165.079346,51.066803 
M67.768593,60.069809 
	C72.174500,60.370792 73.107895,58.046570 71.534111,54.536949 
	C70.343033,51.880802 68.543930,49.497311 66.919830,46.337696 
	C66.223877,45.249413 65.527924,44.161125 64.772636,42.371758 
	C63.585506,40.211269 62.724003,37.752338 61.105904,35.986832 
	C59.861393,34.628952 57.664787,34.143669 55.891567,33.270355 
	C55.476978,35.222401 55.062389,37.174450 54.797558,39.881802 
	C57.856625,45.612747 60.915691,51.343693 64.066742,57.750656 
	C65.046211,58.495888 66.025681,59.241123 67.768593,60.069809 
M205.304199,77.082855 
	C203.416626,78.321800 201.529068,79.560753 199.084778,80.986855 
	C198.306702,81.567963 197.528610,82.149071 196.032196,82.807701 
	C193.365601,84.364502 190.585434,85.763351 188.089767,87.557877 
	C187.126694,88.250374 186.036682,90.180405 186.372726,90.946327 
	C186.928223,92.212440 188.488983,93.189270 189.831833,93.898575 
	C190.581619,94.294609 191.746185,93.905380 193.394547,93.929314 
	C193.954056,93.363861 194.513550,92.798409 195.388123,91.603699 
	C197.254395,90.713737 199.120667,89.823769 201.661301,88.855736 
	C203.819107,87.417824 205.976913,85.979919 208.851944,84.353500 
	C213.569214,82.942619 214.595444,80.068291 212.126038,75.517235 
	C210.093338,76.024391 208.046722,76.535011 205.304199,77.082855 
M109.561623,20.409081 
	C109.468605,20.919708 109.375587,21.430336 109.148628,22.647299 
	C109.198570,23.122330 109.248520,23.597361 109.093597,24.975866 
	C108.950912,30.227070 108.624428,35.482643 108.749214,40.727486 
	C108.804993,43.071781 109.404922,45.587795 110.496307,47.631550 
	C110.930527,48.444664 114.348076,48.844044 114.706436,48.303688 
	C115.926674,46.463734 116.404411,44.126282 117.122017,41.964279 
	C117.215141,41.683712 117.053131,41.318459 117.115555,40.061020 
	C117.105888,34.272213 117.263763,28.474930 116.971642,22.700413 
	C116.896301,21.210936 115.705971,19.069304 114.476593,18.561331 
	C113.410751,18.120934 111.564545,19.569126 109.561623,20.409081 
M34.619347,94.107506 
	C36.144993,93.160088 38.905273,92.238304 38.925587,91.259644 
	C38.961914,89.509422 37.798977,87.042038 36.341248,86.076820 
	C30.962337,82.515198 25.224041,79.501335 19.689987,76.166817 
	C17.092928,74.601959 14.613852,74.040611 12.761594,76.907288 
	C10.749283,80.021660 13.003071,81.899078 15.369383,83.309334 
	C21.484852,86.953979 27.687677,90.452049 34.619347,94.107506 
M196.687531,93.525429 
	C197.747849,94.631317 198.808182,95.737213 200.723526,97.734856 
	C201.069626,93.293770 201.249695,90.790230 196.687531,93.525429 
z"/>
<path fill="#F7FBFA" opacity="1.000000" stroke="none" 
	d="
M1.000001,145.468658 
	C2.353471,146.609100 3.706940,148.218216 5.327661,150.145050 
	C5.462450,150.116348 6.471824,149.901443 7.752024,150.260696 
	C7.980634,156.969360 7.938418,163.103867 7.871068,169.631546 
	C8.292035,172.330673 8.738138,174.636642 9.184241,176.942596 
	C6.758066,176.961533 4.331891,176.980453 1.452857,176.999695 
	C1.000000,166.645767 1.000000,156.291550 1.000001,145.468658 
z"/>
<path fill="#0C6FF6" opacity="1.000000" stroke="none" 
	d="
M9.444973,177.174683 
	C8.738138,174.636642 8.292035,172.330673 7.911993,169.314209 
	C8.069919,168.040756 8.161784,167.477814 8.215096,167.151123 
	C9.237589,167.833237 10.120011,168.421890 11.001345,169.409424 
	C11.073690,171.358536 11.147124,172.908783 11.234225,174.747559 
	C16.274271,174.250061 15.622964,171.829346 13.981048,168.652863 
	C13.988531,167.876129 13.992098,167.432266 14.263040,166.988602 
	C14.708598,166.985428 14.886781,166.982040 15.247873,167.129868 
	C15.430782,167.281082 15.844985,167.512848 15.726265,167.763779 
	C15.748311,168.341965 15.889076,168.669235 16.007536,169.382812 
	C18.827143,181.691422 25.101030,190.964218 36.734901,196.552231 
	C39.476379,197.628799 41.952999,198.456665 44.696304,199.504822 
	C45.640011,199.780502 46.317032,199.835907 47.272987,199.996048 
	C47.947041,200.108917 48.342163,200.117081 49.016678,200.367310 
	C50.515491,200.627853 51.734905,200.646317 53.354446,200.742310 
	C54.838032,200.784912 55.921490,200.749969 57.251846,200.786255 
	C57.663731,200.811401 57.828716,200.765274 58.429611,200.781693 
	C60.918255,200.804352 62.970989,200.764450 65.311882,200.813507 
	C66.399460,200.974365 67.198875,201.046265 68.000732,201.540894 
	C69.336487,204.242111 70.669800,206.520569 72.003113,208.799026 
	C64.972107,208.834641 57.941105,208.870239 50.363327,208.694458 
	C49.506634,208.271179 49.244556,208.329178 49.030331,208.657089 
	C29.643030,206.141754 16.598238,195.645187 9.444973,177.174683 
z"/>
<path fill="#45DBDB" opacity="1.000000" stroke="none" 
	d="
M102.998222,63.011967 
	C115.435684,60.501068 127.466835,62.546368 139.077896,66.915054 
	C152.632690,72.015076 163.496414,80.838356 171.853561,92.674530 
	C172.406540,93.457695 172.348877,94.671997 171.982025,95.695572 
	C170.689911,95.041336 169.991028,94.377289 169.693161,94.094261 
	C167.700455,95.096069 165.826691,96.038078 163.933960,96.638794 
	C158.021255,90.812088 152.508850,84.826523 146.136993,79.968178 
	C138.218018,73.930222 128.447327,72.025345 119.231781,70.034119 
	C120.738777,69.987823 121.868271,69.987823 122.997757,69.987823 
	C122.874153,69.448753 122.750542,68.909676 122.626938,68.370605 
	C121.081184,68.931664 119.535423,69.492714 117.656174,70.119324 
	C116.877708,70.115189 116.432739,70.045502 115.729645,69.697937 
	C113.309502,69.622009 111.147491,69.823952 108.679855,70.114075 
	C107.953400,70.180717 107.532585,70.159180 107.038712,70.075134 
	C106.965660,70.012619 106.828789,69.877556 106.887131,69.539833 
	C106.297272,68.471100 105.649071,67.740089 105.000404,66.757576 
	C104.998619,66.338417 104.997307,66.170753 104.998001,66.001549 
	C105.000000,66.000000 105.003052,65.996010 105.375092,65.996399 
	C106.676605,65.746811 107.606087,65.496826 109.422775,65.008224 
	C106.587067,64.127106 104.792641,63.569534 102.998222,63.011967 
z"/>
<path fill="#40D3DE" opacity="1.000000" stroke="none" 
	d="
M163.952927,96.980087 
	C165.826691,96.038078 167.700455,95.096069 169.693161,94.094261 
	C169.991028,94.377289 170.689911,95.041336 171.663834,95.841751 
	C172.190491,96.455124 172.442123,96.932129 173.026276,97.926758 
	C175.256714,98.623123 177.154663,98.801872 179.052597,98.980621 
	C189.298981,99.885117 196.225723,106.641220 203.523209,113.352524 
	C201.980042,115.723755 200.385773,117.576355 198.494171,119.255722 
	C188.661758,109.851936 177.301910,105.002419 163.948242,104.491547 
	C162.521744,100.476852 159.280243,99.189095 156.310333,97.751343 
	C159.074982,97.348061 161.513947,97.164078 163.952927,96.980087 
z"/>
<path fill="#2FB4E3" opacity="1.000000" stroke="none" 
	d="
M34.237480,94.058083 
	C27.687677,90.452049 21.484852,86.953979 15.369383,83.309334 
	C13.003071,81.899078 10.749283,80.021660 12.761594,76.907288 
	C14.613852,74.040611 17.092928,74.601959 19.689987,76.166817 
	C25.224041,79.501335 30.962337,82.515198 36.341248,86.076820 
	C37.798977,87.042038 38.961914,89.509422 38.925587,91.259644 
	C38.905273,92.238304 36.144993,93.160088 34.237480,94.058083 
z"/>
<path fill="#25A2ED" opacity="1.000000" stroke="none" 
	d="
M29.088753,121.417000 
	C32.757401,119.647659 36.543453,118.078545 40.045513,116.025093 
	C41.814785,114.987671 43.070107,113.073715 45.081573,111.118484 
	C46.765045,109.841904 47.924751,109.002937 49.084461,108.163963 
	C49.641830,108.876305 50.199200,109.588638 50.756573,110.300980 
	C49.188541,110.799477 47.620510,111.297974 45.563118,111.952034 
	C48.567776,113.804436 49.930702,114.644691 51.204163,115.852966 
	C50.693321,118.807686 50.271946,121.394371 49.641212,124.318710 
	C49.086185,127.034477 48.740513,129.412598 48.255249,131.579132 
	C47.963619,130.825531 47.811573,130.283539 47.613457,129.577316 
	C46.957806,130.564957 46.480862,131.283386 45.998299,131.663635 
	C45.279633,131.000519 44.476612,130.294189 43.873764,130.436401 
	C42.867611,130.673767 41.989502,131.453934 40.982971,131.669632 
	C40.965450,130.881607 41.022449,130.429550 41.311096,129.802063 
	C41.435856,128.770493 41.328964,127.914330 41.146660,126.702667 
	C39.517738,126.294144 37.964230,126.241119 36.116745,126.019470 
	C35.644833,124.676460 35.466892,123.502068 35.374325,122.891136 
	C33.068207,122.350288 31.078480,121.883644 29.088753,121.417000 
z"/>
<path fill="#2195EB" opacity="1.000000" stroke="none" 
	d="
M28.780275,121.524979 
	C31.078480,121.883644 33.068207,122.350288 35.374325,122.891136 
	C35.466892,123.502068 35.644833,124.676460 35.928238,126.239868 
	C35.498802,126.828651 34.963905,127.028427 34.191254,126.983109 
	C33.292889,127.463219 32.632282,128.188416 31.755974,129.159485 
	C29.650377,131.186768 27.760487,132.968185 25.626644,134.831711 
	C25.230980,135.212708 25.079271,135.511597 24.638355,135.996140 
	C22.274559,139.207031 20.199968,142.232269 18.086876,144.837799 
	C18.266579,140.432159 15.539867,140.473465 13.118735,141.351028 
	C11.813486,141.824127 11.028675,143.733063 10.009053,144.994186 
	C11.503839,133.524658 20.683382,128.128525 28.780275,121.524979 
z"/>
<path fill="#1385F5" opacity="1.000000" stroke="none" 
	d="
M149.993546,208.797211 
	C143.302063,208.845886 136.610596,208.894562 129.453979,208.463760 
	C129.245880,204.611450 126.855614,204.944244 124.744492,205.015350 
	C122.580940,205.088242 120.741753,204.887497 121.002747,201.772980 
	C121.003349,201.540604 120.994316,201.076065 121.433266,200.989716 
	C124.254791,200.958237 126.637367,201.013092 129.321533,201.352570 
	C139.083923,201.761536 148.544708,201.885880 158.041595,202.368988 
	C157.583649,203.835022 157.387985,205.434174 156.535828,205.951172 
	C154.521088,207.173492 152.194214,207.881332 149.993546,208.797211 
z"/>
<path fill="#3ECDDF" opacity="1.000000" stroke="none" 
	d="
M198.791519,119.428955 
	C200.385773,117.576355 201.980042,115.723755 203.738846,113.620880 
	C209.433456,119.376884 214.603043,125.597343 216.088959,134.800995 
	C215.936432,137.602310 215.839310,139.576141 215.742172,141.549973 
	C215.360260,141.568375 214.978363,141.586761 214.596451,141.605148 
	C213.911743,140.378555 213.227051,139.151947 212.654648,138.126526 
	C211.823746,138.739349 210.967850,139.370605 210.034546,139.631210 
	C207.296204,133.855835 204.635269,128.451111 201.982117,122.718529 
	C201.821884,121.512444 201.653915,120.634201 201.485931,119.755951 
	C201.008026,120.089050 200.530136,120.422142 199.834808,120.657623 
	C199.342087,120.182991 199.066803,119.805969 198.791519,119.428955 
z"/>
<path fill="#1485F6" opacity="1.000000" stroke="none" 
	d="
M9.727921,145.213303 
	C11.028675,143.733063 11.813486,141.824127 13.118735,141.351028 
	C15.539867,140.473465 18.266579,140.432159 18.069920,145.201416 
	C17.419003,148.323868 16.746542,150.662994 15.959893,153.365448 
	C15.751454,154.737564 15.657202,155.746338 15.423466,156.820892 
	C15.283981,156.886688 15.017076,157.042938 14.998726,156.701157 
	C14.980375,155.559021 14.980375,154.758652 14.980375,153.958298 
	C13.411306,156.009872 12.597758,158.235947 12.617453,160.454636 
	C12.636820,162.636459 13.501762,164.810791 13.995663,166.988403 
	C13.992098,167.432266 13.988531,167.876129 13.609665,168.656464 
	C12.490388,168.998825 11.746408,169.004684 11.002432,169.010559 
	C10.120011,168.421890 9.237589,167.833237 8.215096,167.151123 
	C8.161784,167.477814 8.069919,168.040756 7.937128,168.921051 
	C7.938418,163.103867 7.980634,156.969360 7.980013,150.414917 
	C8.440382,148.474136 8.943585,146.953278 9.727921,145.213303 
z"/>
<path fill="#0D7BF5" opacity="1.000000" stroke="none" 
	d="
M121.002136,202.005341 
	C120.741753,204.887497 122.580940,205.088242 124.744492,205.015350 
	C126.855614,204.944244 129.245880,204.611450 128.990936,208.385529 
	C126.616745,208.835175 124.240456,208.883560 121.330315,208.727509 
	C120.458435,208.337112 120.198502,208.431488 120.016670,208.806244 
	C117.303749,208.850250 114.590820,208.894272 111.431290,208.451752 
	C111.233109,205.006027 109.278915,204.974533 107.154236,204.986755 
	C100.435852,205.025436 93.717087,204.998505 86.998856,204.604065 
	C86.999283,203.163269 86.999321,202.115341 87.422546,200.987411 
	C89.561829,200.831223 91.277924,200.755020 93.438988,200.758179 
	C96.591515,200.785278 99.299072,200.733017 102.458206,200.761993 
	C106.280586,200.924805 109.651382,201.006393 113.309433,201.359680 
	C116.065170,201.756027 118.533653,201.880676 121.002136,202.005341 
z"/>
<path fill="#2DB0E5" opacity="1.000000" stroke="none" 
	d="
M51.293633,115.484947 
	C49.930702,114.644691 48.567776,113.804436 45.563118,111.952034 
	C47.620510,111.297974 49.188541,110.799477 50.756573,110.300980 
	C50.199200,109.588638 49.641830,108.876305 49.084461,108.163963 
	C47.924751,109.002937 46.765045,109.841904 45.293762,110.836784 
	C49.455910,103.101425 53.929630,95.210159 58.861534,87.421524 
	C59.118298,89.418816 58.916882,91.313469 58.820679,92.218422 
	C60.811321,92.218422 62.462257,92.218422 64.031464,92.514450 
	C63.014587,93.889709 62.079433,94.968941 60.784893,96.036926 
	C60.019596,96.824570 59.613689,97.623466 59.166302,98.763802 
	C57.703014,102.064651 56.281212,105.024078 54.637924,108.214645 
	C53.965256,109.629013 53.514072,110.812241 52.857559,112.255600 
	C52.199364,113.505470 51.746498,114.495209 51.293633,115.484947 
z"/>
<path fill="#0677FC" opacity="1.000000" stroke="none" 
	d="
M86.998474,204.996948 
	C93.717087,204.998505 100.435852,205.025436 107.154236,204.986755 
	C109.278915,204.974533 111.233109,205.006027 110.985420,208.373627 
	C98.300545,208.837097 85.614944,208.892151 72.466225,208.873108 
	C70.669800,206.520569 69.336487,204.242111 68.333862,201.497620 
	C69.750694,200.933212 70.836838,200.834854 72.361664,200.800171 
	C74.863220,200.936340 76.926094,201.008835 79.001511,201.474457 
	C80.034508,207.097626 84.225662,204.237885 86.998474,204.996948 
z"/>
<path fill="#2DB0E8" opacity="1.000000" stroke="none" 
	d="
M217.852158,167.998962 
	C216.499893,171.571686 215.147629,175.144409 213.198166,178.996780 
	C212.159668,180.275650 211.718369,181.274857 211.277069,182.274063 
	C211.277069,182.274063 211.275009,182.341263 210.961945,182.094330 
	C208.693893,181.199066 206.738876,180.550735 204.898132,179.628235 
	C208.699905,170.921509 212.330688,162.473358 212.544235,153.003906 
	C213.223282,153.001328 213.611343,153.000977 213.999695,153.000305 
	C214.000000,153.000000 213.999390,153.000458 213.999176,153.429550 
	C214.338867,156.233505 214.678757,158.608353 215.346375,160.985641 
	C216.111084,160.990173 216.548050,160.992264 217.333939,160.997467 
	C218.147980,161.002625 218.613129,161.004684 219.078262,161.006744 
	C218.861404,162.462036 218.644547,163.917328 217.937210,165.719803 
	C217.105713,166.365341 216.764664,166.663696 216.423615,166.962067 
	C216.899796,167.307709 217.375977,167.653336 217.852158,167.998962 
z"/>
<path fill="#3CD0DD" opacity="1.000000" stroke="none" 
	d="
M104.995995,66.003098 
	C104.997307,66.170753 104.998619,66.338417 104.945862,67.092987 
	C103.924866,68.359154 102.957947,69.038406 101.763420,69.877556 
	C103.597809,69.877556 105.213295,69.877556 106.828789,69.877556 
	C106.828789,69.877556 106.965660,70.012619 106.689316,70.231491 
	C102.606728,71.286880 98.800476,72.123405 94.627121,72.955963 
	C92.518089,73.641685 90.776154,74.331383 89.019897,75.008301 
	C89.005562,74.995537 89.015579,75.031868 88.708466,75.039917 
	C87.994804,75.092789 87.588257,75.137604 87.082947,74.811768 
	C84.583084,73.148209 82.181969,71.855301 79.780861,70.562401 
	C85.265724,68.397583 90.750595,66.232758 96.829979,64.321640 
	C98.762115,64.895134 100.099739,65.214912 101.437355,65.534691 
	C101.317116,64.781769 101.196869,64.028847 101.076622,63.275928 
	C101.498909,63.170185 101.921188,63.064442 102.670853,62.985329 
	C104.792641,63.569534 106.587067,64.127106 109.422775,65.008224 
	C107.606087,65.496826 106.676605,65.746811 105.319595,65.860886 
	C104.807823,65.676285 104.723587,65.627602 104.639351,65.578918 
	C104.758232,65.720314 104.877113,65.861702 104.995995,66.003098 
z"/>
<path fill="#1D8EF0" opacity="1.000000" stroke="none" 
	d="
M150.456726,208.875336 
	C152.194214,207.881332 154.521088,207.173492 156.535828,205.951172 
	C157.387985,205.434174 157.583649,203.835022 158.374496,202.365204 
	C159.440582,201.687119 160.209885,201.371597 161.403809,200.964066 
	C163.561707,200.807755 165.294998,200.743439 167.352722,200.769135 
	C168.121643,200.919342 168.566101,200.979538 169.109344,201.200470 
	C169.465424,201.214539 169.722748,201.067902 170.063110,200.730957 
	C170.146179,200.540665 170.338058,200.172394 170.676422,200.192474 
	C171.679031,200.087799 172.343277,199.963043 173.374146,199.877686 
	C174.476395,199.894638 175.212006,199.872223 176.086121,200.157242 
	C176.619766,201.121140 177.014938,201.777603 177.634964,202.807617 
	C174.744232,202.957489 172.377853,203.080170 170.011490,203.202850 
	C170.012634,203.338760 170.013779,203.474670 170.014923,203.610580 
	C172.439758,203.955231 174.864594,204.299881 177.289429,204.644531 
	C177.247238,205.035019 177.205032,205.425522 177.162842,205.816025 
	C174.780930,205.922943 172.399002,206.029861 168.922455,206.185913 
	C171.631927,206.901306 173.285324,207.337845 174.938721,207.774384 
	C166.932449,208.167404 158.926178,208.560425 150.456726,208.875336 
z"/>
<path fill="#48EFD6" opacity="1.000000" stroke="none" 
	d="
M109.298462,24.072392 
	C109.248520,23.597361 109.198570,23.122330 109.403000,22.129318 
	C109.792671,21.135090 109.927956,20.658846 110.063248,20.182598 
	C111.564545,19.569126 113.410751,18.120934 114.476593,18.561331 
	C115.705971,19.069304 116.896301,21.210936 116.971642,22.700413 
	C117.263763,28.474930 117.105888,34.272213 116.661636,40.543037 
	C114.669327,41.276791 113.130936,41.528519 111.845375,41.738880 
	C110.957298,35.578812 110.127876,29.825602 109.298462,24.072392 
z"/>
<path fill="#55EDD8" opacity="1.000000" stroke="none" 
	d="
M165.114349,52.026314 
	C164.195877,54.136311 163.764297,56.772141 162.217926,58.204021 
	C160.758530,59.555355 158.126266,59.640057 156.009933,60.281929 
	C155.599426,58.261326 154.296585,55.868000 154.954208,54.293533 
	C156.595306,50.364510 159.127350,46.807625 161.645081,43.232960 
	C163.252228,43.957760 164.516144,44.550980 166.000000,45.247433 
	C166.000000,46.402054 166.000000,47.700951 165.744781,49.187202 
	C165.390533,49.981255 165.291534,50.587944 165.192520,51.194633 
	C165.192520,51.194633 165.079346,51.066803 164.947968,51.133408 
	C164.724274,51.299423 164.631927,51.398834 164.539581,51.498241 
	C164.731171,51.674263 164.922760,51.850288 165.114349,52.026314 
z"/>
<path fill="#1F98E9" opacity="1.000000" stroke="none" 
	d="
M175.312805,207.815628 
	C173.285324,207.337845 171.631927,206.901306 168.922455,206.185913 
	C172.399002,206.029861 174.780930,205.922943 177.162842,205.816025 
	C177.205032,205.425522 177.247238,205.035019 177.289429,204.644531 
	C174.864594,204.299881 172.439758,203.955231 170.014923,203.610580 
	C170.013779,203.474670 170.012634,203.338760 170.011490,203.202850 
	C172.377853,203.080170 174.744232,202.957489 177.634964,202.807617 
	C177.014938,201.777603 176.619766,201.121140 176.183395,199.986816 
	C176.142181,199.508942 176.304077,199.151413 176.649933,199.129028 
	C178.690994,198.472855 180.386200,197.839081 182.411499,197.180328 
	C183.503723,196.778687 184.265823,196.401993 185.013977,196.012634 
	C185.000000,196.000000 185.023514,196.028870 185.340118,195.976135 
	C186.626083,195.501968 187.595428,195.080536 188.603210,194.959061 
	C189.758499,196.503418 190.875366,197.747818 191.639038,198.999649 
	C190.522873,199.670578 189.759903,200.334076 188.778229,201.104919 
	C188.287094,201.410126 188.097534,201.668701 187.750961,202.002670 
	C187.237701,202.138016 186.964310,202.258728 186.690918,202.379440 
	C186.779282,202.502060 186.937561,202.736481 186.945984,202.731216 
	C187.309692,202.503830 187.660110,202.255188 188.228210,201.897247 
	C188.713867,201.584229 188.899918,201.323456 189.323059,200.975800 
	C190.430893,200.301407 191.218063,199.654282 192.246490,198.830322 
	C193.533707,194.840363 195.686783,199.206940 197.089615,198.030640 
	C192.636978,200.375275 188.184341,202.719925 183.134979,204.737976 
	C181.664978,204.319183 180.791718,204.227005 179.918457,204.134811 
	C179.896500,204.362823 179.874542,204.590851 179.852585,204.818863 
	C180.626648,204.902649 181.400696,204.986435 182.174744,205.070221 
	C180.012115,205.999100 177.849487,206.927979 175.312805,207.815628 
M180.376862,201.889572 
	C181.597183,201.889572 182.817505,201.889572 184.037827,201.889572 
	C184.019577,201.584183 184.001343,201.278793 183.983109,200.973404 
	C182.638397,201.131958 181.293701,201.290527 180.376862,201.889572 
z"/>
<path fill="#3AC5DF" opacity="1.000000" stroke="none" 
	d="
M79.480026,70.653687 
	C82.181969,71.855301 84.583084,73.148209 87.050964,74.794853 
	C87.117744,75.148590 87.134247,75.079826 86.898804,75.139313 
	C86.360222,75.350410 86.144707,75.583138 85.801880,76.014542 
	C85.586960,76.132111 85.106934,76.230309 84.942825,75.968292 
	C84.198471,76.168846 83.618233,76.631416 82.830910,77.354568 
	C79.648735,79.695007 76.673637,81.774857 73.425598,83.882767 
	C72.799461,84.005875 72.446259,84.100906 72.091446,83.852386 
	C71.749977,81.727455 71.410110,79.946091 71.317497,79.460670 
	C67.911552,80.837807 65.400948,81.852928 62.890347,82.868050 
	C66.929718,79.580009 70.969086,76.291969 75.664581,72.971603 
	C76.882500,72.887115 77.444305,72.834961 78.006104,72.782806 
	C77.883476,72.452393 77.760841,72.121986 77.638214,71.791573 
	C78.151871,71.442703 78.665535,71.093842 79.480026,70.653687 
z"/>
<path fill="#2AA6E8" opacity="1.000000" stroke="none" 
	d="
M204.783875,179.902405 
	C206.738876,180.550735 208.693893,181.199066 210.958710,182.127808 
	C208.048782,186.325699 204.829056,190.243195 201.352722,193.851959 
	C201.242905,192.270203 201.389664,190.997192 201.536407,189.724182 
	C201.077393,189.537094 200.618378,189.350006 200.159378,189.162918 
	C199.110611,190.437698 198.061859,191.712479 197.006012,192.994019 
	C196.998932,193.000763 196.982468,193.012695 196.613556,193.000671 
	C195.089584,192.619431 193.934525,192.250198 192.868927,191.674286 
	C192.958374,191.467590 193.066208,191.029892 193.356308,190.909332 
	C194.524307,189.901642 195.402206,189.014511 196.574844,187.979950 
	C199.507675,185.189148 202.145767,182.545776 204.783875,179.902405 
z"/>
<path fill="#38C2DC" opacity="1.000000" stroke="none" 
	d="
M216.985031,160.994370 
	C216.548050,160.992264 216.111084,160.990173 215.343170,160.557648 
	C214.674637,157.751633 214.337006,155.376038 213.999390,153.000458 
	C213.999390,153.000458 214.000000,153.000000 214.001541,152.574814 
	C214.003082,150.128250 214.003082,148.106873 214.003082,144.636215 
	C213.066116,147.369629 212.621002,148.668137 212.077026,149.570343 
	C211.356079,146.116653 210.734024,143.059250 210.111969,140.001846 
	C210.967850,139.370605 211.823746,138.739349 212.654648,138.126526 
	C213.227051,139.151947 213.911743,140.378555 214.596451,141.605148 
	C214.978363,141.586761 215.360260,141.568375 215.742172,141.549973 
	C215.839310,139.576141 215.936432,137.602310 216.061493,135.189697 
	C220.753082,141.862274 219.980820,149.827515 219.404373,157.644669 
	C218.977646,155.228104 218.843430,152.882919 218.709213,150.537735 
	C218.134476,150.550262 217.559753,150.562790 216.985031,150.575317 
	C216.985031,154.048340 216.985031,157.521347 216.985031,160.994370 
M215.587677,144.516479 
	C215.587677,144.516479 215.479263,144.581406 215.587677,144.516479 
z"/>
<path fill="#54F6D5" opacity="1.000000" stroke="none" 
	d="
M166.000000,48.999844 
	C166.000000,47.700951 166.000000,46.402054 166.000000,45.247433 
	C164.516144,44.550980 163.252228,43.957760 161.910614,43.007595 
	C163.119492,40.181919 164.033020,37.380867 165.828491,35.365486 
	C166.957718,34.097923 169.409012,34.008144 171.267197,33.389992 
	C171.788773,35.300640 173.187149,37.514782 172.652374,39.059780 
	C171.481018,42.443813 169.329483,45.488571 167.033936,48.834061 
	C166.489594,48.996235 166.000000,49.000305 166.000000,49.000153 
	C166.000000,49.000000 166.000000,48.999844 166.000000,48.999844 
z"/>
<path fill="#47E0DA" opacity="1.000000" stroke="none" 
	d="
M192.723831,93.870010 
	C191.746185,93.905380 190.581619,94.294609 189.831833,93.898575 
	C188.488983,93.189270 186.928223,92.212440 186.372726,90.946327 
	C186.036682,90.180405 187.126694,88.250374 188.089767,87.557877 
	C190.585434,85.763351 193.365601,84.364502 196.455353,82.837921 
	C196.878494,82.868141 197.005447,83.005478 197.048889,83.322739 
	C197.723465,84.088600 198.354599,84.537209 198.992142,84.992195 
	C198.998550,84.998566 199.013199,85.013306 199.203125,85.262131 
	C201.115067,86.097443 202.515717,86.833565 200.986938,88.933807 
	C199.120667,89.823769 197.254395,90.713737 194.914047,91.885040 
	C193.867920,92.734261 193.295883,93.302132 192.723831,93.870010 
z"/>
<path fill="#2DBEE3" opacity="1.000000" stroke="none" 
	d="
M62.895203,82.885391 
	C65.400948,81.852928 67.911552,80.837807 71.317497,79.460670 
	C71.410110,79.946091 71.749977,81.727455 72.072266,84.057907 
	C72.054680,84.606995 72.061470,85.019859 71.737534,85.139343 
	C68.980133,87.578690 66.546661,89.898552 64.113197,92.218422 
	C62.462257,92.218422 60.811321,92.218422 58.820679,92.218422 
	C58.916882,91.313469 59.118298,89.418816 59.165539,87.285416 
	C59.768108,86.104309 60.524849,85.161942 61.810310,83.993225 
	C62.536938,83.477280 62.734844,83.187683 62.932751,82.898087 
	C62.932751,82.898087 62.900059,82.902725 62.895203,82.885391 
z"/>
<path fill="#5AE7DA" opacity="1.000000" stroke="none" 
	d="
M109.196030,24.524128 
	C110.127876,29.825602 110.957298,35.578812 111.845375,41.738880 
	C113.130936,41.528519 114.669327,41.276791 116.608513,41.008743 
	C117.053131,41.318459 117.215141,41.683712 117.122017,41.964279 
	C116.404411,44.126282 115.926674,46.463734 114.706436,48.303688 
	C114.348076,48.844044 110.930527,48.444664 110.496307,47.631550 
	C109.404922,45.587795 108.804993,43.071781 108.749214,40.727486 
	C108.624428,35.482643 108.950912,30.227070 109.196030,24.524128 
z"/>
<path fill="#46D9DE" opacity="1.000000" stroke="none" 
	d="
M54.647800,39.126495 
	C55.062389,37.174450 55.476978,35.222401 55.891567,33.270355 
	C57.664787,34.143669 59.861393,34.628952 61.105904,35.986832 
	C62.724003,37.752338 63.585506,40.211269 64.552658,42.937340 
	C63.625744,44.910961 62.918800,46.318996 62.046921,48.055546 
	C58.742153,45.498882 55.744843,43.309986 58.828053,38.664005 
	C57.195606,38.844616 55.921703,38.985554 54.647800,39.126495 
z"/>
<path fill="#41D4D8" opacity="1.000000" stroke="none" 
	d="
M54.722679,39.504150 
	C55.921703,38.985554 57.195606,38.844616 58.828053,38.664005 
	C55.744843,43.309986 58.742153,45.498882 62.046921,48.055546 
	C62.918800,46.318996 63.625744,44.910961 64.582329,43.287884 
	C65.527924,44.161125 66.223877,45.249413 66.714554,46.870918 
	C67.005173,49.601948 67.501060,51.799755 67.726845,54.095520 
	C66.306313,53.127052 65.155884,52.060627 63.969078,50.710693 
	C63.627071,50.106220 63.321438,49.785255 63.015800,49.464287 
	C62.833988,49.673504 62.652176,49.882721 62.470367,50.091942 
	C62.978313,50.396446 63.486256,50.700954 63.994896,51.438004 
	C63.988644,53.605240 63.981701,55.339939 63.974762,57.074635 
	C60.915691,51.343693 57.856625,45.612747 54.722679,39.504150 
z"/>
<path fill="#4FE7D9" opacity="1.000000" stroke="none" 
	d="
M201.324127,88.894768 
	C202.515717,86.833565 201.115067,86.097443 199.568405,85.252609 
	C204.257080,83.485245 201.358566,82.156876 199.641510,80.799698 
	C201.529068,79.560753 203.416626,78.321800 205.706177,77.401573 
	C208.569351,79.463730 208.798584,81.870209 208.134720,84.542007 
	C205.976913,85.979919 203.819107,87.417824 201.324127,88.894768 
z"/>
<path fill="#1B9DEF" opacity="1.000000" stroke="none" 
	d="
M197.013092,192.987259 
	C198.061859,191.712479 199.110611,190.437698 200.159378,189.162918 
	C200.618378,189.350006 201.077393,189.537094 201.536407,189.724182 
	C201.389664,190.997192 201.242905,192.270203 201.095734,193.895859 
	C199.963928,195.460632 198.832550,196.672775 197.395386,197.957779 
	C195.686783,199.206940 193.533707,194.840363 192.243774,198.826630 
	C191.999786,198.999771 191.992233,198.992218 191.992233,198.992218 
	C190.875366,197.747818 189.758499,196.503418 188.668396,194.976471 
	C188.695160,194.693924 188.764420,194.806656 189.033295,194.769028 
	C189.520813,194.457321 189.739441,194.183243 189.960297,193.950928 
	C189.962494,193.992691 189.905121,193.931824 190.247620,193.918060 
	C191.016510,193.445053 191.442902,192.985794 191.965912,192.353714 
	C192.262619,191.987930 192.501602,191.887970 192.779480,191.880981 
	C193.934525,192.250198 195.089584,192.619431 196.513641,193.259094 
	C196.594345,194.070618 196.406036,194.611694 196.217728,195.152786 
	C196.667435,195.139404 197.117157,195.126022 197.566879,195.112640 
	C197.382294,194.404190 197.197693,193.695724 197.013092,192.987259 
z"/>
<path fill="#42F3DA" opacity="1.000000" stroke="none" 
	d="
M208.493332,84.447754 
	C208.798584,81.870209 208.569351,79.463730 206.054138,77.382965 
	C208.046722,76.535011 210.093338,76.024391 212.126038,75.517235 
	C214.595444,80.068291 213.569214,82.942619 208.493332,84.447754 
z"/>
<path fill="#3DD1D2" opacity="1.000000" stroke="none" 
	d="
M67.996948,53.997559 
	C67.501060,51.799755 67.005173,49.601948 66.762352,47.198311 
	C68.543930,49.497311 70.343033,51.880802 71.534111,54.536949 
	C73.107895,58.046570 72.174500,60.370792 67.571472,59.760605 
	C69.012047,57.796719 71.566338,56.246670 67.996948,53.997559 
z"/>
<path fill="#43D0E3" opacity="1.000000" stroke="none" 
	d="
M67.726852,54.095520 
	C71.566338,56.246670 69.012047,57.796719 67.189751,59.718880 
	C66.025681,59.241123 65.046211,58.495888 64.020752,57.412643 
	C63.981701,55.339939 63.988644,53.605240 63.997795,51.435272 
	C64.000000,51.000000 64.005447,50.994202 64.005447,50.994202 
	C65.155884,52.060627 66.306313,53.127052 67.726852,54.095520 
z"/>
<path fill="#29B9E6" opacity="1.000000" stroke="none" 
	d="
M217.333939,160.997467 
	C216.985031,157.521347 216.985031,154.048340 216.985031,150.575317 
	C217.559753,150.562790 218.134476,150.550262 218.709213,150.537735 
	C218.843430,152.882919 218.977646,155.228104 219.212585,158.043518 
	C219.324814,159.148514 219.336304,159.783310 219.213043,160.712402 
	C218.613129,161.004684 218.147980,161.002625 217.333939,160.997467 
z"/>
<path fill="#E9F9F8" opacity="1.000000" stroke="none" 
	d="
M196.905640,93.274536 
	C201.249695,90.790230 201.069626,93.293770 200.723526,97.734856 
	C198.808182,95.737213 197.747849,94.631317 196.905640,93.274536 
z"/>
<path fill="#47E0DA" opacity="1.000000" stroke="none" 
	d="
M199.363144,80.893280 
	C201.358566,82.156876 204.257080,83.485245 199.378479,85.003784 
	C199.013199,85.013306 198.998550,84.998566 198.952972,84.674850 
	C198.273422,83.902588 197.639435,83.454033 197.005447,83.005478 
	C197.005447,83.005478 196.878494,82.868141 196.814514,82.799164 
	C197.528610,82.149071 198.306702,81.567963 199.363144,80.893280 
z"/>
<path fill="#45DBDB" opacity="1.000000" stroke="none" 
	d="
M100.728920,63.236786 
	C101.196869,64.028847 101.317116,64.781769 101.437355,65.534691 
	C100.099739,65.214912 98.762115,64.895134 97.219872,64.318512 
	C98.137238,63.773659 99.259224,63.485649 100.728920,63.236786 
z"/>
<path fill="#45DBDB" opacity="1.000000" stroke="none" 
	d="
M178.750214,98.746246 
	C177.154663,98.801872 175.256714,98.623123 173.197693,98.147644 
	C174.840363,98.071236 176.644089,98.291550 178.750214,98.746246 
z"/>
<path fill="#2AA6E8" opacity="1.000000" stroke="none" 
	d="
M211.566132,182.127731 
	C211.718369,181.274857 212.159668,180.275650 212.946014,179.184235 
	C212.812439,180.055161 212.333817,181.018280 211.566132,182.127731 
z"/>
<path fill="#1D8EF0" opacity="1.000000" stroke="none" 
	d="
M182.376678,205.042023 
	C181.400696,204.986435 180.626648,204.902649 179.852585,204.818863 
	C179.874542,204.590851 179.896500,204.362823 179.918457,204.134811 
	C180.791718,204.227005 181.664978,204.319183 182.750748,204.644928 
	C182.963257,204.878479 182.578598,205.013824 182.376678,205.042023 
z"/>
<path fill="#E9F9F8" opacity="1.000000" stroke="none" 
	d="
M193.059189,93.899658 
	C193.295883,93.302132 193.867920,92.734261 194.756500,92.199661 
	C194.513550,92.798409 193.954056,93.363861 193.059189,93.899658 
z"/>
<path fill="#29B9E6" opacity="1.000000" stroke="none" 
	d="
M217.935303,167.672424 
	C217.375977,167.653336 216.899796,167.307709 216.423615,166.962067 
	C216.764664,166.663696 217.105713,166.365341 217.742905,166.035461 
	C218.032181,166.451248 218.025314,166.898575 217.935303,167.672424 
z"/>
<path fill="#3CD0DD" opacity="1.000000" stroke="none" 
	d="
M77.351807,71.835419 
	C77.760841,72.121986 77.883476,72.452393 78.006104,72.782806 
	C77.444305,72.834961 76.882500,72.887115 75.995422,72.902237 
	C76.135231,72.536552 76.600319,72.207916 77.351807,71.835419 
z"/>
<path fill="#54F6D5" opacity="1.000000" stroke="none" 
	d="
M165.404327,51.135857 
	C165.291534,50.587944 165.390533,49.981255 165.744781,49.187202 
	C166.000000,48.999844 166.000000,49.000000 166.029633,49.352253 
	C166.089706,49.938091 166.120163,50.171680 166.150635,50.405270 
	C166.077087,50.712490 165.898926,50.936428 165.404327,51.135857 
z"/>
<path fill="#5AE7DA" opacity="1.000000" stroke="none" 
	d="
M109.812439,20.295841 
	C109.927956,20.658846 109.792671,21.135090 109.469971,21.776150 
	C109.375587,21.430336 109.468605,20.919708 109.812439,20.295841 
z"/>
<path fill="#1D7DF2" opacity="1.000000" stroke="none" 
	d="
M49.259140,208.766022 
	C49.244556,208.329178 49.506634,208.271179 49.898849,208.620605 
	C49.816746,208.797089 49.652348,208.836029 49.259140,208.766022 
z"/>
<path fill="#1D7DF2" opacity="1.000000" stroke="none" 
	d="
M120.258240,208.868988 
	C120.198502,208.431488 120.458435,208.337112 120.889030,208.662079 
	C120.981590,208.801071 120.499817,208.931763 120.258240,208.868988 
z"/>
<path fill="#55EDD8" opacity="1.000000" stroke="none" 
	d="
M166.354248,50.212448 
	C166.120163,50.171680 166.089706,49.938091 166.029633,49.352406 
	C166.000000,49.000305 166.489594,48.996235 166.734344,48.994907 
	C166.838669,49.335598 166.698257,49.677612 166.354248,50.212448 
z"/>
<path fill="#54F6D5" opacity="1.000000" stroke="none" 
	d="
M165.167114,51.809532 
	C164.922760,51.850288 164.731171,51.674263 164.539581,51.498241 
	C164.631927,51.398834 164.724274,51.299423 165.023438,51.173332 
	C165.230255,51.146645 165.219864,51.592747 165.167114,51.809532 
z"/>
<path fill="#3AC5DF" opacity="1.000000" stroke="none" 
	d="
M62.676186,82.980606 
	C62.734844,83.187683 62.536938,83.477280 62.083591,83.853058 
	C62.025307,83.647194 62.222466,83.355164 62.676186,82.980606 
z"/>
<path fill="#FEFEFF" opacity="1.000000" stroke="none" 
	d="
M72.061470,85.019859 
	C72.061470,85.019859 72.054680,84.606995 72.073868,84.401466 
	C72.446259,84.100906 72.799461,84.005875 73.839508,83.963837 
	C77.179268,84.612770 80.224876,86.874069 81.446243,81.981628 
	C81.623917,81.269890 83.627663,80.764137 84.843330,80.609032 
	C88.264801,80.172485 89.638573,78.398270 89.015579,75.031868 
	C89.015579,75.031868 89.005562,74.995537 89.367546,75.067780 
	C91.878334,76.183647 94.027145,77.227264 96.175957,78.270882 
	C96.429619,77.883018 96.683289,77.495163 96.936951,77.107307 
	C96.289375,75.724846 95.641800,74.342384 94.994225,72.959930 
	C98.800476,72.123405 102.606728,71.286880 106.762375,70.293999 
	C107.532585,70.159180 107.953400,70.180717 109.116638,70.157761 
	C111.901970,70.067444 113.944870,70.021629 115.987778,69.975815 
	C116.432739,70.045502 116.877708,70.115189 117.870941,70.170769 
	C118.419205,70.156670 118.854279,70.080421 118.854279,70.080421 
	C128.447327,72.025345 138.218018,73.930222 146.136993,79.968178 
	C152.508850,84.826523 158.021255,90.812088 163.933960,96.638802 
	C161.513947,97.164078 159.074982,97.348061 155.891510,97.728851 
	C149.046509,100.262634 142.945984,102.599602 136.509415,105.001297 
	C131.722092,108.992470 127.270805,112.918915 122.911690,116.864594 
	C123.003860,116.883827 122.829338,116.812691 122.551254,116.924400 
	C121.777168,117.653000 121.281166,118.269890 120.487671,119.046257 
	C117.854881,123.822571 115.519608,128.439423 112.998596,133.387985 
	C111.428085,139.672745 110.043312,145.625763 108.562187,151.992996 
	C112.083473,151.992996 114.643265,151.992996 116.689049,151.992996 
	C117.182671,148.931290 117.641014,146.088379 118.320587,142.976074 
	C118.703789,141.806717 118.865761,140.906754 119.014786,140.006058 
	C119.001854,140.005341 119.024597,140.025894 119.233597,139.739075 
	C121.643768,134.303589 123.844933,129.154938 126.152878,123.797417 
	C126.259659,123.588547 126.362930,123.130898 126.534973,123.138397 
	C126.707016,123.145905 127.002640,122.969185 127.306488,122.961037 
	C128.033020,122.304565 128.455704,121.656242 128.926636,121.005913 
	C128.974869,121.003906 128.965820,120.907761 129.281921,120.803741 
	C133.404343,117.478279 137.210663,114.256844 141.278183,110.982956 
	C141.760178,110.671539 141.980972,110.412567 142.217361,110.180153 
	C142.232956,110.206711 142.282974,110.242638 142.649231,110.199554 
	C150.007538,108.382820 156.999619,106.609177 163.991684,104.835533 
	C177.301910,105.002419 188.661758,109.851936 198.494171,119.255722 
	C199.066803,119.805969 199.342087,120.182991 200.033661,120.889458 
	C200.958099,121.828056 201.466232,122.437210 201.974350,123.046371 
	C204.635269,128.451111 207.296204,133.855835 210.034546,139.631210 
	C210.734024,143.059250 211.356079,146.116653 212.023819,149.949524 
	C212.130753,151.485367 212.192001,152.245758 212.253235,153.006134 
	C212.330688,162.473358 208.699905,170.921509 204.898117,179.628220 
	C202.145767,182.545776 199.507675,185.189148 196.192780,187.913513 
	C193.642258,187.303101 191.768539,186.611710 188.794739,185.514374 
	C190.413330,188.271667 191.202026,189.615219 191.731476,191.085938 
	C190.941696,191.760925 190.411209,192.308746 189.647125,192.727905 
	C187.946152,193.072800 186.478790,193.546341 184.834366,193.768204 
	C184.078232,193.356018 183.499161,193.195496 182.525757,193.032730 
	C180.427353,193.345169 178.723312,193.659851 176.793854,194.233078 
	C173.570206,194.104507 169.805283,192.414093 167.746948,193.624863 
	C164.357147,195.618881 161.305328,195.097870 157.666672,195.000519 
	C156.888901,195.000504 156.444443,195.000549 155.606506,194.993591 
	C151.063248,193.102585 147.065445,191.971695 142.618118,194.719711 
	C141.303406,195.532043 138.816742,194.575424 136.899033,194.244476 
	C135.318863,193.971786 133.788528,193.068756 132.231506,193.057068 
	C119.120583,192.958588 106.007751,193.080673 92.897530,192.942795 
	C89.788315,192.910110 88.627792,194.039078 88.531509,197.000381 
	C76.764755,197.000000 65.466354,197.041962 54.168930,196.955002 
	C52.443584,196.941742 50.722824,196.332413 48.958733,195.642929 
	C47.839161,192.715347 46.222729,192.199432 43.612442,193.999313 
	C41.482899,193.666153 39.740917,193.333694 37.570129,193.000458 
	C30.400537,193.812103 34.417770,187.656769 31.995537,185.177490 
	C31.155508,185.177490 29.927681,184.878769 28.930496,185.231705 
	C25.496832,186.446976 23.888071,186.016495 24.633558,181.800491 
	C25.101892,179.151871 24.957018,176.362518 24.832846,173.647919 
	C24.539333,167.231476 19.616087,169.326736 16.029842,168.996490 
	C15.889076,168.669235 15.748311,168.341965 15.742229,167.512817 
	C15.863808,166.663864 15.736886,166.365280 15.368355,165.767365 
	C15.253771,164.929123 15.266981,164.438660 15.519284,163.688324 
	C15.693234,161.204025 15.628091,158.979568 15.562948,156.755112 
	C15.657202,155.746338 15.751454,154.737564 16.387142,153.365082 
	C22.557829,152.968765 24.670170,151.311203 24.951246,146.264359 
	C25.144695,142.790939 24.949213,139.295883 24.927563,135.810486 
	C25.079271,135.511597 25.230980,135.212708 25.855267,135.145233 
	C31.376457,136.594894 36.102123,138.259048 38.618702,143.422379 
	C38.837559,143.871414 40.079697,143.821701 40.958916,144.384323 
	C41.373959,146.844757 41.676605,148.924515 41.700981,151.267593 
	C41.287426,155.926010 40.930618,160.328781 41.081932,164.714005 
	C41.220860,168.740128 45.665356,173.079178 50.028130,174.346344 
	C50.374687,175.794312 50.687038,176.897156 50.674778,178.044281 
	C50.234627,179.059631 50.119083,180.030701 50.003143,181.334229 
	C50.003040,182.109970 50.003326,182.553253 50.002457,183.247559 
	C50.001244,183.665909 50.001194,183.833267 50.183784,184.250946 
	C51.244217,184.334381 52.122017,184.167496 53.333527,184.000381 
	C54.112221,183.999542 54.557198,183.998932 55.327782,184.174911 
	C56.103275,186.232910 56.553169,188.114319 57.003277,190.388855 
	C58.245564,195.544678 60.229435,196.128922 64.900108,192.684158 
	C63.735283,192.409317 62.868786,192.204849 62.008602,191.638855 
	C63.061111,189.216278 64.107300,187.155197 65.568848,185.062286 
	C73.304977,184.933319 73.304977,184.933319 70.491508,176.875336 
	C68.416519,176.875336 66.263214,176.875336 64.130150,176.490128 
	C64.193924,173.712601 64.517212,171.282318 64.199051,168.939102 
	C63.905350,166.776031 62.923607,164.706406 61.930222,161.616928 
	C61.173012,161.396362 59.180500,160.815933 57.163109,160.228271 
	C56.706993,155.334381 56.275291,150.702499 55.721935,144.765274 
	C54.336697,143.773422 51.701138,141.886307 48.964252,139.659973 
	C48.627003,138.420670 48.391075,137.520599 48.247795,136.285721 
	C48.358570,134.564194 48.376705,133.177460 48.394836,131.790726 
	C48.740513,129.412598 49.086185,127.034477 50.002949,124.375656 
	C51.266224,125.410812 51.958408,126.726654 52.976921,128.662857 
	C53.528187,126.046379 53.337231,123.383171 54.559879,121.839920 
	C57.819092,117.726089 55.973938,114.898529 53.062889,111.995461 
	C53.514072,110.812241 53.965256,109.629013 55.009808,108.166016 
	C62.222332,100.830460 68.841492,93.774689 75.567619,86.604889 
	C74.398674,86.076439 73.230072,85.548149 72.061470,85.019859 
M185.525391,189.627823 
	C185.470901,189.840118 185.416412,190.052429 185.361923,190.264725 
	C185.495895,190.128296 185.629868,189.991852 185.525391,189.627823 
z"/>
<path fill="#FAFDFB" opacity="1.000000" stroke="none" 
	d="
M37.998932,193.001221 
	C39.740917,193.333694 41.482899,193.666153 43.683979,194.368225 
	C45.762032,195.158127 47.380989,195.578445 48.999943,195.998779 
	C50.722824,196.332413 52.443584,196.941742 54.168930,196.955002 
	C65.466354,197.041962 76.764755,197.000000 88.678955,197.293549 
	C90.528046,198.617584 91.761032,199.648209 92.994019,200.678833 
	C91.277924,200.755020 89.561829,200.831223 86.982887,200.912537 
	C83.743019,200.972214 81.365997,201.026779 78.988976,201.081329 
	C76.926094,201.008835 74.863220,200.936340 72.084312,200.567627 
	C69.253433,200.422470 67.138580,200.573502 65.023727,200.724548 
	C62.970989,200.764450 60.918255,200.804352 58.335297,200.644623 
	C57.462440,200.266541 57.195732,200.356552 57.004951,200.715027 
	C55.921490,200.749969 54.838032,200.784912 53.067451,200.520294 
	C51.165981,200.188889 49.951633,200.157059 48.737286,200.125244 
	C48.342163,200.117081 47.947041,200.108917 47.024723,199.746185 
	C45.808224,199.355911 45.118923,199.320221 44.429619,199.284531 
	C41.952999,198.456665 39.476379,197.628799 37.071129,196.349304 
	C37.427979,194.932190 37.713455,193.966705 37.998932,193.001221 
z"/>
<path fill="#FBFDFD" opacity="1.000000" stroke="none" 
	d="
M37.570129,193.000458 
	C37.713455,193.966705 37.427979,194.932190 36.806274,196.100586 
	C25.101030,190.964218 18.827143,181.691422 16.007534,169.382812 
	C19.616087,169.326736 24.539333,167.231476 24.832846,173.647919 
	C24.957018,176.362518 25.101892,179.151871 24.633558,181.800491 
	C23.888071,186.016495 25.496832,186.446976 28.930496,185.231705 
	C29.927681,184.878769 31.155508,185.177490 31.995537,185.177490 
	C34.417770,187.656769 30.400537,193.812103 37.570129,193.000458 
z"/>
<path fill="#0D7AEF" opacity="1.000000" stroke="none" 
	d="
M11.001343,169.409424 
	C11.746408,169.004684 12.490388,168.998825 13.605749,168.989349 
	C15.622964,171.829346 16.274271,174.250061 11.234225,174.747559 
	C11.147124,172.908783 11.073690,171.358536 11.001343,169.409424 
z"/>
<path fill="#0D7AEF" opacity="1.000000" stroke="none" 
	d="
M15.280191,163.948181 
	C15.266981,164.438660 15.253771,164.929123 15.262902,165.984238 
	C15.285244,166.548874 15.064964,166.978653 15.064964,166.978653 
	C14.886781,166.982040 14.708598,166.985428 14.263039,166.988602 
	C13.501762,164.810791 12.636820,162.636459 12.617453,160.454636 
	C12.597758,158.235947 13.411306,156.009872 14.980375,153.958298 
	C14.980375,154.758652 14.980375,155.559021 15.049677,157.131317 
	C15.172716,159.918228 15.226454,161.933197 15.280191,163.948181 
z"/>
<path fill="#DFEDF5" opacity="1.000000" stroke="none" 
	d="
M65.311882,200.813507 
	C67.138580,200.573502 69.253433,200.422470 71.645638,200.503967 
	C70.836838,200.834854 69.750694,200.933212 68.331421,201.074860 
	C67.198875,201.046265 66.399460,200.974365 65.311882,200.813507 
z"/>
<path fill="#DFEDF5" opacity="1.000000" stroke="none" 
	d="
M49.016678,200.367310 
	C49.951633,200.157059 51.165981,200.188889 52.667328,200.442749 
	C51.734905,200.646317 50.515491,200.627853 49.016678,200.367310 
z"/>
<path fill="#DFEDF5" opacity="1.000000" stroke="none" 
	d="
M44.696304,199.504822 
	C45.118923,199.320221 45.808224,199.355911 46.745792,199.641464 
	C46.317032,199.835907 45.640011,199.780502 44.696304,199.504822 
z"/>
<path fill="#FBFDFD" opacity="1.000000" stroke="none" 
	d="
M15.247873,167.129868 
	C15.064964,166.978653 15.285244,166.548874 15.390697,166.332001 
	C15.736886,166.365280 15.863808,166.663864 15.860950,167.261871 
	C15.844985,167.512848 15.430782,167.281082 15.247873,167.129868 
z"/>
<path fill="#DFEDF5" opacity="1.000000" stroke="none" 
	d="
M57.251846,200.786270 
	C57.195732,200.356552 57.462440,200.266541 57.899391,200.582062 
	C57.828716,200.765274 57.663731,200.811401 57.251846,200.786270 
z"/>
<path fill="#2DD6D9" opacity="1.000000" stroke="none" 
	d="
M106.887131,69.539833 
	C105.213295,69.877556 103.597809,69.877556 101.763420,69.877556 
	C102.957947,69.038406 103.924866,68.359154 104.946335,67.344482 
	C105.649071,67.740089 106.297272,68.471100 106.887131,69.539833 
z"/>
<path fill="#2DD6D9" opacity="1.000000" stroke="none" 
	d="
M119.231781,70.034119 
	C118.854279,70.080421 118.419205,70.156670 118.204437,70.105225 
	C119.535423,69.492714 121.081184,68.931664 122.626938,68.370605 
	C122.750542,68.909676 122.874153,69.448753 122.997757,69.987823 
	C121.868271,69.987823 120.738777,69.987823 119.231781,70.034119 
z"/>
<path fill="#2DD6D9" opacity="1.000000" stroke="none" 
	d="
M115.729645,69.697937 
	C113.944870,70.021629 111.901970,70.067444 109.422272,70.069580 
	C111.147491,69.823952 113.309502,69.622009 115.729645,69.697937 
z"/>
<path fill="#3ACBDF" opacity="1.000000" stroke="none" 
	d="
M163.948242,104.491547 
	C156.999619,106.609177 150.007538,108.382820 142.669128,109.860504 
	C142.784866,105.314140 139.080231,105.995171 136.845459,104.936569 
	C142.945984,102.599602 149.046509,100.262634 155.565857,97.948158 
	C159.280243,99.189095 162.521744,100.476852 163.948242,104.491547 
z"/>
<path fill="#FBFDFD" opacity="1.000000" stroke="none" 
	d="
M40.846523,144.003662 
	C40.079697,143.821701 38.837559,143.871414 38.618702,143.422379 
	C36.102123,138.259048 31.376457,136.594894 26.099218,135.063126 
	C27.760487,132.968185 29.650377,131.186768 31.996353,129.136017 
	C32.774086,128.726303 32.970734,128.484314 33.306217,128.058304 
	C33.787468,127.702866 34.004883,127.429878 34.265961,127.197960 
	C34.309620,127.239029 34.429008,127.228203 34.429008,127.228203 
	C34.963905,127.028427 35.498802,126.828651 36.222206,126.408485 
	C37.964230,126.241119 39.517738,126.294144 41.054520,127.060226 
	C41.051678,128.508011 41.065563,129.242752 41.079449,129.977478 
	C41.022449,130.429550 40.965450,130.881607 40.900841,132.101364 
	C40.950516,134.913391 41.007797,136.957733 40.997704,139.415283 
	C40.902397,141.220230 40.874462,142.611938 40.846523,144.003662 
z"/>
<path fill="#128FEE" opacity="1.000000" stroke="none" 
	d="
M40.958916,144.384323 
	C40.874462,142.611938 40.902397,141.220230 41.345589,139.349274 
	C43.175201,136.580627 44.589565,134.291229 46.003922,132.001831 
	C46.480862,131.283386 46.957806,130.564957 47.613457,129.577316 
	C47.811573,130.283539 47.963619,130.825531 48.255253,131.579132 
	C48.376705,133.177460 48.358570,134.564194 48.182716,136.695251 
	C48.282536,138.949036 48.540081,140.458481 48.881111,142.375153 
	C49.717567,146.821442 50.470543,150.860489 50.925842,155.101685 
	C49.939030,156.910233 49.249897,158.516632 48.560764,160.123047 
	C48.228725,155.216583 46.909817,150.803818 45.780907,146.342957 
	C45.520500,145.313995 45.910892,144.120316 46.100124,142.725311 
	C45.566303,141.742447 44.934166,141.036697 44.302025,140.330948 
	C43.867710,141.222870 43.433399,142.114792 43.048428,143.406830 
	C43.059422,146.874374 43.021072,149.941833 42.786057,152.803360 
	C42.386013,152.066391 42.182632,151.535339 41.979252,151.004288 
	C41.676605,148.924515 41.373959,146.844757 40.958916,144.384323 
z"/>
<path fill="#F2FBF9" opacity="1.000000" stroke="none" 
	d="
M52.857559,112.255600 
	C55.973938,114.898529 57.819092,117.726089 54.559879,121.839920 
	C53.337231,123.383171 53.528187,126.046379 52.976921,128.662857 
	C51.958408,126.726654 51.266224,125.410812 50.212303,124.038010 
	C50.271946,121.394371 50.693321,118.807686 51.204166,115.852966 
	C51.746498,114.495209 52.199364,113.505470 52.857559,112.255600 
z"/>
<path fill="#1C94EF" opacity="1.000000" stroke="none" 
	d="
M45.998306,131.663635 
	C44.589565,134.291229 43.175201,136.580627 41.412956,138.936050 
	C41.007797,136.957733 40.950516,134.913391 40.975361,132.437317 
	C41.989502,131.453934 42.867611,130.673767 43.873764,130.436401 
	C44.476612,130.294189 45.279633,131.000519 45.998306,131.663635 
z"/>
<path fill="#1C94EF" opacity="1.000000" stroke="none" 
	d="
M41.311096,129.802063 
	C41.065563,129.242752 41.051678,128.508011 41.129932,127.415726 
	C41.328964,127.914330 41.435856,128.770493 41.311096,129.802063 
z"/>
<path fill="#FBFDFD" opacity="1.000000" stroke="none" 
	d="
M24.638357,135.996140 
	C24.949213,139.295883 25.144695,142.790939 24.951246,146.264359 
	C24.670170,151.311203 22.557829,152.968765 16.501328,153.001740 
	C16.746542,150.662994 17.419003,148.323868 18.108421,145.621124 
	C20.199968,142.232269 22.274559,139.207031 24.638357,135.996140 
z"/>
<path fill="#25A2ED" opacity="1.000000" stroke="none" 
	d="
M33.042377,128.140747 
	C32.970734,128.484314 32.774086,128.726303 32.212059,128.890167 
	C32.632282,128.188416 33.292889,127.463219 34.191254,126.983109 
	C34.429008,127.228203 34.309620,127.239029 33.994659,127.257370 
	C33.467262,127.564064 33.254822,127.852402 33.042377,128.140747 
z"/>
<path fill="#FAFDFB" opacity="1.000000" stroke="none" 
	d="
M113.022179,201.087982 
	C109.651382,201.006393 106.280586,200.924805 102.545166,200.427704 
	C111.111572,194.856964 120.480690,196.741135 129.853439,198.205719 
	C131.501740,198.463303 133.242554,198.181107 134.936829,198.082626 
	C140.143692,197.779968 145.346985,197.373260 150.557434,197.249420 
	C151.014343,197.238556 151.513397,199.001526 151.978821,200.140091 
	C151.964767,200.339600 151.963806,200.739609 151.508881,200.805511 
	C143.709290,200.936935 136.364609,201.002426 129.019943,201.067932 
	C126.637367,201.013092 124.254791,200.958237 120.994507,200.919800 
	C117.751923,200.986816 115.387054,201.037399 113.022179,201.087982 
z"/>
<path fill="#0286EC" opacity="1.000000" stroke="none" 
	d="
M129.321533,201.352570 
	C136.364609,201.002426 143.709290,200.936935 151.955139,200.898438 
	C155.582428,200.861908 158.308533,200.798340 161.024445,200.815735 
	C161.014252,200.896683 160.979187,201.056061 160.979187,201.056061 
	C160.209885,201.371597 159.440582,201.687119 158.338379,202.006439 
	C148.544708,201.885880 139.083923,201.761536 129.321533,201.352570 
z"/>
<path fill="#007BF1" opacity="1.000000" stroke="none" 
	d="
M113.309433,201.359680 
	C115.387054,201.037399 117.751923,200.986816 120.555557,201.006134 
	C120.994316,201.076065 121.003349,201.540604 121.002747,201.772980 
	C118.533653,201.880676 116.065170,201.756027 113.309433,201.359680 
z"/>
<path fill="#40D3DE" opacity="1.000000" stroke="none" 
	d="
M201.982117,122.718521 
	C201.466232,122.437210 200.958099,121.828056 200.251099,120.987076 
	C200.530136,120.422142 201.008026,120.089050 201.485931,119.755951 
	C201.653915,120.634201 201.821884,121.512444 201.982117,122.718521 
z"/>
<path fill="#FBFDFD" opacity="1.000000" stroke="none" 
	d="
M15.519285,163.688324 
	C15.226454,161.933197 15.172716,159.918228 15.068027,157.473083 
	C15.017076,157.042938 15.283981,156.886688 15.423464,156.820892 
	C15.628091,158.979568 15.693234,161.204025 15.519285,163.688324 
z"/>
<path fill="#FBFDFD" opacity="1.000000" stroke="none" 
	d="
M151.992889,199.940582 
	C151.513397,199.001526 151.014343,197.238556 150.557434,197.249420 
	C145.346985,197.373260 140.143692,197.779968 134.936829,198.082626 
	C133.242554,198.181107 131.501740,198.463303 129.853439,198.205719 
	C120.480690,196.741135 111.111572,194.856964 102.093590,200.346466 
	C99.299072,200.733017 96.591515,200.785278 93.438995,200.758179 
	C91.761032,199.648209 90.528046,198.617584 89.147621,197.293793 
	C88.627792,194.039078 89.788315,192.910110 92.897530,192.942795 
	C106.007751,193.080673 119.120583,192.958588 132.231506,193.057068 
	C133.788528,193.068756 135.318863,193.971786 136.899033,194.244476 
	C138.816742,194.575424 141.303406,195.532043 142.618118,194.719711 
	C147.065445,191.971695 151.063248,193.102585 155.645142,195.292114 
	C156.484573,195.916595 156.891907,196.235519 157.299240,196.554428 
	C157.532837,196.036499 157.766418,195.518555 158.000000,195.000610 
	C161.305328,195.097870 164.357147,195.618881 167.746948,193.624863 
	C169.805283,192.414093 173.570206,194.104507 177.192688,194.237854 
	C179.517960,193.667709 181.219025,193.351349 182.920090,193.034973 
	C183.499161,193.195496 184.078232,193.356018 184.834839,194.102783 
	C185.016098,195.135666 185.019806,195.582260 185.023514,196.028870 
	C185.023514,196.028870 185.000000,196.000000 184.663452,195.993805 
	C183.578415,196.393509 182.829910,196.799408 182.081406,197.205292 
	C180.386200,197.839081 178.690994,198.472855 176.293549,199.062836 
	C174.730042,199.292130 173.868774,199.565216 173.007507,199.838303 
	C172.343277,199.963043 171.679031,200.087799 170.327423,200.122543 
	C168.769470,200.248077 167.898880,200.463608 167.028290,200.679123 
	C165.294998,200.743439 163.561707,200.807755 161.403809,200.964066 
	C160.979187,201.056061 161.014252,200.896683 160.699097,200.582993 
	C157.586929,200.159729 154.789902,200.050156 151.992889,199.940582 
z"/>
<path fill="#0C6FF6" opacity="1.000000" stroke="none" 
	d="
M79.001511,201.474442 
	C81.365997,201.026779 83.743019,200.972214 86.559708,200.992523 
	C86.999321,202.115341 86.999283,203.163269 86.998856,204.604065 
	C84.225662,204.237885 80.034508,207.097626 79.001511,201.474442 
z"/>
<path fill="#EDF9FA" opacity="1.000000" stroke="none" 
	d="
M71.737534,85.139343 
	C73.230072,85.548149 74.398674,86.076439 75.567619,86.604889 
	C68.841492,93.774689 62.222332,100.830460 55.231293,107.934860 
	C56.281212,105.024078 57.703014,102.064651 59.171097,98.692680 
	C59.217381,98.280128 59.114796,98.184860 59.407257,98.124214 
	C59.933247,97.744003 60.166771,97.424438 60.604195,96.995056 
	C61.051445,96.658943 61.163506,96.379913 61.144283,96.048172 
	C62.079433,94.968941 63.014587,93.889709 64.031464,92.514450 
	C66.546661,89.898552 68.980133,87.578690 71.737534,85.139343 
z"/>
<path fill="#2DBEE3" opacity="1.000000" stroke="none" 
	d="
M60.784893,96.036926 
	C61.163506,96.379913 61.051445,96.658943 60.307022,97.062027 
	C59.575562,97.554161 59.345181,97.869507 59.114796,98.184860 
	C59.114796,98.184860 59.217381,98.280128 59.212585,98.351250 
	C59.613689,97.623466 60.019596,96.824570 60.784893,96.036926 
z"/>
<path fill="#29B9E6" opacity="1.000000" stroke="none" 
	d="
M212.544250,153.003906 
	C212.192001,152.245758 212.130753,151.485367 212.122711,150.345825 
	C212.621002,148.668137 213.066116,147.369629 214.003082,144.636215 
	C214.003082,148.106873 214.003082,150.128250 214.001236,152.575134 
	C213.611343,153.000977 213.223282,153.001328 212.544250,153.003906 
z"/>
<path fill="#29B9E6" opacity="1.000000" stroke="none" 
	d="
M213.999176,153.429550 
	C214.337006,155.376038 214.674637,157.751633 215.015442,160.555206 
	C214.678757,158.608353 214.338867,156.233505 213.999176,153.429550 
z"/>
<path fill="#EEFAF9" opacity="1.000000" stroke="none" 
	d="
M88.708466,75.039917 
	C89.638573,78.398270 88.264801,80.172485 84.843330,80.609032 
	C83.627663,80.764137 81.623917,81.269890 81.446243,81.981628 
	C80.224876,86.874069 77.179268,84.612770 74.112442,83.935760 
	C76.673637,81.774857 79.648735,79.695007 83.123352,77.334099 
	C84.117554,76.778793 84.612244,76.504547 85.106934,76.230309 
	C85.106934,76.230309 85.586960,76.132111 86.053894,75.982338 
	C86.725304,75.581650 86.929779,75.330742 87.134247,75.079834 
	C87.134247,75.079826 87.117744,75.148590 87.149727,75.165512 
	C87.588257,75.137604 87.994804,75.092789 88.708466,75.039917 
z"/>
<path fill="#EEFAF9" opacity="1.000000" stroke="none" 
	d="
M94.627121,72.955963 
	C95.641800,74.342384 96.289375,75.724846 96.936951,77.107307 
	C96.683289,77.495163 96.429619,77.883018 96.175957,78.270882 
	C94.027145,77.227264 91.878334,76.183647 89.381882,75.080551 
	C90.776154,74.331383 92.518089,73.641685 94.627121,72.955963 
z"/>
<path fill="#45DBDB" opacity="1.000000" stroke="none" 
	d="
M104.998001,66.001549 
	C104.877113,65.861702 104.758232,65.720314 104.639351,65.578918 
	C104.723587,65.627602 104.807823,65.676285 104.947556,65.860489 
	C105.003052,65.996010 105.000000,66.000000 104.998001,66.001549 
z"/>
<path fill="#DFEDF5" opacity="1.000000" stroke="none" 
	d="
M173.374146,199.877686 
	C173.868774,199.565216 174.730042,199.292130 175.947693,199.085236 
	C176.304077,199.151413 176.142181,199.508942 176.044907,199.679367 
	C175.212006,199.872223 174.476395,199.894638 173.374146,199.877686 
z"/>
<path fill="#DFEDF5" opacity="1.000000" stroke="none" 
	d="
M167.352722,200.769135 
	C167.898880,200.463608 168.769470,200.248077 169.989059,200.102478 
	C170.338058,200.172394 170.146179,200.540665 169.813797,200.703476 
	C169.324478,200.924103 169.167526,200.981934 169.010574,201.039749 
	C168.566101,200.979538 168.121643,200.919342 167.352722,200.769135 
z"/>
<path fill="#0286EC" opacity="1.000000" stroke="none" 
	d="
M169.109344,201.200470 
	C169.167526,200.981934 169.324478,200.924103 169.730743,200.893768 
	C169.722748,201.067902 169.465424,201.214539 169.109344,201.200470 
z"/>
<path fill="#DFEDF5" opacity="1.000000" stroke="none" 
	d="
M185.340118,195.976135 
	C185.019806,195.582260 185.016098,195.135666 185.011902,194.354462 
	C186.478790,193.546341 187.946152,193.072800 189.710251,192.800018 
	C190.006973,193.000778 190.135101,193.139786 190.073837,193.336700 
	C190.012573,193.533615 189.905121,193.931824 189.905121,193.931824 
	C189.905121,193.931824 189.962494,193.992691 189.691681,193.998779 
	C189.202072,194.272125 188.983246,194.539398 188.764420,194.806656 
	C188.764420,194.806656 188.695160,194.693924 188.629974,194.676514 
	C187.595428,195.080536 186.626083,195.501968 185.340118,195.976135 
z"/>
<path fill="#1D8EF0" opacity="1.000000" stroke="none" 
	d="
M180.162933,201.669342 
	C181.293701,201.290527 182.638397,201.131958 183.983109,200.973404 
	C184.001343,201.278793 184.019577,201.584183 184.037827,201.889572 
	C182.817505,201.889572 181.597183,201.889572 180.162933,201.669342 
z"/>
<path fill="#1B9DEF" opacity="1.000000" stroke="none" 
	d="
M192.002502,199.003464 
	C191.218063,199.654282 190.430893,200.301407 189.321869,200.974274 
	C189.000000,201.000000 188.996948,200.997574 188.996948,200.997574 
	C189.759903,200.334076 190.522873,199.670578 191.639038,198.999649 
	C191.992233,198.992218 191.999786,198.999771 192.002502,199.003464 
z"/>
<path fill="#DFEDF5" opacity="1.000000" stroke="none" 
	d="
M182.411499,197.180344 
	C182.829910,196.799408 183.578415,196.393509 184.677429,196.006454 
	C184.265823,196.401993 183.503723,196.778687 182.411499,197.180344 
z"/>
<path fill="#1B9DEF" opacity="1.000000" stroke="none" 
	d="
M188.012161,202.009140 
	C187.660110,202.255188 187.309692,202.503830 186.945984,202.731216 
	C186.937561,202.736481 186.779282,202.502060 186.690918,202.379440 
	C186.964310,202.258728 187.237701,202.138016 187.755569,202.008667 
	C188.000031,202.000000 188.012161,202.009140 188.012161,202.009140 
z"/>
<path fill="#1B9DEF" opacity="1.000000" stroke="none" 
	d="
M187.995422,201.994019 
	C188.097534,201.668701 188.287094,201.410126 188.778229,201.104919 
	C188.996948,200.997574 189.000000,201.000000 189.001190,201.001526 
	C188.899918,201.323456 188.713867,201.584229 188.228210,201.897247 
	C188.012161,202.009140 188.000031,202.000000 187.995422,201.994019 
z"/>
<path fill="#3CD0DD" opacity="1.000000" stroke="none" 
	d="
M84.942825,75.968292 
	C84.612244,76.504547 84.117554,76.778793 83.330429,77.073517 
	C83.618233,76.631416 84.198471,76.168846 84.942825,75.968292 
z"/>
<path fill="#3CD0DD" opacity="1.000000" stroke="none" 
	d="
M86.898804,75.139320 
	C86.929779,75.330742 86.725304,75.581650 86.268822,75.864777 
	C86.144707,75.583138 86.360222,75.350410 86.898804,75.139320 
z"/>
<path fill="#F5FBF8" opacity="1.000000" stroke="none" 
	d="
M191.990738,190.958771 
	C191.202026,189.615219 190.413330,188.271667 188.794739,185.514374 
	C191.768539,186.611710 193.642258,187.303101 195.898041,188.060944 
	C195.402206,189.014511 194.524307,189.901642 193.087601,190.888474 
	C192.349442,190.978378 192.170090,190.968582 191.990738,190.958771 
z"/>
<path fill="#DFEDF5" opacity="1.000000" stroke="none" 
	d="
M191.731476,191.085938 
	C192.170090,190.968582 192.349442,190.978378 192.797501,191.009033 
	C193.066208,191.029892 192.958374,191.467590 192.868927,191.674286 
	C192.501602,191.887970 192.262619,191.987930 191.681580,192.472916 
	C190.912109,192.889893 190.523605,193.014832 190.135101,193.139771 
	C190.135101,193.139786 190.006973,193.000778 189.943848,192.928680 
	C190.411209,192.308746 190.941696,191.760925 191.731476,191.085938 
z"/>
<path fill="#3ECDDF" opacity="1.000000" stroke="none" 
	d="
M215.533478,144.548950 
	C215.479263,144.581406 215.587677,144.516479 215.533478,144.548950 
z"/>
<path fill="#4FE7D9" opacity="1.000000" stroke="none" 
	d="
M197.048889,83.322739 
	C197.639435,83.454033 198.273422,83.902588 198.946564,84.668488 
	C198.354599,84.537209 197.723465,84.088600 197.048889,83.322739 
z"/>
<path fill="#43D0E3" opacity="1.000000" stroke="none" 
	d="
M63.997101,51.002731 
	C63.486256,50.700954 62.978313,50.396446 62.470367,50.091942 
	C62.652176,49.882721 62.833988,49.673504 63.015800,49.464287 
	C63.321438,49.785255 63.627071,50.106220 63.969078,50.710693 
	C64.005447,50.994202 64.000000,51.000000 63.997101,51.002731 
z"/>
<path fill="#2AA6E8" opacity="1.000000" stroke="none" 
	d="
M197.006012,192.994019 
	C197.197693,193.695724 197.382294,194.404190 197.566879,195.112640 
	C197.117157,195.126022 196.667435,195.139404 196.217728,195.152786 
	C196.406036,194.611694 196.594345,194.070618 196.882568,193.271118 
	C196.982468,193.012695 196.998932,193.000763 197.006012,192.994019 
z"/>
<path fill="#1F98E9" opacity="1.000000" stroke="none" 
	d="
M190.073837,193.336700 
	C190.523605,193.014832 190.912109,192.889893 191.584961,192.645752 
	C191.442902,192.985794 191.016510,193.445053 190.247620,193.918060 
	C189.905121,193.931824 190.012573,193.533615 190.073837,193.336700 
z"/>
<path fill="#1F98E9" opacity="1.000000" stroke="none" 
	d="
M189.033295,194.769028 
	C188.983246,194.539398 189.202072,194.272125 189.689484,193.957001 
	C189.739441,194.183243 189.520813,194.457321 189.033295,194.769028 
z"/>
<path fill="#FBFDFD" opacity="1.000000" stroke="none" 
	d="
M51.223518,154.899536 
	C50.470543,150.860489 49.717567,146.821442 48.943733,142.049225 
	C48.970444,140.877106 49.018009,140.438156 49.065575,139.999207 
	C51.701138,141.886307 54.336697,143.773422 55.721935,144.765274 
	C56.275291,150.702499 56.706993,155.334381 57.163109,160.228271 
	C59.180500,160.815933 61.173012,161.396362 61.930222,161.616928 
	C62.923607,164.706406 63.905350,166.776031 64.199051,168.939102 
	C64.517212,171.282318 64.193924,173.712601 64.094391,176.530701 
	C64.038391,176.956467 63.963455,177.034470 63.657112,176.891022 
	C60.544739,172.509171 57.738705,168.270752 54.887619,163.676422 
	C53.636223,160.513504 52.429871,157.706528 51.223518,154.899536 
z"/>
<path fill="#2BB2E7" opacity="1.000000" stroke="none" 
	d="
M113.184334,133.056259 
	C115.519608,128.439423 117.854881,123.822571 120.783218,119.229294 
	C121.796593,120.583221 122.216911,121.913605 122.637230,123.243980 
	C123.421082,122.540077 124.204933,121.836174 124.988792,121.132271 
	C124.268974,119.692406 123.549156,118.252548 122.829338,116.812691 
	C122.829338,116.812691 123.003860,116.883827 123.282036,116.914429 
	C125.362083,118.265938 127.163948,119.586853 128.965820,120.907761 
	C128.965820,120.907761 128.974869,121.003906 128.676208,121.126862 
	C127.919235,121.822945 127.460938,122.396065 127.002640,122.969185 
	C127.002640,122.969185 126.707016,123.145905 126.326996,123.152679 
	C125.833702,123.234467 125.720428,123.309479 125.607162,123.384483 
	C125.753471,123.591751 125.899780,123.799019 126.046097,124.006287 
	C123.844933,129.154938 121.643768,134.303589 119.030159,139.477875 
	C117.746880,138.670593 116.876038,137.837708 116.370728,136.931183 
	C117.089951,134.888153 117.443626,132.918747 117.797302,130.949341 
	C117.373611,130.927872 116.949921,130.906403 116.526230,130.884933 
	C116.349136,132.921448 116.172043,134.957977 115.716576,137.128540 
	C114.906876,138.065018 114.375557,138.867477 113.554497,140.107529 
	C113.395576,137.080246 113.289955,135.068253 113.184334,133.056259 
M121.024933,123.345268 
	C120.687950,123.893143 120.350960,124.441017 120.013977,124.988892 
	C120.236526,125.104996 120.459084,125.221100 120.681641,125.337204 
	C120.917519,124.782333 121.153397,124.227463 121.024933,123.345268 
z"/>
<path fill="#33BEE2" opacity="1.000000" stroke="none" 
	d="
M129.281921,120.803741 
	C127.163948,119.586853 125.362083,118.265938 123.189865,116.895195 
	C127.270805,112.918915 131.722092,108.992470 136.509415,105.001297 
	C139.080231,105.995171 142.784866,105.314140 142.302872,109.903595 
	C142.282974,110.242638 142.232956,110.206711 141.955109,110.225510 
	C141.457169,110.508003 141.237076,110.771698 141.016983,111.035400 
	C137.210663,114.256844 133.404343,117.478279 129.281921,120.803741 
M138.563782,110.294937 
	C138.293274,110.011559 138.025208,109.725517 137.738373,109.459755 
	C137.731049,109.452988 137.517410,109.668907 137.400009,109.780975 
	C137.670853,110.064369 137.941681,110.347763 138.563782,110.294937 
z"/>
<path fill="#22A6EA" opacity="1.000000" stroke="none" 
	d="
M116.005188,137.004822 
	C116.876038,137.837708 117.746880,138.670593 118.821159,139.764694 
	C119.024597,140.025894 119.001854,140.005341 118.735786,140.228546 
	C118.346268,141.382980 118.222816,142.314224 118.099365,143.245453 
	C117.641014,146.088379 117.182671,148.931290 116.689049,151.992996 
	C114.643265,151.992996 112.083473,151.992996 108.562187,151.992996 
	C110.043312,145.625763 111.428085,139.672745 112.998596,133.387985 
	C113.289955,135.068253 113.395576,137.080246 113.554497,140.107529 
	C114.375557,138.867477 114.906876,138.065018 115.719101,137.131287 
	C116.000000,137.000000 116.005188,137.004822 116.005188,137.004822 
z"/>
<path fill="#FBFDFD" opacity="1.000000" stroke="none" 
	d="
M41.700981,151.267593 
	C42.182632,151.535339 42.386013,152.066391 42.782768,153.185059 
	C43.947456,156.528305 44.918766,159.283951 45.893772,162.351135 
	C46.205940,163.173584 46.514412,163.684494 46.826927,164.141785 
	C46.830978,164.088181 46.732750,164.131882 46.758324,164.479324 
	C47.215542,165.879181 47.647182,166.931580 48.059883,168.235504 
	C48.300526,168.680786 48.560108,168.874557 48.910210,169.371643 
	C49.418549,170.630249 49.836361,171.585541 50.179905,172.904297 
	C50.068398,173.512253 50.031162,173.756744 49.993931,174.001221 
	C45.665356,173.079178 41.220860,168.740128 41.081932,164.714005 
	C40.930618,160.328781 41.287426,155.926010 41.700981,151.267593 
z"/>
<path fill="#F2F9F8" opacity="1.000000" stroke="none" 
	d="
M50.028130,174.346344 
	C50.031162,173.756744 50.068398,173.512253 50.448692,173.129166 
	C54.287266,177.812195 57.782787,182.633804 61.170029,187.306061 
	C62.968697,186.187515 63.962112,185.569748 65.008575,184.982559 
	C65.061615,185.013138 65.153496,185.094131 65.153496,185.094131 
	C64.107300,187.155197 63.061111,189.216278 61.697861,191.487091 
	C59.921555,191.129791 58.462307,190.562759 57.003059,189.995728 
	C56.553169,188.114319 56.103275,186.232910 55.176231,183.876770 
	C53.133930,183.266861 51.568771,183.131699 50.003616,182.996536 
	C50.003326,182.553253 50.003040,182.109970 50.265099,181.128098 
	C50.684761,179.726334 50.842075,178.863174 50.999390,178.000000 
	C50.687038,176.897156 50.374687,175.794312 50.028130,174.346344 
z"/>
<path fill="#FBFDFD" opacity="1.000000" stroke="none" 
	d="
M64.074150,176.915894 
	C66.263214,176.875336 68.416519,176.875336 70.491508,176.875336 
	C73.304977,184.933319 73.304977,184.933319 65.568848,185.062286 
	C65.153496,185.094131 65.061615,185.013138 65.151962,184.661316 
	C69.701454,181.025696 64.369110,179.463104 63.963455,177.034470 
	C63.963455,177.034470 64.038391,176.956467 64.074150,176.915894 
z"/>
<path fill="#FBFDFD" opacity="1.000000" stroke="none" 
	d="
M57.003273,190.388855 
	C58.462307,190.562759 59.921555,191.129791 61.691544,191.848602 
	C62.868786,192.204849 63.735283,192.409317 64.900108,192.684158 
	C60.229435,196.128922 58.245564,195.544678 57.003273,190.388855 
z"/>
<path fill="#FBFDFD" opacity="1.000000" stroke="none" 
	d="
M48.958733,195.642929 
	C47.380989,195.578445 45.762032,195.158127 44.071537,194.368896 
	C46.222729,192.199432 47.839161,192.715347 48.958733,195.642929 
z"/>
<path fill="#33BEE2" opacity="1.000000" stroke="none" 
	d="
M122.551254,116.924400 
	C123.549156,118.252548 124.268974,119.692406 124.988792,121.132271 
	C124.204933,121.836174 123.421082,122.540077 122.637230,123.243980 
	C122.216911,121.913605 121.796593,120.583221 121.080727,119.069809 
	C121.281166,118.269890 121.777168,117.653000 122.551254,116.924400 
z"/>
<path fill="#FBFDFD" opacity="1.000000" stroke="none" 
	d="
M50.002457,183.247559 
	C51.568771,183.131699 53.133930,183.266861 54.850632,183.700180 
	C54.557198,183.998932 54.112221,183.999542 52.958687,184.000015 
	C51.500469,184.000122 50.750809,184.000366 50.001148,184.000610 
	C50.001194,183.833267 50.001244,183.665909 50.002457,183.247559 
z"/>
<path fill="#FBFDFD" opacity="1.000000" stroke="none" 
	d="
M50.674782,178.044281 
	C50.842075,178.863174 50.684761,179.726334 50.265495,180.795624 
	C50.119083,180.030701 50.234627,179.059631 50.674782,178.044281 
z"/>
<path fill="#DFEDF5" opacity="1.000000" stroke="none" 
	d="
M182.525757,193.032730 
	C181.219025,193.351349 179.517960,193.667709 177.418076,193.979309 
	C178.723312,193.659851 180.427353,193.345169 182.525757,193.032730 
z"/>
<path fill="#25A2ED" opacity="1.000000" stroke="none" 
	d="
M48.964252,139.659973 
	C49.018009,140.438156 48.970444,140.877106 48.860252,141.641998 
	C48.540081,140.458481 48.282536,138.949036 48.090073,137.030060 
	C48.391075,137.520599 48.627003,138.420670 48.964252,139.659973 
z"/>
<path fill="#FAFDFB" opacity="1.000000" stroke="none" 
	d="
M157.666672,195.000519 
	C157.766418,195.518555 157.532837,196.036499 157.299240,196.554428 
	C156.891907,196.235519 156.484573,195.916595 156.038635,195.299133 
	C156.444443,195.000549 156.888901,195.000504 157.666672,195.000519 
z"/>
<path fill="#2BB2E7" opacity="1.000000" stroke="none" 
	d="
M118.320587,142.976074 
	C118.222816,142.314224 118.346268,141.382980 118.748718,140.229263 
	C118.865761,140.906754 118.703789,141.806717 118.320587,142.976074 
z"/>
<path fill="#33BEE2" opacity="1.000000" stroke="none" 
	d="
M127.306488,122.961037 
	C127.460938,122.396065 127.919235,121.822945 128.627960,121.128876 
	C128.455704,121.656242 128.033020,122.304565 127.306488,122.961037 
z"/>
<path fill="#F2F9F8" opacity="1.000000" stroke="none" 
	d="
M50.183784,184.250946 
	C50.750809,184.000366 51.500469,184.000122 52.624969,184.000244 
	C52.122017,184.167496 51.244217,184.334381 50.183784,184.250946 
z"/>
<path fill="#F5FBF8" opacity="1.000000" stroke="none" 
	d="
M185.644623,189.741608 
	C185.629868,189.991852 185.495895,190.128296 185.361923,190.264725 
	C185.416412,190.052429 185.470901,189.840118 185.644623,189.741608 
z"/>
<path fill="#33BEE2" opacity="1.000000" stroke="none" 
	d="
M126.152878,123.797417 
	C125.899780,123.799019 125.753471,123.591751 125.607162,123.384483 
	C125.720428,123.309479 125.833702,123.234467 126.154953,123.145180 
	C126.362930,123.130898 126.259659,123.588547 126.152878,123.797417 
z"/>
<path fill="#3ACBDF" opacity="1.000000" stroke="none" 
	d="
M141.278183,110.982956 
	C141.237076,110.771698 141.457169,110.508003 141.939514,110.198952 
	C141.980972,110.412567 141.760178,110.671539 141.278183,110.982956 
z"/>
<path fill="#2195EB" opacity="1.000000" stroke="none" 
	d="
M33.306217,128.058304 
	C33.254822,127.852402 33.467262,127.564064 33.951000,127.216309 
	C34.004883,127.429878 33.787468,127.702866 33.306217,128.058304 
z"/>
<path fill="#198BF2" opacity="1.000000" stroke="none" 
	d="
M45.890076,162.039581 
	C44.918766,159.283951 43.947456,156.528305 42.979435,153.390976 
	C43.021072,149.941833 43.059422,146.874374 43.423767,143.405121 
	C44.500443,143.003036 45.251122,143.002747 46.001804,143.002441 
	C45.910892,144.120316 45.520500,145.313995 45.780907,146.342957 
	C46.909817,150.803818 48.228725,155.216583 48.560764,160.123047 
	C49.249897,158.516632 49.939030,156.910233 50.925842,155.101685 
	C52.429871,157.706528 53.636223,160.513504 54.709930,163.857773 
	C52.658089,165.952820 50.738888,167.510574 48.819687,169.068344 
	C48.560108,168.874557 48.300526,168.680786 48.320663,168.108521 
	C47.977840,166.530640 47.355293,165.331268 46.732750,164.131882 
	C46.732750,164.131882 46.830978,164.088181 46.860718,163.815872 
	C46.556995,163.042236 46.223534,162.540909 45.890076,162.039581 
M46.487171,154.780579 
	C46.764240,154.435516 47.041313,154.090454 47.318382,153.745392 
	C47.109249,153.634537 46.900120,153.523682 46.690987,153.412827 
	C46.460629,153.941879 46.230274,154.470947 45.530552,155.339203 
	C45.494358,155.875916 45.458164,156.412628 45.421970,156.949356 
	C45.579155,156.951477 45.736336,156.953613 45.893520,156.955750 
	C45.929012,156.303833 45.964504,155.651917 46.487171,154.780579 
z"/>
<path fill="#1C94EF" opacity="1.000000" stroke="none" 
	d="
M46.100124,142.725311 
	C45.251122,143.002747 44.500443,143.003036 43.374420,143.005020 
	C43.433399,142.114792 43.867710,141.222870 44.302025,140.330948 
	C44.934166,141.036697 45.566303,141.742447 46.100124,142.725311 
z"/>
<path fill="#DFEDF5" opacity="1.000000" stroke="none" 
	d="
M151.978821,200.140091 
	C154.789902,200.050156 157.586929,200.159729 160.709290,200.502045 
	C158.308533,200.798340 155.582428,200.861908 152.410065,200.832535 
	C151.963806,200.739609 151.964767,200.339600 151.978821,200.140091 
z"/>
<path fill="#2DB0E5" opacity="1.000000" stroke="none" 
	d="
M59.407257,98.124214 
	C59.345181,97.869507 59.575562,97.554161 60.103119,97.171837 
	C60.166771,97.424438 59.933247,97.744003 59.407257,98.124214 
z"/>
<path fill="#1683F0" opacity="1.000000" stroke="none" 
	d="
M48.910210,169.371643 
	C50.738888,167.510574 52.658089,165.952820 54.754978,164.213684 
	C57.738705,168.270752 60.544739,172.509171 63.657112,176.891022 
	C64.369110,179.463104 69.701454,181.025696 65.098923,184.630737 
	C63.962112,185.569748 62.968697,186.187515 61.170029,187.306061 
	C57.782787,182.633804 54.287266,177.812195 50.522961,172.765717 
	C49.836361,171.585541 49.418549,170.630249 48.910210,169.371643 
M53.517624,169.413895 
	C53.517624,169.413895 53.581905,169.522507 53.517624,169.413895 
z"/>
<path fill="#22A6EA" opacity="1.000000" stroke="none" 
	d="
M115.997475,136.997253 
	C116.172043,134.957977 116.349136,132.921448 116.526230,130.884933 
	C116.949921,130.906403 117.373611,130.927872 117.797302,130.949341 
	C117.443626,132.918747 117.089951,134.888153 116.370728,136.931183 
	C116.005188,137.004822 116.000000,137.000000 115.997475,136.997253 
z"/>
<path fill="#33BEE2" opacity="1.000000" stroke="none" 
	d="
M121.207108,123.508926 
	C121.153397,124.227463 120.917519,124.782333 120.681641,125.337204 
	C120.459084,125.221100 120.236526,125.104996 120.013977,124.988892 
	C120.350960,124.441017 120.687950,123.893143 121.207108,123.508926 
z"/>
<path fill="#3ACBDF" opacity="1.000000" stroke="none" 
	d="
M138.388153,110.463043 
	C137.941681,110.347763 137.670853,110.064369 137.400009,109.780975 
	C137.517410,109.668907 137.731049,109.452988 137.738373,109.459755 
	C138.025208,109.725517 138.293274,110.011559 138.388153,110.463043 
z"/>
<path fill="#1683F0" opacity="1.000000" stroke="none" 
	d="
M46.758324,164.479324 
	C47.355293,165.331268 47.977840,166.530640 48.339607,167.857010 
	C47.647182,166.931580 47.215542,165.879181 46.758324,164.479324 
z"/>
<path fill="#1683F0" opacity="1.000000" stroke="none" 
	d="
M45.893772,162.351135 
	C46.223534,162.540909 46.556995,163.042236 46.856667,163.869476 
	C46.514412,163.684494 46.205940,163.173584 45.893772,162.351135 
z"/>
<path fill="#128FEE" opacity="1.000000" stroke="none" 
	d="
M45.999916,155.000000 
	C46.230274,154.470947 46.460629,153.941879 46.690987,153.412827 
	C46.900120,153.523682 47.109249,153.634537 47.318382,153.745392 
	C47.041313,154.090454 46.764240,154.435516 46.243584,154.890289 
	C46.000000,155.000000 45.999916,155.000000 45.999916,155.000000 
z"/>
<path fill="#1C94EF" opacity="1.000000" stroke="none" 
	d="
M46.000000,155.000000 
	C45.964504,155.651917 45.929012,156.303833 45.893520,156.955750 
	C45.736336,156.953613 45.579155,156.951477 45.421970,156.949356 
	C45.458164,156.412628 45.494358,155.875916 45.765236,155.169601 
	C45.999916,155.000000 46.000000,155.000000 46.000000,155.000000 
z"/>
<path fill="#198BF2" opacity="1.000000" stroke="none" 
	d="
M53.549767,169.468201 
	C53.581905,169.522507 53.517624,169.413895 53.549767,169.468201 
z"/>
</svg>